/* XPM */
static char *result[] = {
/* columns rows colors chars-per-pixel */
"64 64 23 1 ",
"  c #4C3941",
". c #4C3A41",
"X c #4C3A42",
"o c #4D3A42",
"O c #4D3B42",
"+ c #4D3B43",
"@ c #4E3B43",
"# c #4D3C43",
"$ c #4E3C43",
"% c #4E3C44",
"& c #4F3C44",
"* c #4E3D44",
"= c #4F3D44",
"- c #4F3D45",
"; c #4F3E45",
": c #503E45",
"> c #503E46",
", c #503F46",
"< c #513F46",
"1 c #513F47",
"2 c #504046",
"3 c #514047",
"4 c #514147",
/* pixels */
"3333333333333333333333333333333333333333333333333333333333333333",
"3333333333333333333333333333333333333333333333333333333333333333",
"3333333333333333333333333333333333333333333333333333333333333333",
"3333333333333333333333333333333333333333333333333334333333333333",
"3333333333333333333333333333333333333333333333333333333333333333",
"33333333333333333333333333333333333333333333333331,,,<3333333333",
"3333333333333333333333333333333333333333333333331>-==:,333333333",
"333333333333333333333443333333333333333333333333,-$+#&,134333333",
"333333333333333333333333333333333333333333333333>%o .@;134333333",
"333333333333333333333113333333333333333333333333>%o .@;134333333",
"3333333333333333333,:;;>,33333333333333333333333>-@OO&;134333333",
"333333333333333333,:%@@*>,34333333333333333333331>-==:,333333333",
"333333333333333333,=o..+-,343333333333333333333331,,,<3333333333",
"333333333333333333,=o  +-,34333333333333333333333333333333333333",
"333333333333333333,=@oo%-,34333333333333333333333334333333333333",
"333333333333333333,:=%%->,34333333333333333333333333333333333333",
"3333333333333333333<,>>,1333333333333333333333333333333333333333",
"3333333333333333333333333333333333333333333333333333333333333333",
"3333333333333333333333333333333333333333333333333333333333333333",
"3333333333333333333333333333333333333333333333333333333333333333",
"3333333333333333333333333333333333333333333333333333333333333333",
"3333333333333333333333333333333333333333333333333333333333333333",
"3333333333333333333333333333333333333333333333333333333333333333",
"3333333333333333333333333333333333333333333333333333333333333333",
"3333333333333333333333333333333333333344333333333333333333333333",
"3333333333333333333333333333333333333333333333333333333333333333",
"3333333333333333333333333333333333333333333333333333333333333333",
"333333333333333333333333333333333333,:;;>,3333333333333333333333",
"33333333333333333333333333333333343,:*@@*>,343333333333333333333",
"33333333333333333333333333333333343,=OXX+-,343333333333333333333",
"33333333333333333333333333333333343,=O  +-,343333333333333333333",
"33333333333333333333333333333333343,=$oo%-,343333333333333333333",
"33333333333333333333333333333333343,:=%%->,343333333333333333333",
"333333333333333333333443333333333333<,>>,13333333333333333333333",
"3333333333333333333333333333333333333333333333333333333333333333",
"3333333333333333333<,,,,1333333333333333333333333333333333333333",
"3333333333333333333,-==;,333333333333333333333333333333333333333",
"333333333333333333,;@OO%;,34333333333333333333343333333333333333",
"333333333333333333,=o  +-,34333333333333333333333333333333333333",
"333333333333333333,=o  +-,34333333333333333333<,<333333333333333",
"3333333333333333332:$++%>,343333333333333333,:;-;:<3333333333333",
"3333333333333333343,:--;,3333333333333333433,=$+$=,3333333333333",
"333333333333333333331,,133333333333333333433;$o o$:3333333333333",
"33333333333333333333333333333333333333333433;$o o$:3333333333333",
"33333333333333<,:;>,344433333333333333333433;=@o@=:3333333333333",
"33333333333333,=%$&;,33433333333333333333333,:-=-:<3333333333333",
"33333333333333:$+o+$;334333333333333333333333,,,,,33333333333333",
"33333333333333:$o o$;3343333333333333333333333333333333333333333",
"33333333333333:*@o@*;3343333333333333333333333333333333333333333",
"33333333333333,;&$&;,3343333333333333333333333333333333333333333",
"33333333333333<,>:>,,3333333333333333333333333333333333333333333",
"3333333333333333333333333333333333333333333333333333333333333333",
"3333333333333333333333333333333333333333333333333333333333333333",
"3333333333333333333333333333333333333333333333333333333333333333",
"3333333333333333333333333333333333333333333333333333333333333333",
"3333333333333333333333333333333333333333333333333333333333333333",
"3333333333333333333333333333333333333333333333333333333333333333",
"3333333333333333333333333333333333333333333333333333333333333333",
"3333333333333333333333333333333333333333333333333333333333333333",
"3333333333333333333333333333333333333333333333333333333333333333",
"3333333333333333333333333333333333333333333333333333333333333333",
"3333333333333333333333333333333333333333333333333333333333333333",
"3333333333333333333333333333333333333333333333333333333333333333",
"3333333333333333333333333333333333333333333333333333333333333333"
};
