/* XPM */
static char *result[] = {
/* columns rows colors chars-per-pixel */
"64 64 173 2 ",
"   c #4C234B",
".  c #4B244A",
"X  c #4B244B",
"o  c #4C244B",
"O  c #4E254D",
"+  c #512751",
"@  c #542853",
"#  c #562955",
"$  c #572955",
"%  c #5A2A57",
"&  c #5A2B59",
"*  c #5C2D5A",
"=  c #5C2C5B",
"-  c #5D2F5A",
";  c #5D2D5D",
":  c #602E60",
">  c #612F61",
",  c #622F61",
"<  c #653063",
"1  c #653363",
"2  c #663563",
"3  c #633064",
"4  c #663164",
"5  c #653265",
"6  c #683165",
"7  c #693766",
"8  c #693767",
"9  c #693B65",
"0  c #6C3F67",
"q  c #683268",
"w  c #6D346B",
"e  c #6B346C",
"r  c #6E366D",
"t  c #6B3968",
"y  c #6C3969",
"u  c #6C3B69",
"i  c #6E3F6A",
"p  c #70356D",
"a  c #733771",
"s  c #753773",
"d  c #743D70",
"f  c #753F71",
"g  c #763976",
"h  c #773B78",
"j  c #793A78",
"k  c #7C3C7C",
"l  c #7F3D7E",
"z  c #6F416A",
"x  c #774372",
"c  c #7D4079",
"v  c #7D427B",
"b  c #7E447B",
"n  c #80467A",
"m  c #83437F",
"M  c #82477D",
"N  c #803F83",
"B  c #854680",
"V  c #864781",
"C  c #854084",
"Z  c #874285",
"A  c #884684",
"S  c #8B4787",
"D  c #884B82",
"F  c #844088",
"G  c #89438B",
"H  c #8C448E",
"J  c #8E458F",
"K  c #8D4A88",
"L  c #8E4C89",
"P  c #904F8A",
"I  c #904790",
"U  c #914793",
"Y  c #964F93",
"T  c #924896",
"R  c #954999",
"E  c #984F99",
"W  c #9A4C9E",
"Q  c #985791",
"!  c #9A5495",
"~  c #9A5695",
"^  c #9C5696",
"/  c #9B5995",
"(  c #9B509C",
")  c #A15C9A",
"_  c #A16A96",
"`  c #A26199",
"'  c #A3639A",
"]  c #A46999",
"[  c #9D4DA1",
"{  c #9E52A0",
"}  c #A04FA5",
"|  c #A054A1",
" . c #A354A4",
".. c #A35AA2",
"X. c #A55DA0",
"o. c #A756A8",
"O. c #A652AC",
"+. c #A958A9",
"@. c #AA54B0",
"#. c #AC56B1",
"$. c #B05BB3",
"%. c #B25DB4",
"&. c #B35FB4",
"*. c #AB65A3",
"=. c #AE66A6",
"-. c #AD6DA2",
";. c #AE6AA5",
":. c #AD62A8",
">. c #AD60AB",
",. c #B16CA7",
"<. c #B063AB",
"1. c #B567AF",
"2. c #B168A9",
"3. c #B369AB",
"4. c #B46DAB",
"5. c #B66AAE",
"6. c #B66EAD",
"7. c #B475A8",
"8. c #B776AA",
"9. c #B970AF",
"0. c #B77BA9",
"q. c #B361B2",
"w. c #B666B3",
"e. c #B563B5",
"r. c #B865B7",
"t. c #B966B7",
"y. c #B96CB1",
"u. c #BB6EB2",
"i. c #B968B5",
"p. c #B968B7",
"a. c #BC6EB6",
"s. c #BB6AB8",
"d. c #BC69B9",
"f. c #BC6CB9",
"g. c #BF6FB9",
"h. c #BF6EBB",
"j. c #BC79B0",
"k. c #BF7BB2",
"l. c #C271BC",
"z. c #C473BD",
"x. c #C576BC",
"c. c #C575BE",
"v. c #C576BE",
"b. c #C57EBA",
"n. c #C779BF",
"m. c #C77CBF",
"M. c #C878BF",
"N. c #C87ABF",
"B. c #CB7BC1",
"V. c #CB7EC1",
"C. c #CC7CC1",
"Z. c #C580B7",
"A. c #C582B7",
"S. c #C886B9",
"D. c #CB81BF",
"F. c #CB85BF",
"G. c #CB81C1",
"H. c #CE80C2",
"J. c #CF82C3",
"K. c #CD84C2",
"L. c #D185C4",
"P. c #D287C4",
"I. c #D089C3",
"U. c #D188C4",
"Y. c #D48BC5",
"T. c #D48EC5",
"R. c #D58DC6",
"E. c #D492C3",
"W. c #D790C7",
"Q. c #D892C7",
"!. c #DA96C8",
"~. c #DB98C9",
"^. c None",
/* pixels */
"^.^.^.^.^.^.^.^.^.^.^.^.^.^.^.^.^.^.^.^.^.^.^.^.^.^.^.^.^.^.^.^.^.^.^.^.^.^.^.^.^.^.^.^.^.^.^.^.^.^.^.^.^.^.^.^.^.^.^.^.^.^.^.^.",
"^.^.^.^.^.^.^.^.^.^.^.^.^.^.^.^.^.^.^.^.^.^.^.^.^.^.^.^.^.^.^.^.^.^.^.^.^.^.^.^.^.^.^.^.^.^.^.^.^.^.^.^.^.^.^.^.^.^.^.^.^.^.^.^.",
"^.^.^.^.^.^.^.^.^.^.^.^.^.^.^.^.^.^.^.^.^.^.^.^.^.^.^.^.^.^.^.^.^.^.^.^.^.^.^.^.^.^.^.^.^.^.^.^.^.^.^.^.^.^.^.^.^.^.^.^.^.^.^.^.",
"^.^.^.^.^.^.^.^.^.^.^.^.^.^.^.^.^.^.^.^.^.^.^.^.^.^.^.^.^.^.^.^.^.^.^.^.^.^.^.^.^.^.^.^.^.^.^.^.^.^.^.^.^.^.^.^.^.^.^.^.^.^.^.^.",
"^.^.^.^.^.^.^.^.^.^.^.^.^.^.^.^.^.^.^.^.^.^.^.^.^.^.^.^.^.^.^.^.^.^.^.^.^.^.^.^.^.^.^.^.^.^.^.^.^.^.^.^.^.^.^.^.^.^.^.^.^.^.^.^.",
"^.^.^.^.^.^.^.^.^.^.^.^.^.^.^.^.^.^.^.^.^.^.^.^.^.^.^.^.^.^.^.^.^.^.^.^.^.^.^.^.^.^.^.^.^.^.^.^.^.^.^.^.^.^.^.^.^.^.^.^.^.^.^.^.",
"^.^.^.^.^.^.^.^.^.^.^.^.^.^.^.^.^.^.^.^.^.^.^.^.^.^.X o o o o o o o o o o o o X ^.^.^.^.^.^.^.^.^.^.^.^.^.^.^.^.^.^.^.^.^.^.^.^.",
"^.^.^.^.^.^.^.^.^.^.^.^.^.^.^.^.^.^.^.^.^.^.^.^.^.^.# $ $ & : 3 3 3 3 : & $ $ # ^.^.^.^.^.^.^.^.^.^.^.^.^.^.^.^.^.^.^.^.^.^.^.^.",
"^.^.^.^.^.^.^.^.^.^.^.^.^.^.^.^.^.^.^.^.^.^.X o o # 4 w w g G T T T T G g w w 4 # o o X ^.^.^.^.^.^.^.^.^.^.^.^.^.^.^.^.^.^.^.^.",
"^.^.^.^.^.^.^.^.^.^.^.^.^.^.^.^.^.^.^.^.^.^.# & : e k Z S Y +.%.%.%.%.+.Y S Z k e : & # ^.^.^.^.^.^.^.^.^.^.^.^.^.^.^.^.^.^.^.^.",
"^.^.^.^.^.^.^.^.^.^.^.^.^.^.^.^.^.^.^.^.X # 4 g G R W  .<.y.g.l.l.l.l.g.y.<. .W R G g 4 # X ^.^.^.^.^.^.^.^.^.^.^.^.^.^.^.^.^.^.",
"^.^.^.^.^.^.^.^.^.^.^.^.^.^.^.^.^.^.^.^.# , j I o.%.%.t.n.J.J.J.J.J.J.J.J.n.t.%.%.o.I j , # ^.^.^.^.^.^.^.^.^.^.^.^.^.^.^.^.^.^.",
"^.^.^.^.^.^.^.^.^.^.^.^.^.^.^.^.^.^.X # 4 j U o.i.l.l.n.U.W.W.W.W.W.W.W.W.U.n.l.l.i.o.U j 4 # X ^.^.^.^.^.^.^.^.^.^.^.^.^.^.^.^.",
"^.^.^.^.^.^.^.^.^.^.^.^.^.^.^.^.^.^.o & g I o.r.z.C.H.P.Q.~.~.~.~.~.~.~.~.Q.P.H.C.z.r.o.I g & o ^.^.^.^.^.^.^.^.^.^.^.^.^.^.^.^.",
"^.^.^.^.^.^.^.^.^.^.^.^.^.^.^.^.^.^.o : G o.i.z.M.H.Y.Q.!.~.~.~.~.~.~.~.~.!.Q.Y.H.M.z.i.o.G : o ^.^.^.^.^.^.^.^.^.^.^.^.^.^.^.^.",
"^.^.^.^.^.^.^.^.^.^.^.^.^.^.^.^.^.^.# e R %.l.C.H.P.Q.~.~.~.~.~.~.~.~.~.~.~.~.Q.P.H.C.l.%.R e # ^.^.^.^.^.^.^.^.^.^.^.^.^.^.^.^.",
"^.^.^.^.^.^.^.^.^.^.^.^.^.^.^.^.X # 4 k W %.l.H.Y.Q.!.~.~.~.~.~.~.~.~.~.~.~.~.!.Q.Y.H.l.%.W k 4 # X ^.^.^.^.^.^.^.^.^.^.^.^.^.^.",
"^.^.^.^.^.^.^.^.^.^.^.^.^.^.^.^.o & g I o.r.z.J.W.~.~.~.~.~.~.~.~.~.~.~.~.~.~.~.~.W.J.z.r.o.I g & o ^.^.^.^.^.^.^.^.^.^.^.^.^.^.",
"^.^.^.^.^.^.^.^.X o o X ^.^.^.^.o : G o.i.z.M.J.W.~.~.~.~.~.~.~.~.~.~.~.~.~.~.~.~.W.J.M.z.i.o.G : o ^.^.^.^.X o o X ^.^.^.^.^.^.",
"^.^.^.^.^.^.^.^.> 5 8 y ^.^.^.^.. 3 T %.l.B.B.J.W.~.~.~.~.~.~.~.~.~.~.~.~.~.~.~.~.W.J.B.B.l.%.T 3 . ^.^.^.^.y 8 5 > ^.^.^.^.^.^.",
"^.^.^.^.^.^.X > F E X.) A w $ .   3 T %.l.B.B.J.W.~.~.~.~.~.~.~.~.~.~.~.~.~.~.~.~.W.J.B.B.l.%.T 3   . $ w A ) X.E F > X ^.^.^.^.",
"^.^.^.^.^.^.X > F { w.1.! m r ; + 3 T %.l.B.B.J.W.~.~.~.~.~.~.~.~.~.~.~.~.~.~.~.~.W.J.B.B.l.%.T 3 + ; r m ! 1.w.{ F > X ^.^.^.^.",
"^.^.^.^.^.^.^.^.> h { q.1.:.( N ; 3 T %.l.B.B.J.W.~.~.~.~.~.~.~.~.~.~.~.~.~.~.~.~.W.J.B.B.l.%.T 3 ; N ( :.1.q.{ h > ^.^.^.^.^.^.",
"^.^.^.^.^.^.^.^.X > F | a.z.r.E 5 3 T %.l.B.B.H.Y.Q.!.~.~.~.~.~.~.~.~.~.~.~.~.!.Q.Y.H.B.B.l.%.T 3 5 E r.z.a.| F > X ^.^.^.^.^.^.",
"^.^.^.^.^.^.^.^.^.^.> v 2.M.z.X.8 3 T %.l.B.B.C.H.P.Q.~.~.~.~.~.~.~.~.~.~.~.~.Q.P.H.C.B.B.l.%.T 3 8 X.z.M.2.v > ^.^.^.^.^.^.^.^.",
"^.^.^.^.^.^.^.^.^.^.X 7 Q =.3./ 2 3 T $.d.z.M.B.B.H.Y.Q.!.~.~.~.~.~.~.~.~.!.Q.Y.H.B.B.M.z.d.$.T 3 2 / 3.=.Q 7 X ^.^.^.^.^.^.^.^.",
"^.^.^.^.^.^.^.^.^.^.^.^.7 d B c * 3 T #.$.r.z.B.B.C.H.P.Q.~.~.~.~.~.~.~.~.Q.P.H.C.B.B.z.r.$.#.T 3 * c B d 7 ^.^.^.^.^.^.^.^.^.^.",
"^.^.^.^.^.^.^.^.^.^.^.^.X # 4 < @ : G } O.%.l.B.B.B.B.H.Y.W.W.W.W.W.W.W.W.Y.H.B.B.B.B.l.%.O.} G : @ < 4 # X ^.^.^.^.^.^.^.^.^.^.",
"^.^.^.^.^.^.^.^.^.^.^.^.^.^.# @ O & g J } %.l.B.B.B.B.C.H.J.J.J.J.J.J.J.J.H.C.B.B.B.B.l.%.} J g & O @ # ^.^.^.^.^.^.^.^.^.^.^.^.",
"^.^.^.^.^.^.^.^.^.^.^.^.^.^.X .   $ w C [ $.d.z.M.B.B.B.B.B.B.B.B.B.B.B.B.B.B.B.B.M.z.d.$.[ C w $   . X ^.^.^.^.^.^.^.^.^.^.^.^.",
"^.^.^.^.^.^.^.^.^.^.^.^.^.^.^.^.. $ w C [ #.$.r.z.B.B.B.B.B.B.B.B.B.B.B.B.B.B.B.B.z.r.$.#.[ C w $ . ^.^.^.^.^.^.^.^.^.^.^.^.^.^.",
"^.^.^.^.^.^.^.^.^.^.^.^.^.^.^.^.X # 4 j U } O.$.d.l.l.z.M.B.B.B.B.B.B.B.B.M.z.l.l.d.$.O.} U j 4 # X ^.^.^.^.^.^.^.^.^.^.^.^.^.^.",
"^.^.^.^.^.^.^.^.^.^.^.^.^.^.^.^.^.^.# , j J } #.$.%.%.r.z.B.B.B.B.B.B.B.B.z.r.%.%.$.#.} J j , # ^.^.^.^.^.^.^.^.^.^.^.^.^.^.^.^.",
"^.^.^.^.^.^.^.^.^.^.^.^.^.^.^.^.^.^.o @ < j U } O.@.@.$.d.l.l.l.l.l.l.l.l.d.$.@.@.O.} U j < @ o ^.^.^.^.^.^.^.^.^.^.^.^.^.^.^.^.",
"^.^.^.^.^.^.^.^.^.^.^.^.^.^.^.^.^.^.o O @ , j J } @.@.#.$.%.%.%.%.%.%.%.%.$.#.@.@.} J j , @ O o ^.^.^.^.^.^.^.^.^.^.^.^.^.^.^.^.",
"^.^.^.^.^.^.^.^.^.^.^.^.^.^.^.^.^.^.# $ $ = 6 j U [ [ } O.@.@.@.@.@.@.@.@.O.} [ [ U j 6 = $ $ # ^.^.^.^.^.^.^.^.^.^.^.^.^.^.^.^.",
"^.^.^.^.^.^.^.^.^.^.^.^.^.^.^.^.X # 4 w w 6 = , j C C J } @.@.@.@.@.@.@.@.} J C C j , = 6 w w 4 # X ^.^.^.^.^.^.^.^.^.^.^.^.^.^.",
"^.^.^.^.^.^.^.^.^.^.^.^.^.^.^.^.# 1 M P L B d f D P L Y +.%.%.%.%.%.%.%.%.+.Y L P D f d B L P M 1 # ^.^.^.^.^.^.^.^.^.^.^.^.^.^.",
"^.^.^.^.^.^.^.^.^.^.^.^.^.^.X # 4 M -.k.9.3.=.,.j.k.9.y.g.l.l.l.l.l.l.l.l.g.y.9.k.j.,.=.3.9.k.-.M 4 # X ^.^.^.^.^.^.^.^.^.^.^.^.",
"^.^.^.^.^.^.^.^.^.^.^.^.^.^.o - n ` Z.U.n.c.V.P.Q.Q.P.J.J.J.J.J.J.J.J.J.J.J.J.P.Q.Q.P.V.c.n.U.Z.` n - o ^.^.^.^.^.^.^.^.^.^.^.^.",
"^.^.^.^.^.^.^.^.^.^.^.^.^.^.o 9 ] Z.D.n.t.s.K.Q.!.!.Q.W.W.W.W.W.W.W.W.W.W.W.W.Q.!.!.Q.K.s.t.n.D.Z.] 9 o ^.^.^.^.^.^.^.^.^.^.^.^.",
"^.^.^.^.^.^.^.^.^.^.^.^.^.^.# x 8.U.n.w.{ ..b.Q.!.~.~.!.Q.W.W.Q.!.!.Q.W.W.Q.!.~.~.!.Q.b...{ w.n.U.8.x # ^.^.^.^.^.^.^.^.^.^.^.^.",
"^.^.^.^.^.^.^.^.^.^.^.^.X # 4 V 6.n.t.{ h b 4.P.Q.~.~.Q.P.J.J.P.Q.Q.P.J.J.P.Q.~.~.Q.P.4.b h { t.n.6.V 4 # X ^.^.^.^.^.^.^.^.^.^.",
"^.^.^.^.^.^.^.^.^.^.^.^.o * c ^ u.g.+.G : 8 X.v.G.I.T.R.L.J.J.P.Q.Q.P.J.J.L.R.T.I.G.v.X.8 : G +.g.u.^ c * o ^.^.^.^.^.^.^.^.^.^.",
"^.^.^.^.^.^.^.^.^.^.^.^.o 2 / u.x.y.Y g & 5 E &.e.f.N.L.R.W.W.Q.!.!.Q.W.W.R.L.N.f.e.&.E 5 & g Y y.x.u./ 2 o ^.^.^.^.^.^.^.^.^.^.",
"^.^.^.^.^.^.^.^.^.^.^.^.# f ,.V.c.:.m < @ 3 T #.$.t.n.P.Q.~.~.~.~.~.~.~.~.Q.P.n.t.$.#.T 3 @ < m :.c.V.,.f # ^.^.^.^.^.^.^.^.^.^.",
"^.^.^.^.^.^.^.^.^.^.X # 4 D j.K.s.( r @ O 3 T $.d.n.U.Q.!.~.~.~.~.~.~.~.~.!.Q.U.n.d.$.T 3 O @ r ( s.K.j.D 4 # X ^.^.^.^.^.^.^.^.",
"^.^.^.^.^.^.^.^.^.^.o - n ' S.F.>.G : o o 3 T %.l.J.W.~.~.~.~.!.Q.Q.!.~.~.~.~.W.J.l.%.T 3 o o : G >.F.S.' n - o ^.^.^.^.^.^.^.^.",
"^.^.^.^.^.^.^.^.^.^.o 9 ] S.E.A.~ g & o o 3 T %.l.J.W.~.~.~.~.Q.P.P.Q.~.~.~.~.W.J.l.%.T 3 o o & g ~ A.E.S.] 9 o ^.^.^.^.^.^.^.^.",
"^.^.^.^.^.^.^.^.^.^.o z 0.!.Q.j.D 4 # .   : G +.g.J.W.~.~.!.Q.U.n.n.U.Q.!.~.~.T.N.i.o.G :   . # 4 D j.Q.!.0.z o ^.^.^.^.^.^.^.^.",
"^.^.^.^.^.^.^.^.^.^.o z 0.Q.P.,.f # ^.^.. & g Y y.J.W.~.~.Q.P.n.t.t.n.P.Q.~.~.I.f.o.I g & . ^.^.# f ,.P.Q.0.z o ^.^.^.^.^.^.^.^.",
"^.^.^.^.^.^.^.^.^.^.X 0 _ 7.;.Q 7 X ^.^.o $ w K 5.V.K.F.A.k.9.<. . .<.9.k.A.F.m.p. .Z w $ o ^.^.X 7 Q ;.7._ 0 X ^.^.^.^.^.^.^.^.",
"^.^.^.^.^.^.^.^.^.^.^.^.0 i u 7 ^.^.^.^.o $ w K 5.c.s.>.~ P L S Z Z S L P ~ >.p.h.<.S w $ o ^.^.^.^.7 u i 0 ^.^.^.^.^.^.^.^.^.^.",
"^.^.^.^.^.^.^.^.^.^.^.^.X o o X ^.^.^.^.X % p K 5.z.r.o.I l a w w w w a l I o.r.z.5.K p % X ^.^.^.^.X o o X ^.^.^.^.^.^.^.^.^.^.",
"^.^.^.^.^.^.^.^.^.^.^.^.^.^.^.^.^.^.^.^.^.^.s K 5.M.z.i.o.H q $ $ $ $ q H o.i.z.M.5.K s ^.^.^.^.^.^.^.^.^.^.^.^.^.^.^.^.^.^.^.^.",
"^.^.^.^.^.^.^.^.^.^.^.^.^.^.^.^.^.^.^.^.^.^.w m :.l.l.d.$.T 3   . .   3 T $.d.l.l.:.m w ^.^.^.^.^.^.^.^.^.^.^.^.^.^.^.^.^.^.^.^.",
"^.^.^.^.^.^.^.^.^.^.^.^.^.^.^.^.^.^.^.^.^.^.$ r ( %.%.$.#.T 3 . ^.^.. 3 T #.$.%.%.( r $ ^.^.^.^.^.^.^.^.^.^.^.^.^.^.^.^.^.^.^.^.",
"^.^.^.^.^.^.^.^.^.^.^.^.^.^.^.^.^.^.^.^.^.^.o 5 E &.e.e.&.E 5 o ^.^.o 5 E &.e.e.&.E 5 o ^.^.^.^.^.^.^.^.^.^.^.^.^.^.^.^.^.^.^.^.",
"^.^.^.^.^.^.^.^.^.^.^.^.^.^.^.^.^.^.^.^.^.^.o 8 X.v.G.G.v.X.8 o ^.^.o 8 X.v.G.G.v.X.8 o ^.^.^.^.^.^.^.^.^.^.^.^.^.^.^.^.^.^.^.^.",
"^.^.^.^.^.^.^.^.^.^.^.^.^.^.^.^.^.^.^.^.^.^.o u ;.P.Q.W.J.*.t o ^.^.o t *.J.W.Q.P.;.u o ^.^.^.^.^.^.^.^.^.^.^.^.^.^.^.^.^.^.^.^.",
"^.^.^.^.^.^.^.^.^.^.^.^.^.^.^.^.^.^.^.^.^.^.o i 7.Q.!.W.J.*.t o ^.^.o t *.J.W.!.Q.7.i o ^.^.^.^.^.^.^.^.^.^.^.^.^.^.^.^.^.^.^.^.",
"^.^.^.^.^.^.^.^.^.^.^.^.^.^.^.^.^.^.^.^.^.^.X 0 _ 0.0.7.;.Q 7 X ^.^.X 7 Q ;.7.0.0._ 0 X ^.^.^.^.^.^.^.^.^.^.^.^.^.^.^.^.^.^.^.^.",
"^.^.^.^.^.^.^.^.^.^.^.^.^.^.^.^.^.^.^.^.^.^.^.^.0 z z i u 7 ^.^.^.^.^.^.7 u i z z 0 ^.^.^.^.^.^.^.^.^.^.^.^.^.^.^.^.^.^.^.^.^.^.",
"^.^.^.^.^.^.^.^.^.^.^.^.^.^.^.^.^.^.^.^.^.^.^.^.o o o o o o ^.^.^.^.^.^.o o o o o o ^.^.^.^.^.^.^.^.^.^.^.^.^.^.^.^.^.^.^.^.^.^."
};
