/* XPM */
static char *result[] = {
/* columns rows colors chars-per-pixel */
"64 64 159 2 ",
"   c #3B191D",
".  c #2E1E22",
"X  c #3C1C23",
"o  c #3B2025",
"O  c #342029",
"+  c #3C202D",
"@  c #3F2230",
"#  c #560F13",
"$  c #48181F",
"%  c #601015",
"&  c #69161D",
"*  c #731219",
"=  c #411B20",
"-  c #591B24",
";  c #5B1728",
":  c #621625",
">  c #641930",
",  c #4E2027",
"<  c #55252D",
"1  c #5C252E",
"2  c #402637",
"3  c #7E283B",
"4  c #732C39",
"5  c #4E2C46",
"6  c #4C244B",
"7  c #532042",
"8  c #52264E",
"9  c #5A264F",
"0  c #552946",
"q  c #553549",
"w  c #593B4B",
"e  c #522751",
"r  c #562955",
"t  c #5A2B57",
"y  c #5B2C5A",
"u  c #593054",
"i  c #62294E",
"p  c #792649",
"a  c #613745",
"s  c #772B57",
"d  c #692B57",
"f  c #612E60",
"g  c #653164",
"h  c #693767",
"j  c #6C346B",
"k  c #6C3B69",
"l  c #693B65",
"z  c #70356D",
"x  c #713A6F",
"c  c #743772",
"v  c #753975",
"b  c #783975",
"n  c #773B78",
"m  c #7B3B7A",
"M  c #6F416A",
"N  c #79536B",
"B  c #7D417A",
"V  c #774372",
"C  c #8A2533",
"Z  c #812C3C",
"A  c #922431",
"S  c #AD293A",
"D  c #A22D3E",
"F  c #B12737",
"G  c #842C4D",
"H  c #8B394C",
"J  c #AD2F40",
"K  c #A43244",
"L  c #843976",
"P  c #903972",
"I  c #CB3044",
"U  c #C1364B",
"Y  c #E53A52",
"T  c #934258",
"R  c #9E4359",
"E  c #A8445B",
"W  c #83447E",
"Q  c #80487C",
"!  c #A9506B",
"~  c #AB5E7D",
"^  c #7F4080",
"/  c #813F82",
"(  c #854285",
")  c #8A4686",
"_  c #844088",
"`  c #89438B",
"'  c #8E4B89",
"]  c #874A82",
"[  c #904E8C",
"{  c #91518A",
"}  c #904791",
"|  c #934995",
" . c #954999",
".. c #994E9B",
"X. c #975094",
"o. c #995595",
"O. c #9C5A96",
"+. c #9B519C",
"@. c #AD5A97",
"#. c #A7519E",
"$. c #A15C9A",
"%. c #AC6686",
"&. c #B46687",
"*. c #A5699A",
"=. c #A26199",
"-. c #B76D91",
";. c #BE6E92",
":. c #BA6F98",
">. c #B46495",
",. c #AE7397",
"<. c #AF799F",
"1. c #AC749D",
"2. c #BD749A",
"3. c #9E52A0",
"4. c #A254A3",
"5. c #A55DA1",
"6. c #A756A8",
"7. c #AB5BAA",
"8. c #AD58B1",
"9. c #B25DB4",
"0. c #AB65A3",
"q. c #AE6BA5",
"w. c #AD62A8",
"e. c #B265AD",
"r. c #B56AAC",
"t. c #B16CA7",
"y. c #B575A9",
"u. c #B971AF",
"i. c #B77BA9",
"p. c #BA78AE",
"a. c #B563B5",
"s. c #B966B7",
"d. c #B969B5",
"f. c #BE6DBA",
"g. c #BE73B4",
"h. c #BE7BB2",
"j. c #BF71BA",
"k. c #C37BA3",
"l. c #C27CB6",
"z. c #C372BC",
"x. c #C779BF",
"c. c #C87ABF",
"v. c #CB7BC1",
"b. c #BA81A9",
"n. c #C780A9",
"m. c #CA81AB",
"M. c #C380B5",
"N. c #CE88B5",
"B. c #CB83BF",
"V. c #D28EBC",
"C. c #D090BE",
"Z. c #CE82C2",
"A. c #D287C4",
"S. c #D28AC4",
"D. c #D791C6",
"F. c #D893C7",
"G. c #DA96C8",
"H. c #DB98C9",
"J. c None",
/* pixels */
"J.J.J.J.J.J.J.J.J.J.J.J.J.J.J.J.J.J.J.J.J.J.J.J.J.J.J.J.J.J.J.J.J.J.J.J.J.J.J.J.J.J.J.J.J.J.J.J.J.J.J.J.J.J.J.J.J.J.J.J.J.J.J.J.",
"J.J.J.J.J.J.J.J.J.J.J.J.J.J.J.J.J.J.J.J.J.J.J.J.J.J.J.J.J.J.J.J.J.J.J.J.J.J.J.J.J.J.J.J.J.J.J.J.J.J.J.J.J.J.J.J.J.J.J.J.J.J.J.J.",
"J.J.J.J.J.J.J.J.J.J.J.J.J.J.J.J.J.J.J.J.J.J.J.J.J.J.J.J.J.J.J.J.J.J.J.J.J.J.J.J.J.J.J.J.J.J.J.J.J.J.J.J.J.J.J.J.J.J.J.J.J.J.J.J.",
"J.J.J.J.J.J.J.J.J.J.J.J.J.J.J.J.J.J.J.J.J.J.J.J.J.J.J.J.J.J.J.J.J.J.J.J.J.J.J.J.J.J.J.J.J.J.J.J.J.J.J.J.J.J.J.J.J.J.J.J.J.J.J.J.",
"J.J.J.J.J.J.J.J.J.J.J.J.J.J.J.J.J.J.J.J.J.J.J.J.J.J.J.J.J.J.J.J.J.J.J.J.J.J.J.J.J.J.J.J.J.J.J.J.J.J.J.J.J.J.J.J.J.J.J.J.J.J.J.J.",
"J.J.J.J.J.J.J.J.J.J.J.J.J.J.J.J.J.J.J.J.J.J.J.J.J.J.J.J.J.J.J.J.J.J.J.J.J.J.J.J.J.J.J.J.J.J.J.J.J.J.J.J.J.J.J.J.J.J.J.J.J.J.J.J.",
"J.J.J.J.J.J.J.J.J.J.J.J.J.J.J.J.J.J.J.J.J.J.J.J.J.J.J.J.J.J.J.J.J.J.J.J.J.J.J.J.J.J.J.J.J.J.J.J.J.J.J.J.J.J.J.J.J.J.J.J.J.J.J.J.",
"J.J.J.J.J.J.J.J.J.J.J.J.J.J.J.J.J.J.J.J.J.J.J.J.J.J.J.J.J.J.J.J.J.J.J.J.J.J.J.J.J.J.J.J.J.J.J.J.J.J.J.J.J.J.J.J.J.J.J.J.J.J.J.J.",
"J.J.J.J.J.J.J.J.J.J.J.J.J.J.J.J.J.J.J.J.J.J.J.J.J.J.6 6 6 6 6 8 6 6 6 6 6 6 6 6 J.J.J.J.J.J.J.J.J.J.J.J.J.J.J.J.J.J.J.J.J.J.J.J.",
"J.J.J.J.J.J.J.J.J.J.J.J.J.J.J.J.J.J.J.J.J.J.J.J.J.J.r t r y f g g f g f y r r r J.J.J.J.J.J.J.J.J.J.J.J.J.J.J.J.J.J.J.J.J.J.J.J.",
"J.J.J.J.J.J.J.J.J.J.J.J.J.J.J.J.J.J.J.J.J.J.6 6 6 r g j j b /  .| | | ` n j j f r 6 6 6 J.J.J.J.J.J.J.J.J.J.J.J.J.J.J.J.J.J.J.J.",
"J.J.J.J.J.J.J.J.J.J.J.J.J.J.J.J.J.J.J.J.J.J.r t f j L ( ) | 6.9.9.9.9.7.o.` / / j f t t J.J.J.J.J.J.J.J.J.J.J.J.J.J.J.J.J.J.J.J.",
"J.J.J.J.J.J.J.J.J.J.J.J.J.J.J.J.J.J.J.J.6 r f v `  ...4.e.d.z.z.f.v.v.s.d.w.4... .` v f r 6 J.J.J.J.J.J.J.J.J.J.J.J.J.J.J.J.J.J.",
"J.J.J.J.J.J.J.J.J.J.J.J.J.J.J.J.J.J.J.J.r f m } 6.9.9.s.z.v.c.c.v.v.v.v.v.v.s.9.9.6.} n f r J.J.J.J.J.J.J.J.J.J.J.J.J.J.J.J.J.J.",
"J.J.J.J.J.J.J.J.J.J.J.J.J.J.J.J.J.J.6 r g m } 6.s.z.v.f.v.v.v.v.v.v.v.v.v.v.j.j.z.s.6.| m f t 6 J.J.J.J.J.J.J.J.J.J.J.J.J.J.J.J.",
"J.J.J.J.J.J.J.J.J.J.J.J.J.J.J.J.J.J.6 y v | 6.s.z.v.v.v.A.v.A.v.v.v.Z.Z.v.Z.v.v.v.z.s.6.} v y 6 J.J.J.J.J.J.J.J.J.J.J.J.J.J.J.J.",
"J.J.J.J.J.J.J.J.J.J.J.J.J.J.J.J.J.J.6 f ` 6.s.z.c.v.v.v.D.D.D.D.D.F.D.D.F.S.A.v.v.v.z.a.6.` f 6 J.J.J.J.J.J.J.J.J.J.J.J.J.J.J.J.",
"J.J.J.J.J.J.J.J.J.J.J.J.J.J.J.J.J.J.r j  .9.z.v.v.v.A.A.F.H.H.H.H.H.H.H.H.D.A.v.v.v.v.z.9. .j t J.J.J.J.J.J.J.J.J.J.J.J.J.J.J.J.",
"J.J.J.J.J.J.J.J.J.J.J.J.J.J.J.J.6 r g m ..9.z.v.c.v.S.D.G.H.H.H.H.H.H.H.H.G.F.S.v.v.v.z.9...m g r 6 J.J.J.J.J.J.J.J.J.J.J.J.J.J.",
"J.J.J.J.J.J.J.J.J.J.J.J.J.J.J.J.6 y n } 6.s.z.v.B.A.G.H.H.H.H.H.H.H.H.H.H.H.H.D.S.v.v.z.s.6.} m t 6 J.J.J.J.J.J.J.J.J.J.J.J.J.J.",
"J.J.J.J.J.J.J.J.6 6 6 6 J.J.J.J.6 f / 6.s.z.v.v.S.F.G.H.H.H.H.H.H.H.H.H.H.H.H.G.F.S.v.v.z.s.6.` f 6 J.J.J.J.6 6 6 6 J.J.J.J.J.J.",
"J.J.J.J.J.J.J.J.f g h k J.J.J.J.6 g  .9.z.v.Z.A.D.H.H.H.H.H.H.H.H.H.H.H.H.H.H.H.H.F.S.v.v.z.9.| g 6 J.J.J.J.k h g g J.J.J.J.J.J.",
"J.J.J.J.J.J.6 f ` ..5.$.) j r 6 6 g | 9.z.v.S.F.H.H.H.H.H.H.H.H.H.H.H.H.H.H.H.H.H.H.F.S.v.z.9.| f 6 6 r j ) O.5..._ f 6 J.J.J.J.",
"J.J.J.J.J.J.6 f / +.d.e.o.W c y e g | 9.z.A.D.H.H.H.H.H.H.H.H.H.H.H.H.H.H.H.H.H.H.H.H.F.v.z.9.| g e f j ( o.r.s.+._ f 6 J.J.J.J.",
"J.J.J.J.J.J.J.J.g n +.a.r.e.../ f f  .8.z.Z.D.H.H.H.H.H.H.H.H.H.H.H.H.H.H.H.H.H.H.H.H.D.v.v.9.| g y / ..w.r.a.3.n g J.J.J.J.J.J.",
"J.J.J.J.J.J.J.J.6 f _ ..w.e.7.| f g  .9.z.Z.D.H.H.H.H.H.H.H.H.H.H.H.H.H.H.H.H.H.H.H.H.D.v.v.9.| f g | 8.e.w..._ f 6 J.J.J.J.J.J.",
"J.J.J.J.J.J.J.J.J.J.f j ( | 4.| g f  .8.z.Z.F.H.H.H.H.H.H.H.H.H.H.H.H.H.H.H.H.H.H.H.H.D.v.f.9. .g g | 4.| W j g J.J.J.J.J.J.J.J.",
"J.J.J.J.J.J.J.J.J.J.6 r f n } ` f f ` 4.@.>.:.2.2.k.N.D.G.H.H.H.H.H.H.H.H.G.D.B.k.2.2.:.>.@.4.` f f ` } m g r 6 J.J.J.J.J.J.J.J.",
"J.J.J.J.J.J.J.J.J.J.J.J.r g m n y y L P G 3 3 Z Z T -.N.S.H.H.H.H.H.H.H.H.G.N.;.T Z Z Z 3 G P L y y v n f r J.J.J.J.J.J.J.J.J.J.",
"J.J.J.J.J.J.J.J.J.J.J.J.6 r g g r 9 s p : # # % * C ! ;.m.V.F.H.H.H.H.F.V.k.;.! C * % # # : p s 9 r g f r 6 J.J.J.J.J.J.J.J.J.J.",
"J.J.J.J.J.J.J.J.J.J.J.J.J.J.r e 8 7 > ; $     - A J J E &.k.V.H.H.H.H.V.k.~ E K F A -     $ : > 7 6 r y J.J.J.J.J.J.J.J.J.J.J.J.",
"J.J.J.J.J.J.J.J.J.J.J.J.J.J.6 6 6 7 > ;   . . - J I F K R ~ k.D.G.F.D.m.~ E D F I J < . . X ; > 7 6 6 6 J.J.J.J.J.J.J.J.J.J.J.J.",
"J.J.J.J.J.J.J.J.J.J.J.J.J.J.J.J.6 8 i 0 @ . . 1 I Y I D 3 T %.N.C.V.N.-.H C S I Y U 1 . . 2 i d 8 6 J.J.J.J.J.J.J.J.J.J.J.J.J.J.",
"J.J.J.J.J.J.J.J.J.J.J.J.J.J.J.J.6 r y u 5 2 O < D E S C % 4 %.N.V.G.N.%.4 & C S U K < O 2 5 g g r 6 J.J.J.J.J.J.J.J.J.J.J.J.J.J.",
"J.J.J.J.J.J.J.J.J.J.J.J.J.J.J.J.J.J.e y j h 2 o 1 1 < , $ 4 1.D.H.H.V.,.w $ , < 1 < O @ g k g r J.J.J.J.J.J.J.J.J.J.J.J.J.J.J.J.",
"J.J.J.J.J.J.J.J.J.J.J.J.J.J.J.J.J.J.6 r v c u 5 w w w w w N b.H.H.H.H.n.N w w w q q q u v c r 6 J.J.J.J.J.J.J.J.J.J.J.J.J.J.J.J.",
"J.J.J.J.J.J.J.J.J.J.J.J.J.J.J.J.J.J.6 8 t j m [ O.*.1.<.<.b.S.H.H.H.H.D.b.<.<.,.*.O.' ^ h y e 6 J.J.J.J.J.J.J.J.J.J.J.J.J.J.J.J.",
"J.J.J.J.J.J.J.J.J.J.J.J.J.J.J.J.J.J.r r r g _ +.0.p.B.A.S.D.F.D.D.D.D.S.D.C.S.B.g.w.+._ g r r r J.J.J.J.J.J.J.J.J.J.J.J.J.J.J.J.",
"J.J.J.J.J.J.J.J.J.J.J.J.J.J.J.J.6 r g j j j g z W X.7.f.v.Z.Z.Z.Z.Z.Z.A.Z.c.f.7.X.( j g j j j g r 6 J.J.J.J.J.J.J.J.J.J.J.J.J.J.",
"J.J.J.J.J.J.J.J.J.J.J.J.J.J.J.J.h V ] [ ' ( z f j n ` X.5.0.0.w.0.0.0.0.0.5.X.` n j g j ( ' { ^ g r J.J.J.J.J.J.J.J.J.J.J.J.J.J.",
"J.J.J.J.J.J.J.J.J.J.J.J.J.J.6 g o.t.p.h.u.w.+._ h y f g h l h k k k h k l l g f r g _ +.w.u.h.t.Q g r 6 J.J.J.J.J.J.J.J.J.J.J.J.",
"J.J.J.J.J.J.J.J.J.J.J.J.J.J.f B r.A.D.Z.x.f.a.4.B M M M M M k h k h h k M M M M M ^ 3.a.f.v.S.b.=.Q y 6 J.J.J.J.J.J.J.J.J.J.J.J.",
"J.J.J.J.J.J.J.J.J.J.J.J.6 f _ 5.l.S.A.x.s.a.f.g.p.i.i.i.i.y.q.0.0.0.0.q.y.i.i.i.i.p.j.j.a.a.x.Z.M.*.l 6 J.J.J.J.J.J.J.J.J.J.J.J.",
"J.J.J.J.J.J.J.J.J.J.J.J.r j  .a.x.B.g.w.+.4.d.A.D.H.H.H.H.F.A.Z.v.v.Z.A.D.H.H.H.H.F.Z.g.3.3.a.v.S.p.V r J.J.J.J.J.J.J.J.J.J.J.J.",
"J.J.J.J.J.J.J.J.J.J.6 r g m ..8.a.7.| W j B t.Z.D.G.G.G.H.F.F.S.Z.v.S.D.H.H.H.H.H.F.Z.q.B n 3.s.c.r.] g r 6 J.J.J.J.J.J.J.J.J.J.",
"J.J.J.J.J.J.J.J.J.J.6 t z /  ...| ) m g r h 5.v.S.D.G.G.H.F.S.Z.x.x.Z.S.D.H.H.G.F.A.v.5.h g ..a.x.g.$.m y 6 J.J.J.J.J.J.J.J.J.J.",
"J.J.J.J.J.J.J.J.J.J.6 r j m / m j f y r 6 g ..s.Z.S.F.H.H.S.j.a.9.9.a.z.S.H.H.D.A.v.a. .g h 5.v.S.B.g.O.l 6 J.J.J.J.J.J.J.J.J.J.",
"J.J.J.J.J.J.J.J.J.J.6 r g z j g r 6 6 6 6 f _ 6.d.j.Z.Z.A.v.d.9.a.a.9.d.x.A.A.B.v.a.6.` f k q.A.F.D.A.q.k 6 J.J.J.J.J.J.J.J.J.J.",
"J.J.J.J.J.J.J.J.J.J.J.J.r r r r J.J.J.J.6 t v } 6.9.a.a.a.s.f.z.Z.Z.z.f.s.a.s.a.9.6.} v r M y.F.G.G.F.y.M 6 J.J.J.J.J.J.J.J.J.J.",
"J.J.J.J.J.J.J.J.J.J.J.J.6 6 6 6 J.J.J.J.6 t n } 6.9.9.9.9.s.v.A.D.F.S.v.s.9.9.9.9.6.} v r M i.H.H.G.D.y.M 6 J.J.J.J.J.J.J.J.J.J.",
"J.J.J.J.J.J.J.J.J.J.J.J.J.J.J.J.J.J.J.J.6 f ` 6.s.z.z.z.z.v.A.F.F.F.F.A.c.z.z.z.j.d.6.` f M i.G.H.S.A.q.k 6 J.J.J.J.J.J.J.J.J.J.",
"J.J.J.J.J.J.J.J.J.J.J.J.J.J.J.J.J.J.J.J.6 f ` 7.z.v.v.x.z.c.S.S.F.F.D.A.c.z.c.c.Z.z.7.` f M q.S.S.V.g.O.g 6 J.J.J.J.J.J.J.J.J.J.",
"J.J.J.J.J.J.J.J.J.J.J.J.J.J.J.J.J.J.J.J.6 t n o.l.S.Z.z.s.s.c.A.Z.Z.Z.v.s.s.x.v.S.M.o.n t g +.f.c.l.$.B y 6 J.J.J.J.J.J.J.J.J.J.",
"J.J.J.J.J.J.J.J.J.J.J.J.J.J.J.J.J.J.J.J.6 r j { M.G.A.l.7.4.e.e.r.r.d.w.4.7.z.A.S.h.{ j t g _ ..$.O.m f t 6 J.J.J.J.J.J.J.J.J.J.",
"J.J.J.J.J.J.J.J.J.J.J.J.J.J.J.J.J.J.J.J.6 t j { M.G.D.l.o.( ' ' ' ' ' ` ( o.l.S.A.u.' v J.J.f g h h y t J.J.J.J.J.J.J.J.J.J.J.J.",
"J.J.J.J.J.J.J.J.J.J.J.J.J.J.J.J.J.J.J.J.6 t x { l.H.H.M.o.m c j j j j j c ' l.A.c.w.) m J.J.6 6 6 6 6 6 J.J.J.J.J.J.J.J.J.J.J.J.",
"J.J.J.J.J.J.J.J.J.J.J.J.J.J.J.J.J.J.J.J.J.J.c { b.H.H.B.7.} g t r t r f z ' u.c.s.4.( m J.J.J.J.J.J.J.J.J.J.J.J.J.J.J.J.J.J.J.J.",
"J.J.J.J.J.J.J.J.J.J.J.J.J.J.J.J.J.J.J.J.J.J.b ' u.S.D.Z.a. .f 6 6 6 6 r j ) e.s.6.} m j J.J.J.J.J.J.J.J.J.J.J.J.J.J.J.J.J.J.J.J.",
"J.J.J.J.J.J.J.J.J.J.J.J.J.J.J.J.J.J.J.J.J.J.m ` 7.f.x.z.9.| g 6 J.J.6 r j ( 4.6.} m f r J.J.J.J.J.J.J.J.J.J.J.J.J.J.J.J.J.J.J.J.",
"J.J.J.J.J.J.J.J.J.J.J.J.J.J.J.J.J.J.J.J.J.J.j m 3.s.x.v.f.3.k r J.J.6 r g c ` ` n g r 6 J.J.J.J.J.J.J.J.J.J.J.J.J.J.J.J.J.J.J.J.",
"J.J.J.J.J.J.J.J.J.J.J.J.J.J.J.J.J.J.J.J.J.J.r x 0.v.S.S.V.r.] j J.J.J.J.t t f y t r J.J.J.J.J.J.J.J.J.J.J.J.J.J.J.J.J.J.J.J.J.J.",
"J.J.J.J.J.J.J.J.J.J.J.J.J.J.J.J.J.J.J.J.J.J.6 k q.Z.D.H.H.M.{ c J.J.J.J.6 6 6 6 6 6 J.J.J.J.J.J.J.J.J.J.J.J.J.J.J.J.J.J.J.J.J.J.",
"J.J.J.J.J.J.J.J.J.J.J.J.J.J.J.J.J.J.J.J.J.J.6 M y.D.H.H.H.M.{ m J.J.J.J.J.J.J.J.J.J.J.J.J.J.J.J.J.J.J.J.J.J.J.J.J.J.J.J.J.J.J.J.",
"J.J.J.J.J.J.J.J.J.J.J.J.J.J.J.J.J.J.J.J.J.J.6 M i.H.H.H.H.l.{ m J.J.J.J.J.J.J.J.J.J.J.J.J.J.J.J.J.J.J.J.J.J.J.J.J.J.J.J.J.J.J.J."
};
