/* XPM */
static char *result[] = {
/* columns rows colors chars-per-pixel */
"64 64 148 2 ",
"   c #601015",
".  c #69161D",
"X  c #731219",
"o  c #411B20",
"O  c #4A1A20",
"+  c #581C23",
"@  c #681E28",
"#  c #402026",
"$  c #4E2027",
"%  c #5C252E",
"&  c #4B2F39",
"*  c #66252F",
"=  c #722A39",
"-  c #4C244B",
";  c #5E3144",
":  c #56374A",
">  c #593B4B",
",  c #512751",
"<  c #562955",
"1  c #5C2C5B",
"2  c #6F3746",
"3  c #612E60",
"4  c #653164",
"5  c #693667",
"6  c #6C3F67",
"7  c #6D346B",
"8  c #6C3A69",
"9  c #70356D",
"0  c #733771",
"q  c #763A75",
"w  c #793B76",
"e  c #773B78",
"r  c #7B3B7A",
"t  c #6C4A5E",
"y  c #6F416A",
"u  c #704466",
"i  c #734E64",
"p  c #774372",
"a  c #784275",
"s  c #7D447A",
"d  c #7E4A78",
"f  c #882330",
"g  c #812D3C",
"h  c #922431",
"j  c #A22D3E",
"k  c #AC2839",
"l  c #B12737",
"z  c #8B394C",
"x  c #8C3E52",
"c  c #903E53",
"v  c #AD2F40",
"b  c #AC394D",
"n  c #CB3044",
"m  c #C1364B",
"M  c #E53A52",
"N  c #9E4359",
"B  c #A44056",
"V  c #855169",
"C  c #83447F",
"Z  c #824A7E",
"A  c #885771",
"S  c #AB5E7D",
"D  c #AC607F",
"F  c #813F82",
"G  c #874484",
"H  c #8A4687",
"J  c #864F80",
"K  c #8A4B84",
"L  c #844088",
"P  c #89448B",
"I  c #8E4C8A",
"U  c #914F8D",
"Y  c #875180",
"T  c #8A5682",
"R  c #94518F",
"E  c #904791",
"W  c #934A95",
"Q  c #954999",
"!  c #994E9A",
"~  c #975591",
"^  c #995793",
"/  c #9C5B96",
"(  c #9B519C",
")  c #A25E9B",
"_  c #A96085",
"`  c #B36180",
"'  c #B46B8D",
"]  c #A56292",
"[  c #A16A96",
"{  c #AF6E91",
"}  c #A3619A",
"|  c #A46999",
" . c #A57296",
".. c #AC749D",
"X. c #AF799F",
"o. c #BD749A",
"O. c #9E52A0",
"+. c #A04FA5",
"@. c #A255A3",
"#. c #A55CA1",
"$. c #A756A8",
"%. c #AA5AAA",
"&. c #AC56B1",
"*. c #B15DB4",
"=. c #A762A0",
"-. c #AB65A4",
";. c #AD6CA4",
":. c #AD62A9",
">. c #B16DA6",
",. c #B063AB",
"<. c #B56DAC",
"1. c #B86CAC",
"2. c #B87FA7",
"3. c #B672AB",
"4. c #BA72AD",
"5. c #B77BA9",
"6. c #BC7BAF",
"7. c #B666B4",
"8. c #B865B7",
"9. c #B669B0",
"0. c #B96AB3",
"q. c #BD6CB9",
"w. c #BE74B5",
"e. c #BE79B3",
"r. c #C37BA2",
"t. c #C379AF",
"y. c #C27CB6",
"u. c #C372BC",
"i. c #C779BE",
"p. c #C879BF",
"a. c #CB7BC1",
"s. c #BF80B0",
"d. c #C780A9",
"f. c #C282B3",
"g. c #CA85B0",
"h. c #C78AB6",
"j. c #CD88B4",
"k. c #CB84BE",
"l. c #CD8BBD",
"z. c #D28DBC",
"x. c #CF82C3",
"c. c #D287C4",
"v. c #D28BC4",
"b. c #D690C6",
"n. c #D893C7",
"m. c #DA96C8",
"M. c #DB98C9",
"N. c None",
/* pixels */
"N.N.N.N.N.N.N.N.N.N.N.N.N.N.N.N.N.N.N.N.N.N.N.N.N.N.N.N.N.N.N.N.N.N.N.N.N.N.N.N.N.N.N.N.N.N.N.N.N.N.N.N.N.N.N.N.N.N.N.N.N.N.N.N.",
"N.N.N.N.N.N.N.N.N.N.N.N.N.N.N.N.N.N.N.N.N.N.N.N.N.N.N.N.N.N.N.N.N.N.N.N.N.N.N.N.N.N.N.N.N.N.N.N.N.N.N.N.N.N.N.N.N.N.N.N.N.N.N.N.",
"N.N.N.N.N.N.N.N.N.N.N.N.N.N.N.N.N.N.N.N.N.N.N.N.N.N.N.N.N.N.N.N.N.N.N.N.N.N.N.N.N.N.N.N.N.N.N.N.N.N.N.N.N.N.N.N.N.N.N.N.N.N.N.N.",
"N.N.N.N.N.N.N.N.N.N.N.N.N.N.N.N.N.N.N.N.N.N.N.N.N.N.N.N.N.N.N.N.N.N.N.N.N.N.N.N.N.N.N.N.N.N.N.N.N.N.N.N.N.N.N.N.N.N.N.N.N.N.N.N.",
"N.N.N.N.N.N.N.N.N.N.N.N.N.N.N.N.N.N.N.N.N.N.N.N.N.N.N.N.N.N.N.N.N.N.N.N.N.N.N.N.N.N.N.N.N.N.N.N.N.N.N.N.N.N.N.N.N.N.N.N.N.N.N.N.",
"N.N.N.N.N.N.N.N.N.N.N.N.N.N.N.N.N.N.N.N.N.N.N.N.N.N.N.N.N.N.N.N.N.N.N.N.N.N.N.N.N.N.N.N.N.N.N.N.N.N.N.N.N.N.N.N.N.N.N.N.N.N.N.N.",
"N.N.N.N.N.N.N.N.N.N.N.N.N.N.N.N.N.N.N.N.N.N.N.N.N.N.N.N.N.N.N.N.N.N.N.N.N.N.N.N.N.N.N.N.N.N.N.N.N.N.N.N.N.N.N.N.N.N.N.N.N.N.N.N.",
"N.N.N.N.N.N.N.N.N.N.N.N.N.N.N.N.N.N.N.N.N.N.N.N.N.N.N.N.N.N.N.N.N.N.N.N.N.N.N.N.N.N.N.N.N.N.N.N.N.N.N.N.N.N.N.N.N.N.N.N.N.N.N.N.",
"N.N.N.N.N.N.N.N.N.N.N.N.N.N.N.N.N.N.N.N.N.N.N.N.N.N.- - - - - - - - - - - - - - N.N.N.N.N.N.N.N.N.N.N.N.N.N.N.N.N.N.N.N.N.N.N.N.",
"N.N.N.N.N.N.N.N.N.N.N.N.N.N.N.N.N.N.N.N.N.N.N.N.N.N.< < < 1 3 4 4 3 4 3 1 < < < N.N.N.N.N.N.N.N.N.N.N.N.N.N.N.N.N.N.N.N.N.N.N.N.",
"N.N.N.N.N.N.N.N.N.N.N.N.N.N.N.N.N.N.N.N.N.N.- - - < 4 9 9 q F Q W Q W P w 7 7 4 < - - - N.N.N.N.N.N.N.N.N.N.N.N.N.N.N.N.N.N.N.N.",
"N.N.N.N.N.N.N.N.N.N.N.N.N.N.N.N.N.N.N.N.N.N.< 1 3 7 r H H W $.*.*.*.*.$.W P P r 7 1 1 < N.N.N.N.N.N.N.N.N.N.N.N.N.N.N.N.N.N.N.N.",
"N.N.N.N.N.N.N.N.N.N.N.N.N.N.N.N.N.N.N.N.- < 4 q P Q ! $.%.0.u.u.u.u.u.q.0.,.@.! Q P q 4 < - N.N.N.N.N.N.N.N.N.N.N.N.N.N.N.N.N.N.",
"N.N.N.N.N.N.N.N.N.N.N.N.N.N.N.N.N.N.N.N.< 3 w E $.*.*.8.a.a.p.a.a.a.a.a.a.u.8.*.*.$.E r 3 < N.N.N.N.N.N.N.N.N.N.N.N.N.N.N.N.N.N.",
"N.N.N.N.N.N.N.N.N.N.N.N.N.N.N.N.N.N.- < 4 r E $.8.u.u.u.a.a.a.a.a.a.a.a.a.a.u.u.u.0.$.W r 3 < - N.N.N.N.N.N.N.N.N.N.N.N.N.N.N.N.",
"N.N.N.N.N.N.N.N.N.N.N.N.N.N.N.N.N.N.- 1 q E $.8.u.a.c.a.c.c.a.a.a.x.x.x.x.x.a.a.a.u.8.$.E q 1 - N.N.N.N.N.N.N.N.N.N.N.N.N.N.N.N.",
"N.N.N.N.N.N.N.N.N.N.N.N.N.N.N.N.N.N.- 4 P $.0.u.p.c.v.b.n.n.n.b.b.b.b.n.n.v.x.a.a.a.a.8.$.P 3 - N.N.N.N.N.N.N.N.N.N.N.N.N.N.N.N.",
"N.N.N.N.N.N.N.N.N.N.N.N.N.N.N.N.N.N.< 7 ( 7.u.a.a.c.b.M.M.m.M.M.M.M.M.M.M.n.x.x.a.a.a.q.*.Q 7 < N.N.N.N.N.N.N.N.N.N.N.N.N.N.N.N.",
"N.N.N.N.N.N.N.N.N.N.N.N.N.N.N.N.- < 4 C %.u.p.a.v.n.m.M.M.M.M.M.M.M.M.M.M.M.n.v.a.a.a.q.*.! r 4 < - N.N.N.N.N.N.N.N.N.N.N.N.N.N.",
"N.N.N.N.N.N.N.N.N.N.N.N.N.N.N.N.- 1 q W 0.a.c.v.n.M.M.M.M.M.M.M.M.M.M.M.M.M.M.b.c.a.a.a.8.$.E e 1 - N.N.N.N.N.N.N.N.N.N.N.N.N.N.",
"N.N.N.N.N.N.N.N.N.N.N.N.N.N.N.N.- 3 P %.u.c.c.n.m.M.M.M.M.M.M.M.M.M.M.M.M.M.M.M.b.v.x.a.a.8.$.P 3 - N.N.N.N.N.N.N.N.N.N.N.N.N.N.",
"N.N.N.N.N.N.N.N.N.N.N.N.N.N.N.N.- 4 ! 8.u.k.b.M.M.M.M.M.M.M.M.M.M.M.M.M.M.M.M.M.M.b.a.a.a.q.*.W 3 - N.N.N.N.N.N.N.N.N.N.N.N.N.N.",
"N.N.N.N.N.N.N.N.N.N.N.N.N.N.N.N.- 5 #.u.a.a.b.M.M.M.M.M.M.M.M.M.M.M.M.M.M.M.M.M.M.n.x.a.a.q.*.W 4 - N.N.N.N.N.N.N.N.N.N.N.N.N.N.",
"N.N.N.N.N.N.N.N.N.N.N.N.N.N.N.N.- 8 ;.a.a.c.n.M.M.M.M.M.M.M.M.M.M.M.M.M.M.M.M.M.n.x.<.-.-.:.$.W 4 - N.N.N.N.N.N.N.N.N.N.N.N.N.N.",
"N.N.N.N.N.N.N.N.N.N.N.N.N.N.N.N.- 8 -.a.c.n.m.M.M.M.M.M.M.M.M.M.M.M.M.M.M.M.M.n.c.3.J 8 8 r O.W 4 - N.N.N.N.N.N.N.N.N.N.N.N.N.N.",
"N.N.N.N.N.N.N.N.N.N.N.N.N.N.N.N.- 5 -.c.n.M.M.M.M.M.M.M.M.M.M.M.M.M.M.M.M.b.s.3.3.} d y y a P F 1 - N.N.N.N.N.N.N.N.N.N.N.N.N.N.",
"N.N.N.N.N.N.N.N.N.N.N.N.N.N.N.N.- 8 -.c.n.M.M.M.M.M.M.M.M.M.M.M.M.M.M.M.M.s.T p G ~ ..5.5.} a 1 , - N.N.N.N.N.N.N.N.N.N.N.N.N.N.",
"N.N.N.N.N.N.N.N.N.N.N.N.N.N.N.N.- 8 -.a.n.M.M.m.z.g.r.o.o.r.g.z.n.M.M.v.s.[ d p K / w.c.v.5.y - - - N.N.N.N.N.N.N.N.N.N.N.N.N.N.",
"N.N.N.N.N.N.N.N.N.N.N.N.N.N.N.N.- 8 -.c.b.M.M.z.r.D c g g c S r.z.m.M.f.T d / ;.e.e.q.q.a.;.8 - - - N.N.N.N.N.N.N.N.N.N.N.N.N.N.",
"N.N.N.N.N.N.N.N.N.N.N.N.N.N.N.N.- 8 -.a.b.n.z.r.` B f X   @ x S d.b.m.s.T J <.x.f.w.7.*.:.~ 8 < - - N.N.N.N.N.N.N.N.N.N.N.N.N.N.",
"N.N.N.N.N.N.N.N.N.N.N.N.N.N.N.N.- 8 -.c.b.z.r.D B j k h + O * z ' j.b.l.3.<.k.f.} / 9.-.C 5 7 4 < - N.N.N.N.N.N.N.N.N.N.N.N.N.N.",
"N.N.N.N.N.N.N.N.N.N.N.N.N.N.N.N.- 5 ) p.z.t.S B j l n v % o * x ' j.b.n.c.x.f.3.^ ~ } ^ w 4 0 7 < - N.N.N.N.N.N.N.N.N.N.N.N.N.N.",
"N.N.N.N.N.N.N.N.N.N.N.N.N.N.N.N.- 4 ! 9.y.' z f l n M m % & V ..g.b.m.m.n.f.} / -.) C w P P r 7 < - N.N.N.N.N.N.N.N.N.N.N.N.N.N.",
"N.N.N.N.N.N.N.N.N.N.N.N.N.N.N.N.- 3 P $.1._ = . h j m B t t  .s.z.M.m.m.n.s.~ I ) ~ 8 4 P E r 4 < - N.N.N.N.N.N.N.N.N.N.N.N.N.N.",
"N.N.N.N.N.N.N.N.N.N.N.N.N.N.N.N.- 1 w R 1.] ; o $ % * = V  .s.b.M.M.M.b.c.u.%.W w 7 9 0 G w 3 < N.N.N.N.N.N.N.N.N.N.N.N.N.N.N.N.",
"N.N.N.N.N.N.N.N.N.N.N.N.N.N.N.N.- < 4 C :.} y : > > > i  .h.b.M.M.M.m.v.a.q.&.Q 7 1 9 q 7 4 < - N.N.N.N.N.N.N.N.N.N.N.N.N.N.N.N.",
"N.N.N.N.N.N.N.N.N.N.N.N.N.N.N.N.N.N.< 9 ( :.=.| X.X.X.s.h.b.m.M.M.n.c.a.8.*.&.! r 9 0 9 3 < N.N.N.N.N.N.N.N.N.N.N.N.N.N.N.N.N.N.",
"N.N.N.N.N.N.N.N.N.N.N.N.N.N.N.N.N.N.- 4 L ! :.w.h.c.k.l.b.b.n.b.b.x.a.8.*.+.+.Q C q 9 4 < - N.N.N.N.N.N.N.N.N.N.N.N.N.N.N.N.N.N.",
"N.N.N.N.N.N.N.N.N.N.N.N.N.N.N.N.N.N.N.N.3 7 G ~ %.7.7.q.x.x.x.x.a.a.8.*.&.+.E F r 9 1 < N.N.N.N.N.N.N.N.N.N.N.N.N.N.N.N.N.N.N.N.",
"N.N.N.N.N.N.N.N.N.N.N.N.N.N.N.N.N.N.N.N.- < 4 e P W W Q O.=.;.;.-.#.! Q Q F q 7 7 5 < - N.N.N.N.N.N.N.N.N.N.N.N.N.N.N.N.N.N.N.N.",
"N.N.N.N.N.N.N.N.N.N.N.N.N.N.N.N.N.N.N.N.N.N.< 1 3 3 4 4 5 5 5 5 8 5 4 4 4 3 1 < < < N.N.N.N.N.N.N.N.N.N.N.N.N.N.N.N.N.N.N.N.N.N.",
"N.N.N.N.N.N.N.N.N.N.N.N.N.N.N.N.N.N.N.N.N.N.- , 1 4 5 y y y y y 8 8 8 5 4 3 1 , - - N.N.N.N.N.N.N.N.N.N.N.N.N.N.N.N.N.N.N.N.N.N.",
"N.N.N.N.N.N.N.N.N.N.N.N.N.N.N.N.N.N.N.N.N.N.- 1 F ! #.;.3.s.X.3.;.-.-.#.! L e 4 < - N.N.N.N.N.N.N.N.N.N.N.N.N.N.N.N.N.N.N.N.N.N.",
"N.N.N.N.N.N.N.N.N.N.N.N.N.N.N.N.N.N.N.N.N.N.- 4 ! 7.a.v.b.M.M.n.x.x.x.a.q.%.E e 1 - N.N.N.N.N.N.N.N.N.N.N.N.N.N.N.N.N.N.N.N.N.N.",
"N.N.N.N.N.N.N.N.N.N.N.N.N.N.N.N.N.N.N.N.N.N.- 8 #.a.c.b.M.M.M.M.n.n.b.b.c.e.:.L 3 - N.N.N.N.N.N.N.N.N.N.N.N.N.N.N.N.N.N.N.N.N.N.",
"N.N.N.N.N.N.N.N.N.N.N.N.N.N.N.N.N.N.N.N.N.N.- 5 #.a.v.M.M.M.M.b.s.s.b.M.M.c.q.! 4 - N.N.N.N.N.N.N.N.N.N.N.N.N.N.N.N.N.N.N.N.N.N.",
"N.N.N.N.N.N.N.N.N.N.N.N.N.N.N.N.N.N.N.N.N.N.- 4 ( q.v.M.M.M.M.s.T T s.M.M.v.a.=.5 - N.N.N.N.N.N.N.N.N.N.N.N.N.N.N.N.N.N.N.N.N.N.",
"N.N.N.N.N.N.N.N.N.N.N.N.N.N.N.N.N.N.N.N.N.N.- 3 L $.4.s.x.h.e.| d Y e.n.b.v.i.O.5 - N.N.N.N.N.N.N.N.N.N.N.N.N.N.N.N.N.N.N.N.N.N.",
"N.N.N.N.N.N.N.N.N.N.N.N.N.N.N.N.N.N.N.N.N.N.- 1 w G I ^ :.#.d d / <.i.x.x.a.8.Q 4 - N.N.N.N.N.N.N.N.N.N.N.N.N.N.N.N.N.N.N.N.N.N.",
"N.N.N.N.N.N.N.N.N.N.N.N.N.N.N.N.N.N.N.N.N.N.- < 7 C K U W P a Y 3.x.x.x.a.q.%.P 3 - N.N.N.N.N.N.N.N.N.N.N.N.N.N.N.N.N.N.N.N.N.N.",
"N.N.N.N.N.N.N.N.N.N.N.N.N.N.N.N.N.N.N.N.N.N.- < 7 K >.| s a [ s.v.b.n.v.x.9.~ e 1 - N.N.N.N.N.N.N.N.N.N.N.N.N.N.N.N.N.N.N.N.N.N.",
"N.N.N.N.N.N.N.N.N.N.N.N.N.N.N.N.N.N.N.N.N.N.- < 7 I w.>.6 y 2.M.M.n.n.x.a.-.G 4 < - N.N.N.N.N.N.N.N.N.N.N.N.N.N.N.N.N.N.N.N.N.N.",
"N.N.N.N.N.N.N.N.N.N.N.N.N.N.N.N.N.N.N.N.N.N.- < 7 H $.( 5 y 5.M.M.b.v.i.8.( 7 < N.N.N.N.N.N.N.N.N.N.N.N.N.N.N.N.N.N.N.N.N.N.N.N.",
"N.N.N.N.N.N.N.N.N.N.N.N.N.N.N.N.N.N.N.N.N.N.- < 3 w E P 3 8 ;.c.b.v.i.7.O.F 1 - N.N.N.N.N.N.N.N.N.N.N.N.N.N.N.N.N.N.N.N.N.N.N.N.",
"N.N.N.N.N.N.N.N.N.N.N.N.N.N.N.N.N.N.N.N.N.N.- , < 3 r q 1 4 ( 0.i.a.8.O.w 1 , - N.N.N.N.N.N.N.N.N.N.N.N.N.N.N.N.N.N.N.N.N.N.N.N.",
"N.N.N.N.N.N.N.N.N.N.N.N.N.N.N.N.N.N.N.N.N.N.< < < 1 4 4 < 1 G ! #.=.Q P w 8 4 3 N.N.N.N.N.N.N.N.N.N.N.N.N.N.N.N.N.N.N.N.N.N.N.N.",
"N.N.N.N.N.N.N.N.N.N.N.N.N.N.N.N.N.N.N.N.- < 3 9 7 4 1 < - < 1 4 5 5 4 q ^ #.! L 3 - N.N.N.N.N.N.N.N.N.N.N.N.N.N.N.N.N.N.N.N.N.N.",
"N.N.N.N.N.N.N.N.N.N.N.N.N.N.N.N.N.N.N.N.- < 9 w r 9 1 < - - - , 1 4 5 J 3.a.q.O.d 5 N.N.N.N.N.N.N.N.N.N.N.N.N.N.N.N.N.N.N.N.N.N.",
"N.N.N.N.N.N.N.N.N.N.N.N.N.N.N.N.N.N.N.N.- < 9 w w 0 7 4 < - - 3 F ! =.<.x.v.v.f.<.R 5 - N.N.N.N.N.N.N.N.N.N.N.N.N.N.N.N.N.N.N.N.",
"N.N.N.N.N.N.N.N.N.N.N.N.N.N.N.N.N.N.N.N.- < 4 7 7 9 7 4 < - - 3 L O.w.v.n.M.M.n.c.-.5 - N.N.N.N.N.N.N.N.N.N.N.N.N.N.N.N.N.N.N.N.",
"N.N.N.N.N.N.N.N.N.N.N.N.N.N.N.N.N.N.N.N.N.N.< < < < < < N.N.N.N.3 Z 5.b.M.M.M.b.c.-.5 - N.N.N.N.N.N.N.N.N.N.N.N.N.N.N.N.N.N.N.N.",
"N.N.N.N.N.N.N.N.N.N.N.N.N.N.N.N.N.N.N.N.N.N.- - - - - - N.N.N.N.- 6 [ 5.5.5.5.3.;.^ 5 - N.N.N.N.N.N.N.N.N.N.N.N.N.N.N.N.N.N.N.N.",
"N.N.N.N.N.N.N.N.N.N.N.N.N.N.N.N.N.N.N.N.N.N.N.N.N.N.N.N.N.N.N.N.N.N.y y y y y y 8 7 N.N.N.N.N.N.N.N.N.N.N.N.N.N.N.N.N.N.N.N.N.N.",
"N.N.N.N.N.N.N.N.N.N.N.N.N.N.N.N.N.N.N.N.N.N.N.N.N.N.N.N.N.N.N.N.N.N.- - - - - - - - N.N.N.N.N.N.N.N.N.N.N.N.N.N.N.N.N.N.N.N.N.N."
};
