/* XPM */
static char *result[] = {
/* columns rows colors chars-per-pixel */
"64 64 147 2 ",
"   c #601015",
".  c #69161D",
"X  c #731219",
"o  c #411B20",
"O  c #4A1A20",
"+  c #581C23",
"@  c #681E28",
"#  c #402026",
"$  c #4E2027",
"%  c #5C252E",
"&  c #4B2F39",
"*  c #66252F",
"=  c #722A39",
"-  c #4C244B",
";  c #5E3144",
":  c #56374A",
">  c #593B4B",
",  c #512751",
"<  c #562955",
"1  c #5C2C5B",
"2  c #6F3746",
"3  c #612F61",
"4  c #653164",
"5  c #693666",
"6  c #6B3E67",
"7  c #6C346B",
"8  c #6C3A68",
"9  c #70356D",
"0  c #733771",
"q  c #763975",
"w  c #793B76",
"e  c #7A3B7A",
"r  c #6C4A5E",
"t  c #6F416A",
"y  c #704466",
"u  c #734E64",
"i  c #774372",
"p  c #784275",
"a  c #7E437B",
"s  c #7E4A78",
"d  c #882330",
"f  c #812D3C",
"g  c #922431",
"h  c #A22D3E",
"j  c #AC2839",
"k  c #B12737",
"l  c #8B394C",
"z  c #8C3E52",
"x  c #903E53",
"c  c #AD2F40",
"v  c #AC394D",
"b  c #CB3044",
"n  c #C1364B",
"m  c #E53A52",
"M  c #9E4359",
"N  c #A44056",
"B  c #855169",
"V  c #82447E",
"C  c #834B7E",
"Z  c #885771",
"A  c #AB5E7D",
"S  c #AC607F",
"D  c #813F82",
"F  c #854284",
"G  c #8A4687",
"H  c #8A4B84",
"J  c #844088",
"K  c #8A438C",
"L  c #8E4B8A",
"P  c #904F8A",
"I  c #875180",
"U  c #8A5682",
"Y  c #94518F",
"T  c #904791",
"R  c #934A95",
"E  c #954999",
"W  c #994E9B",
"Q  c #975492",
"!  c #995793",
"~  c #9D5A96",
"^  c #9B519C",
"/  c #A25D9B",
"(  c #A96085",
")  c #B36180",
"_  c #B46B8D",
"`  c #A56292",
"'  c #A16A96",
"]  c #AF6E91",
"[  c #A3619A",
"{  c #A46999",
"}  c #A57296",
"|  c #AC749D",
" . c #AF799F",
".. c #BD749A",
"X. c #9D4DA1",
"o. c #A04FA5",
"O. c #A156A2",
"+. c #A55CA1",
"@. c #A756A8",
"#. c #AA5AAA",
"$. c #AC56B1",
"%. c #B15CB3",
"&. c #A762A0",
"*. c #AB65A4",
"=. c #AE6CA4",
"-. c #AD61A9",
";. c #B16DA6",
":. c #B063AB",
">. c #B46CAB",
",. c #B86CAC",
"<. c #B87FA7",
"1. c #B672AB",
"2. c #BA71AD",
"3. c #B77BA9",
"4. c #BD7EAF",
"5. c #B665B6",
"6. c #B865B7",
"7. c #B669B0",
"8. c #B96AB4",
"9. c #BD6CB9",
"0. c #BE75B5",
"q. c #BE7AB3",
"w. c #C37BA2",
"e. c #C379AF",
"r. c #C27CB6",
"t. c #C372BD",
"y. c #C67ABE",
"u. c #C87ABF",
"i. c #CB7BC1",
"p. c #BF80B0",
"a. c #C780A9",
"s. c #C382B4",
"d. c #CA85B0",
"f. c #C78AB6",
"g. c #CD88B4",
"h. c #C784B8",
"j. c #CB84BE",
"k. c #CE8BBD",
"l. c #D28DBC",
"z. c #CE82C2",
"x. c #D287C4",
"c. c #D38BC5",
"v. c #D691C6",
"b. c #D892C7",
"n. c #DA96C8",
"m. c #DB98C9",
"M. c None",
/* pixels */
"M.M.M.M.M.M.M.M.M.M.M.M.M.M.M.M.M.M.M.M.M.M.M.M.M.M.M.M.M.M.M.M.M.M.M.M.M.M.M.M.M.M.M.M.M.M.M.M.M.M.M.M.M.M.M.M.M.M.M.M.M.M.M.M.",
"M.M.M.M.M.M.M.M.M.M.M.M.M.M.M.M.M.M.M.M.M.M.M.M.M.M.M.M.M.M.M.M.M.M.M.M.M.M.M.M.M.M.M.M.M.M.M.M.M.M.M.M.M.M.M.M.M.M.M.M.M.M.M.M.",
"M.M.M.M.M.M.M.M.M.M.M.M.M.M.M.M.M.M.M.M.M.M.M.M.M.M.M.M.M.M.M.M.M.M.M.M.M.M.M.M.M.M.M.M.M.M.M.M.M.M.M.M.M.M.M.M.M.M.M.M.M.M.M.M.",
"M.M.M.M.M.M.M.M.M.M.M.M.M.M.M.M.M.M.M.M.M.M.M.M.M.M.M.M.M.M.M.M.M.M.M.M.M.M.M.M.M.M.M.M.M.M.M.M.M.M.M.M.M.M.M.M.M.M.M.M.M.M.M.M.",
"M.M.M.M.M.M.M.M.M.M.M.M.M.M.M.M.M.M.M.M.M.M.M.M.M.M.M.M.M.M.M.M.M.M.M.M.M.M.M.M.M.M.M.M.M.M.M.M.M.M.M.M.M.M.M.M.M.M.M.M.M.M.M.M.",
"M.M.M.M.M.M.M.M.M.M.M.M.M.M.M.M.M.M.M.M.M.M.M.M.M.M.M.M.M.M.M.M.M.M.M.M.M.M.M.M.M.M.M.M.M.M.M.M.M.M.M.M.M.M.M.M.M.M.M.M.M.M.M.M.",
"M.M.M.M.M.M.M.M.M.M.M.M.M.M.M.M.M.M.M.M.M.M.M.M.M.M.M.M.M.M.M.M.M.M.M.M.M.M.M.M.M.M.M.M.M.M.M.M.M.M.M.M.M.M.M.M.M.M.M.M.M.M.M.M.",
"M.M.M.M.M.M.M.M.M.M.M.M.M.M.M.M.M.M.M.M.M.M.M.M.M.M.M.M.M.M.M.M.M.M.M.M.M.M.M.M.M.M.M.M.M.M.M.M.M.M.M.M.M.M.M.M.M.M.M.M.M.M.M.M.",
"M.M.M.M.M.M.M.M.M.M.M.M.M.M.M.M.M.M.M.M.M.M.M.M.M.M.- - - - - - - - - - - - - - M.M.M.M.M.M.M.M.M.M.M.M.M.M.M.M.M.M.M.M.M.M.M.M.",
"M.M.M.M.M.M.M.M.M.M.M.M.M.M.M.M.M.M.M.M.M.M.M.M.M.M.< < < 1 3 3 4 4 3 3 1 < < < M.M.M.M.M.M.M.M.M.M.M.M.M.M.M.M.M.M.M.M.M.M.M.M.",
"M.M.M.M.M.M.M.M.M.M.M.M.M.M.M.M.M.M.M.M.M.M.- - - < 4 9 7 q K R R E R K w 7 7 4 < - - - M.M.M.M.M.M.M.M.M.M.M.M.M.M.M.M.M.M.M.M.",
"M.M.M.M.M.M.M.M.M.M.M.M.M.M.M.M.M.M.M.M.M.M.< 1 3 7 e G G R @.%.%.%.%.@.R G G e 7 1 1 < M.M.M.M.M.M.M.M.M.M.M.M.M.M.M.M.M.M.M.M.",
"M.M.M.M.M.M.M.M.M.M.M.M.M.M.M.M.M.M.M.M.- < 3 q K E W @.#.8.9.t.t.t.t.9.8.:.@.W E K w 4 < - M.M.M.M.M.M.M.M.M.M.M.M.M.M.M.M.M.M.",
"M.M.M.M.M.M.M.M.M.M.M.M.M.M.M.M.M.M.M.M.< 3 e T @.%.%.6.i.i.i.i.i.i.i.i.i.t.6.%.%.@.K e 3 < M.M.M.M.M.M.M.M.M.M.M.M.M.M.M.M.M.M.",
"M.M.M.M.M.M.M.M.M.M.M.M.M.M.M.M.M.M.- < 4 e T @.6.t.t.t.i.i.i.i.i.i.i.i.i.i.t.t.t.6.#.R e 3 < - M.M.M.M.M.M.M.M.M.M.M.M.M.M.M.M.",
"M.M.M.M.M.M.M.M.M.M.M.M.M.M.M.M.M.M.- 1 q T @.6.t.i.i.i.i.x.x.i.i.z.z.z.z.z.z.i.i.t.5.@.T q 1 - M.M.M.M.M.M.M.M.M.M.M.M.M.M.M.M.",
"M.M.M.M.M.M.M.M.M.M.M.M.M.M.M.M.M.M.- 3 K @.6.t.i.i.i.z.c.v.v.v.b.b.v.b.v.b.b.c.i.u.t.6.@.K 3 - M.M.M.M.M.M.M.M.M.M.M.M.M.M.M.M.",
"M.M.M.M.M.M.M.M.M.M.M.M.M.M.M.M.M.M.< 7 E %.t.i.i.i.i.c.b.m.m.m.n.n.n.m.m.m.m.b.x.x.u.u.6.W 9 < M.M.M.M.M.M.M.M.M.M.M.M.M.M.M.M.",
"M.M.M.M.M.M.M.M.M.M.M.M.M.M.M.M.- < 4 e W %.t.i.i.i.c.b.n.m.m.m.n.m.m.m.m.m.m.n.n.c.i.u.t.-.V 4 < - M.M.M.M.M.M.M.M.M.M.M.M.M.M.",
"M.M.M.M.M.M.M.M.M.M.M.M.M.M.M.M.- 1 q T @.5.t.i.z.x.b.m.m.m.m.m.m.m.m.m.m.m.m.m.m.b.c.i.i.,.W e 1 - M.M.M.M.M.M.M.M.M.M.M.M.M.M.",
"M.M.M.M.M.M.M.M.M.M.M.M.M.M.M.M.- 3 K @.6.t.u.i.c.b.n.m.m.m.m.m.m.m.m.m.m.m.m.m.m.n.b.c.x.t.@.D 3 - M.M.M.M.M.M.M.M.M.M.M.M.M.M.",
"M.M.M.M.M.M.M.M.M.M.M.M.M.M.M.M.- 3 R %.t.i.i.x.b.m.m.m.m.m.m.m.m.m.m.m.m.m.m.m.m.m.n.b.i.t.6.W 4 - M.M.M.M.M.M.M.M.M.M.M.M.M.M.",
"M.M.M.M.M.M.M.M.M.M.M.M.M.M.M.M.- 3 R %.t.i.i.x.v.m.m.m.m.m.m.m.m.m.m.m.m.m.m.m.m.m.m.b.x.u.u./ 5 - M.M.M.M.M.M.M.M.M.M.M.M.M.M.",
"M.M.M.M.M.M.M.M.M.M.M.M.M.M.M.M.- 4 R #.#.*.*.>.h.v.m.m.m.m.m.m.m.m.m.m.m.m.m.m.m.m.n.b.c.i.i.*.8 - M.M.M.M.M.M.M.M.M.M.M.M.M.M.",
"M.M.M.M.M.M.M.M.M.M.M.M.M.M.M.M.- 3 E X.a 7 8 I >.z.b.m.m.m.m.m.m.m.m.m.m.m.m.m.m.m.m.m.b.l.u.*.8 - M.M.M.M.M.M.M.M.M.M.M.M.M.M.",
"M.M.M.M.M.M.M.M.M.M.M.M.M.M.M.M.- 3 D K p 6 t s &.>.3.p.v.m.m.m.m.m.m.m.m.m.m.m.m.m.m.m.m.b.x.*.8 - M.M.M.M.M.M.M.M.M.M.M.M.M.M.",
"M.M.M.M.M.M.M.M.M.M.M.M.M.M.M.M.- , 1 p ' 3.3.| Q F p U p.m.m.m.m.m.m.n.m.m.m.m.m.m.m.m.m.b.x.*.8 - M.M.M.M.M.M.M.M.M.M.M.M.M.M.",
"M.M.M.M.M.M.M.M.M.M.M.M.M.M.M.M.- - - 6 3.c.x.q.~ H p s } p.v.m.m.b.x.g.w.....w.g.l.l.m.m.v.i.*.8 - M.M.M.M.M.M.M.M.M.M.M.M.M.M.",
"M.M.M.M.M.M.M.M.M.M.M.M.M.M.M.M.- - - 8 =.i.9.8.q.4.;.! s U p.m.m.l.w.( x f f x ( a.l.m.m.v.z.*.5 - M.M.M.M.M.M.M.M.M.M.M.M.M.M.",
"M.M.M.M.M.M.M.M.M.M.M.M.M.M.M.M.- - < 8 Q -.%.5.q.s.z.1.I I p.m.b.w.A z @   X g N S a.l.b.v.z.*.8 - M.M.M.M.M.M.M.M.M.M.M.M.M.M.",
"M.M.M.M.M.M.M.M.M.M.M.M.M.M.M.M.- < 4 7 8 s -.8.~ [ r.j.>.1.x.l.g._ z @ O + g k h N S w.l.v.z.*.8 - M.M.M.M.M.M.M.M.M.M.M.M.M.M.",
"M.M.M.M.M.M.M.M.M.M.M.M.M.M.M.M.- < 7 0 4 q ! / Q ! 1.s.z.x.v.v.g._ z * o % j b k h N S e.l.u.+.5 - M.M.M.M.M.M.M.M.M.M.M.M.M.M.",
"M.M.M.M.M.M.M.M.M.M.M.M.M.M.M.M.- < 7 D K K q s &.*.! [ p.b.m.n.b.d.] B & % v m b j d l _ r.8.W 4 - M.M.M.M.M.M.M.M.M.M.M.M.M.M.",
"M.M.M.M.M.M.M.M.M.M.M.M.M.M.M.M.- < 3 e R K 4 7 Q ~ L ^ q.b.b.m.m.l.f.} r 2 v b c d . = ( 1.#.D 3 - M.M.M.M.M.M.M.M.M.M.M.M.M.M.",
"M.M.M.M.M.M.M.M.M.M.M.M.M.M.M.M.M.M.< 3 e V 0 7 8 p R @.i.x.b.m.m.m.l.f.} Z 2 * % $ o ; ` ,.Y w 1 - M.M.M.M.M.M.M.M.M.M.M.M.M.M.",
"M.M.M.M.M.M.M.M.M.M.M.M.M.M.M.M.M.M.- < 3 9 q 9 3 7 E %.6.i.x.v.m.m.m.b.f.} u > > : : y [ -.V 4 < - M.M.M.M.M.M.M.M.M.M.M.M.M.M.",
"M.M.M.M.M.M.M.M.M.M.M.M.M.M.M.M.M.M.M.M.< 1 9 w 7 e X.$.$.6.i.x.b.m.m.n.b.f.p. . .| ' &.%.^ 8 < M.M.M.M.M.M.M.M.M.M.M.M.M.M.M.M.",
"M.M.M.M.M.M.M.M.M.M.M.M.M.M.M.M.M.M.M.M.- < 4 9 q D E X.$.%.6.i.x.v.v.v.v.v.c.f.z.z.0.-.W J 4 , M.M.M.M.M.M.M.M.M.M.M.M.M.M.M.M.",
"M.M.M.M.M.M.M.M.M.M.M.M.M.M.M.M.M.M.M.M.M.M.< 3 0 e D K X.$.%.6.i.z.z.z.z.i.9.5.5.#.Q F 8 4 M.M.M.M.M.M.M.M.M.M.M.M.M.M.M.M.M.M.",
"M.M.M.M.M.M.M.M.M.M.M.M.M.M.M.M.M.M.M.M.M.M.- < 3 7 7 q J E R W +.&.*.*.*./ W R R K q 4 , - M.M.M.M.M.M.M.M.M.M.M.M.M.M.M.M.M.M.",
"M.M.M.M.M.M.M.M.M.M.M.M.M.M.M.M.M.M.M.M.M.M.M.M.< < < 1 3 3 4 4 8 8 8 8 8 5 4 3 3 3 1 , M.M.M.M.M.M.M.M.M.M.M.M.M.M.M.M.M.M.M.M.",
"M.M.M.M.M.M.M.M.M.M.M.M.M.M.M.M.M.M.M.M.M.M.M.M.- - 3 4 5 8 8 6 8 8 6 t t t 8 8 4 3 , - M.M.M.M.M.M.M.M.M.M.M.M.M.M.M.M.M.M.M.M.",
"M.M.M.M.M.M.M.M.M.M.M.M.M.M.M.M.M.M.M.M.M.M.M.M.- 3 D W +.&.&.*.&.=.1.3.3.1.=./ W D 3 - M.M.M.M.M.M.M.M.M.M.M.M.M.M.M.M.M.M.M.M.",
"M.M.M.M.M.M.M.M.M.M.M.M.M.M.M.M.M.M.M.M.M.M.M.M.8 a / 9.i.z.i.i.z.x.v.m.m.v.x.i.5.W 4 - M.M.M.M.M.M.M.M.M.M.M.M.M.M.M.M.M.M.M.M.",
"M.M.M.M.M.M.M.M.M.M.M.M.M.M.M.M.M.M.M.M.M.M.- 7 ! >.h.x.c.c.z.z.c.b.b.m.m.m.b.c.y.+.5 - M.M.M.M.M.M.M.M.M.M.M.M.M.M.M.M.M.M.M.M.",
"M.M.M.M.M.M.M.M.M.M.M.M.M.M.M.M.M.M.M.M.M.M.8 C 1.z.b.n.n.c.e.0.x.b.m.m.m.m.m.c.z.+.5 - M.M.M.M.M.M.M.M.M.M.M.M.M.M.M.M.M.M.M.M.",
"M.M.M.M.M.M.M.M.M.M.M.M.M.M.M.M.M.M.M.M.- 8 ! 1.j.n.m.m.m.h.~ ~ 0.x.b.m.m.m.m.x.5.W 4 - M.M.M.M.M.M.M.M.M.M.M.M.M.M.M.M.M.M.M.M.",
"M.M.M.M.M.M.M.M.M.M.M.M.M.M.M.M.M.M.M.M.5 C >.x.c.v.x.h.q.{ V a ~ 0.z.z.z.j.p.q.+.K 3 - M.M.M.M.M.M.M.M.M.M.M.M.M.M.M.M.M.M.M.M.",
"M.M.M.M.M.M.M.M.M.M.M.M.M.M.M.M.M.M.- 5 ! 1.z.c.x.i.6.+.V 8 1 4 a Q #.5.6.:.! P G q 1 - M.M.M.M.M.M.M.M.M.M.M.M.M.M.M.M.M.M.M.M.",
"M.M.M.M.M.M.M.M.M.M.M.M.M.M.M.M.M.M.3 V >.x.b.v.z.0.O.J 3 1 4 5 e T #.5.5.#.! H e 7 < - M.M.M.M.M.M.M.M.M.M.M.M.M.M.M.M.M.M.M.M.",
"M.M.M.M.M.M.M.M.M.M.M.M.M.M.M.M.- 3 J +.y.b.m.v.z.:.p 4 7 q K E X.#.r.x.z.z.s.;.H 9 < - M.M.M.M.M.M.M.M.M.M.M.M.M.M.M.M.M.M.M.M.",
"M.M.M.M.M.M.M.M.M.M.M.M.M.M.M.M.- 4 R 5.x.m.m.c.i.+.8 < 7 D X.$.%.9.z.v.m.m.v.q.Y 7 < - M.M.M.M.M.M.M.M.M.M.M.M.M.M.M.M.M.M.M.M.",
"M.M.M.M.M.M.M.M.M.M.M.M.M.M.M.M.- 4 E 5.z.m.m.c.9.W 4 < 7 J X.%.6.i.i.z.b.b.c.0.H 7 < - M.M.M.M.M.M.M.M.M.M.M.M.M.M.M.M.M.M.M.M.",
"M.M.M.M.M.M.M.M.M.M.M.M.M.M.M.M.- 3 D O.q.x.z.0.O.D 4 3 5 q R @.8.t.i.z.v.v.x.,.H 3 < - M.M.M.M.M.M.M.M.M.M.M.M.M.M.M.M.M.M.M.M.",
"M.M.M.M.M.M.M.M.M.M.M.M.M.M.M.M.M.M.3 p O.5.5.O.p 4 7 4 1 3 e T @.5.9.z.v.b.b.1.i < M.M.M.M.M.M.M.M.M.M.M.M.M.M.M.M.M.M.M.M.M.M.",
"M.M.M.M.M.M.M.M.M.M.M.M.M.M.M.M.M.M.- 4 J R E D 4 3 7 7 3 1 3 e R @.8.i.c.v.m.s.I 5 M.M.M.M.M.M.M.M.M.M.M.M.M.M.M.M.M.M.M.M.M.M.",
"M.M.M.M.M.M.M.M.M.M.M.M.M.M.M.M.M.M.M.M.3 4 4 4 7 9 0 w 9 4 1 4 q T @.6.i.c.b.x.1.! 8 - M.M.M.M.M.M.M.M.M.M.M.M.M.M.M.M.M.M.M.M.",
"M.M.M.M.M.M.M.M.M.M.M.M.M.M.M.M.M.M.M.M.- - - < 9 w w 9 9 4 < < 4 q R @.9.i.c.c.z.1.C y M.M.M.M.M.M.M.M.M.M.M.M.M.M.M.M.M.M.M.M.",
"M.M.M.M.M.M.M.M.M.M.M.M.M.M.M.M.M.M.M.M.M.M.- < 7 w w 9 3 < M.M.< 4 q Q 8.i.z.x.c.c.a.{ t - M.M.M.M.M.M.M.M.M.M.M.M.M.M.M.M.M.M.",
"M.M.M.M.M.M.M.M.M.M.M.M.M.M.M.M.M.M.M.M.M.M.- < 4 7 7 4 < - M.M.- < 4 F *.t.i.x.v.m.m.3.t - M.M.M.M.M.M.M.M.M.M.M.M.M.M.M.M.M.M.",
"M.M.M.M.M.M.M.M.M.M.M.M.M.M.M.M.M.M.M.M.M.M.M.M.< < < < - - M.M.M.M.< 7 ^ 9.z.n.m.m.m.3.t - M.M.M.M.M.M.M.M.M.M.M.M.M.M.M.M.M.M.",
"M.M.M.M.M.M.M.M.M.M.M.M.M.M.M.M.M.M.M.M.M.M.M.M.- - - - - - M.M.M.M.- 4 J ^ =.3.3.3.3.{ 6 - M.M.M.M.M.M.M.M.M.M.M.M.M.M.M.M.M.M.",
"M.M.M.M.M.M.M.M.M.M.M.M.M.M.M.M.M.M.M.M.M.M.M.M.M.M.M.M.M.M.M.M.M.M.M.M.3 5 6 t t t t 6 M.M.M.M.M.M.M.M.M.M.M.M.M.M.M.M.M.M.M.M.",
"M.M.M.M.M.M.M.M.M.M.M.M.M.M.M.M.M.M.M.M.M.M.M.M.M.M.M.M.M.M.M.M.M.M.M.M.- - - - - - - - M.M.M.M.M.M.M.M.M.M.M.M.M.M.M.M.M.M.M.M."
};
