/* XPM */
static char *_9d02790e27944ae93cbe87d39fb2ffc3OIpBKT6H9eWL1vz[] = {
/* columns rows colors chars-per-pixel */
"64 64 16 1 ",
"  c None",
". c black",
"X c gray12",
"o c #39210F",
"O c #282828",
"+ c #472A13",
"@ c #482A13",
"# c #482A14",
"$ c #492B14",
"% c #4A2C14",
"& c #4B2C14",
"* c #4C2D15",
"= c #4D2E15",
"- c #4E2E15",
"; c #4F2F16",
": c #5C371C",
/* pixels */
"                                                                ",
"                                                                ",
"                                                                ",
"                                                                ",
"                        ................                        ",
"                        ................                        ",
"                    ....%%%%::::::::%%%%....                    ",
"                    ....%%%%::::::::%%%%....                    ",
"                ....%%::::oooooooooooo::::%%....                ",
"                ....%%::::oooooooooooo::::%%....                ",
"              ..%%%%::oooo$$++++;;;;%%oooo::%%%%..              ",
"              ..%%%%::oooo$$++++;;;;%%oooo::%%%%..              ",
"              ..%%::oo$$@@%%;;;;;;;;;;;;%%oo::%%..              ",
"              ..%%::oo$$@@%%;;;;;;;;;;;;%%oo::%%..              ",
"            ..%%::oo$$%%;;;;;;;;;;;;;;;;;;%%oo::%%..            ",
"            ..%%::oo$$%%;;;;;;;;;;;;;;;;;;%%oo::%%..            ",
"            ..%%::oo++%%;;;;;;;;;;;;;;;;;;%%oo::%%..            ",
"            ..%%::oo++%%;;;;;;;;;;;;;;;;;;%%oo::%%..            ",
"            ..%%::oo$$;;;;;;;;;;;;;;;;;;;;%%oo::%%..            ",
"            ..%%::oo$$;;;;;;;;;;;;;;;;;;;;%%oo::%%..            ",
"            ..oo::::oo;;$$%%;;;;;;;;;;;;%%oo::::oo..            ",
"            ..oo::::oo;;$$%%;;;;;;;;;;;;%%oo::::oo..            ",
"            ..oo%%::::oooo$$++++;;;;%%oooo::::%%oo..            ",
"            ..oo%%::::oooo$$++++;;;;%%oooo::::%%oo..            ",
"            ..%%oo%%%%::::oooooooooooo::::%%oooo%%..            ",
"            ..%%oo%%%%::::oooooooooooo::::%%oooo%%..            ",
"            ..%%::oooooo%%::::::::::::%%oooooo::%%..            ",
"            ..%%::oooooo%%::::::::::::%%oooooo::%%..            ",
"            ..%%::oo%%::oooooooooooooooo::%%oo::%%..            ",
"            ..%%::oo%%::oooooooooooooooo::%%oo::%%..            ",
"            ..%%::oo%%::oo%%::oooo::%%oo::%%oo::%%..            ",
"            ..%%::oo%%::oo%%::oooo::%%oo::%%oo::%%..            ",
"            ..XX::oo%%::oo%%::oooo::%%oo::%%oo::XX..            ",
"            ..XX::oo%%::oo%%::oooo::%%oo::%%oo::XX..            ",
"            ..%%OOoo%%::oo%%::oooo::%%oo::%%ooOO%%..            ",
"            ..%%OOoo%%::oo%%::oooo::%%oo::%%ooOO%%..            ",
"            ..%%::OOXXOOoo%%::oooo::%%ooOOXXOO::%%..            ",
"            ..%%::OOXXOOoo%%::oooo::%%ooOOXXOO::%%..            ",
"            ..%%::oo%%OOOOXXOOOOOOOOXXOOOO%%oo::%%..            ",
"            ..%%::oo%%OOOOXXOOOOOOOOXXOOOO%%oo::%%..            ",
"            ..%%::oo%%::oo%%::oooo::%%oo::%%oo::%%..            ",
"            ..%%::oo%%::oo%%::oooo::%%oo::%%oo::%%..            ",
"            ..%%::oo%%::oo%%::oooo::%%oo::%%oo::%%..            ",
"            ..%%::oo%%::oo%%::oooo::%%oo::%%oo::%%..            ",
"            ..XX::oo%%::oo%%::oooo::%%oo::%%oo::XX..            ",
"            ..XX::oo%%::oo%%::oooo::%%oo::%%oo::XX..            ",
"            ..%%OOoo%%::oo%%::oooo::%%oo::%%ooOO%%..            ",
"            ..%%OOoo%%::oo%%::oooo::%%oo::%%ooOO%%..            ",
"            ..%%::OOXXOOoo%%::oooo::%%ooOOXXOO::%%..            ",
"            ..%%::OOXXOOoo%%::oooo::%%ooOOXXOO::%%..            ",
"            ..%%::oo%%OOOOXXOOOOOOOOXXOOOO%%oo::%%..            ",
"            ..%%::oo%%OOOOXXOOOOOOOOXXOOOO%%oo::%%..            ",
"            ..%%::oo%%::oo%%::oooo::%%oo::%%oo::%%..            ",
"            ..%%::oo%%::oo%%::oooo::%%oo::%%oo::%%..            ",
"            ..%%::oo%%::oo%%::oooo::%%oo::%%oo::%%..            ",
"            ..%%::oo%%::oo%%::oooo::%%oo::%%oo::%%..            ",
"              ..::oo%%::oo%%::oooo::%%oo::%%oo::..              ",
"              ..::oo%%::oo%%::oooo::%%oo::%%oo::..              ",
"                ..oo%%::oo%%::oooo::%%oo::%%oo..                ",
"                ..oo%%::oo%%::oooo::%%oo::%%oo..                ",
"                  ....::oo%%::oooo::%%oo::....                  ",
"                  ....::oo%%::oooo::%%oo::....                  ",
"                      ....................                      ",
"                      ....................                      "
};
