/* XPM */
static char *result[] = {
/* columns rows colors chars-per-pixel */
"64 64 129 2 ",
"   c #04010F",
".  c #0B020F",
"X  c #0E080F",
"o  c #11070E",
"O  c #130B0E",
"+  c #190F0E",
"@  c #1A100E",
"#  c #26170D",
"$  c #2D1B0C",
"%  c #301D0C",
"&  c #2B240D",
"*  c #36220C",
"=  c #3C240B",
"-  c #362E0C",
";  c #382F0C",
":  c #39300C",
">  c #462B0A",
",  c #4B2E0A",
"<  c #522F09",
"1  c #443E0B",
"2  c #553409",
"3  c #583609",
"4  c #513D0A",
"5  c #5B3909",
"6  c #663E09",
"7  c #693F09",
"8  c #45410B",
"9  c #4A430B",
"0  c #5E4609",
"q  c #52490A",
"w  c #57530A",
"e  c #5B550A",
"r  c #674008",
"t  c #6A4109",
"y  c #7D4D06",
"u  c #645309",
"i  c #665E09",
"p  c #7D5608",
"a  c #666209",
"s  c #6A6609",
"d  c #7E6C08",
"f  c #7F7708",
"g  c #7F7B08",
"h  c #824D06",
"j  c #865305",
"k  c #895505",
"l  c #8D5A05",
"z  c #955C05",
"x  c #9E6205",
"c  c #807608",
"v  c #817D08",
"b  c #947105",
"n  c #9C7806",
"m  c #A26504",
"M  c #A86706",
"N  c #AA6904",
"B  c #B36F02",
"V  c #B57102",
"C  c #BA7402",
"Z  c #C37A01",
"A  c #CB7E00",
"S  c #D17F00",
"D  c #9E8805",
"F  c #9A9506",
"G  c #9B9906",
"H  c #BC8203",
"J  c #A39606",
"K  c #A7A605",
"L  c #A8A705",
"P  c #ABA905",
"I  c #B1A204",
"U  c #B5AB05",
"Y  c #CE8000",
"T  c #D28300",
"R  c #DB8700",
"E  c #D28D00",
"W  c #DE8900",
"Q  c #CD9702",
"!  c #C89D02",
"~  c #D49100",
"^  c #DA9400",
"/  c #E38D00",
"(  c #EB8E00",
")  c #E69200",
"_  c #EC9100",
"`  c #E49C00",
"'  c #F39600",
"]  c #F99600",
"[  c #F39A00",
"{  c #F99B00",
"}  c #C0A003",
"|  c #DAA100",
" . c #DDAA00",
".. c #CCB403",
"X. c #D5BC02",
"o. c #EFA300",
"O. c #FFA300",
"+. c #F4AF00",
"@. c #FFAD00",
"#. c #EAB600",
"$. c #E3BC02",
"%. c #EABB00",
"&. c #FDB400",
"*. c #F4BF01",
"=. c #FDBC00",
"-. c #C7C403",
";. c #C8C503",
":. c #D8CE02",
">. c #DDD102",
",. c #DFDD02",
"<. c #E1C401",
"1. c #EBCB01",
"2. c #F1C500",
"3. c #FCC500",
"4. c #FFCA00",
"5. c #E3D702",
"6. c #E0DE02",
"7. c #F1D301",
"8. c #FBD200",
"9. c #F7DD00",
"0. c #FADD00",
"q. c #E4E302",
"w. c #E9E801",
"e. c #FFE500",
"r. c #F7EE00",
"t. c #FBEB00",
"y. c #FEF200",
"u. c #FFFC00",
"i. c None",
/* pixels */
"i.i.i.i.i.i.i.i.i.i.i.i.i.i.i.i.i.i.i.i.i.i.i.i.i.i.i.i.. . . . . . . . i.i.i.i.i.i.i.i.i.i.i.i.i.i.i.i.i.i.i.i.i.i.i.i.i.i.i.i.",
"i.i.i.i.i.i.i.i.i.i.i.i.i.i.i.i.i.i.i.i.i.i.i.i.i.i.i.i.+ + + + + + + + i.i.i.i.i.i.i.i.i.i.i.i.i.i.i.i.i.i.i.i.i.i.i.i.i.i.i.i.",
"i.i.i.i.i.i.i.i.i.i.i.i.i.i.i.i.i.i.i.i.i.i.i.i.i.i.i.i.- - ; : ; ; - - i.i.i.i.i.i.i.i.i.i.i.i.i.i.i.i.i.i.i.i.i.i.i.i.i.i.i.i.",
"i.i.i.i.i.i.i.i.i.i.i.i.i.i.i.i.i.i.i.i.i.i.i.i.i.i.i.9 e i s s s s s e 9 i.i.i.i.i.i.i.i.i.i.i.i.i.i.i.i.i.i.i.i.i.i.i.i.i.i.i.",
"i.i.i.i.i.i.i.i.i.i.i.i.i.i.i.i.i.i.i.i.i.i.i.i.i.+ - w c F K P P L F v e - + i.i.i.i.i.i.i.i.i.i.i.i.i.i.i.i.i.i.i.i.i.i.i.i.i.",
"i.i.i.i.i.i.i.i.i.i.i.i.i.i.i.i.i.i.i.i.i.i.i.i.. + - i F -.,.w.w.6.-.F i - + . i.i.i.i.i.i.i.i.i.i.i.i.i.i.i.i.i.i.i.i.i.i.i.i.",
"i.i.i.i.i.i.i.i.i.i.i.i.i.i.i.i.i.i.i.i.i.i.i.i.. + - s K 6.u.u.u.r.:.J i - + . i.i.i.i.i.i.i.i.i.i.i.i.i.i.i.i.i.i.i.i.i.i.i.i.",
"i.i.i.i.i.i.i.i.i.i.i.i.i.i.i.i.i.i.i.i.i.i.i.i.. + ; s L q.u.u.y.e.X.D u - + . i.i.i.i.i.i.i.i.i.i.i.i.i.i.i.i.i.i.i.i.i.i.i.i.",
"i.i.i.i.i.i.i.i.i.i.i.i.i.i.i.i.i.i.i.i.i.i.i.i.. + - s L q.u.y.e.<.! b 0 * + . i.i.i.i.i.i.i.i.i.i.i.i.i.i.i.i.i.i.i.i.i.i.i.i.",
"i.i.i.i.i.i.i.i.i.i.i.i.i.i.i.i.i.i.i.i.i.i.i.i.. + ; s L 6.r.e.2.^ H l 5 % + X i.i.i.i.i.i.i.i.i.i.i.i.i.i.i.i.i.i.i.i.i.i.i.i.",
"i.i.i.i.i.i.i.i.i.i.i.i.i.i.i.i.i.i.i.i.i.i.i.i.. + - s L 6.r.0.#.E V j 2 $ + X i.i.i.i.i.i.i.i.i.i.i.i.i.i.i.i.i.i.i.i.i.i.i.i.",
"i.i.i.i.i.i.i.i.i.i.i.i.i.i.i.i.i.i.i.i.i.i.i.i.  o - a K ,.r.0.#.E B y < $ O . i.i.i.i.i.i.i.i.i.i.i.i.i.i.i.i.i.i.i.i.i.i.i.i.",
"i.i.i.i.i.i.i.i.i.i.i.i.i.i.i.i.i.i.i.i.i.i.i.i.  o * a K ,.r.9.#.E N h < $ O . i.i.i.i.i.i.i.i.i.i.i.i.i.i.i.i.i.i.i.i.i.i.i.i.",
"i.i.i.i.i.i.i.i.i.i.i.i.i.i.i.i.i.i.i.i.i.i.i.i.. @ : s K ,.r.9.#.~ V j 2 % + O i.i.i.i.i.i.i.i.i.i.i.i.i.i.i.i.i.i.i.i.i.i.i.i.",
"i.i.i.i.i.i.i.i.i.i.i.i.i.i.i.i.i.i.i.i.i.i.i.i.& ; q g U 5.e.8.#.^ C z 7 > % # i.i.i.i.i.i.i.i.i.i.i.i.i.i.i.i.i.i.i.i.i.i.i.i.",
"i.i.i.i.i.i.i.i.i.i.i.i.i.i.i.i.i.i.i.i.i.i.i.1 w a f J ..1.8.3.+.) Y N k 7 3 > = i.i.i.i.i.i.i.i.i.i.i.i.i.i.i.i.i.i.i.i.i.i.i.",
"i.i.i.i.i.i.i.i.i.i.i.i.i.i.i.i.i.i.i.i.i.+ - w g G U ..$.*.=.&.+.[ W A N x y 6 , $ + i.i.i.i.i.i.i.i.i.i.i.i.i.i.i.i.i.i.i.i.i.",
"i.i.i.i.i.i.i.i.i.i.i.i.i.i.i.i.i.i.i.i.. + - i G ;.5.7.3.&.@.O.{ O._ / T C x y 2 % + X i.i.i.i.i.i.i.i.i.i.i.i.i.i.i.i.i.i.i.i.",
"i.i.i.i.i.i.i.i.i.i.i.i.i.i.i.i.i.i.i.i.. + - s L ,.y.e.3.@.{ { { { ' _ / Y V j 3 $ + X i.i.i.i.i.i.i.i.i.i.i.i.i.i.i.i.i.i.i.i.",
"i.i.i.i.i.i.i.i.i.i.i.i.i.i.i.i.i.i.i.i.. @ - s L q.u.t.4.@.{ { ] ' _ _ / E C k 3 $ + X i.i.i.i.i.i.i.i.i.i.i.i.i.i.i.i.i.i.i.i.",
"i.i.i.i.i.i.i.i.i.i.i.i.i.i.i.i.i.i.i.i.. + - s L q.y.e.4.@.{ ' ( / W W R T V k 3 % + X i.i.i.i.i.i.i.i.i.i.i.i.i.i.i.i.i.i.i.i.",
"i.i.i.i.i.i.i.i.i.i.i.i.i.i.i.i.i.i.i.i.. + - s K 6.y.e.4.@.{ _ / R T T T Y V j 3 % + X i.i.i.i.i.i.i.i.i.i.i.i.i.i.i.i.i.i.i.i.",
"i.i.i.i.i.i.i.i.i.i.i.i.i.i.i.i.i.i.i.i.. + - s K 6.y.e.4.@.{ ( W T Y T T A V j 3 % + X i.i.i.i.i.i.i.i.i.i.i.i.i.i.i.i.i.i.i.i.",
"i.i.i.i.i.i.i.i.i.i.i.i.i.i.i.i.i.i.i.i.. @ ; s K ,.y.e.4.@.{ ( W Y Y Y Y A B k 3 $ + X i.i.i.i.i.i.i.i.i.i.i.i.i.i.i.i.i.i.i.i.",
"i.i.i.i.i.i.i.i.i.i.i.i.i.i.i.i.i.i.i.i.. + - s K ,.y.e.4.@.{ _ W T A Y T A B j 3 % @ X i.i.i.i.i.i.i.i.i.i.i.i.i.i.i.i.i.i.i.i.",
"i.i.i.i.i.i.i.i.i.i.i.i.i.i.i.i.i.i.i.i.. + - s K ,.y.e.4.@.{ _ W T A T T A B j 3 % @ X i.i.i.i.i.i.i.i.i.i.i.i.i.i.i.i.i.i.i.i.",
"i.i.i.i.i.i.i.i.i.i.i.i.i.i.i.i.i.i.i.i.. + ; s K ,.y.e.4.@.{ ( W T A A T A B j 3 $ @ X i.i.i.i.i.i.i.i.i.i.i.i.i.i.i.i.i.i.i.i.",
"i.i.i.i.i.i.i.i.i.i.i.i.i.i.i.i.i.i.i.i.. + ; s K ,.y.e.4.@.{ _ / S A T Y A B k 3 $ + X i.i.i.i.i.i.i.i.i.i.i.i.i.i.i.i.i.i.i.i.",
"i.i.i.i.i.i.i.i.i.i.i.i.i.i.i.i.i.i.i.i.. + - s K ,.y.e.4.@.{ ( / T Y Y T A B j 3 % @ X i.i.i.i.i.i.i.i.i.i.i.i.i.i.i.i.i.i.i.i.",
"i.i.i.i.i.i.i.i.i.i.i.i.i.i.i.i.i.i.i.i.. + - s K ,.y.e.4.@.{ _ W T Y Y T A V j 3 % + X i.i.i.i.i.i.i.i.i.i.i.i.i.i.i.i.i.i.i.i.",
"i.i.i.i.i.i.i.i.i.i.i.i.i.i.i.i.i.i.i.i.. + - s K ,.y.e.4.@.{ _ W T Y Y T A B j 3 % @ X i.i.i.i.i.i.i.i.i.i.i.i.i.i.i.i.i.i.i.i.",
"i.i.i.i.i.i.i.i.i.i.i.i.i.i.i.i.i.i.i.i.. + - s K ,.y.e.4.@.{ ( W T Y Y Y A B j 3 $ @ X i.i.i.i.i.i.i.i.i.i.i.i.i.i.i.i.i.i.i.i.",
"i.i.i.i.i.i.i.i.i.i.i.i.i.i.i.i.i.i.i.i.. @ - s K ,.y.e.4.@.{ _ W T A T T A B j 3 % + X i.i.i.i.i.i.i.i.i.i.i.i.i.i.i.i.i.i.i.i.",
"i.i.i.i.i.i.i.i.i.i.i.i.i.i.i.i.i.i.i.i.. @ - s K ,.y.e.4.@.{ ( / T Y Y T A B j 3 % + X i.i.i.i.i.i.i.i.i.i.i.i.i.i.i.i.i.i.i.i.",
"i.i.i.i.i.i.i.i.i.i.i.i.i.i.i.i.i.i.i.i.. + - s K ,.y.e.4.@.{ _ R S A S T A B j 3 % + X i.i.i.i.i.i.i.i.i.i.i.i.i.i.i.i.i.i.i.i.",
"i.i.i.i.i.i.i.i.i.i.i.i.i.i.i.i.i.i.i.i.. + - s K ,.y.e.4.@.{ ( / S A T T A B j 3 % + X i.i.i.i.i.i.i.i.i.i.i.i.i.i.i.i.i.i.i.i.",
"i.i.i.i.i.i.i.i.i.i.i.i.i.i.i.i.i.i.i.i.. + - s K 6.y.e.4.@.{ _ W T Y Y Y A B j 3 $ @ X i.i.i.i.i.i.i.i.i.i.i.i.i.i.i.i.i.i.i.i.",
"i.i.i.i.i.i.i.i.i.i.i.i.i.i.i.i.i.i.i.i.. + - s K ,.y.e.4.@.{ _ W T Y Y T A V j 3 % + X i.i.i.i.i.i.i.i.i.i.i.i.i.i.i.i.i.i.i.i.",
"i.i.i.i.i.i.i.i.i.i.i.i.i.i.i.i.i.i.i.i.. + - s K ,.y.e.4.@.{ _ / T Y Y Y A B j 3 % + X i.i.i.i.i.i.i.i.i.i.i.i.i.i.i.i.i.i.i.i.",
"i.i.i.i.i.i.i.i.i.i.i.i.i.i.i.i.i.i.i.i.. + ; s K ,.y.e.4.@.{ _ W T Y Y T A V j 3 % + X i.i.i.i.i.i.i.i.i.i.i.i.i.i.i.i.i.i.i.i.",
"i.i.i.i.i.i.i.i.i.i.i.i.i.i.i.i.i.i.i.i.. + - s K ,.y.e.4.@.{ _ W T A S T A B j 3 % @ X i.i.i.i.i.i.i.i.i.i.i.i.i.i.i.i.i.i.i.i.",
"i.i.i.i.i.i.i.i.i.i.i.i.i.i.i.i.i.i.i.i.. + - s K ,.y.e.4.@.{ ( W T A T T A B j 3 $ + X i.i.i.i.i.i.i.i.i.i.i.i.i.i.i.i.i.i.i.i.",
"i.i.i.i.i.i.i.i.i.i.i.i.i.i.i.i.i.i.i.i.. + - s K 6.y.e.4.@.' ( W T A T T Y V k 3 $ + X i.i.i.i.i.i.i.i.i.i.i.i.i.i.i.i.i.i.i.i.",
"i.i.i.i.i.i.i.i.i.i.i.i.i.i.i.i.i.i.i.i.. @ : s P q.y.e.3.o./ W T T A T T T V k 3 % + X i.i.i.i.i.i.i.i.i.i.i.i.i.i.i.i.i.i.i.i.",
"i.i.i.i.i.i.i.i.i.i.i.i.i.i.i.i.i.i.i.i.. + - s P q.y.e.*.` W T S A T T T T V k 5 % + X i.i.i.i.i.i.i.i.i.i.i.i.i.i.i.i.i.i.i.i.",
"i.i.i.i.i.i.i.i.i.i.i.i.i.i.i.i.i.i.i.i.. + ; s K 5.r.9.#.^ T A S A A T T A B k 3 % + X i.i.i.i.i.i.i.i.i.i.i.i.i.i.i.i.i.i.i.i.",
"i.i.i.i.i.i.i.i.i.i.i.i.i.i.i.i.i.i.i.i.. + - a G ;.>.:. .~ T S S A A Z Z V m y 2 % + X i.i.i.i.i.i.i.i.i.i.i.i.i.i.i.i.i.i.i.i.",
"i.i.i.i.i.i.i.i.i.i.i.i.i.i.i.i.i.i.i.i.i.+ - e v F I ! Q ~ R R T S Z B m z y r , $ + i.i.i.i.i.i.i.i.i.i.i.i.i.i.i.i.i.i.i.i.i.",
"i.i.i.i.i.i.i.i.i.i.i.i.i.i.i.i.i.i.i.i.i.i.i.8 e s d n H ^ ) ) W Y C m h t 3 , = i.i.i.i.i.i.i.i.i.i.i.i.i.i.i.i.i.i.i.i.i.i.i.",
"i.i.i.i.i.i.i.i.i.i.i.i.i.i.i.i.i.i.i.i.i.i.i.i.& ; 4 p V W ' ' / T C l 7 > & # i.i.i.i.i.i.i.i.i.i.i.i.i.i.i.i.i.i.i.i.i.i.i.i.",
"i.i.i.i.i.i.i.i.i.i.i.i.i.i.i.i.i.i.i.i.i.i.i.i.X + * t M W { { _ T V j 3 % @ X i.i.i.i.i.i.i.i.i.i.i.i.i.i.i.i.i.i.i.i.i.i.i.i.",
"i.i.i.i.i.i.i.i.i.i.i.i.i.i.i.i.i.i.i.i.i.i.i.i.  o % 7 M / { { ' T N j 2 $ O   i.i.i.i.i.i.i.i.i.i.i.i.i.i.i.i.i.i.i.i.i.i.i.i.",
"i.i.i.i.i.i.i.i.i.i.i.i.i.i.i.i.i.i.i.i.i.i.i.i.  O % 7 M / { { _ T V j 2 $ O . i.i.i.i.i.i.i.i.i.i.i.i.i.i.i.i.i.i.i.i.i.i.i.i.",
"i.i.i.i.i.i.i.i.i.i.i.i.i.i.i.i.i.i.i.i.i.i.i.i.. + * t M W { { _ T V j 3 $ + . i.i.i.i.i.i.i.i.i.i.i.i.i.i.i.i.i.i.i.i.i.i.i.i.",
"i.i.i.i.i.i.i.i.i.i.i.i.i.i.i.i.i.i.i.i.i.i.i.i.. + * 6 M R [ [ _ T V j 3 $ + X i.i.i.i.i.i.i.i.i.i.i.i.i.i.i.i.i.i.i.i.i.i.i.i.",
"i.i.i.i.i.i.i.i.i.i.i.i.i.i.i.i.i.i.i.i.i.i.i.i.X + * 6 x Y _ [ ) T V j 3 % + X i.i.i.i.i.i.i.i.i.i.i.i.i.i.i.i.i.i.i.i.i.i.i.i.",
"i.i.i.i.i.i.i.i.i.i.i.i.i.i.i.i.i.i.i.i.i.i.i.i.. @ * 5 z A / _ ) T C k 3 $ @ X i.i.i.i.i.i.i.i.i.i.i.i.i.i.i.i.i.i.i.i.i.i.i.i.",
"i.i.i.i.i.i.i.i.i.i.i.i.i.i.i.i.i.i.i.i.i.i.i.i.X @ $ 5 l V T R R Y B j 3 $ @ X i.i.i.i.i.i.i.i.i.i.i.i.i.i.i.i.i.i.i.i.i.i.i.i.",
"i.i.i.i.i.i.i.i.i.i.i.i.i.i.i.i.i.i.i.i.i.i.i.i.X @ % 3 y x B C C V m y 3 % + X i.i.i.i.i.i.i.i.i.i.i.i.i.i.i.i.i.i.i.i.i.i.i.i.",
"i.i.i.i.i.i.i.i.i.i.i.i.i.i.i.i.i.i.i.i.i.i.i.i.i.+ $ , r y j k k j y r , $ + i.i.i.i.i.i.i.i.i.i.i.i.i.i.i.i.i.i.i.i.i.i.i.i.i.",
"i.i.i.i.i.i.i.i.i.i.i.i.i.i.i.i.i.i.i.i.i.i.i.i.i.i.i.= , 2 3 3 3 3 3 , = i.i.i.i.i.i.i.i.i.i.i.i.i.i.i.i.i.i.i.i.i.i.i.i.i.i.i.",
"i.i.i.i.i.i.i.i.i.i.i.i.i.i.i.i.i.i.i.i.i.i.i.i.i.i.i.i.$ % $ % $ % $ % i.i.i.i.i.i.i.i.i.i.i.i.i.i.i.i.i.i.i.i.i.i.i.i.i.i.i.i.",
"i.i.i.i.i.i.i.i.i.i.i.i.i.i.i.i.i.i.i.i.i.i.i.i.i.i.i.i.+ + + + @ + + + i.i.i.i.i.i.i.i.i.i.i.i.i.i.i.i.i.i.i.i.i.i.i.i.i.i.i.i.",
"i.i.i.i.i.i.i.i.i.i.i.i.i.i.i.i.i.i.i.i.i.i.i.i.i.i.i.i.X X X X X X X X i.i.i.i.i.i.i.i.i.i.i.i.i.i.i.i.i.i.i.i.i.i.i.i.i.i.i.i."
};
