/* XPM */
static char *_e83414295d34c57d3ceec93d096ea6etRU43Ybbl3rQU4rS[] = {
/* columns rows colors chars-per-pixel */
"64 64 201 2 ",
"   c None",
".  c #0D0A06",
"X  c #04050A",
"o  c #08070B",
"O  c #07080C",
"+  c #0B0A09",
"@  c #030507",
"#  c #120D07",
"$  c #110E0A",
"%  c #19150C",
"&  c #0E0E11",
"*  c #110F10",
"=  c #121212",
"-  c #2F1E09",
";  c #33240D",
":  c #3C2C0D",
">  c #36290C",
",  c #3D310F",
"<  c #422C0E",
"1  c #4B310D",
"2  c #4B390E",
"3  c #40320D",
"4  c #50350A",
"5  c #432C13",
"6  c #4B3B13",
"7  c #4A3212",
"8  c #513B12",
"9  c #5B3C13",
"0  c #613E11",
"q  c #55420C",
"w  c #4F4016",
"e  c #544312",
"r  c #5B4312",
"t  c #5E4A14",
"y  c #6B450F",
"u  c #684714",
"i  c #734D10",
"p  c #6A5414",
"a  c #6F5915",
"s  c #635016",
"d  c #7E5612",
"f  c #755D15",
"g  c #795E13",
"h  c #755114",
"j  c #7D6417",
"k  c #554928",
"l  c #655831",
"z  c #76673D",
"x  c #7B6D40",
"c  c #885912",
"v  c #B75016",
"b  c #BA5415",
"n  c #BE5B15",
"m  c #92600F",
"M  c #846712",
"N  c #866812",
"B  c #8D6E15",
"V  c #976310",
"C  c #9F6410",
"Z  c #9F6D13",
"A  c #997713",
"S  c #A06D12",
"D  c #AC7414",
"F  c #B27414",
"G  c #BB7D15",
"H  c #B87A14",
"J  c #C05E13",
"K  c #CC700F",
"L  c #C46514",
"P  c #C76912",
"I  c #C96C12",
"U  c #C5691A",
"Y  c #C3661A",
"T  c #CE7313",
"R  c #C9721A",
"E  c #CF7C1C",
"W  c #D47415",
"Q  c #D67B13",
"!  c #D97E14",
"~  c #D97F19",
"^  c #D3791B",
"/  c #A78412",
"(  c #A88512",
")  c #B28B15",
"_  c #BF8515",
"`  c #BD9516",
"'  c #DD8A0F",
"]  c #C28415",
"[  c #C58A16",
"{  c #C78818",
"}  c #D78112",
"|  c #DB8413",
" . c #DD8A10",
".. c #D4851E",
"X. c #DB8419",
"o. c #DC8C1D",
"O. c #D48D1B",
"+. c #C39616",
"@. c #C59B15",
"#. c #CC9D17",
"$. c #CB9F18",
"%. c #C99517",
"&. c #DF9114",
"*. c #D49519",
"=. c #DD921D",
"-. c #E3960F",
";. c #E69A0F",
":. c #E18E14",
">. c #E08C1F",
",. c #E39412",
"<. c #E99715",
"1. c #E69A10",
"2. c #EB9C15",
"3. c #E1961E",
"4. c #E59D1C",
"5. c #F09F15",
"6. c #CDA116",
"7. c #D2A516",
"8. c #DDAD19",
"9. c #D8AA17",
"0. c #E7A113",
"q. c #EAA315",
"w. c #EDAD15",
"e. c #E7A21B",
"r. c #E9A31B",
"t. c #EDAD1C",
"y. c #E0AD18",
"u. c #F2A416",
"i. c #F2AB15",
"p. c #F1A618",
"a. c #F2AA1D",
"s. c #EFB11D",
"d. c #EBB317",
"f. c #F3B315",
"g. c #F4BD15",
"h. c #F0B31B",
"j. c #F4BD1C",
"k. c #F8B515",
"l. c #DB8625",
"z. c #DE9821",
"x. c #DE9721",
"c. c #DE9234",
"v. c #E49A23",
"b. c #E1962A",
"n. c #CCA424",
"m. c #CDA937",
"M. c #E9A424",
"N. c #EBAC25",
"B. c #EBAC2B",
"V. c #E6A624",
"C. c #F3AD20",
"Z. c #EEB224",
"A. c #EEB12E",
"S. c #F2B524",
"D. c #F3BC26",
"F. c #F4B529",
"G. c #F4BB2C",
"H. c #EFB531",
"J. c #EDB439",
"K. c #F4BB33",
"L. c #F4BD38",
"P. c #F0B733",
"I. c #E5A43B",
"U. c #F6C015",
"Y. c #FAC315",
"T. c #F6C11A",
"R. c #FBC418",
"E. c #F6C226",
"W. c #F8C627",
"Q. c #F7C528",
"!. c #F8C628",
"~. c #F9C82A",
"^. c #F6C334",
"/. c #F7C834",
"(. c #F6C33A",
"). c #F8C339",
"_. c #F7CA38",
"`. c #F9CB3C",
"'. c #F8C934",
"]. c #BFA042",
"[. c #CCAE51",
"{. c #EFBA44",
"}. c #EFBB4B",
"|. c #EBB345",
" X c #F1BC44",
".X c #F0BF53",
"XX c #F7CA42",
"oX c #F8CA42",
"OX c #F8CF4B",
"+X c #F4C248",
"@X c #FCD044",
"#X c #F5CA56",
"$X c #F8D153",
"%X c #F9D25B",
"&X c #E4C565",
"*X c #F5CC62",
"=X c #F9D564",
"-X c #F7D36B",
";X c #F9D66D",
":X c #F8D56C",
">X c #F9D872",
/* pixels */
"                                                                                                                                ",
"                                                                                                                                ",
"                                                      + + + + + + + + + +                                                       ",
"                                            O X X X s ( / / / / / / / / ( a X X X X                                             ",
"                                          6 g g g g ) Y.Y.Y.Y.Y.Y.Y.Y.Y.R.` g g g g e                                           ",
"                                      6 2 B Y.Y.Y.Y.Y.U.U.U.U.U.U.U.U.U.U.Y.Y.Y.Y.R.A 2 6                                       ",
"                                    > ` g.g.U.U.U.U.U.U.U.U.U.U.U.U.U.U.U.U.U.U.U.U.g.g.$.:                                     ",
"                                $ ; $.g.U.U.U.U.U.U.U.T.T.T.T.T.T.T.T.T.T.U.U.U.U.U.U.U.g.7., $                                 ",
"                              p ` @.g.U.U.U.U.U.U.U./.%X%X%X%X%X%X%X%X%X%X`.U.U.U.U.U.U.U.g.@.].z o                             ",
"                            a +.Y.Y.U.U.U.g.T.OXOXOX%X*XJ.J.J.J.J.J.J.J.I.b.,.,.,.f.Y.U.U.T.oX@Xn.f =                           ",
"                          t @.Y.U.U.U.U.Q._.XX:X#X+X+XJ.1.;.;.;.;.;.;.;. .! } ! W ,.q.w.T._.OXQ.Y.n.l                           ",
"                        6 9.Y.U.U.U.U.E.$X-X#X#Xe.1.1.1.1.1.1.1.1.1.;.1.1.1.;.1.! Q W | Z.$XE.U.T.`.&Xk                         ",
"                      6 8.g.U.U.U.U.E.%X:X X2.2.1.1.1.1.1.1.1.1.1.1.1.1.1.1.1.1.1.1.| W X.h.g.T.oX:X>X&Xk                       ",
"                    t 9.g.U.U.U.U.E.%X:X{.4.1.1.1.1.1.1.,.! Q Q | 1.1.1.1.1.1.1.1.1.;. .W X.h.XX:X>X=X~.8.p &                   ",
"                  a +.f.g.U.U.U.E.$X:X{.e.;.1.1.1.1.1.,.! W 4.N.N.s.1.1.1.1.1.1.1.1.1.1.| W X..X>X=X/.U.Y.m.x &                 ",
"                u _ k.f.f.g.U.Q.$X:X{.r.;.1.1.1.1.1.1.:.W W Z.!.!.D.1.1.1.1.1.1.1.1.1.1.1. .W c.{.`.U.U./.=X[.f                 ",
"              # H u.i.k.i.g.E.$X-X}.2.;.1.1.1.;.1.,.:.| W W Z.W.E.D.1.1.1.1.1.1.1.1.1.1.1.1.} W | w.T./.=X=X`.@.$               ",
"              ; _ u.u.i.g.E.$X:X}. .-.1.1.1.1.1.1.! Q ~ ~ X.Z.Q.Q.D.0.0.0.1.1.1.1.1.1.1.1.1.1.X.W X.S.=X=X_.Y.6.>               ",
"            ; { q.u.u.u.a.%X:X|. . .' 1.1.1.1.1.Q W 3.D.D.D.E.Q.Q.E.E.E.E.s.1.1.1.1.1.1.1.1.1.1.| W l.*X/.T.U.g.7.,             ",
"          5 D 2.u.u.u.a.).=X|.=.'  . . .,.1.1.! W v.D.Q.Q.Q.Q.Q.Q.Q.Q.Q.Q.E.s.1.1.1.1.1.1.1.1.1.1. .W l.h.U.U.U.g.@.e           ",
"          < <.u.u.u.a.K.oXJ.3.'  . . . .:.| I L 3.D.Q.!.!.!.!.!.!.!.!.Q.!.Q.E.s.1.1.1.1.1.1.1.1.1.1. .W | w.U.U.U.U.q X         ",
"        5 c q.u.u.u.F.(.B.&.'  . . . . .Q L n ..D.!.!.D.M.M.M.M.M.M.M.M.D.Q.Q.E.t.1.1.1.1.1.1.1.1.;.1. .W 2.U.U.U.g.A w         ",
"      X y <.u.u.u.a.G.L. . . . . . . . .P v U D.Q.Q.D.M.Q Q Q Q Q Q Q W 4.D.!.Q.E.q.;.1.1.1.1.1.1.;.1.1.Q ,.f.U.U.U.Y.N o       ",
"      X i u.u.u.u.G.oXP. . . . . . . . .P v U D.Q.!.e.} 1.1.1.1.1.;.,.Q W 3.E.Q.E.q.1.1.1.1.1.1.1.1.1.1.! W ,.g.U.U.Y.N X       ",
"      X i u.u.u.u.K.P.,. . . . . . . . .P v U D.Q.!.t.1.1.1.;.;.;.;.;.,.! W 3.E.E.q.;.1.1.1.1.1.1.1.1.1.1.! :.U.U.U.Y.N X       ",
"      X i u.u.u.u.K.A.'  . . . . . . . .P v U D.E.!.t.,.1.1.1.1.1.1.1.1.,.! W o.o.,.;.1.1.1.1.1.1.1.1.1.;.}  .U.U.U.Y.M X       ",
"      9 D u.u.u.S.(.H. . . . . . . . . .P v U D.Q.!.t.' ,.1.1.1.1.1.1.1.;.,. .} | ,.;.1.1.1.1.1.1.1.1.1.;.} ! q.g.U.Y.` p       ",
"    + V 2.u.u.p.).(.M. . . . . . . .'  .P v U D.Q.Q.Z.,. .,.1.1.1.1.1.1.1.1.1.1.1.1.1.1.1.1.1.1.1.1.1.1.1. .W X.g.U.U.Y.) .     ",
"    + Z u.u.u.p.).M. . . . . . . . . . .I b Y N.E.Q.!.S.,.,.1.0.0.q.0.0.0.1.1.1.1.1.1.1.1.1.1.1.1.1.1.;.1.1. .X.g.U.U.Y.) .     ",
"    + S u.u.u.p.).M.'  . . . . . . . . . .T b L N.Q.!.E.D.D.E.E.E.E.E.E.E.t.1.1.1.1.1.1.1.1.1.1.1.1.1.1.1.;. .X.g.U.U.Y.) .     ",
"    + S u.u.u.p.).M.'  . . . . . . . . . .| T b U V.!.Q.W.!.!.!.!.!.!.!.!.E.h.1.1.1.1.1.1.1.1.1.1.1.1.1.1.;. .X.g.U.U.Y.) .     ",
"    + S u.u.u.p.).M.'  . . . . . . . . . . .| T b R V.!.!.!.!.!.!.!.!.!.!.Q.E.s.1.1.1.1.1.1.1.1.1.1.1.1.1.;. .X.g.U.U.Y.) .     ",
"    + S u.u.u.p.).M.'  . . . . . . . . . . . . .I b R z.z.z.z.z.x.z.z.z.Z.!.Q.E.t.2.1.1.1.1.1.1.1.1.1.1.1.;. .X.g.U.U.Y.) .     ",
"    + S u.u.u.p.).M.'  . . . . . . . . . . . . . .I J J J J J J J n v b o.D.!.Q.E.q.1.1.1.1.1.1.1.1.1.1.1.;. .X.g.U.U.Y.) .     ",
"    + S u.u.u.p.).M.'  . . . . . . . . . . . . . . .|  . . . . . .Q n v b ..!.Q.E.q.1.1.1.1.1.1.1.1.1.1.1.;. .X.g.U.U.Y.) .     ",
"    + S u.u.u.p.).V. . . . . . . . . . . . . . . . . . . . . . . . .Q n v ..!.Q.E.q.1.1.1.1.1.1.1.1.1.1.1.1. .X.g.U.U.Y.) .     ",
"    + V 2.u.u.p.).(.M. . . . . . . . . . . . . . . . . . . . . . . .| J v ..!.Q.E.q.1.1.1.1.1.1.1.1.1.1.1. .Q X.g.U.U.R.) .     ",
"      0 F u.u.u.F.(.H. . . . . . . . . . .Q Q e.r.,.'  . . . . . . .| n v ..!.Q.E.q.1.1.1.1.1.1.1.1.1.1.;.} ! 2.g.U.Y.+.a       ",
"      X i p.u.u.u.K.H.'  . . . . . . . . .T U D.!.t.,. . . . . . . .| n v ..!.Q.E.q.1.1.1.1.1.1.1.1.1.1.;.} :.U.U.U.Y.M X       ",
"      @ i u.u.u.u.K.H.&. . . . . . . . . .T U D.Q.Q.t.&. . . . . . .Q n n =.Q.Q.E.q.1.1.1.1.1.1.1.1.1.1.1.! :.U.U.U.Y.N X       ",
"      X i u.u.u.u.G.oXP. . . . . . . . . .T U D.Q.Q.Q.Z. . . . . .} J n x.E.Q.Q.E.q.;.1.1.1.1.1.1.1.1.1.! W ,.U.U.U.Y.N X       ",
"      X y <.u.u.u.a.G.L. . . . . . . . . .T b R Z.!.E.E.S.S.S.S.S.Z.V.V.D.!.Q.E.4.&.-.;.1.1.1.1.1.1.1.1.Q ,.f.U.U.U.Y.N X       ",
"        7 c q.u.u.u.S.(.B.&.'  . . . . . .} P b E Z.~.!.Q.!.Q.!.Q.Q.!.!.!.!.D.e. . . .,.1.1.1.1.1.;.1. .W 2.U.U.U.g.A e         ",
"          < <.u.u.u.C.^.oXN.,.'  . . . . . .| P b ..Z.~.!.W.Q.Q.Q.!.W.!.!.S.r. . . . . .,.;.1.1.1.1. .W | w.U.U.U.Y.q X         ",
"          < F 2.u.u.u.a.).oXN.&. . . . . . . .| P b E N.N.N.D.Q.Q.E.N.N.S.r.'  . . . .'  .1.1.;.1.| W X.f.U.U.U.g.$.e           ",
"            ; { q.u.u.p.a.).oXB. . . . . . . . .| P n n n n V.!.!.Z.L n Q  . . . . . . . .' 1.1. .W X.f.g.U.U.g.9.3             ",
"              > _ u.u.i.g.a.^.(.A. . . . . . . . .| } T v b M.!.Q.S.| } |  . . . . . . . . . .! W X.f.g.U.U.Y.6.:               ",
"              . H u.i.k.i.u.a.K.oXA. . . . . . . . . .Q v b V.~.!.S. . . . . . . . . . . . .Q W | t.U.U.U.U.Y.@.#               ",
"                i [ k.f.u.u.i.j.'.oXB.&.'  . . . . . .} P b E o.3.e. . . . . . . . . . . .! W | w.U.U.U.U.Y.6.f %               ",
"                  f %.u.u.i.g.g.j.^.oXN.,.'  . . . . . .| P L L K  . . . . . . . . . . .! W X.w.U.U.U.U.Y.7.j &                 ",
"                    r *.i.g.g.f.u.a.).oXN. . . . . . . . . . . .'  . . . . . . . . . .! W ! f.g.g.U.U.U.8.p *                   ",
"                      2 y.g.i.u.u.u.a.^.oXB. . . . . . . . . . . . . . . . . . . . .! W ! 2.g.f.f.U.U.d.r                       ",
"                        8 *.u.u.u.u.u.a.K.(.P.P.,.'  . . . . . . . . . . . . . .Q W W ! <.u.i.k.f.f.8.r                         ",
"                          u ] i.u.u.u.u.C.F.K.oXH.B.A.M. .' ' ' ' ' ' ' } Q Q Q W | :.<.u.u.u.i.k.#.p                           ",
"                            i G 2.u.u.u.u.u.a.K.K.K.).).M.M.M.M.M.M.M.M.v.>.| | | 2.u.u.u.u.u.u.%.j =                           ",
"                              0 F ] 2.u.u.u.u.u.u.u.F.).).).).).).).).).).F.u.u.u.u.u.u.u.q.{ ] h +                             ",
"                                # - H <.u.u.u.u.u.u.u.p.p.p.p.p.p.p.p.p.p.u.u.u.u.u.u.u.q.O.: # %                               ",
"                                    ; D <.q.u.u.u.u.u.u.u.u.u.u.u.u.u.u.u.u.u.u.u.u.q.u.{ :                                     ",
"                                      1 1 c 1.u.u.u.u.u.u.u.u.u.u.u.u.u.u.u.u.u.u.<.m 4 8                                       ",
"                                        X 5 i d d d F 2.2.u.u.u.u.u.u.u.5.H d d d i 7 X                                         ",
"                                            o X X X 9 C C D D D D D D D S u X X X O                                             ",
"                                                      + + + + . . . . . +                                                       ",
"                                                                                                                                ",
"                                                                                                                                "
};
