/* XPM */
static char *result[] = {
/* columns rows colors chars-per-pixel */
"64 64 236 2 ",
"   c #0C0203",
".  c #0B020F",
"X  c #0E080F",
"o  c #04000C",
"O  c #190F0E",
"+  c #130A0F",
"@  c #1B110E",
"#  c #0E0410",
"$  c #191010",
"%  c #25160D",
"&  c #2A1709",
"*  c #301D0C",
"=  c #301900",
"-  c #311F10",
";  c #2B230D",
":  c #2B2201",
">  c #362E0C",
",  c #382F0C",
"<  c #39220A",
"1  c #342717",
"2  c #3A340C",
"3  c #2B242E",
"4  c #362C2A",
"5  c #452A0A",
"6  c #462A06",
"7  c #433D08",
"8  c #553509",
"9  c #563504",
"0  c #593A11",
"q  c #522F0B",
"w  c #633D08",
"e  c #653D04",
"r  c #4C3B2C",
"t  c #524C0A",
"y  c #544E02",
"u  c #575308",
"i  c #694108",
"p  c #6D4202",
"a  c #7B4C05",
"s  c #7A4B08",
"d  c #665F08",
"f  c #775314",
"g  c #656109",
"h  c #6A6609",
"j  c #666005",
"k  c #7D7608",
"l  c #7C7906",
"z  c #776C12",
"x  c #594729",
"c  c #695236",
"v  c #736F28",
"b  c #3C3647",
"n  c #524D55",
"m  c #665E5B",
"M  c #635546",
"N  c #726A54",
"B  c #716C67",
"V  c #855305",
"C  c #895506",
"Z  c #945B04",
"A  c #995F06",
"S  c #8A5C15",
"D  c #854F00",
"F  c #8D6D0D",
"G  c #A16404",
"H  c #AE6C03",
"J  c #B36E02",
"K  c #B47102",
"L  c #BB7402",
"P  c #A27B06",
"I  c #936D34",
"U  c #B87F24",
"Y  c #C87D02",
"T  c #D07F00",
"R  c #947243",
"E  c #999605",
"W  c #9A9806",
"Q  c #A29306",
"!  c #A7A605",
"~  c #A9A905",
"^  c #A7A805",
"/  c #B3A805",
"(  c #ADA513",
")  c #BB8123",
"_  c #A2913F",
"`  c #B3B021",
"'  c #D38301",
"]  c #DA8500",
"[  c #D78907",
"{  c #D9921D",
"}  c #D08C11",
"|  c #E48E00",
" . c #EA8E00",
".. c #EB9200",
"X. c #E79604",
"o. c #F29600",
"O. c #F49900",
"+. c #FE9D00",
"@. c #F49A09",
"#. c #E69816",
"$. c #F29F19",
"%. c #CBB503",
"&. c #CBA603",
"*. c #FFA101",
"=. c #FFAC00",
"-. c #FEA40E",
";. c #F7AD05",
":. c #E3BD02",
">. c #FFB500",
",. c #FEBC00",
"<. c #F4BF01",
"1. c #FFA510",
"2. c #FFAB1E",
"3. c #FAA61D",
"4. c #F2AF11",
"5. c #D99E3E",
"6. c #D89B38",
"7. c #D28F20",
"8. c #FFAB20",
"9. c #F5A520",
"0. c #E8A435",
"q. c #F8AD35",
"w. c #FEB233",
"e. c #FFB63D",
"r. c #FFB93F",
"t. c #F0B82D",
"y. c #CBB222",
"u. c #C7C404",
"i. c #C8C503",
"p. c #DFDD02",
"a. c #FDC300",
"s. c #FFC900",
"d. c #F8C80A",
"f. c #E3D603",
"g. c #E0DE02",
"h. c #FFD500",
"j. c #FFDB00",
"k. c #F3D404",
"l. c #F5C60D",
"z. c #E4E302",
"x. c #FFE500",
"c. c #FFE900",
"v. c #FEF200",
"b. c #FFF901",
"n. c #FFFC0E",
"m. c #FFF81F",
"M. c #FFED19",
"N. c #DEDD22",
"B. c #FFD232",
"V. c #F5F131",
"C. c #9A8569",
"Z. c #9C8971",
"A. c #A5A56B",
"S. c #AF9F53",
"D. c #C49953",
"F. c #D99F40",
"G. c #D9A44D",
"H. c #FFB740",
"J. c #FFB842",
"K. c #FEBD53",
"L. c #F5B958",
"P. c #E8B156",
"I. c #E2B264",
"U. c #E6B86C",
"Y. c #E6BC76",
"T. c #F0BE6B",
"R. c #C7A96D",
"E. c #FEC156",
"W. c #FFC55C",
"Q. c #FFDA5F",
"!. c #FAF656",
"~. c #F6F052",
"^. c #FEC464",
"/. c #FFC86D",
"(. c #FDC76A",
"). c #FFCB75",
"_. c #FFCE7C",
"`. c #F2C479",
"'. c #FFD776",
"]. c #FFFF76",
"[. c #FFFF69",
"{. c #CBCB60",
"}. c #7B7881",
"|. c #9A9799",
" X c #A29990",
".X c #AEA691",
"XX c #B2B0AA",
"oX c #D1B891",
"OX c #C5BCB0",
"+X c #F5CB85",
"@X c #FFD183",
"#X c #FFD38B",
"$X c #FFDC8B",
"%X c #EDCD99",
"&X c #ECC993",
"*X c #F2CE92",
"=X c #FED692",
"-X c #FCD69A",
";X c #FFDA9B",
":X c #F3D299",
">X c #EECB92",
",X c #FFF48A",
"<X c #FAEC96",
"1X c #D9CDBE",
"2X c #D2CAAE",
"3X c #FFDDA5",
"4X c #FFDFAB",
"5X c #F5D6A2",
"6X c #E7D7B9",
"7X c #F8DCB1",
"8X c #EBD1A7",
"9X c #FFE0AB",
"0X c #FFE1B0",
"qX c #FDE5BE",
"wX c #FFE8B8",
"eX c #FFF9B8",
"rX c #F4F4A6",
"tX c #C7C4C3",
"yX c #E1DFDC",
"uX c #FCE5C1",
"iX c #FFE8C1",
"pX c #FFECCC",
"aX c #F4E2C8",
"sX c #FEEED5",
"dX c #F5EAD9",
"fX c #FFF0D5",
"gX c #FEFCD8",
"hX c #F6EDCA",
"jX c #FEF3E1",
"kX c #FEF9EB",
"lX c #FBF8E8",
"zX c #FFFBF5",
"xX c #FFFEFD",
"cX c #F9F6F4",
"vX c #F4EEE6",
"bX c None",
/* pixels */
"bXbXbXbXbXbXbXbXbXbXbXbXbXbXbXbXbXbXbXbXbXbXbXbX# . . . . . . . . . . . . . . . bXbXbXbXbXbXbXbXbXbXbXbXbXbXbXbXbXbXbXbXbXbXbXbX",
"bXbXbXbXbXbXbXbXbXbXbXbXbXbXbXbXbXbXbXbXbXbXbXbX$ $ O $ O O O O O O O O O O O $ bXbXbXbXbXbXbXbXbXbXbXbXbXbXbXbXbXbXbXbXbXbXbXbX",
"bXbXbXbXbXbXbXbXbXbXbXbXbXbXbXbXbXbXbXbXbXbXbXbX> > > > > , , > > > > > > > > > bXbXbXbXbXbXbXbXbXbXbXbXbXbXbXbXbXbXbXbXbXbXbXbX",
"bXbXbXbXbXbXbXbXbXbXbXbXbXbXbXbXbXbXbXbXbXbXbX7 u d h h h h h h h h h h h g d u 7 bXbXbXbXbXbXbXbXbXbXbXbXbXbXbXbXbXbXbXbXbXbXbX",
"bXbXbXbXbXbXbXbXbXbXbXbXbXbXbXbXbX. . o o # * u l W ! ~ ~ ! ! ! ! ^ ^ ^ ~ ! W l u ; # bXbXbXbXbXbXbXbXbXbXbXbXbXbXbXbXbXbXbXbXbX",
"bXbXbXbXbXbXbXbXbXbXbXbXbXbXbXbX$ $ + + # @ > d W u.p.z.z.g.p.p.p.p.g.g.z.g.u.W d , @ # bXbXbXbXbXbXbXbXbXbXbXbXbXbXbXbXbXbXbXbX",
"bXbXbXbXbXbXbXbXbXbXbXbXbXbXbXbX> > > > > > t k / f.v.b.b.v.v.v.v.v.v.b.b.c.f./ F 7 - & bXbXbXbXbXbXbXbXbXbXbXbXbXbXbXbXbXbXbXbX",
"bXbXbXbXbXbXbXbXbXbXbXbXbXbXbX7 u g g g g h k Q %.k.x.c.x.x.x.x.x.x.x.c.c.x.d.&.P C w q 5 bXbXbXbXbXbXbXbXbXbXbXbXbXbXbXbXbXbXbX",
"bXbXbXbXbXbXbXbXbXbXbXbXbX# ; t l E ! ^ ^ ^ / %.:.a.s.s.s.s.s.s.s.s.s.s.s.s.<.X.} K A a q - # bXbXbXbXbXbXbXbXbXbXbXbXbXbXbXbXbX",
"bXbXbXbXbXbXbXbXbXbXbXbX# @ , g E u.p.z.z.p.f.f.<.>.=.*.=.=.=.=.=.=.=.>.=.=.=.*.X.X.' A e * @ # bXbXbXbXbXbXbXbXbXbXbXbXbXbXbXbX",
"bXbXbXbXbXbXbXbXbXbXbXbX; , t F / f.v.b.b.v.x.h.,.*.+.+.+.+.+.+.+.+.+.*.*.*.*.*.*.+.[ H D 6 & & bXbXbXbXbXbXbXbXbXbXbXbXbXbXbXbX",
"bXbXbXbXbXbXbXbXbXbXbX2 t g k E %.k.x.c.c.c.j.s.,.*.+.+.+.+.+.+.+.+.+.+.+.+.+.*.*.=.o.L Z e 9 6 = bXbXbXbXbXbXbXbXbXbXbXbXbXbXbX",
"bXbXbXbXbXbXbXbXbX. ; t l E ~ %.:.a.s.s.s.s.a.>.=.*.+.+.+.+.+.+.+.+.+.+.+.+.+.*.=.*.O.] J Z a 9 6 %   bXbXbXbXbXbXbXbXbXbXbXbXbX",
"bXbXbXbXbXbXbXbX. @ , g E u.f.k.<.>.=.=.=.=.=.=.*.*.+.+.+.*.+.+.+.+.*.+.+.+.+.*.*.*.O.X.] L G a 8 & O X bXbXbXbXbXbXbXbXbXbXbXbX",
"bXbXbXbXbXbXbXbX; , t k / f.x.j.a.=.+.+.+.*.+.+.+.*.*.*.*.=.=.*.*.*.*.*.*.*.+.+.+.+.@.@.#.{ ) I c x 4 3 bXbXbXbXbXbXbXbXbXbXbXbX",
"bXbXbXbXbXbXbX7 t g k Q %.k.j.s.,.*.+.+.+.+.+.+.+.+.*.=.,.,.a.,.=.*.*.+.+.+.*.+.+.+.*.3.q.P.G.A.C.B B n n bXbXbXbXbXbXbXbXbXbXbX",
"bXbXbXbXbXO > u k E / %.:.a.a.,.=.*.+.+.+.+.+.+.+.+.*.>.s.h.j.s.>.=.+.+.+.*.+.+.+.+.1.w.T.+X8X2XOXXX|.}.n 4 $ bXbXbXbXbXbXbXbXbX",
"bXbXbXbX# O > d E u.f.k.a.>.=.*.*.*.*.+.+.+.+.+.+.*.=.,.j.x.x.h.,.=.+.+.+.+.+.+.+.+.8.K.#XuXdXvXvXyXtX|.m 4 $   bXbXbXbXbXbXbXbX",
"bXbXbXbX. O > h ! p.v.x.a.=.+.+.+.+.+.+.+.+.+.*.*.=.>.s.j.x.x.k.<.*.+.O.+.+.*.*.-.8.H.).0XfXxXxXzXdXtX Xm 4 @   bXbXbXbXbXbXbXbX",
"bXbXbXbX. $ > h ~ z.b.c.k.=.+.+.+.+.*.+.+.+.*.=.>.,.s.h.j.j.h.a.;.;...o.O.+.+.2.w.K.).3XfXxXxXkXfX4XoXC.c 4 @   bXbXbXbXbXbXbXbX",
"bXbXbXbX. O > h ~ z.b.x.s.=.+.+.+.+.+.+.+.+.*.>.s.h.j.j.h.s.<.;.X.X.| X.o.+.-.w.W.#X0XfXzXxXzXdX5XY.D.I x 1 O   bXbXbXbXbXbXbXbX",
"bXbXbXbX. O > h ^ g.v.x.s.=.+.+.+.+.*.+.+.+.=.a.h.x.c.j.s.>.=...| ' ] ] ..O.2.K.#XuXjXzXxXxXjX7X`.F.) S 0 * O X bXbXbXbXbXbXbXbX",
"bXbXbXbX. O > h ! p.c.x.s.=.+.+.+.+.*.*.*.=.>.s.j.x.x.h.,.=.+. .] ' ' [ @.3.r.).0XjXxXxXzXjXuX:XU.6.U S 0 - @ X bXbXbXbXbXbXbXbX",
"bXbXbXbX. O > h ! p.v.x.s.=.+.+.+.*.*.=.>.,.s.h.h.j.h.s.>.*.o. .] ' [ { 0.L.).9XfXzXxXkXpX4X=X+X`.I.D.I x - O # bXbXbXbXbXbXbXbX",
"bXbXbXbX. O > h ! p.v.x.s.=.+.+.+.+.*.,.s.h.j.j.s.s.,.>.=.*.O. .] T } 6.L.*X0XsXzXxXzXpX-X/.^./.#X%XoXZ.M 4 $   bXbXbXbXbXbXbXbX",
"bXbXbXbX. O > h ! p.c.x.s.=.+.+.+.+.=.,.h.c.c.j.s.,.=.*.*.*.+. .] ' 7.G.&X7XjXxXxXxXjX4X/.J.e.^.;X7X1X Xm 4 O   bXbXbXbXbXbXbXbX",
"bXbXbXbX. $ > h ! p.v.x.s.=.+.+.+.+.=.,.h.x.c.j.s.>.=.*.*.+.+.@.#.{ 5.U.8XvXxXxXzXgXiX-X^.e.e.^.;XuXtX.Xm 4 O   bXbXbXbXbXbXbXbX",
"bXbXbXbX. @ > h ! p.v.x.s.=.+.+.+.+.=.>.s.h.j.h.s.,.,.>.=.*.@.$.0.G.Y.8XdXzXxXkXpX4X=X_./.^.(._.=X%XoXC.M 4 O   bXbXbXbXbXbXbXbX",
"bXbXbXbX. $ > h ! p.v.x.s.=.+.+.+.+.*.=.,.,.s.s.h.j.s.a.>.*.@.q.L.>X8XdXcXxXzXpX;X/.W./.@X-X-X=X+XU.D.R x 1 $ # bXbXbXbXbXbXbXbX",
"bXbXbXbX. O > h ! p.v.x.s.=.+.+.+.+.*.*.*.=.>.s.j.x.x.h.,.=.3.K.+XuXlXcXxXxXjX9X/.H.r.^.-XuXaX:XU.5.U S 0 - $ # bXbXbXbXbXbXbXbX",
"bXbXbXbX. O > h ! p.v.x.s.=.*.+.+.+.+.+.+.+.=.a.x.c.b.x.d.8.J.).7XjXxXxXzXgXiX=X^.r.r.(.;XqXuX&XP.7.J D 9 * $ X bXbXbXbXbXbXbXbX",
"bXbXbXbX. O > h ! p.v.x.s.=.*.+.+.+.+.+.+.+.=.s.j.b.b.M.B.Q.'.3XsXxXxXkXpX9X-X_.(.^.(._.=X;X=XU.0.} H D 9 * $ X bXbXbXbXbXbXbXbX",
"bXbXbXbX. O , h ! p.v.x.s.=.+.+.+.+.+.+.+.+.*.a.j.b.n.V.!.<X0XsXzXxXxXpX-X/.^./.@X-X;X=X@X/.L.q.#.' H V 9 * O X bXbXbXbXbXbXbXbX",
"bXbXbXbX. O , h ! p.v.x.s.=.+.+.+.+.+.+.+.*.=.a.j.b.m.!.,XiXjXcXxXxXjX4X/.H.e.^.;XiXqX;X/.r.9.@.#.' H V 8 * O X bXbXbXbXbXbXbXbX",
"bXbXbXbX. O , h ! p.v.x.s.=.*.+.+.+.+.+.+.+.>.a.M.M.V.].eXgXxXxXcXvXuX=X^.e.J.^.;XiXqX=XE.2.*.o.| ' K V 8 * O X bXbXbXbXbXbXbXbX",
"bXbXbXbX. O , h ! p.v.x.s.=.+.+.+.+.+.+.+.+.=.2.B.~.].rXgXxXxXcXaX8X&X`.(.^.(._.=X;X=X(.e.1.O.o.| ' J V 8 * O X bXbXbXbXbXbXbXbX",
"bXbXbXbX. + , h ! g.v.x.s.=.*.+.+.*.+.+.+.+.-.B.Q.,XeXgXzXxXzXaX%XU.I.U.+X:X;X=X@X(.E.e.2.-.+.o.| ' J V 8 * @ X bXbXbXbXbXbXbXbX",
"bXbXbXbX. O , h ! p.v.x.s.=.*.+.+.+.+.+.+.+.2.E.$XeXlXzXxXxXdX8XU.F.F.I.&XuXqX3X/.e.8.1.*.*.O.O.| ' K V 8 * @ X bXbXbXbXbXbXbXbX",
"bXbXbXbX. O , h ! p.c.x.s.=.+.+.+.+.*.-.-.2.J.).0XjXzXxXzXjXaX&XI.F.F.I.%XuXqX=XE.8.*.+.+.+.O...| ' J V 8 * @ X bXbXbXbXbXbXbXbX",
"bXbXbXbX. O , h ! p.v.x.s.=.+.+.+.+.-.1.w.K.).3XsXzXxXkXpX4X=X`.U.I.U.Y.*X-X=X(.e.1.+.+.+.+.+.O.| ' J V 8 * + X bXbXbXbXbXbXbXbX",
"bXbXbXbX. O > h ! p.v.x.s.=.+.+.+.+.-.w.W.#X0XsXzXxXzXsX-X/.^.(.+X&X%X%X+X(.K.e.2.-.+.+.+.+.+...| ' K V 8 * + X bXbXbXbXbXbXbXbX",
"bXbXbXbX. O , h ! p.v.x.s.=.+.+.+.+.2.K.#XqXfXxXxXxXfX4X/.J.e.^.:XuXaX-X/.e.8.1.+.*.+.+.*.+.O.O.| ' K V 8 * @ X bXbXbXbXbXbXbXbX",
"bXbXbXbX. O , h ! g.v.x.s.=.+.+.@.8.J.).0XjXxXxXzXjXqX-X^.e.e.(.;XiXqX=XK.8.+.+.+.*.+.*.*.+.O.o.X.' K V 8 * O X bXbXbXbXbXbXbXbX",
"bXbXbXbX. O , h ^ z.b.x.s.=.*.3.q.K.).3XsXxXxXkXpX9X=X_./.^.^._.=X;X=X(.e.1.+.+.+.+.+.*.*.*.*.O...' L C 8 * O X bXbXbXbXbXbXbXbX",
"bXbXbXbX. + , h ( z.b.x.s.=.-.w.^.#X4XsXzXxXzXpX;X/.^./.@X;X;X=X@X/.K.e.2.-.+.+.+.+.+.*.*.*.*.O...] K V 8 * @ X bXbXbXbXbXbXbXbX",
"bXbXbXbX. $ , h ! p.v.x.s.=.3.K.#XuXjXzXxXxXfX9X/.H.e.^.-XiXiX;X(.r.8.1.*.+.*.+.+.*.+.*.*.+.O.o.| ' J V 8 * O X bXbXbXbXbXbXbXbX",
"bXbXbXbX. @ , g W u.f.f.<.w.J.).4XjXxXxXxXfXiX;X^.e.r.(.;XqXqX=XE.2.*.+.+.*.+.+.+.+.*.*.+.+...] ' L G a 8 * O X bXbXbXbXbXbXbXbX",
"bXbXbXbXbX+ > u k W ( y.t.E._.4XsXxXxXkXpX4X-X_./.^.^._.=X;X=X/.e.-.+.+.+.+.*.*.*.*.+.+.+.o.| ' H A a w 5 * O bXbXbXbXbXbXbXbXbX",
"bXbXbXbXbXbXbX7 y g I _ {.*XwXgXcXxXcXpX-X/.^.(.@X;X;X=X@X(.K.e.8.*.+.+.+.+.+.*.+.*.+.+.o.X.T H C i 8 5 < bXbXbXbXbXbXbXbXbXbXbX",
"bXbXbXbXbXbXbXbX: , x N .X1XjXzXxXxXlX9X/.H.J.^.;XqXuX;X/.e.8.1.-.*.*.+.*.+.*.*.*.*.O.O.| ] L Z i 5 * % bXbXbXbXbXbXbXbXbXbXbXbX",
"bXbXbXbXbXbXbXbX  @ 4 m |.tXyXvXvXgXhX<X^.J.r.^.;XiXqX=XE.8.*.+.+.+.+.+.+.*.+.+.+.+...| ' L G a 8 * @ X bXbXbXbXbXbXbXbXbXbXbXbX",
"bXbXbXbXbXbXbXbXbX# 3 n }.|.XX2XrXrX,X,X'.Q.(.'.-X;X=X(.e.1.+.+.+.+.*.*.+.*.*.+.+.o.| Y H Z a w 5 % X bXbXbXbXbXbXbXbXbXbXbXbXbX",
"bXbXbXbXbXbXbXbXbXbXbXb n m }.A.{.~.].].,X<X;X=X_./.K.e.2.-.+.+.+.*.*.*.*.*.+.+.O.X.T H C i 8 5 * bXbXbXbXbXbXbXbXbXbXbXbXbXbXbX",
"bXbXbXbXbXbXbXbXbXbXbXbX3 4 x v ` N.V.].rXiXiX3X/.r.8.1.*.*.+.+.+.*.+.+.*.+.O.O.X.' L Z i 5 * % bXbXbXbXbXbXbXbXbXbXbXbXbXbXbXbX",
"bXbXbXbXbXbXbXbXbXbXbXbXX @ 2 j E u.N.~.<X6XaXoXL.3.O.O.+.O.+.+.+.O.+.+.+.+.o.| ' L G a 8 * @ X bXbXbXbXbXbXbXbXbXbXbXbXbXbXbXbX",
"bXbXbXbXbXbXbXbXbXbXbXbXbX  : y l W W S.A..X XR.6.#...o.o.o...o...O...O.O...| Y H A a 9 5 % X bXbXbXbXbXbXbXbXbXbXbXbXbXbXbXbXbX",
"bXbXbXbXbXbXbXbXbXbXbXbXbXbXbXy y d h v M m N R U [ |  .| X.| | X.| X.| ..| ' H C i 8 5 * bXbXbXbXbXbXbXbXbXbXbXbXbXbXbXbXbXbXbX",
"bXbXbXbXbXbXbXbXbXbXbXbXbXbXbXbX> > > 1 4 4 r f S L ' ] ] ' ' ' ' ' ' ] ] ' L Z i 5 * % bXbXbXbXbXbXbXbXbXbXbXbXbXbXbXbXbXbXbXbX",
"bXbXbXbXbXbXbXbXbXbXbXbXbXbXbXbXO O @ + $ $ ; 9 C G J K K K K K K K K K L J G a 8 * @ X bXbXbXbXbXbXbXbXbXbXbXbXbXbXbXbXbXbXbXbX",
"bXbXbXbXbXbXbXbXbXbXbXbXbXbXbXbXbX. . o o   & 6 e a V C C V V V V V V V V V a w 5 % X bXbXbXbXbXbXbXbXbXbXbXbXbXbXbXbXbXbXbXbXbX",
"bXbXbXbXbXbXbXbXbXbXbXbXbXbXbXbXbXbXbXbXbXbXbX< 5 8 8 8 8 8 8 8 8 8 8 8 8 8 8 5 < bXbXbXbXbXbXbXbXbXbXbXbXbXbXbXbXbXbXbXbXbXbXbX",
"bXbXbXbXbXbXbXbXbXbXbXbXbXbXbXbXbXbXbXbXbXbXbXbX* * * * * * * * * * * * * * * * bXbXbXbXbXbXbXbXbXbXbXbXbXbXbXbXbXbXbXbXbXbXbXbX",
"bXbXbXbXbXbXbXbXbXbXbXbXbXbXbXbXbXbXbXbXbXbXbXbXO O O O @ O @ + @ @ O O @ @ @ O bXbXbXbXbXbXbXbXbXbXbXbXbXbXbXbXbXbXbXbXbXbXbXbX",
"bXbXbXbXbXbXbXbXbXbXbXbXbXbXbXbXbXbXbXbXbXbXbXbXX X X X X X X X X X X X X X X . bXbXbXbXbXbXbXbXbXbXbXbXbXbXbXbXbXbXbXbXbXbXbXbX"
};
