/* XPM */
static char *result[] = {
/* columns rows colors chars-per-pixel */
"64 64 231 2 ",
"   c #0C0101",
".  c #0B010F",
"X  c #0E080F",
"o  c #04000B",
"O  c #190F0E",
"+  c #140B0E",
"@  c #1B110E",
"#  c #160C10",
"$  c #150B11",
"%  c #2E1C0C",
"&  c #25150B",
"*  c #301D0C",
"=  c #371F04",
"-  c #2A220A",
";  c #362E0C",
":  c #382F0C",
">  c #39220B",
",  c #39320C",
"<  c #372F14",
"1  c #2B2327",
"2  c #362E2E",
"3  c #382F2C",
"4  c #352D30",
"5  c #382F30",
"6  c #38302F",
"7  c #452A0A",
"8  c #482C09",
"9  c #453C09",
"0  c #563509",
"q  c #643D07",
"w  c #463B38",
"e  c #524C0A",
"r  c #544E03",
"t  c #585308",
"y  c #6A4108",
"u  c #7C4C06",
"i  c #704E08",
"p  c #665F09",
"a  c #6F4D1F",
"s  c #656109",
"d  c #6A6609",
"f  c #6A6403",
"g  c #7D7608",
"h  c #7D7906",
"j  c #766B12",
"k  c #524929",
"l  c #6A6333",
"z  c #3D3944",
"x  c #524E55",
"c  c #554F51",
"v  c #665F5F",
"b  c #786E58",
"n  c #676367",
"m  c #7D7777",
"M  c #7E746C",
"N  c #855305",
"B  c #885405",
"V  c #955C05",
"C  c #804F06",
"Z  c #8E6E0D",
"A  c #A76803",
"S  c #B26F02",
"D  c #B47002",
"F  c #BB7402",
"G  c #B77F03",
"H  c #B67E25",
"J  c #CB7E02",
"K  c #967443",
"L  c #999706",
"P  c #9B9906",
"I  c #A29306",
"U  c #A7A604",
"Y  c #A9AA05",
"T  c #A7A805",
"R  c #B3A905",
"E  c #B0A712",
"W  c #A59A3B",
"Q  c #D38300",
"!  c #DA8700",
"~  c #DD8A00",
"^  c #D48805",
"/  c #D69310",
"(  c #E48E00",
")  c #EA8F00",
"_  c #EB9200",
"`  c #E89800",
"'  c #F19600",
"]  c #F59900",
"[  c #FE9D00",
"{  c #FF9700",
"}  c #E79510",
"|  c #CBB503",
" . c #C1A003",
".. c #FFA101",
"X. c #FFAC01",
"o. c #FBA709",
"O. c #E6BB02",
"+. c #FEB401",
"@. c #FEBC00",
"#. c #F4BF01",
"$. c #FFA410",
"%. c #FFAB1F",
"&. c #FDA718",
"*. c #FEB71F",
"=. c #D99F3E",
"-. c #D69120",
";. c #CCB323",
":. c #FFAB20",
">. c #F7A620",
",. c #FFAF32",
"<. c #FFB63D",
"1. c #FFB73C",
"2. c #EBB235",
"3. c #C7C403",
"4. c #DFDD02",
"5. c #FDC301",
"6. c #FFC901",
"7. c #FCC70E",
"8. c #E3D603",
"9. c #E0DE02",
"0. c #FED300",
"q. c #F7D604",
"w. c #FEC219",
"e. c #FFDC15",
"r. c #EAC901",
"t. c #E4E302",
"y. c #FFE400",
"u. c #FFEA00",
"i. c #FFE10E",
"p. c #FEF200",
"a. c #FFF900",
"s. c #FEF90E",
"d. c #FFF31F",
"f. c #FEFC1F",
"g. c #FFEF19",
"h. c #FFC237",
"j. c #FFDD34",
"k. c #FFEA34",
"l. c #FFFC3C",
"z. c #FFF220",
"x. c #DFDE21",
"c. c #A2917C",
"v. c #A59B54",
"b. c #DBA54C",
"n. c #FEB640",
"m. c #FFB842",
"M. c #FEBD54",
"N. c #F4BC55",
"B. c #E4AF56",
"V. c #C8AD6B",
"C. c #E4B569",
"Z. c #E6BC78",
"A. c #FEC255",
"S. c #FFC45A",
"D. c #FFDC5F",
"F. c #FFFE40",
"G. c #FFFB51",
"H. c #FFF557",
"J. c #FFEE5F",
"K. c #FEC464",
"L. c #FFCA65",
"P. c #FEC66C",
"I. c #FFC96D",
"U. c #F6C26C",
"Y. c #FFD96C",
"T. c #FFCB75",
"R. c #FECD7C",
"E. c #F2C67D",
"W. c #FFD57A",
"Q. c #FFFB64",
"!. c #FFFA6D",
"~. c #FFFF75",
"^. c #FFF67B",
"/. c #FFE577",
"(. c #DFDE53",
"). c #797883",
"_. c #99979A",
"`. c #B2A796",
"'. c #ADA58C",
"]. c #A7A5AA",
"[. c #AEA9A8",
"{. c #CCB38C",
"}. c #FACC83",
"|. c #FFD283",
" X c #FFD68A",
".X c #EDCC96",
"XX c #F2CE92",
"oX c #FED592",
"OX c #FFDE92",
"+X c #FDD699",
"@X c #FFDA9C",
"#X c #F1D19A",
"$X c #EDCC92",
"%X c #FFE786",
"&X c #FFFA8A",
"*X c #FFE29B",
"=X c #FFEE92",
"-X c #FFFB9C",
";X c #FFF695",
":X c #FFDFAB",
">X c #FFDCA5",
",X c #EDD6B4",
"<X c #FFE0AB",
"1X c #FFFFA7",
"2X c #FFE2B0",
"3X c #FDE5BE",
"4X c #FFFFB0",
"5X c #FFF6BE",
"6X c #DFDE8E",
"7X c #C7C4C3",
"8X c #DEDDD3",
"9X c #E3D6C2",
"0X c #E0DEDD",
"qX c #FCE5C1",
"wX c #FFE8C1",
"eX c #FFEACC",
"rX c #F6E4CC",
"tX c #FFF3C1",
"yX c #FFF9CD",
"uX c #FFEDD5",
"iX c #FFFFD5",
"pX c #FEF3D7",
"aX c #E4E4E9",
"sX c #FFF3E0",
"dX c #FFFFE1",
"fX c #FEF8ED",
"gX c #FFFCF5",
"hX c #FFFEFD",
"jX c #FEF6F4",
"kX c #F9EFE0",
"lX c None",
/* pixels */
"lXlXlXlXlXlXlXlXlXlXlXlXlXlXlXlXlXlXlXlXlXlXlXlX. . . . . . . . . . . . . . . . lXlXlXlXlXlXlXlXlXlXlXlXlXlXlXlXlXlXlXlXlXlXlXlX",
"lXlXlXlXlXlXlXlXlXlXlXlXlXlXlXlXlXlXlXlXlXlXlXlXO O O O O O O O O O O O O O O O lXlXlXlXlXlXlXlXlXlXlXlXlXlXlXlXlXlXlXlXlXlXlXlX",
"lXlXlXlXlXlXlXlXlXlXlXlXlXlXlXlXlXlXlXlXlXlXlXlX; : : : , : : : : : ; , ; ; ; ; lXlXlXlXlXlXlXlXlXlXlXlXlXlXlXlXlXlXlXlXlXlXlXlX",
"lXlXlXlXlXlXlXlXlXlXlXlXlXlXlXlXlXlXlXlXlXlXlXe t p d d d d d d d d d d d d p t e lXlXlXlXlXlXlXlXlXlXlXlXlXlXlXlXlXlXlXlXlXlXlX",
"lXlXlXlXlXlXlXlXlXlXlXlXlXlXlXlXlX. . . o . - t h L U T T U U U U U U T T U L h t -   o       lXlXlXlXlXlXlXlXlXlXlXlXlXlXlXlXlX",
"lXlXlXlXlXlXlXlXlXlXlXlXlXlXlXlX# # # $ X @ ; s P 3.4.t.t.4.4.4.4.4.4.t.t.4.3.P s < O X X # O O lXlXlXlXlXlXlXlXlXlXlXlXlXlXlXlX",
"lXlXlXlXlXlXlXlXlXlXlXlXlXlXlXlX; ; ; ; ; ; e Z R 8.p.a.a.p.p.p.p.p.p.a.a.u.8.E Z k 4 4 4 4 6 2 lXlXlXlXlXlXlXlXlXlXlXlXlXlXlXlX",
"lXlXlXlXlXlXlXlXlXlXlXlXlXlXlX9 t s s s s d h I | q.y.u.y.y.y.y.y.y.y.y.u.y.q.;.W b n n n n n c w lXlXlXlXlXlXlXlXlXlXlXlXlXlXlX",
"lXlXlXlXlXlXlXlXlXlXlXlXlX. - e g L U T T T R | O.5.6.6.6.6.6.6.6.6.6.6.6.5.7.2.V.'.].].].]._.).c 1   lXlXlXlXlXlXlXlXlXlXlXlXlX",
"lXlXlXlXlXlXlXlXlXlXlXlXX @ : s L 3.4.t.t.4.8.r.r.+.X.X.X.X.X.X.X.X.X.X.X.X.*.N.$X9X0X0XaX0X7X_.v 5 @   lXlXlXlXlXlXlXlXlXlXlXlX",
"lXlXlXlXlXlXlXlXlXlXlXlX- : e Z R 8.p.a.a.p.y.0.@.....[ ........[ ......$.%.n.T.2XsXgXhXgXpX9X`.K x 5 1 lXlXlXlXlXlXlXlXlXlXlXlX",
"lXlXlXlXlXlXlXlXlXlXlX, e s g L | 8.u.u.u.y.0.0.@...[ { { { { { { { [ &.,.M.T.>XpXgXhXfXpX3X#X{._.m n x z lXlXlXlXlXlXlXlXlXlXlX",
"lXlXlXlXlXlXlXlXlX. - e g L Y | O.5.6.6.6.6.5.+.X.....[ { { { { { { o.,.M.oX2XuXgXhXgXyX*XT.U.Z.{.[._.).x 1 X lXlXlXlXlXlXlXlXlX",
"lXlXlXlXlXlXlXlX. O ; s L 3.8.q.5.+.X.X.X.X.X.X.....[ [ [ [ ..[ { o.%.M.oX3XsXgXhXgXsX<XT.n.m.N..X,X7X_.v 3 @   lXlXlXlXlXlXlXlX",
"lXlXlXlXlXlXlXlX- , r h R 8.y.q.5.X...[ [ ......[ ......X.X.X...$.%.1.T.<XsXgXhXgXsXwX+XS.<.m.L.+XqX9X'.b w * & lXlXlXlXlXlXlXlX",
"lXlXlXlXlXlXlX9 e s Z I | q.q.0.@...[ { [ { [ { [ [ ..X.+.@.5.7.h.A.T.<XuXgXhXfXeX<XoXR.I.L.L.R.oX>X.XV.K a 0 7 = lXlXlXlXlXlXlX",
"lXlXlXlXlXO ; t g L R | O.5.5.@.X...[ { [ [ [ { { [ ..+.5.0.e.j.D.OX2XuXgXhXgXeX@XI.K.P.|.@X@XOX|.I.N.=.H Z C q 7 % O lXlXlXlXlX",
"lXlXlXlX. O ; s L 3.8.q.r.+.X.........[ [ ..[ [ [ ..X.5.0.y.d.H.&XwXkXjXhXgXsX:XI.n.<.K.+X3XwX@XI.1.>.} ^ F A u 0 % O X lXlXlXlX",
"lXlXlXlX. O ; d U 4.p.y.5.X...[ ....[ ..[ [ ......X.@.7.i.d.F.~.4XdXhXhXjXkXqXoXK.<.<.L.@X3X3XoXA.:.] ' ( Q S N 0 % # $ lXlXlXlX",
"lXlXlXlX. # ; d Y t.a.u.6.X.[ { [ [ [ [ [ [ ..X.+.@.6.e.k.G.~.1XiXgXhXkXrX,X.XE.U.K.P.W.oX@XoXI.<.$.] ' _ Q D B 0 % O . lXlXlXlX",
"lXlXlXlX. O < d Y t.a.y.6.X...{ [ [ [ [ { [ ..+.5.0.i.k.Q.&X4XiXgXhXjXrX.XC.V.C.}.#X@XoX|.P.M.1.%.o.{ ' _ Q D B 0 * O X lXlXlXlX",
"lXlXlXlX. O , d U 9.p.y.6.X...[ [ ..[ [ [ ..X.@.0.u.z.G.&XtXdXgXhXhXpX,XC.b.=.C..XqXwX@XI.<.:.$.o.[ ] ' ( Q D B 0 * O X lXlXlXlX",
"lXlXlXlX. O : d U 4.p.y.6.X...{ { ........X.@.6.i.d.F.~.4XdXgXhXgXpXrX$XB.=.=.C..XqX3XoXA.:...[ { ..] ' ( Q D B 0 * O X lXlXlXlX",
"lXlXlXlX. O , d U 4.p.y.6.X...{ { ....X.+.5.7.e.k.G.~.1XiXgXhXfXeX:XXXE.C.C.C.E..X@XoXI.<.$.[ [ [ [ [ ' ( Q D B 0 * O X lXlXlXlX",
"lXlXlXlX. O ; d U 4.p.y.6.X...[ [ ....@.5.0.i.k.H.&X4XiXgXhXgXeX+XP.S.U.}..X#XXX}.P.M.<.%...[ [ ....] ' ( Q S N 0 * O X lXlXlXlX",
"lXlXlXlX. O , d U 4.p.y.6.X...{ { ..X.@.0.y.d.G.&XtXdXgXhXgXsX:XT.m.<.K.#XqXqX>XP.n.:.$.$.[ ..[ ....] ' ( Q D N 0 * O X lXlXlXlX",
"lXlXlXlX. O : d U 4.u.y.6.X...{ { [ X.5.e.d.F.~.4XdXhXhXgXsXwXoXS.m.<.P.#X3X3XXXN.:...[ [ [ ......[ [ ' ( Q D N 0 * @ X lXlXlXlX",
"lXlXlXlX. O : d U 4.p.y.6.X...{ { [ o.w.j.H.~.1XiXgXhXfXeX<X+XR.P.K.K.E.XX>XXXC.<.$.[ { { ..[ ......] ' ( Q D N 0 * O + lXlXlXlX",
"lXlXlXlX. O : d U 4.p.y.6.X...{ { [ o.h.D.&X4XiXgXhXjXeX+XP.S.I.|.+X+X.X}.C.B.=.>.[ [ { [ [ ......[ [ ' ( Q D N 0 * O X lXlXlXlX",
"lXlXlXlX. O : d T 4.u.y.6.X.[ { { ..%.A. X5XdXgXhXhXpX<XP.m.<.K.+XqXqX.XC.=.-.} ' [ [ o.....[ [ [ ..[ _ ( Q D B 0 * O X lXlXlXlX",
"lXlXlXlX. O : d U 4.p.y.6.X...[ $.%.n.T.2XsXhXhXgXiXtX*XL.<.<.P.@XwXqX$Xb.-.Q ~ _ ] ..[ ..[ ......[ [ _ ( Q S B 0 * O X lXlXlXlX",
"lXlXlXlX. O : d U 4.p.y.5.X.o.&.,.M.T.>XuXjXhXfXyX4X;X%XY.L.L.R.oX>X+XC.=./ J ! _ ] [ ......[ ......[ ' ( Q S B 0 * O X lXlXlXlX",
"lXlXlXlX. O , d T 4.a.q.5...$.,.M.oX2XuXjXhXgXyX-X~.Q.!.%X*X@XoX|.K.N.2.-.^ J ( _ ] ......[ ....[ ..] ] ( Q D N 0 - O X lXlXlXlX",
"lXlXlXlX. @ ; d T t.u.y.6.X.:.M.oXqXsXgXhXhXiX4X!.F.l.Q.;XtXwX@XP.n.>.} } J J ( _ ] [ ......[ ....[ ] ' ( Q D N 0 % O X lXlXlXlX",
"lXlXlXlX. O ; f U 4.p.u.7.*.m.T.:XsXhXhXjXsXtX;XH.F.l.Q.-X5X3XoXM.:.] ) ) J J ( _ [ [ ..[ [ ........[ ' ( Q D N 0 * @ X lXlXlXlX",
"lXlXlXlX. O ; f U 4.a.g.k.A.T.>XuXjXhXfXeX<X*X/.!.Q.!.^.=X*XoXI.<.$.{ ) ( J J ( _ ] ..[ ....[ ..[ ..] ' ( Q S N 0 * @ X lXlXlXlX",
"lXlXlXlX. O ; f U 4.s.k.J.%X2XuXjXhXgXeXoXT.S.Y.%X;X-X=X XL.A.1.%.o.] ) J J ( ( _ [ [ ......[ ....[ ] ' ( Q D N 0 * O X lXlXlXlX",
"lXlXlXlX. O ; f U 4.f.G.&XtXsXjXhXhXsX:XT.n.1.L.*X5XtX@XY.1.:.$.....] ) ) J J J _ [ ......[ ........[ ' ( Q D N 0 * O X lXlXlXlX",
"lXlXlXlXX O ; s E x.l.~.4XdXhXhXjXsXwXoXK.1.m.L.*XtX5XOXS.:...[ [ [ { ) ) J ( ( _ ] [ ..[ ..[ ....[ [ ' ( Q D N 0 * O X lXlXlXlX",
"lXlXlXlXo @ < l W (.~.1XiXgXhXfXeX:XoXR.I.L.L.W.=X-X;XY.h.$.[ [ [ [ { ) ( ( J J _ ] ......[ [ ....[ ] ' ( Q D B 0 * O X lXlXlXlX",
"lXlXlXlX  O 3 l v.6X4XiXgXhXgXeX+XT.K.T.}.+X*X=X&XQ.H.k.*.X.[ [ [ ..[ _ ~ Q Q ~ _ ] ......[ [ ......[ ' ( Q S N 0 * O X lXlXlXlX",
"lXlXlXlX  # 3 v '.9XfXhXhXhXsX:XP.m.m.M.+XwX5X1X!.l.d.e.7.X...[ [ [ ] _ ~ Q Q ~ ` ] ..[ ............] ' ( Q D N 0 * O X lXlXlXlX",
"lXlXlXlX  @ 6 n ].0XgXhXgXpXqXoXK.<.<.K.@XwX3X;XH.d.y.q.@.X.' [ ] ] ' _ ~ ! Q ( ` [ [ ....[ [ ..[ ..] ' ( Q S B 0 * @ X lXlXlXlX",
"lXlXlXlX  @ 6 n ].aXhXfXyX:XoX|.P.K.L.R.oX>X%XY.j.e.q.5.o.` _ ( _ _ _ ( ( ( ( _ ' [ [ ....[ ........[ ] _ Q D B 0 * O X lXlXlXlX",
"lXlXlXlX  @ 6 n ].aXgXpX@XI.K.P.|.+X+XoX|.P.A.h.w.7.@.+.` ( ~ ! ~ ( ( ( ( _ _ ] ] [ [ ..[ ..[ ......[ ] _ Q F B 0 * O X lXlXlXlX",
"lXlXlXlX  @ 5 n ].0XsX2XT.m.<.L.+XwXwX@XP.1.:.$.o.X...` ` ! Q Q J Q Q ( _ ' [ [ [ [ ..[ [ ..[ ....[ [ _ ( Q D B 0 * O X lXlXlXlX",
"lXlXlXlX  O 6 n _.7X9X#XK.n.<.L.@XwX3XoXM.:.....[ ..[ ' ( ^ Q Q Q Q ! ( _ ] ..[ ..[ ..[ ....[ ..[ [ _ ( Q F A u 0 % O X lXlXlXlX",
"lXlXlXlXlXO 5 x m _.`.{.Z.U.L.R.oX>XoXP.<.$.[ { [ [ ] ' ( ~ ~ ~ ! ~ ( _ ] [ ..............[ ..[ [ ' ~ Q A V u y 8 % O lXlXlXlXlX",
"lXlXlXlXlXlXlXz c v m _.{..X@XoXW.I.M.<.%.[ { { [ [ { ] ' _ _ _ _ _ _ ' [ [ ................[ ] ' _ Q A B y 0 7 > lXlXlXlXlXlXlX",
"lXlXlXlXlXlXlXlX1 6 x K `.9XqX*XL.1.:.$.[ o.[ [ ......[ [ ] [ ] ] ] [ [ [ ..[ ..[ [ ......[ [ ' ( ! F V y 7 * & lXlXlXlXlXlXlXlX",
"lXlXlXlXlXlXlXlX  @ 5 n _.7X9XXXA.*.X.X.X.X.X.X.......[ [ ..[ ....[ [ ..[ ..[ [ [ [ [ [ [ ] ' ( Q F A u 0 * @ X lXlXlXlXlXlXlXlX",
"lXlXlXlXlXlXlXlXlX  1 x )._.`.V.B.7.5.6.6.5.5.@.+...........................[ [ ] ' ' ' ] ' ~ J S V u 0 7 & X lXlXlXlXlXlXlXlXlX",
"lXlXlXlXlXlXlXlXlXlXlXz x n b v.;.q.q.u.y.y.0.6.@.X...[ [ ..................[ ] _ _ ( _ _ ( Q S B y 0 7 * lXlXlXlXlXlXlXlXlXlXlX",
"lXlXlXlXlXlXlXlXlXlXlXlX4 4 k j E 8.a.a.a.a.u.0.@.X...[ [ ....[ ....[ ......[ ` ( ! Q Q ^ Q F V y 7 * & lXlXlXlXlXlXlXlXlXlXlXlX",
"lXlXlXlXlXlXlXlXlXlXlXlX. @ , s L 3.4.t.t.9.8.r.O.o.] [ ] ] { [ ] [ [ [ ..] _ ~ Q F D D D D A u 0 - @ X lXlXlXlXlXlXlXlXlXlXlXlX",
"lXlXlXlXlXlXlXlXlXlXlXlXlX  - t h L T Y T T R  .~ ` ' ' ] ] ' ' _ ' ' ' ' ' ( J A V B N N N i y 7 & X lXlXlXlXlXlXlXlXlXlXlXlXlX",
"lXlXlXlXlXlXlXlXlXlXlXlXlXlXlX9 t p s s d d j Z G ^ ( _ _ ( ( ( ( ( ( ` _ ( Q S B y 0 0 0 0 0 8 > lXlXlXlXlXlXlXlXlXlXlXlXlXlXlX",
"lXlXlXlXlXlXlXlXlXlXlXlXlXlXlXlX; ; ; ; ; ; 0 i V F Q ! Q Q Q Q Q Q Q Q ! Q F V i 7 * & % * % % lXlXlXlXlXlXlXlXlXlXlXlXlXlXlXlX",
"lXlXlXlXlXlXlXlXlXlXlXlXlXlXlXlXO O O $ X @ - 0 N A S D D D S S D D D D D S A u 0 * O $ $ # @ O lXlXlXlXlXlXlXlXlXlXlXlXlXlXlXlX",
"lXlXlXlXlXlXlXlXlXlXlXlXlXlXlXlXlX. . . o . & 7 q u B B B B B B B B B N B B u q 8 & X . . X X lXlXlXlXlXlXlXlXlXlXlXlXlXlXlXlXlX",
"lXlXlXlXlXlXlXlXlXlXlXlXlXlXlXlXlXlXlXlXlXlXlX> 7 0 0 0 0 0 0 0 0 0 0 0 0 0 0 8 > lXlXlXlXlXlXlXlXlXlXlXlXlXlXlXlXlXlXlXlXlXlXlX",
"lXlXlXlXlXlXlXlXlXlXlXlXlXlXlXlXlXlXlXlXlXlXlXlX% % * % * * * * * * * * * * * % lXlXlXlXlXlXlXlXlXlXlXlXlXlXlXlXlXlXlXlXlXlXlXlX",
"lXlXlXlXlXlXlXlXlXlXlXlXlXlXlXlXlXlXlXlXlXlXlXlXO O @ O O O O O O O O O O O O O lXlXlXlXlXlXlXlXlXlXlXlXlXlXlXlXlXlXlXlXlXlXlXlX",
"lXlXlXlXlXlXlXlXlXlXlXlXlXlXlXlXlXlXlXlXlXlXlXlXX X X X X X X X X X X X X X X X lXlXlXlXlXlXlXlXlXlXlXlXlXlXlXlXlXlXlXlXlXlXlXlX"
};
