/* XPM */
static char *result[] = {
/* columns rows colors chars-per-pixel */
"64 64 219 2 ",
"   c #0B0102",
".  c #0B020E",
"X  c #0E080F",
"o  c #050105",
"O  c #190F0E",
"+  c #130A0B",
"@  c #1B100E",
"#  c #190F10",
"$  c #1B1111",
"%  c #0F0910",
"&  c #25160D",
"*  c #2E1C0C",
"=  c #241102",
"-  c #301D0C",
";  c #371F04",
":  c #2B240D",
">  c #372F0C",
",  c #39280B",
"<  c #372F11",
"1  c #372F19",
"2  c #3E3B0C",
"3  c #2B2122",
"4  c #372F22",
"5  c #362D2D",
"6  c #382F2F",
"7  c #372F30",
"8  c #332C31",
"9  c #452A0A",
"0  c #492C0A",
"q  c #462807",
"w  c #563509",
"e  c #483B0B",
"r  c #643D08",
"t  c #643C04",
"y  c #463B35",
"u  c #534D0A",
"i  c #56520B",
"p  c #6A4108",
"a  c #6F4D08",
"s  c #7C4D06",
"d  c #6B5614",
"f  c #6A6609",
"g  c #676308",
"h  c #7C7708",
"j  c #6A6412",
"k  c #7A6B08",
"l  c #6A6528",
"z  c #443E45",
"x  c #534C4B",
"c  c #585258",
"v  c #44404B",
"b  c #645E5E",
"n  c #6A6644",
"m  c #6A655B",
"M  c #7A685B",
"N  c #665F64",
"B  c #666163",
"V  c #6A6569",
"C  c #6A6364",
"Z  c #7D7777",
"A  c #855305",
"S  c #885405",
"D  c #955C05",
"F  c #804F06",
"G  c #97690A",
"H  c #A16403",
"J  c #AE6C03",
"K  c #B26F02",
"L  c #B47002",
"P  c #BB7402",
"I  c #B67D25",
"U  c #CB7E02",
"Y  c #8B755B",
"T  c #999706",
"R  c #AC8A05",
"E  c #A7A605",
"W  c #AAAA05",
"Q  c #B2A705",
"!  c #A7A417",
"~  c #A8A63A",
"^  c #CE8700",
"/  c #D38300",
"(  c #DC8600",
")  c #D28D00",
"_  c #DD8900",
"`  c #D48709",
"'  c #D39100",
"]  c #D69900",
"[  c #E58E00",
"{  c #EA8F00",
"}  c #EB9100",
"|  c #E79700",
" . c #F19600",
".. c #F59800",
"X. c #FD9D00",
"o. c #FF9700",
"O. c #E79610",
"+. c #DDAE00",
"@. c #DAA300",
"#. c #DDB100",
"$. c #C9AF03",
"%. c #E6AA00",
"&. c #FFA100",
"*. c #FFAC00",
"=. c #F7A602",
"-. c #E3BC01",
";. c #FDB200",
":. c #FFBC00",
">. c #F3BC00",
",. c #FFA714",
"<. c #FDAA20",
"1. c #FFB820",
"2. c #FFB63E",
"3. c #FFB93E",
"4. c #D79B3D",
"5. c #DFDD02",
"6. c #C7C403",
"7. c #ECCC00",
"8. c #E7C600",
"9. c #FEC500",
"0. c #FFCA00",
"q. c #F9C407",
"w. c #EBD200",
"e. c #E6D801",
"r. c #FED301",
"t. c #FFDC01",
"y. c #F1D601",
"u. c #FFC810",
"i. c #FFD11E",
"p. c #FFE300",
"a. c #FAED00",
"s. c #F3E600",
"d. c #FEF200",
"f. c #FFFB01",
"g. c #FFE91C",
"h. c #FFF815",
"j. c #E4E302",
"k. c #DFDE22",
"l. c #E0DE23",
"z. c #FFC83C",
"x. c #FFD433",
"c. c #FFFE20",
"v. c #FFFD3E",
"b. c #FFF63B",
"n. c #A9A76B",
"m. c #A7A675",
"M. c #A7A647",
"N. c #FCB94D",
"B. c #EBBA6C",
"V. c #C4A06F",
"C. c #DFDD55",
"Z. c #DFDD4B",
"A. c #FFC756",
"S. c #E3E250",
"D. c #FFF958",
"F. c #FFE240",
"G. c #FEC464",
"H. c #FFCB66",
"J. c #FFC56C",
"K. c #FFCB6E",
"L. c #FFD16C",
"P. c #FFCD72",
"I. c #FFCA7B",
"U. c #FFDC77",
"Y. c #FFE96C",
"T. c #FFFE6D",
"R. c #FFFD65",
"E. c #FFFE78",
"W. c #FFE177",
"Q. c #7D7B87",
"!. c #999698",
"~. c #A29180",
"^. c #A7A693",
"/. c #B0A093",
"(. c #9D99A0",
"). c #A7A5A9",
"_. c #B3B0B1",
"`. c #B0A9A7",
"'. c #CBB18F",
"]. c #DFDD8B",
"[. c #DFDD94",
"{. c #FFCB82",
"}. c #FFD285",
"|. c #FFD392",
" X c #FFD69C",
".X c #FFDA9B",
"XX c #F8D697",
"oX c #EDCB94",
"OX c #FFE383",
"+X c #FFF686",
"@X c #FFE49C",
"#X c #FFE795",
"$X c #FFF394",
"%X c #FFFC9D",
"&X c #FFF995",
"*X c #E5E48E",
"=X c #DFDDBD",
"-X c #E2D4BE",
";X c #FFE1AB",
":X c #FFFFA1",
">X c #FFE8B8",
",X c #FFF2BD",
"<X c #C7C5C4",
"1X c #DEDDDD",
"2X c #CBCCD1",
"3X c #E0DEDC",
"4X c #E3D7C3",
"5X c #FFE8C1",
"6X c #FEE7C1",
"7X c #FEF3C1",
"8X c #FFF3CE",
"9X c #FFF4D8",
"0X c #E4E4EA",
"qX c #E3E2E2",
"wX c #FFFAE8",
"eX c #FFFDF4",
"rX c #FDFDFD",
"tX c #F1F2F6",
"yX c None",
/* pixels */
"yXyXyXyXyXyXyXyXyXyXyXyXyXyXyXyXyXyXyXyXyXyXyXyX                . . . .         yXyXyXyXyXyXyXyXyXyXyXyXyXyXyXyXyXyXyXyXyXyXyXyX",
"yXyXyXyXyXyXyXyXyXyXyXyXyXyXyXyXyXyXyXyXyXyXyXyXO O O O # # # O O O O O O O O O yXyXyXyXyXyXyXyXyXyXyXyXyXyXyXyXyXyXyXyXyXyXyXyX",
"yXyXyXyXyXyXyXyXyXyXyXyXyXyXyXyXyXyXyXyXyXyXyXyX5 5 5 7 7 7 5 5 1 < < 1 4 5 5 8 yXyXyXyXyXyXyXyXyXyXyXyXyXyXyXyXyXyXyXyXyXyXyXyX",
"yXyXyXyXyXyXyXyXyXyXyXyXyXyXyXyXyXyXyXyXyXyXyXz c b C V V V m l l f j l n m B c v yXyXyXyXyXyXyXyXyXyXyXyXyXyXyXyXyXyXyXyXyXyXyX",
"yXyXyXyXyXyXyXyXyXyXyXyXyXyXyXyXyXyXyXyXyX  3 x Z !.).).).).^.n.~ ! ! ~ n.^.!.Q.c 8 . yXyXyXyXyXyXyXyXyXyXyXyXyXyXyXyXyXyXyXyXyX",
"yXyXyXyXyXyXyXyXyXyXyXyXyXyXyXyXyXyXyXyX  @ 6 B !.-X1X0X0XqX=X].Z.k.l.S.*X=X<X(.N 8 $ . yXyXyXyXyXyXyXyXyXyXyXyXyXyXyXyXyXyXyXyX",
"yXyXyXyXyXyXyXyXyXyXyXyXyXyXyXyXyXyXyXyX3 6 x Z ).1XrXrXeX9X7X$XD.v.v.R.%X,X-X/.Y 0 - = yXyXyXyXyXyXyXyXyXyXyXyXyXyXyXyXyXyXyXyX",
"yXyXyXyXyXyXyXyXyXyXyXyXyXyXyXyXyXyXyXy x m Z ).2XtXrXeX8X>X@X+XE.T.T.E.&X;XoXV.Y d w q , yXyXyXyXyXyXyXyXyXyXyXyXyXyXyXyXyXyXyX",
"yXyXyXyXyXyXyXyXyXyXyXyXyXyXyXyXyXO 5 x Z !._.2X0XrXeX8X.XL.H.U.+X%X:X&XOXL.N.4.I G s w q * O yXyXyXyXyXyXyXyXyXyXyXyXyXyXyXyXyX",
"yXyXyXyXyXyXyXyXyXyXyXyXyXyXyXyX  @ 5 b !.<XqXtXrXrX9X;XP.3.3.H..X7X,X;XL.N.<.O.` P H s w * O X yXyXyXyXyXyXyXyXyXyXyXyXyXyXyXyX",
"yXyXyXyXyXyXyXyXyXyXyXyXyXyXyXyX  + 7 C ).1XeXrXrX9X5X|.A.N.N.G..X5X>X|.N.<.o. .[ / L A w * # X yXyXyXyXyXyXyXyXyXyXyXyXyXyXyXyX",
"yXyXyXyXyXyXyXyXyXyXyXyXyXyXyXyXo + 5 B ).0XrXeX8X;X|.I.J.G.J.I.|. X|.K.2.,.o. .{ ` L A w * % . yXyXyXyXyXyXyXyXyXyXyXyXyXyXyXyX",
"yXyXyXyXyXyXyXyXyXyXyXyXyXyXyXyXo X 8 B ).0XeX8X;XH.A.J.{. X X|.{.B.N.N.,.X... .{ / K A w & # . yXyXyXyXyXyXyXyXyXyXyXyXyXyXyXyX",
"yXyXyXyXyXyXyXyXyXyXyXyXyXyXyXyX. $ 5 V ).1X9X>XL.N.2.J. X6X>X.XK.3.,.,.X.,.X. .[ / K A w - $ % yXyXyXyXyXyXyXyXyXyXyXyXyXyXyXyX",
"yXyXyXyXyXyXyXyXyXyXyXyXyXyXyXyX3 8 v Z `.4X5X.XG.2.3.H.#X,X,X#XA.1.;.*.&.&.X. .{ / P D p 0 - & yXyXyXyXyXyXyXyXyXyXyXyXyXyXyXyX",
"yXyXyXyXyXyXyXyXyXyXyXyXyXyXyXz c V Y m.'.oX|.}.P.J.H.U.$X%X&XY.x.i.:.;.*.&.X... .[ U K S p w 0 , yXyXyXyXyXyXyXyXyXyXyXyXyXyXyX",
"yXyXyXyXyXyXyXyXyXyXyXyXyX# 5 c Q.(.`.'.B.B.N.P.}. X@X#XE.T.D.v.g.p.r.0.;.&.&.o.o.| _ U L D s r 0 * # yXyXyXyXyXyXyXyXyXyXyXyXyX",
"yXyXyXyXyXyXyXyXyXyXyXyX  # 5 B !.<X4XXXJ.N.N.G. X>X7X:XT.v.c.h.h.f.p.r.9.*.&.X.X.X.| [ / P H s w - O X yXyXyXyXyXyXyXyXyXyXyXyX",
"yXyXyXyXyXyXyXyXyXyXyXyX  # 5 m ^.=X7X#XH.2.2.G. X6X,X%XD.h.f.f.f.a.p.0.:.&.X.X.X.X... .[ / L A w - O X yXyXyXyXyXyXyXyXyXyXyXyX",
"yXyXyXyXyXyXyXyXyXyXyXyX  # 4 n m.*X%X+XW.H.G.I.|..X#XY.b.h.f.a.s.y.7.8.;.=.&.X.X.&.X...} ( P A w - O X yXyXyXyXyXyXyXyXyXyXyXyX",
"yXyXyXyXyXyXyXyXyXyXyXyX. @ 1 l ~ S.R.E.+X@X.X|.I.J.A.x.g.d.d.s.w.-.%.%.=.&.X.&.&.&.X...} / P A w - O X yXyXyXyXyXyXyXyXyXyXyXyX",
"yXyXyXyXyXyXyXyXyXyXyXyX. @ > j ! l.v.T.:X7X6X XG.2.1.u.p.f.a.e.#.@.] ]  .X.X.&.&.X... .[ / L A w - O X yXyXyXyXyXyXyXyXyXyXyXyX",
"yXyXyXyXyXyXyXyXyXyXyXyX. O > j ! k.v.T.:X7X>X|.A.1.:.0.p.d.a.w.%.) / [ } ..X.&.&.&.X. .[ / L A w - O X yXyXyXyXyXyXyXyXyXyXyXyX",
"yXyXyXyXyXyXyXyXyXyXyXyX  O 1 l ~ C.R.+X$X@X.XL.A.u.0.t.a.f.s.w.+.[ U U { ..&.&.&.X.X. .[ / L A w - O X yXyXyXyXyXyXyXyXyXyXyXyX",
"yXyXyXyXyXyXyXyXyXyXyXyXo # 4 n n.].%X$XOXK.A.z.i.t.p.a.f.f.a.w.+.) / ( { o.&.&.&.X.X. .[ / L A w - O X yXyXyXyXyXyXyXyXyXyXyXyX",
"yXyXyXyXyXyXyXyXyXyXyXyX  # 6 m ^.=X7X@XL.3.1.u.r.p.d.f.f.f.a.w.+.) / ( { ..X.&.&.&... .[ / L A w - O X yXyXyXyXyXyXyXyXyXyXyXyX",
"yXyXyXyXyXyXyXyXyXyXyXyX  # 6 C ^.=X,X.XA.<.*.:.r.p.d.f.f.f.a.w.+.' / ( } X.&.&.&.X.X. .[ / L A w - O X yXyXyXyXyXyXyXyXyXyXyXyX",
"yXyXyXyXyXyXyXyXyXyXyXyX  # 4 n m.[.$XY.z.,.&.*.9.t.p.d.f.f.a.7.+.' / ( } ..X.&.&.&... .[ / L A w - O X yXyXyXyXyXyXyXyXyXyXyXyX",
"yXyXyXyXyXyXyXyXyXyXyXyX. O 1 l M.C.D.x.i.,.&.*.;.:.0.p.a.f.a.w.%.' / ( } ..&.&.&.X... .[ / L A w - O X yXyXyXyXyXyXyXyXyXyXyXyX",
"yXyXyXyXyXyXyXyXyXyXyXyX. O < j ! k.g.g.u.*.&.X.&.*.:.0.p.d.a.w.#.' / ( { ..X.&.&.&.X. .[ / L A w - O X yXyXyXyXyXyXyXyXyXyXyXyX",
"yXyXyXyXyXyXyXyXyXyXyXyX. O > f E 5.a.p.0.*.X.o.o.&.*.9.p.d.a.w.#.' / ( } X.&.&.&.X... .[ / L A w - O X yXyXyXyXyXyXyXyXyXyXyXyX",
"yXyXyXyXyXyXyXyXyXyXyXyX. O > f E 5.d.p.0.*.&.o.o.X.*.9.t.d.a.w.+.' / ( } ..X.&.&.&.X. .[ / L A w - O X yXyXyXyXyXyXyXyXyXyXyXyX",
"yXyXyXyXyXyXyXyXyXyXyXyX. O > f E 5.d.p.0.*.&.o.o.X.*.9.t.d.a.e.#.' / ( } ..&.&.&.X... .[ / L A w * @ X yXyXyXyXyXyXyXyXyXyXyXyX",
"yXyXyXyXyXyXyXyXyXyXyXyX. O > f E e.d.p.0.*.&.o.o.X.*.9.p.a.a.w.+.' / ( } ..X.&.&.&.X. .[ / L A w - @ X yXyXyXyXyXyXyXyXyXyXyXyX",
"yXyXyXyXyXyXyXyXyXyXyXyX. O > f E 5.d.p.0.*.&.o.o.&.*.9.p.a.a.w.+.' / ( } X.&.&.&.X... .[ / L A w * O X yXyXyXyXyXyXyXyXyXyXyXyX",
"yXyXyXyXyXyXyXyXyXyXyXyX. O > f E 5.d.p.0.*.&.o.o.&.*.9.p.d.a.w.#.' / ( } ..X.&.&.&.X...[ / L A w * O X yXyXyXyXyXyXyXyXyXyXyXyX",
"yXyXyXyXyXyXyXyXyXyXyXyX. # > f E 5.d.p.0.*.&.o.o.&.*.9.p.d.a.w.+.' / ( { ..&.&.&.X.X. .[ / K A w - O X yXyXyXyXyXyXyXyXyXyXyXyX",
"yXyXyXyXyXyXyXyXyXyXyXyX. O > f E 5.f.p.0.*.&.o.o.&.*.0.t.d.a.w.+.) / ( } ..X.&.&.&... .[ ^ K A w - O X yXyXyXyXyXyXyXyXyXyXyXyX",
"yXyXyXyXyXyXyXyXyXyXyXyX. # > f E 5.d.p.0.*.&.X.o.&.*.9.p.d.a.w.+.' / [  ...&.&.&.X.X.| [ / L A w - @ X yXyXyXyXyXyXyXyXyXyXyXyX",
"yXyXyXyXyXyXyXyXyXyXyXyX. O > f E 5.d.p.0.*.X.o.o.X.*.0.p.f.a.w.#.' / ( { ..X.&.&.&.....[ / K A w - @ X yXyXyXyXyXyXyXyXyXyXyXyX",
"yXyXyXyXyXyXyXyXyXyXyXyX. # > f E 5.d.p.0.*.&.o.o.&.*.0.p.f.a.e.#.' / ( } ..X.&.&.&.....[ / L A w - O X yXyXyXyXyXyXyXyXyXyXyXyX",
"yXyXyXyXyXyXyXyXyXyXyXyX. @ > f E 5.d.p.0.*.&.o.o.&.*.9.t.a.a.w.#.' / ( } X.&.&.&.X... .[ / L A w - O X yXyXyXyXyXyXyXyXyXyXyXyX",
"yXyXyXyXyXyXyXyXyXyXyXyX. O > f E 5.a.p.0.*.&.o.o.&.=.:.r.p.y.w.@.) / [ } ..&.&.&.X.X. .[ / L A w - O X yXyXyXyXyXyXyXyXyXyXyXyX",
"yXyXyXyXyXyXyXyXyXyXyXyX. # > f E 5.d.p.0.*.&.o.X.&.&.>.8.q.8.#.] ^ / ( } ..X.&.&.&... .[ / L A w - O X yXyXyXyXyXyXyXyXyXyXyXyX",
"yXyXyXyXyXyXyXyXyXyXyXyX. O > f E 5.f.p.0.*.&.X.X.&.&.=.%.%.@.] ' ^ / _ } ..X.&.&.&.X. .[ / L A w - @ X yXyXyXyXyXyXyXyXyXyXyXyX",
"yXyXyXyXyXyXyXyXyXyXyXyX. @ > f E e.a.p.0.*.&.X.X.X.X. .| ] ' / ^ ^ / _ } X.X.&.&.X.o.| [ / L A w - O X yXyXyXyXyXyXyXyXyXyXyXyX",
"yXyXyXyXyXyXyXyXyXyXyXyX. # > f E 5.d.p.0.*.X.X.X.X... .[ / / U U / ( [ | ..&.&.&.X.X. .[ / L A w - O X yXyXyXyXyXyXyXyXyXyXyXyX",
"yXyXyXyXyXyXyXyXyXyXyXyX. O > f W j.f.p.0.*.X.o.X.X.X. .[ [ [ ( ( _ [ [ ..X.&.&.&.&.X...} / P A w * O X yXyXyXyXyXyXyXyXyXyXyXyX",
"yXyXyXyXyXyXyXyXyXyXyXyX. O > f W j.f.p.0.*.X.o.X.X.X... . .{ } } } |  .X.X.&.&.&.&.....} ( P S w - @ X yXyXyXyXyXyXyXyXyXyXyXyX",
"yXyXyXyXyXyXyXyXyXyXyXyX. # > f E 5.d.p.0.;.&.X.X.&.X.X.X.........X.o.X.X.X.X.&.&.&.o. .[ / K A w - @ X yXyXyXyXyXyXyXyXyXyXyXyX",
"yXyXyXyXyXyXyXyXyXyXyXyX. O > g T 6.e.w.q.;.*.&.&.&.&.&.X.&.X.&.&.&.X.&.&.X.&.X.X...| [ / P H s w - O X yXyXyXyXyXyXyXyXyXyXyXyX",
"yXyXyXyXyXyXyXyXyXyXyXyXyXO > i h T Q $.-.q.9.:.;.&.&.X.&.&.&.&.&.&.&.&.&.&.X.X.X...[ U J D s r 0 * O yXyXyXyXyXyXyXyXyXyXyXyXyX",
"yXyXyXyXyXyXyXyXyXyXyXyXyXyXyXe u g h R $.7.t.r.:.*.&.X.X.&.&.&.&.&.&.&.&.X.X.X...} / J S p w 9 , yXyXyXyXyXyXyXyXyXyXyXyXyXyXyX",
"yXyXyXyXyXyXyXyXyXyXyXyXyXyXyXyX: > u h Q e.p.r.9.*.&.X.X.&.X.&.X.&.&.X.&.&.X...} / P D p 9 - & yXyXyXyXyXyXyXyXyXyXyXyXyXyXyXyX",
"yXyXyXyXyXyXyXyXyXyXyXyXyXyXyXyXX # > g T 6.e.8.>.=.X.......o...X.....X.X...| [ / P H s w * O X yXyXyXyXyXyXyXyXyXyXyXyXyXyXyXyX",
"yXyXyXyXyXyXyXyXyXyXyXyXyXyXyXyXyX. : i h T Q $.] |  . ..... ... . ....... .[ U K D s w 9 & X yXyXyXyXyXyXyXyXyXyXyXyXyXyXyXyXyX",
"yXyXyXyXyXyXyXyXyXyXyXyXyXyXyXyXyXyXyX2 i g k G P ) [ } [ [ [ [ [ [ [ } } [ / J S p w 9 - yXyXyXyXyXyXyXyXyXyXyXyXyXyXyXyXyXyXyX",
"yXyXyXyXyXyXyXyXyXyXyXyXyXyXyXyXyXyXyXyX: < e a G P / / / / / / / / / / ( / P D p 9 - & yXyXyXyXyXyXyXyXyXyXyXyXyXyXyXyXyXyXyXyX",
"yXyXyXyXyXyXyXyXyXyXyXyXyXyXyXyXyXyXyXyX% # - w s H L P P L L L L L L P L L H s w - O X yXyXyXyXyXyXyXyXyXyXyXyXyXyXyXyXyXyXyXyX",
"yXyXyXyXyXyXyXyXyXyXyXyXyXyXyXyXyXyXyXyXyX. & q r s A S A A S S A A A A S A s r 0 & X yXyXyXyXyXyXyXyXyXyXyXyXyXyXyXyXyXyXyXyXyX",
"yXyXyXyXyXyXyXyXyXyXyXyXyXyXyXyXyXyXyXyXyXyXyX; 0 w w w w w w w w w w w w w w 0 , yXyXyXyXyXyXyXyXyXyXyXyXyXyXyXyXyXyXyXyXyXyXyX",
"yXyXyXyXyXyXyXyXyXyXyXyXyXyXyXyXyXyXyXyXyXyXyXyX* * - * * * - - - - * * - - * * yXyXyXyXyXyXyXyXyXyXyXyXyXyXyXyXyXyXyXyXyXyXyXyX",
"yXyXyXyXyXyXyXyXyXyXyXyXyXyXyXyXyXyXyXyXyXyXyXyXO O O O O O O O @ @ O O O O @ @ yXyXyXyXyXyXyXyXyXyXyXyXyXyXyXyXyXyXyXyXyXyXyXyX",
"yXyXyXyXyXyXyXyXyXyXyXyXyXyXyXyXyXyXyXyXyXyXyXyXX X X X X X X X X X X X X X X X yXyXyXyXyXyXyXyXyXyXyXyXyXyXyXyXyXyXyXyXyXyXyXyX"
};
