/* XPM */
static char *result[] = {
/* columns rows colors chars-per-pixel */
"64 64 208 2 ",
"   c #0C0102",
".  c #0B020F",
"X  c #0E080F",
"o  c #05010F",
"O  c #190F0E",
"+  c #130A0E",
"@  c #1B110E",
"#  c #1A1010",
"$  c #0D0210",
"%  c #2E1C0C",
"&  c #25140D",
"*  c #301D0C",
"=  c #311F10",
"-  c #2B230B",
";  c #362E0C",
":  c #382F0C",
">  c #3A230B",
",  c #332317",
"<  c #3A3409",
"1  c #2B2226",
"2  c #352822",
"3  c #362D2D",
"4  c #382F2E",
"5  c #382F30",
"6  c #383031",
"7  c #3C373C",
"8  c #472B0A",
"9  c #453C0B",
"0  c #563509",
"q  c #563407",
"w  c #593A12",
"e  c #653E08",
"r  c #534C0A",
"t  c #514D05",
"y  c #58530A",
"u  c #56520A",
"i  c #44400B",
"p  c #6C4508",
"a  c #7C4C06",
"s  c #665F09",
"d  c #656109",
"f  c #6A6609",
"g  c #7E7508",
"h  c #7C7908",
"j  c #787704",
"k  c #7C7013",
"l  c #5C4527",
"z  c #62503D",
"x  c #443E44",
"c  c #524D56",
"v  c #575359",
"b  c #524A48",
"n  c #635345",
"m  c #675E5A",
"M  c #656164",
"N  c #6B666A",
"B  c #6A6567",
"V  c #7D7774",
"C  c #7E7455",
"Z  c #855305",
"A  c #895506",
"S  c #8A5C16",
"D  c #8E5805",
"F  c #8F6F06",
"G  c #A56603",
"H  c #B26E01",
"J  c #B47002",
"K  c #BA7702",
"L  c #B97E1F",
"P  c #926D37",
"I  c #B97F22",
"U  c #CD7E01",
"Y  c #927142",
"T  c #999606",
"R  c #9A9806",
"E  c #A29206",
"W  c #A7A605",
"Q  c #A9A905",
"!  c #A7A805",
"~  c #B3A805",
"^  c #B3AA11",
"/  c #B2862C",
"(  c #CD8400",
")  c #CE8A00",
"_  c #D38300",
"`  c #DC8600",
"'  c #D28D00",
"]  c #D88908",
"[  c #D39100",
"{  c #D69700",
"}  c #D38F1F",
"|  c #DB911A",
" . c #E48E00",
".. c #EB8E00",
"X. c #EB9100",
"o. c #E89605",
"O. c #F19600",
"+. c #FE9700",
"@. c #F69800",
"#. c #FE9C00",
"$. c #F49D0C",
"%. c #EA9A16",
"&. c #DDAE00",
"*. c #DAA300",
"=. c #CBB403",
"-. c #DDB100",
";. c #C4A203",
":. c #E6AA00",
">. c #FFA201",
",. c #FFAC00",
"<. c #FFA40E",
"1. c #F4A400",
"2. c #E3BC01",
"3. c #FEB400",
"4. c #FFBC00",
"5. c #F3BD00",
"6. c #FFAA1E",
"7. c #FAA61D",
"8. c #DB9D38",
"9. c #FEB63E",
"0. c #FFB232",
"q. c #F2AC2D",
"w. c #CCB422",
"e. c #C7C403",
"r. c #C8C503",
"t. c #DFDD02",
"y. c #EDCC00",
"u. c #E7C500",
"i. c #FEC500",
"p. c #FFCA00",
"a. c #F6C108",
"s. c #E3D603",
"d. c #EBD200",
"f. c #E0DE02",
"g. c #EFDA00",
"h. c #F1D201",
"j. c #FED300",
"k. c #FFDD00",
"l. c #F2D704",
"z. c #E4E302",
"x. c #FFE300",
"c. c #FBEC00",
"v. c #F3E900",
"b. c #FEF200",
"n. c #FEFB00",
"m. c #9B8668",
"M. c #D89F41",
"N. c #C59951",
"B. c #C2944C",
"V. c #DFA951",
"C. c #FFB842",
"Z. c #FFB740",
"A. c #FDBC51",
"S. c #E8B25A",
"D. c #E6B668",
"F. c #E6BC77",
"G. c #CBB369",
"H. c #FDC35B",
"J. c #FDC464",
"K. c #FFCA6E",
"L. c #FBC468",
"P. c #FFCB75",
"I. c #F5C472",
"U. c #FFD17C",
"Y. c #7D7B82",
"T. c #99979C",
"R. c #9B999A",
"E. c #A39687",
"W. c #A29A94",
"Q. c #A7A6A9",
"!. c #B4ABA0",
"~. c #AAAAB1",
"^. c #B3A78C",
"/. c #CEB489",
"(. c #CDB591",
"). c #D4B98E",
"_. c #EDC78B",
"`. c #F9CE86",
"'. c #FFD489",
"]. c #F2D19B",
"[. c #FFDA99",
"{. c #FAD594",
"}. c #D9CEBE",
"|. c #ECD3A9",
" X c #FFDFA8",
".X c #EBD7B5",
"XX c #F4DBB0",
"oX c #FFE2AA",
"OX c #FFE2B0",
"+X c #FBE4BF",
"@X c #FFE9B8",
"#X c #C7C4C2",
"$X c #DFDDDC",
"%X c #E3D5C2",
"&X c #E0DEDD",
"*X c #FDECCD",
"=X c #FAE5C1",
"-X c #F6E9D3",
";X c #FFF2D5",
":X c #FFF8D9",
">X c #E4E5EA",
",X c #F8EFE0",
"<X c #FDF3E1",
"1X c #FEF9ED",
"2X c #FEFDF5",
"3X c #FFFEFD",
"4X c #F8F6F2",
"5X c None",
/* pixels */
"5X5X5X5X5X5X5X5X5X5X5X5X5X5X5X5X5X5X5X5X5X5X5X5X. . . . . . . . . . . . . . . . 5X5X5X5X5X5X5X5X5X5X5X5X5X5X5X5X5X5X5X5X5X5X5X5X",
"5X5X5X5X5X5X5X5X5X5X5X5X5X5X5X5X5X5X5X5X5X5X5X5X# O O O @ @ O O O O O O O O O O 5X5X5X5X5X5X5X5X5X5X5X5X5X5X5X5X5X5X5X5X5X5X5X5X",
"5X5X5X5X5X5X5X5X5X5X5X5X5X5X5X5X5X5X5X5X5X5X5X5X; ; ; ; : ; : ; ; ; ; ; ; ; ; ; 5X5X5X5X5X5X5X5X5X5X5X5X5X5X5X5X5X5X5X5X5X5X5X5X",
"5X5X5X5X5X5X5X5X5X5X5X5X5X5X5X5X5X5X5X5X5X5X5X9 u s f f f f f f f f f f f d s u i 5X5X5X5X5X5X5X5X5X5X5X5X5X5X5X5X5X5X5X5X5X5X5X",
"5X5X5X5X5X5X5X5X5X5X5X5X5X5X5X5X5X5X5X5X5X. % r h T W Q Q W W W W W W W Q ! R h u - X 5X5X5X5X5X5X5X5X5X5X5X5X5X5X5X5X5X5X5X5X5X",
"5X5X5X5X5X5X5X5X5X5X5X5X5X5X5X5X5X5X5X5X. @ ; s T e.s.z.z.t.t.t.f.f.f.z.z.t.e.T s : @ $ 5X5X5X5X5X5X5X5X5X5X5X5X5X5X5X5X5X5X5X5X",
"5X5X5X5X5X5X5X5X5X5X5X5X5X5X5X5X5X5X5X5X- : r g ~ s.b.n.n.b.b.b.c.b.b.n.n.c.s.~ F 9 * @ 5X5X5X5X5X5X5X5X5X5X5X5X5X5X5X5X5X5X5X5X",
"5X5X5X5X5X5X5X5X5X5X5X5X5X5X5X5X5X5X5X9 r s g E =.y.x.c.x.x.x.x.x.x.x.x.c.x.y.;.F p 0 8 > 5X5X5X5X5X5X5X5X5X5X5X5X5X5X5X5X5X5X5X",
"5X5X5X5X5X5X5X5X5X5X5X5X5X5X5X5X5XO ; u h T ~ =.2.i.p.p.p.p.p.p.p.p.p.p.p.p.5.{ E D a e 8 % O 5X5X5X5X5X5X5X5X5X5X5X5X5X5X5X5X5X",
"5X5X5X5X5X5X5X5X5X5X5X5X5X5X5X5X. O ; s T e.s.h.i.3.,.,.,.,.,.,.,.,.,.3.,.,.1.o. .U G a 0 % O X 5X5X5X5X5X5X5X5X5X5X5X5X5X5X5X5X",
"5X5X5X5X5X5X5X5X5X5X5X5X5X5X5X5X. O ; f W t.b.x.p.,.#.#.#.>.#.#.#.#.#.>.>.>.#.O..._ H Z 0 % O X 5X5X5X5X5X5X5X5X5X5X5X5X5X5X5X5X",
"5X5X5X5X5X5X5X5X5X5X5X5X5X5X5X5Xo X ; d W z.n.c.p.,.#.+.+.#.#.+.#.#.#.#.#.#.@.O...U H Z 0 % + . 5X5X5X5X5X5X5X5X5X5X5X5X5X5X5X5X",
"5X5X5X5X5X5X5X5X5X5X5X5X5X5X5X5Xo X ; d Q z.n.c.p.,.#.@.#.+.#.#.+.#.#.#.#.#.@.O. ._ J Z 0 % + . 5X5X5X5X5X5X5X5X5X5X5X5X5X5X5X5X",
"5X5X5X5X5X5X5X5X5X5X5X5X5X5X5X5X$ @ ; f W f.c.x.p.,.#.#.#.>.#.#.#.#.>.>.#.#.#.O. ._ H A 0 * # X 5X5X5X5X5X5X5X5X5X5X5X5X5X5X5X5X",
"5X5X5X5X5X5X5X5X5X5X5X5X5X5X5X5X- : r h ~ s.x.k.i.,.>.>.>.,.,.,.,.,.,.>.>.>.#.O.X._ K D p 8 * & 5X5X5X5X5X5X5X5X5X5X5X5X5X5X5X5X",
"5X5X5X5X5X5X5X5X5X5X5X5X5X5X5X9 r f g E =.y.j.p.3.,.>.,.3.4.i.i.p.i.4.4.3.>.#.@.O. .U H Z p 0 8 > 5X5X5X5X5X5X5X5X5X5X5X5X5X5X5X",
"5X5X5X5X5X5X5X5X5X5X5X5X5X# ; u h R ~ =.2.a.4.3.,.>.,.3.i.j.k.k.x.k.k.p.3.,.#.#.@.o.` ( H D Z e 8 % @ 5X5X5X5X5X5X5X5X5X5X5X5X5X",
"5X5X5X5X5X5X5X5X5X5X5X5X. O ; s R r.s.h.i.3.,.>.#.>.,.4.j.x.b.n.n.b.x.j.4.,.#.#.#.#.o. ._ J G a 0 * @ X 5X5X5X5X5X5X5X5X5X5X5X5X",
"5X5X5X5X5X5X5X5X5X5X5X5X. O ; f W t.b.x.i.,.>.#.#.#.,.i.k.c.n.n.n.c.v.p.4.,.>.#.#.#.@.O. ._ H A 0 * O X 5X5X5X5X5X5X5X5X5X5X5X5X",
"5X5X5X5X5X5X5X5X5X5X5X5X. # ; f Q z.n.x.p.,.#.+.+.#.>.i.k.n.n.n.v.g.y.5.3.>.>.#.>.>.#.@.X.` J A 0 % O X 5X5X5X5X5X5X5X5X5X5X5X5X",
"5X5X5X5X5X5X5X5X5X5X5X5X. O ; f Q z.n.c.p.,.#.+.+.#.,.i.k.n.b.v.s.2.:.:.1.1.#.#.#.#.#.@.X.' J A 0 * O X 5X5X5X5X5X5X5X5X5X5X5X5X",
"5X5X5X5X5X5X5X5X5X5X5X5X. @ ; f W f.c.x.p.,.#.#.#.#.,.i.k.n.v.g.-.*.{  .O.#.>.>.>.>.#.O. ._ J A 0 * O X 5X5X5X5X5X5X5X5X5X5X5X5X",
"5X5X5X5X5X5X5X5X5X5X5X5X. O ; f W f.b.x.p.,.>.#.>.,.4.p.x.n.c.d.&.[ _ ` X.@.#.>.>.>.@.O. ._ J Z 0 * @ X 5X5X5X5X5X5X5X5X5X5X5X5X",
"5X5X5X5X5X5X5X5X5X5X5X5X. O ; f W f.b.x.i.,.>.,.3.4.p.k.c.n.v.d.&.' _ ` ..@.>.>.>.>.@.O. .( J Z 0 * O X 5X5X5X5X5X5X5X5X5X5X5X5X",
"5X5X5X5X5X5X5X5X5X5X5X5X. O ; f W t.b.x.i.,.,.3.i.k.x.b.n.n.b.d.&.' _ ` X.@.>.>.>.>.@.O. ._ J Z 0 * O X 5X5X5X5X5X5X5X5X5X5X5X5X",
"5X5X5X5X5X5X5X5X5X5X5X5X. O ; f W s.b.x.i.,.,.4.p.x.b.n.n.n.c.d.&.' _ ` X.@.#.>.>.#.#.O. ._ J Z 0 * O X 5X5X5X5X5X5X5X5X5X5X5X5X",
"5X5X5X5X5X5X5X5X5X5X5X5X. O ; f W t.c.x.p.,.,.4.j.x.b.n.n.n.c.d.&.' _ ` X.@.#.>.>.>.#.O. ._ J Z 0 * O X 5X5X5X5X5X5X5X5X5X5X5X5X",
"5X5X5X5X5X5X5X5X5X5X5X5X. O ; f W f.b.x.i.,.>.3.i.k.x.b.n.n.v.d.&.[ _ ` X.@.>.>.>.>.@.O. ._ J Z 0 * O X 5X5X5X5X5X5X5X5X5X5X5X5X",
"5X5X5X5X5X5X5X5X5X5X5X5X. @ ; f W t.b.x.i.,.>.,.3.4.p.x.c.n.c.d.&.[ _ ` X.@.>.>.>.#.#.O. ._ J Z 0 * O X 5X5X5X5X5X5X5X5X5X5X5X5X",
"5X5X5X5X5X5X5X5X5X5X5X5X. O ; f W t.b.x.p.,.#.#.>.,.4.p.x.b.c.d.&.[ _ ` X.@.#.>.>.>.@.O. ._ J Z 0 * O X 5X5X5X5X5X5X5X5X5X5X5X5X",
"5X5X5X5X5X5X5X5X5X5X5X5X. O ; f W t.c.x.p.,.>.#.+.#.,.i.x.b.c.d.&.[ _ ` X.@.>.>.>.#.@.O. ._ H Z 0 % O X 5X5X5X5X5X5X5X5X5X5X5X5X",
"5X5X5X5X5X5X5X5X5X5X5X5X. O ; f W f.b.x.p.,.#.#.+.#.,.i.x.c.c.d.&.[ _  .X.@.#.>.>.#.@.O. ._ H Z q * O X 5X5X5X5X5X5X5X5X5X5X5X5X",
"5X5X5X5X5X5X5X5X5X5X5X5X. O ; f W t.b.x.p.,.#.+.#.#.,.i.x.b.b.d.-.[ _ ` ..#.#.>.>.>.@.o...U H Z q * O X 5X5X5X5X5X5X5X5X5X5X5X5X",
"5X5X5X5X5X5X5X5X5X5X5X5X. O ; f W t.b.x.p.,.#.#.#.#.,.i.k.b.c.s.&.[ _  ...@.>.>.>.#.#.O. ._ J A 0 % O X 5X5X5X5X5X5X5X5X5X5X5X5X",
"5X5X5X5X5X5X5X5X5X5X5X5X. O ; f W f.c.x.p.,.#.#.+.#.,.i.x.c.c.d.-.[ _ ` X.@.#.>.>.>.#.$.%.} L S w = O X 5X5X5X5X5X5X5X5X5X5X5X5X",
"5X5X5X5X5X5X5X5X5X5X5X5X. O ; f W t.n.x.p.,.#.+.#.#.,.i.x.b.v.d.&.[ _ ` X.@.>.#.#.#.$.7.9.V.B.Y l , #   5X5X5X5X5X5X5X5X5X5X5X5X",
"5X5X5X5X5X5X5X5X5X5X5X5X. O ; f W t.b.x.p.,.>.#.#.#.,.p.k.b.c.d.:.[ U ` X.@.#.>.#.#.<.9.D._.(.m.n 3 O   5X5X5X5X5X5X5X5X5X5X5X5X",
"5X5X5X5X5X5X5X5X5X5X5X5X. O ; f W f.b.x.p.,.#.#.+.#.,.i.x.b.c.d.-.' _  .X.@.>.#.#.>.6.H.[.+X%XW.M 3 #   5X5X5X5X5X5X5X5X5X5X5X5X",
"5X5X5X5X5X5X5X5X5X5X5X5X. # ; f W t.b.x.p.,.#.#.#.#.,.p.x.b.v.d.-.[ _ ` ..@.>.>.<.6.Z.U.@X:X$XQ.B 6 #   5X5X5X5X5X5X5X5X5X5X5X5X",
"5X5X5X5X5X5X5X5X5X5X5X5X. O ; f W t.b.x.p.,.#.+.#.>.,.i.x.n.b.d.-.[ U  ...@.>.6.0.A.P.oX:X2X>X~.N 6 #   5X5X5X5X5X5X5X5X5X5X5X5X",
"5X5X5X5X5X5X5X5X5X5X5X5X. O ; f W f.b.x.p.,.>.#.#.#.,.i.x.n.c.g.-.[ _ ` ..@.<.0.J.'.OX:X2X3X>X~.N 3 #   5X5X5X5X5X5X5X5X5X5X5X5X",
"5X5X5X5X5X5X5X5X5X5X5X5X. O ; f W t.b.x.p.,.#.+.#.#.,.i.x.c.c.d.-.[ _ ` ..@.6.A.'.=X<X2X3X2X$XQ.N 3 #   5X5X5X5X5X5X5X5X5X5X5X5X",
"5X5X5X5X5X5X5X5X5X5X5X5X. O ; f W t.c.x.p.,.>.#.+.#.,.i.j.x.g.u.&.' _ ] %.%.Z.P.OX<X3X3X2X,X%XW.m 3 #   5X5X5X5X5X5X5X5X5X5X5X5X",
"5X5X5X5X5X5X5X5X5X5X5X5X. O ; f W t.b.x.p.,.#.#.#.1.>.3.a.y.u.&.{ ( ] | q.A.P. X;X2X3X4X-XXX(.Y n , #   5X5X5X5X5X5X5X5X5X5X5X5X",
"5X5X5X5X5X5X5X5X5X5X5X5X. O ; f W t.b.x.p.,.>.#.#.#.1.1.:.:.*.{ ) ( ( 8.D._.OX;X2X3X4X-X|.D.N.P l , O . 5X5X5X5X5X5X5X5X5X5X5X5X",
"5X5X5X5X5X5X5X5X5X5X5X5X. O ; f W t.b.x.i.,.#.#.#.#.#.O. .{ ' ( ( U } V._.=X<X2X3X2X<XXXF.M.I D w * O + 5X5X5X5X5X5X5X5X5X5X5X5X",
"5X5X5X5X5X5X5X5X5X5X5X5X. O : f W f.b.x.p.,.>.#.#.#.@.X. .' _ _ ] } M.D..X,X3X3X2X<X=X{.D.8./ S w , O . 5X5X5X5X5X5X5X5X5X5X5X5X",
"5X5X5X5X5X5X5X5X5X5X5X5X. O ; f Q z.n.x.p.,.#.#.#.#.#.O... ...| 8.V.F.|.-X2X3X1X*XoX{.`.I.D.N.P l , @   5X5X5X5X5X5X5X5X5X5X5X5X",
"5X5X5X5X5X5X5X5X5X5X5X5X. O ; f Q z.n.c.p.,.#.#.#.#.#.@.O...%.8.D._..X-X4X3X2X*X[.K.J.K.`.].).m.n , #   5X5X5X5X5X5X5X5X5X5X5X5X",
"5X5X5X5X5X5X5X5X5X5X5X5X. # ; f W t.c.x.i.,.>.#.#.#.#.#.@.#.7.A.`.=X,X2X3X2X:XoXK.C.9.J.[.=X%XT.m 3 #   5X5X5X5X5X5X5X5X5X5X5X5X",
"5X5X5X5X5X5X5X5X5X5X5X5X. O ; s T e.s.h.i.3.,.>.>.#.>.>.<.6.9.P.OX<X2X3X2X<X=X[.J.9.9.D.|.%X#XT.M 4 #   5X5X5X5X5X5X5X5X5X5X5X5X",
"5X5X5X5X5X5X5X5X5X5X5X5X5XO ; u h T ~ =.2.a.i.4.,.>.>.6.0.A.P.oX;X2X3X1X*XoX{.U.K.J.L.F.(.!.T.Y.v 4 # 5X5X5X5X5X5X5X5X5X5X5X5X5X",
"5X5X5X5X5X5X5X5X5X5X5X5X5X5X5X9 r d g E =.l.x.a.4.>.,.0.H.'.OX;X4X3X2X*X[.K.H.K.'.[.].(.E.Y N c b 5X5X5X5X5X5X5X5X5X5X5X5X5X5X5X",
"5X5X5X5X5X5X5X5X5X5X5X5X5X5X5X5X- : r g ^ s.x.l.i.,.6.H.'.+X<X2X3X2X<XoXK.C.C.J.[.@X%X!.V b 7 1 5X5X5X5X5X5X5X5X5X5X5X5X5X5X5X5X",
"5X5X5X5X5X5X5X5X5X5X5X5X5X5X5X5X$ # ; d R e.t.s.5.6.C.P.OX<X2X3X4X<X=X{.H.9.9.I.|.%X#XR.M 6 #   5X5X5X5X5X5X5X5X5X5X5X5X5X5X5X5X",
"5X5X5X5X5X5X5X5X5X5X5X5X5X5X5X5X5X. - r h R ^ w.S.H.U.oX:X2X3X4X-XXX{.`.I.J.L.I.(.!.T.V c 1   5X5X5X5X5X5X5X5X5X5X5X5X5X5X5X5X5X",
"5X5X5X5X5X5X5X5X5X5X5X5X5X5X5X5X5X5X5X< t d k / G.].@X:X2X3X2X*X|.F.D.I.'.[.].(.R.V N c 7 5X5X5X5X5X5X5X5X5X5X5X5X5X5X5X5X5X5X5X",
"5X5X5X5X5X5X5X5X5X5X5X5X5X5X5X5X5X5X5X5X- : l C ^..X:X2X3X3X,X|.D.M.8.D.{.=X%X!.Y b 5 1 5X5X5X5X5X5X5X5X5X5X5X5X5X5X5X5X5X5X5X5X",
"5X5X5X5X5X5X5X5X5X5X5X5X5X5X5X5X5X5X5X5X  @ 4 M T.#X$X>X>X&X}./.B.L I N.).}.#XT.M 4 #   5X5X5X5X5X5X5X5X5X5X5X5X5X5X5X5X5X5X5X5X",
"5X5X5X5X5X5X5X5X5X5X5X5X5X5X5X5X5X5X5X5X5XX 1 v V T.Q.~.~.Q.E.m.P S S P m.W.T.Y.v 1   5X5X5X5X5X5X5X5X5X5X5X5X5X5X5X5X5X5X5X5X5X",
"5X5X5X5X5X5X5X5X5X5X5X5X5X5X5X5X5X5X5X5X5X5X5Xx v M N N N B m z l w w l n m M v x 5X5X5X5X5X5X5X5X5X5X5X5X5X5X5X5X5X5X5X5X5X5X5X",
"5X5X5X5X5X5X5X5X5X5X5X5X5X5X5X5X5X5X5X5X5X5X5X5X3 5 5 5 6 4 2 2 , * , , 2 3 4 4 5X5X5X5X5X5X5X5X5X5X5X5X5X5X5X5X5X5X5X5X5X5X5X5X",
"5X5X5X5X5X5X5X5X5X5X5X5X5X5X5X5X5X5X5X5X5X5X5X5X# + + # @ @ # # O O O O O O O O 5X5X5X5X5X5X5X5X5X5X5X5X5X5X5X5X5X5X5X5X5X5X5X5X",
"5X5X5X5X5X5X5X5X5X5X5X5X5X5X5X5X5X5X5X5X5X5X5X5X                  . X .         5X5X5X5X5X5X5X5X5X5X5X5X5X5X5X5X5X5X5X5X5X5X5X5X"
};
