/* XPM */
static char *result[] = {
/* columns rows colors chars-per-pixel */
"64 64 184 2 ",
"   c #3E1B15",
".  c #3F1E19",
"X  c #3F211E",
"o  c #401F1A",
"O  c #40211E",
"+  c #4A241E",
"@  c #422320",
"#  c #482724",
"$  c #4D2926",
"%  c #432B2C",
"&  c #562923",
"*  c #5A2B25",
"=  c #542D2A",
"-  c #5A2E29",
";  c #532721",
":  c #5C322D",
">  c #472F30",
",  c #443033",
"<  c #49383F",
"1  c #433339",
"2  c #5F3430",
"3  c #583939",
"4  c #602F2A",
"5  c #64322D",
"6  c #6C352D",
"7  c #633631",
"8  c #6A3731",
"9  c #673833",
"0  c #6D3B36",
"q  c #653D3C",
"w  c #6B3D3C",
"e  c #723C37",
"r  c #713D38",
"t  c #7E3F37",
"y  c #6E413C",
"u  c #73423C",
"i  c #7D433D",
"p  c #353F50",
"a  c #463D47",
"s  c #3B4558",
"d  c #4F424B",
"f  c #504047",
"g  c #51434C",
"h  c #4D4C5D",
"j  c #434758",
"k  c #534651",
"l  c #524E5D",
"z  c #544954",
"x  c #634141",
"c  c #6C4544",
"v  c #6E4E4A",
"b  c #724541",
"n  c #764A46",
"m  c #734A49",
"M  c #7C4E4B",
"N  c #6F514D",
"B  c #70514E",
"V  c #7C524E",
"C  c #7E5652",
"Z  c #7C5A56",
"A  c #7D5E5B",
"S  c #7E615D",
"D  c #434F65",
"F  c #455066",
"G  c #45526A",
"H  c #49556B",
"J  c #4D5A6F",
"K  c #4D5463",
"L  c #545B6B",
"P  c #4A5771",
"I  c #4B5972",
"U  c #4E5D78",
"Y  c #535D71",
"T  c #515F79",
"R  c #615966",
"E  c #625E72",
"W  c #556177",
"Q  c #5A6375",
"!  c #54627A",
"~  c #5B657B",
"^  c #5D697D",
"/  c #7E6B68",
"(  c #776163",
")  c #696675",
"_  c #62647A",
"`  c #6A667C",
"'  c #6B697F",
"]  c #616B7D",
"[  c #7C7174",
"{  c #803D33",
"}  c #82423B",
"|  c #824740",
" . c #844841",
".. c #805D5A",
"X. c #805952",
"o. c #876A66",
"O. c #8A706E",
"+. c #897674",
"@. c #596783",
"#. c #5B6985",
"$. c #5E6D8A",
"%. c #5E708E",
"&. c #606780",
"*. c #626C81",
"=. c #6E6B81",
"-. c #626F8A",
";. c #726E83",
":. c #65718B",
">. c #6B768C",
",. c #6F798E",
"<. c #667186",
"1. c #707B8F",
"2. c #777486",
"3. c #657594",
"4. c #6B7692",
"5. c #6C7995",
"6. c #6D7D9D",
"7. c #727E95",
"8. c #707F9F",
"9. c #6D7FA1",
"0. c #817D8F",
"q. c #758095",
"w. c #76829A",
"e. c #79859B",
"r. c #798396",
"t. c #6F81A3",
"y. c #7182A3",
"u. c #7987A2",
"i. c #7D8AA4",
"p. c #7286A8",
"a. c #7589AC",
"s. c #7D8CAA",
"d. c #768CB0",
"f. c #898789",
"g. c #978B8A",
"h. c #9E908F",
"j. c #838291",
"k. c #8C8892",
"l. c #928C9A",
"z. c #8D9498",
"x. c #949394",
"c. c #9D9191",
"v. c #989C9C",
"b. c #969A99",
"n. c #A49C9C",
"m. c #A09593",
"M. c #A6A09F",
"N. c #838EA2",
"B. c #808FAB",
"V. c #8591A5",
"C. c #8593AD",
"Z. c #8895AF",
"A. c #8B96AA",
"S. c #8795B0",
"D. c #8996B1",
"F. c #8C99B3",
"G. c #8D9DB9",
"H. c #919DB5",
"J. c #919EBA",
"K. c #96A1B6",
"L. c #99A3B7",
"P. c #93A1BB",
"I. c #9BA6BC",
"U. c #9DA9BD",
"Y. c #9FA8B6",
"T. c #A6A4A3",
"R. c #A9A5A5",
"E. c #ACADAD",
"W. c #A5ACAD",
"Q. c #A0A9BC",
"!. c #AEB4B6",
"~. c #B3B7B8",
"^. c #96A4C0",
"/. c #9EAAC1",
"(. c #9BA9C7",
"). c #A2ADC2",
"_. c #A6B1C5",
"`. c #A8B2C7",
"'. c #A4B2C9",
"]. c #AAB5C9",
"[. c #ADB8CD",
"{. c #B6BFC0",
"}. c #B8C2C3",
"|. c None",
/* pixels */
"|.|.|.|.|.|.|.|.|.|.|.|.|.|.|.|.|.|.|.|.|.|.|.|.|.|.|.|.|.|.|.|.|.|.|.|.|.|.|.|.|.|.|.|.|.|.|.|.|.|.|.|.|.|.|.|.|.|.|.|.|.|.|.|.",
"|.|.|.|.|.|.|.|.|.|.|.|.|.|.|.|.|.|.|.|.|.|.|.|.|.|.|.|.|.|.|.|.|.|.|.|.|.|.|.|.|.|.|.|.|.|.|.|.|.|.|.|.|.|.|.|.|.|.|.|.|.|.|.|.",
"|.|.|.|.|.|.|.|.|.|.|.|.|.|.|.|.|.|.|.|.|.|.|.|.|.|.|.|.|.|.|.|.|.|.|.|.|.|.|.|.|.|.|.|.|.|.|.|.|.|.|.|.|.|.|.|.|.|.|.|.|.|.|.|.",
"|.|.|.|.|.|.|.|.|.|.|.|.|.|.|.|.|.|.|.|.|.|.|.|.|.|.|.|.|.|.|.|.|.|.|.|.|.|.|.|.|.|.|.|.|.|.|.|.|.|.|.|.|.|.|.|.|.|.|.|.|.|.|.|.",
"|.|.|.|.|.|.|.|.|.|.|.|.|.|.|.|.|.|.|.|.|.|.|.|.|.|.|.|.|.|.|.|.|.|.|.|.|.|.|.|.|.|.|.|.|.|.|.|.|.|.|.|.|.|.|.|.|.|.|.|.|.|.|.|.",
"|.|.|.|.|.|.|.|.|.|.|.|.|.|.|.|.|.|.|.|.|.|.|.|.|.|.|.|.|.|.|.|.|.|.|.|.|.|.|.|.|.|.|.|.|.|.|.|.|.|.|.|.|.|.|.|.|.|.|.|.|.|.|.|.",
"|.|.|.|.|.|.|.|.|.|.|.|.|.|.|.|.|.|.|.|.|.|.|.|.|.|.|.|.|.|.|.|.|.|.|.|.|.|.|.|.|.|.|.|.|.|.|.|.|.|.|.|.|.|.|.|.|.|.|.|.|.|.|.|.",
"|.|.|.|.|.|.|.|.|.|.|.|.|.|.|.|.|.|.|.|.|.|.|.|.|.|.|.|.|.|.|.|.|.|.|.|.|.|.|.|.|.|.|.|.|.|.|.|.|.|.|.|.|.|.|.|.|.|.|.|.|.|.|.|.",
"|.|.|.|.|.|.|.|.|.|.|.|.|.|.|.|.|.|.|.|.|.|.|.|.|.|.F N.B.i.e.i.N.u.u.N.B.N.K |.|.|.|.|.|.|.|.|.|.|.|.|.|.|.|.|.|.|.|.|.|.|.|.|.",
"|.|.|.|.|.|.|.|.|.|.|.|.|.|.|.|.|.|.|.|.|.|.|.|.|.|.Q (.(.P.P.P.P.P.J.J.(.(.Y |.|.|.|.|.|.|.|.|.|.|.|.|.|.|.|.|.|.|.|.|.|.|.|.|.",
"|.|.|.|.|.|.|.|.|.|.|.|.|.|.|.|.|.|.|.|.|.|.|.|.|.|.L H.J.D.D.D.D.S.D.D.J.H.Y |.|.|.|.|.|.|.|.|.|.|.|.|.|.|.|.|.|.|.|.|.|.|.|.|.",
"|.|.|.|.|.|.|.|.|.|.|.|.|.|.|.|.|.|.|.|.|.|.|.|.|.|.Q F.F.Z.C.Z.C.S.S.S.H.F.Q |.|.|.|.|.|.|.|.|.|.|.|.|.|.|.|.|.|.|.|.|.|.|.|.|.",
"|.|.|.|.|.|.|.|.|.|.|.|.|.|.] i.e.7.w.7.q.w.r.5.H j <.D.F.S.C.C.C.S.C.C.D.D.:.s H 7.e.w.7.w.w.7.e.N.&.|.|.|.|.|.|.|.|.|.|.|.|.|.",
"|.|.|.|.|.|.|.|.|.|.|.|.|.|.e.(.^.J.J.P.P.P.^.D.#.H 7.K.K.H.G.H.H.H.H.H.J.H.7.P #.D.^.P.P.J.J.P.^.'.e.|.|.|.|.|.|.|.|.|.|.|.|.|.",
"|.|.|.|.|.|.|.|.|.|.|.|.|.|.q.^.H.D.F.D.F.F.G.C.! H e.`.]._._.)._._.)._.]._.j.H ~ B.H.D.H.F.D.D.F.^.7.|.|.|.|.|.|.|.|.|.|.|.|.|.",
"|.|.|.|.|.|.|.|.|.|.|.|.|.|.7.J.D.Z.C.Z.C.Z.F.N.! G w././.I.I.I.I.I.Q.I.).).w.G T N.F.S.C.C.S.C.D.J.7.|.|.|.|.|.|.|.|.|.|.|.|.|.",
"p Y >.1.>.>.>.>.,.4.1.~ s D w.G.S.S.C.C.C.C.D.B.! D -.s.s.s.i.i.i.p.i.i.s.s.$.D T N.F.S.C.C.C.C.D.F.e.F s ~ 1.7.>.>.,.>.>.1.>.Y ",
"H 7.J.^.P.J.P.P.J.P.I.u.J T N.K.H.F.H.F.H.H.H.C.~ D @.9.6.6.6.6.6.6.6.6.9.9.@.D &.C.J.H.F.H.F.F.J.J.N.! P u.P.P.P.J.J.J.J.^.J.7.",
"G 4.F.J.F.F.F.F.F.H.H.8.H ~ H.].).).).).).).].L.-.D @.8.9.6.6.6.6.6.6.6.t.9.@.D &.L.`.)._.).).).).].H.Q H w.J.F.F.F.F.F.F.J.F.5.",
"D >.C.F.S.Z.Z.Z.D.D.F.7.F W A.`.).).)./.).).`.H.&.D @.8.y.6.t.6.6.9.y.6.y.t.@.D *.J.).).).)./.).)._.D.! G 7.F.F.Z.Z.Z.Z.Z.F.Z.>.",
"F >.C.F.Z.C.C.C.C.D.D.7.H I 9.S.B.s.B.s.B.B.B.u.T F #.8.8.8.8.9.t.6.w.9.8.8.$.D T u.S.B.B.i.B.i.C.C.8.P H 7.D.Z.C.C.C.Z.C.F.C.<.",
"F >.D.H.F.F.D.F.F.H.H.w.H H 3.8.6.6.6.6.6.6.8.5.U D -.8.p.8.8.8.t.8.y.9.p.8.$.D Y 5.9.9.6.6.6.6.6.6.3.P H w.H.H.D.D.F.F.F.H.F.4.",
"D q.U.].).).Q.).).)._.N.Y G 3.9.6.6.6.6.9.9.8.6.U G %.a.a.a.p.p.p.p.p.p.a.a.$.G T 3.8.9.9.8.9.9.6.9.3.H P V._.`.Q.).).).).`.U.q.",
"D w.Q.].).Q.).).)._._.N.I P 3.y.9.9.y.9.9.8.p.3.Y F T 4.5.4.4.4.4.4.4.4.5.4.~ D U 5.p.8.9.9.9.9.y.y.3.H J V.`.).Q._.Q.).).].Q.w.",
"F :.C.S.C.B.C.B.C.S.S.5.P I 6.a.p.p.p.p.p.p.d.9.l > a a a k a k d g k d g g a > l 8.d.a.p.p.p.p.p.a.6.I H 6.S.D.Z.C.C.C.s.Z.C.:.",
"D @.6.t.6.6.6.6.6.9.t.$.D H -.6.7.5.4.5.5.5.9.:.a o o o . . O O . . . . . .   . a :.8.7.5.4.5.4.5.6.-.H F -.9.9.6.6.6.6.6.t.6.@.",
"D @.6.6.6.6.6.9.6.9.t.&.a 1 d z k k k k k k z a > o o o . . . . . . . . . . . . > g z z k k k k k k d 1 a &.y.9.6.6.6.6.6.t.6.@.",
"D #.6.t.6.9.6.w.6.y.p._ >   . . . X . X O O O X O O O + @ @ @ @ @ @ @ @ @ @ @ O X X . . O X . X o o o   > _ p.y.6.t.6.6.6.y.6.@.",
"F #.y.p.y.y.y.y.y.a.a._ >   . . . . . . . . . . O O @ O @ X @ @ @ X X X X @ X X . . . . . . . . . . .   > _ a.p.y.y.y.y.y.p.w.$.",
"D #.6.t.6.6.6.6.6.y.y.Q >   X @ @ @ @ @ @ X @ @ @ O @ @ @ @ @ @ @ @ @ @ @ @ @ @ @ @ @ @ X @ @ @ @ @ .   > Q y.y.8.6.8.6.6.y.6.@.",
"D H T T W T T T T ! @.h % . . X X X @ @ X @ X @ $ $ # @ # $ $ $ $ $ $ $ # @ # $ % @ X X @ @ @ X X X X . % h ! ! T T T T T T T P ",
"D D F D D D D D D F D s % o @ @ @ @ @ @ @ @ @ @ = - # @ $ - : : = : : : $ @ $ = = @ X @ @ @ @ @ @ @ @ o % s G F D D D D D D D D ",
"F ] q.w.q.q.q.q.q.q.r.) 3 + $ $ $ $ # @ # $ $ $ = = # X % - : - 2 = : - $ X % - = $ $ $ # X @ $ $ $ $ # 3 ) w.w.q.q.q.q.q.r.q.] ",
"D r.).].Q._.)._._.[.[.l.y + * - : = @ @ = : : : : : # @ $ - : : = 2 - - $ @ # = : : : : = @ % = : - - ; x l.].]._.Q.)._.Q.[._.r.",
"D 5.H.I.L.P.J.J.K.P.I.j.f & : : : = @ @ - 7 7 7 7 2 = $ : 7 7 5 7 7 7 7 : $ = 7 7 7 9 7 - @ @ = : : - ; x j.^.^.P.P.P.J.P.I.K.5.",
"F #.8.p.t.w.w.8.y.t.p.' 3 & * : : = @ # 2 0 0 0 y 0 2 : 7 0 0 0 w 0 w 0 7 : 2 0 0 0 r r 2 @ @ - : - - & 3 =.p.t.w.t.t.w.6.p.w.@.",
"F @.6.6.6.6.6.6.6.t.t._ 3 4 4 5 : - ; = 7 e r 0 0 0 7 : 9 r y e 0 r 0 r 9 2 7 0 0 0 u r 7 = = : 7 7 5 4 q _ 9.9.6.6.6.6.6.9.6.@.",
"D @.6.y.9.9.6.6.t.t.t.' y 6 6 9 8 7 : 2 9 0 r 0 0 0 7 : 7 0 0 0 0 0 0 0 7 : 2 0 r 0 0 0 7 : : 7 0 0 e 8 c ;.p.t.6.9.6.9.6.y.6.#.",
"D @.6.y.9.9.8.8.6.y.t.,.A B Z Z o.A q : 9 r 0 0 0 0 7 : 7 r 0 0 0 0 0 0 7 : 7 0 0 0 0 0 0 : 2 0 0 0 r 6 c =.p.t.6.6.6.w.9.y.6.#.",
"D $.w.y.w.6.8.8.9.9.6.q.f.f.f.x.R.c.v * 5 0 0 0 y 0 2 : 7 0 0 0 0 0 0 0 7 : 2 0 0 0 r 0 0 : 5 7 0 0 0 6 c =.t.t.6.9.y.6.8.y.6.#.",
"D #.9.y.y.y.y.y.t.9.y.u.z.b.v.W.{.T.B * 5 0 r 0 0 0 7 : 7 y e 0 0 0 u 0 9 : 7 0 0 0 0 0 9 : 2 0 0 e e 6 c =.p.p.y.y.y.y.9.u.9.-.",
"D $.9.p.y.y.y.8.t.9.9.e.k.b.E.~.~.n.B * 5 y 0 0 r 0 5 : 7 9 y 0 0 0 0 0 7 : 7 0 0 0 0 0 9 5 : 0 0 0 0 6 c =.p.p.y.y.y.9.y.p.9.#.",
"D T $.$.$.$.-.$.$.$.$.*.[ +.g.h.c.+.c : 6 0 0 0 0 9 2 : 7 0 r 0 0 0 0 0 7 : : 0 0 0 0 u 7 : : 0 0 0 8 6 c Y %.%.$.$.$.$.$.-.$.T ",
"D D D D D D D D G D G z c b n n n b 7 : 9 0 r 0 y 0 2 : 9 0 0 0 0 0 0 0 7 : 7 0 0 0 0 0 0 : : 9 0 8 8 0 w z G D D D D D D D D D ",
"D Y ^ ^ @._ ^ ^ ^ @.#.R 0 6 6 6 6 5 : 2 9 r 0 0 0 0 7 : 7 0 r 0 r 0 0 0 9 : 7 0 r 0 0 r 0 : 5 6 r C C r y R &.^ ^ ^ ^ ^ @.] _ Y ",
"D 7.H.Q.L.L.L.L.L.I.U.k.b 5 8 0 0 9 : 5 9 0 0 0 r 8 5 : 7 0 0 0 0 0 r 0 9 : : 0 0 0 0 0 0 : 4 5 V g.c.M b 0.(.U.J.L.L.L.H.Q.L.7.",
"D 7./.`.).).).).).'.'.l.m 6 8 0 0 0 : : 9 r r 0 0 0 7 : 9 0 0 0 0 0 w 0 7 : 2 0 0 0 0 r 7 : : 5 X.R.R.C b k.'.'.).).).).).`.).7.",
"D :.i.B.a.u.s.a.s.s.d.2.c 6 9 0 0 0 5 : 9 0 0 0 y 0 7 : 7 0 r 0 0 0 r 0 9 : 7 0 u 0 0 0 9 : : 5 C n.T.C y ;.d.s.i.i.u.a.s.s.s.-.",
"D #.6.6.6.6.6.6.6.6.t.*.c 6 0 0 0 0 : : 0 0 r 0 0 8 7 : 7 r 0 0 0 0 0 0 7 : : 0 r 0 0 0 9 : 4 4 C n.M.C q E 9.9.9.9.6.6.5.9.6.@.",
"D #.8.9.6.6.6.6.6.9.t.=.c 6 0 0 0 9 2 : 0 0 0 0 y 0 7 : 7 r 0 0 0 0 0 0 7 : 7 0 0 0 0 r 8 : 5 5 C n.M.X.w ` p.9.6.9.6.8.9.9.6.@.",
"D #.6.8.9.9.8.8.6.t.t.=.n 6 0 0 0 0 2 : 7 0 0 0 0 0 5 : 7 0 0 0 0 r 0 0 7 : 2 0 0 0 0 0 9 : 4 5 C n.M.C w =.9.p.9.9.8.9.9.y.6.@.",
"D #.9.y.9.w.6.6.6.t.p.=.c 6 8 0 0 0 : : 0 0 0 0 0 0 2 : 7 0 r 0 0 0 u 0 7 : 2 0 u 0 r 0 7 5 - 5 C n.n.X.w &.p.9.6.6.8.6.8.y.9.#.",
"D #.9.y.9.y.6.t.t.t.p.=.c 6 r 0 0 0 : 2 0 0 0 0 y 9 2 : 7 y r 0 0 0 0 0 7 : 7 0 0 0 0 r 7 5 : 5 C n.R.X.w ` 9.p.9.y.y.9.9.u.8.#.",
"D &.8.p.y.y.y.t.y.p.p.=.c 8 8 0 0 9 : 5 7 r 0 0 0 0 2 : 7 0 y 0 0 0 u 0 7 : 7 0 0 0 0 0 0 : : 5 X.R.R.X.w =.a.9.y.y.y.y.y.a.9.#.",
"D @.5.9.6.6.4.6.6.6.9.` b 6 e 8 0 0 : : 0 0 r 0 r 0 5 : 7 0 0 0 0 0 0 0 9 : 7 0 r 0 r 0 7 : : 5 M h.m.V w E 9.9.6.4.3.6.5.6.5.@.",
"D H P P P P P P P P I l q 6 6 6 6 5 : : 0 0 0 0 0 0 7 : 7 r 0 0 0 0 0 0 7 : 7 0 0 0 0 0 0 : 5 7 b ....u q l I I P P P P P P P H ",
"D D H H H H H H G G H l c y y u u y : : 9 r 0 0 0 0 2 : 9 0 0 0 0 0 0 0 7 : 7 0 0 0 0 0 0 : 5 9 e 8 6 6 y l P P H H H H H H H G ",
"D -.z.A.N.i.z.N.N.V.V.j.[ o./ +.g.+.c * 9 0 r 0 0 0 2 : 9 0 0 0 0 0 u 0 9 : 2 0 r 0 r 0 9 2 : 9 0 0 8 6 c 2.s.C.N.N.N.N.z.V.N.<.",
"D w.).[._._._._._._.].Y.z.f.k.v.!.n.N * 5 0 0 0 0 0 7 : 9 0 0 0 0 r 0 0 7 : 7 0 0 0 0 0 0 : 5 9 0 0 8 6 B x.[.'._._._._.`.[.).w.",
"D 4.S.G.F.F.F.S.F.D.D.D.z.b.W.!.}.T.N & 6 0 0 0 0 0 2 : 9 0 0 0 0 0 0 0 7 : : 0 0 0 r 0 7 : 2 0 r 0 8 6 m 0.G.G.F.F.F.D.F.H.D.4.",
"D @.6.y.6.6.6.6.6.6.t.q.f.x.M.E.!.h.v * 5 0 0 0 0 0 2 : 7 0 0 0 0 0 r 0 7 : 7 0 0 0 0 0 9 : : 0 0 0 0 6 c =.9.9.6.6.6.6.6.y.6.@.",
"D @.6.w.6.6.6.6.6.6.6.>.( S o.O.O.S y - 7 0 0 0 0 0 2 : 7 0 0 0 0 0 0 9 7 : : 0 0 0 0 0 7 5 : 7 0 8 0 6 c =.9.9.6.6.6.6.6.9.6.@.",
"D #.6.t.6.6.6.6.6.t.p.=.y 6 y y 0 9 5 : 9 r r 0 e e 7 : 7 r 0 0 0 0 y 0 7 : 7 0 0 0 r 0 0 : : 0 0 r 8 6 c =.t.y.6.9.8.8.9.y.6.@.",
"D @.9.y.t.6.t.t.t.t.w.' i t i i } r 5 5 u  .}  .} n 7 : 0  . .| | i  .} u : 9 i  . .}  .u 7 7 i  . .} } V 2.t.t.9.6.8.8.8.y.6.#."
};
