/* XPM */
static char *result[] = {
/* columns rows colors chars-per-pixel */
"64 64 210 2 ",
"   c #030103",
".  c #0B0001",
"X  c #090B0D",
"o  c #04080A",
"O  c #120505",
"+  c #1C0D0D",
"@  c #190707",
"#  c #1C1C1D",
"$  c #131517",
"%  c #0E0F11",
"&  c #211010",
"*  c #2C1514",
"=  c #291B1A",
"-  c #341A19",
";  c #3D1E1B",
":  c #220C0B",
">  c #1E1F21",
",  c #281F20",
"<  c #1C2123",
"1  c #222426",
"2  c #282B2C",
"3  c #2B2F31",
"4  c #2E3132",
"5  c #343536",
"6  c #35393B",
"7  c #3C393A",
"8  c #3D2322",
"9  c #411F1B",
"0  c #411B17",
"q  c #42211D",
"w  c #4B251F",
"e  c #56261F",
"r  c #452522",
"t  c #4B2723",
"y  c #4C2925",
"u  c #462B29",
"i  c #552A24",
"p  c #582C26",
"a  c #542D29",
"s  c #5A2E29",
"d  c #5E332E",
"f  c #57302B",
"g  c #5D3A3A",
"h  c #55383A",
"j  c #652E28",
"k  c #64332E",
"l  c #6B352D",
"z  c #633631",
"x  c #6A3631",
"c  c #673833",
"v  c #6C3B35",
"b  c #663D3B",
"n  c #6B3E3B",
"m  c #713C36",
"M  c #733E39",
"N  c #7E3F37",
"B  c #6A423E",
"V  c #74413B",
"C  c #7B423C",
"Z  c #3F3F40",
"A  c #353F50",
"S  c #513C42",
"D  c #3B4558",
"F  c #3D4244",
"G  c #474647",
"H  c #52454D",
"J  c #4F4857",
"K  c #5D4A54",
"L  c #544A56",
"P  c #535354",
"I  c #5B5C5C",
"U  c #575859",
"Y  c #6D4444",
"T  c #6E4C4A",
"R  c #734A49",
"E  c #764845",
"W  c #7C534E",
"Q  c #70514E",
"!  c #614B53",
"~  c #624F59",
"^  c #61515B",
"/  c #7D5552",
"(  c #7D5F5A",
")  c #6E504C",
"_  c #7D615D",
"`  c #434F65",
"'  c #455166",
"]  c #45536A",
"[  c #49556B",
"{  c #4D586B",
"}  c #585665",
"|  c #4A5771",
" . c #4B5973",
".. c #525C71",
"X. c #515F79",
"o. c #544F60",
"O. c #615B6C",
"+. c #54627A",
"@. c #5B657B",
"#. c #5D697D",
"$. c #586275",
"%. c #666665",
"&. c #6B6C6C",
"*. c #676768",
"=. c #7B6868",
"-. c #69667C",
";. c #6B697F",
":. c #616B7D",
">. c #737374",
",. c #797A7B",
"<. c #726E74",
"1. c #803D33",
"2. c #82423B",
"3. c #824740",
"4. c #844841",
"5. c #815953",
"6. c #815D59",
"7. c #856B68",
"8. c #8A706E",
"9. c #887573",
"0. c #917C79",
"q. c #596783",
"w. c #5B6985",
"e. c #5E6D8B",
"r. c #626B81",
"t. c #6E6B81",
"y. c #616E8A",
"u. c #726E83",
"i. c #65728B",
"p. c #6B768C",
"a. c #6B758A",
"s. c #707B8F",
"d. c #787984",
"f. c #657594",
"g. c #6C7793",
"h. c #6D7995",
"j. c #6D7D9D",
"k. c #727E95",
"l. c #707E9D",
"z. c #6D7FA1",
"x. c #707FA1",
"c. c #817D8F",
"v. c #758095",
"b. c #76829A",
"n. c #79859B",
"m. c #798396",
"M. c #7C8183",
"N. c #6F81A2",
"B. c #7182A3",
"V. c #7D8AA4",
"C. c #7286A8",
"Z. c #7489AC",
"A. c #7D8CAA",
"S. c #7987A2",
"D. c #828282",
"F. c #8A8A8A",
"G. c #88868B",
"H. c #988786",
"J. c #8A8593",
"K. c #948D9B",
"L. c #939393",
"P. c #9A9B9B",
"I. c #989797",
"U. c #8E9599",
"Y. c #A49D9D",
"T. c #A09796",
"R. c #A6A09F",
"E. c #838EA2",
"W. c #808FAB",
"Q. c #8593AD",
"!. c #8895AF",
"~. c #8893A7",
"^. c #989EA8",
"/. c #8996B1",
"(. c #8C99B3",
"). c #8B9AB6",
"_. c #919DB5",
"`. c #919EBA",
"'. c #9EA2A2",
"]. c #99A3B6",
"[. c #93A1BB",
"{. c #9BA6BC",
"}. c #9DA9BD",
"|. c #99A3B6",
" X c #A5A4A4",
".X c #ACACAC",
"XX c #A9A5A5",
"oX c #ADB3B4",
"OX c #B2B3B2",
"+X c #BABABA",
"@X c #B6B9B9",
"#X c #A0A9BC",
"$X c #C0C0BF",
"%X c #96A4C0",
"&X c #9EAAC1",
"*X c #9BA9C7",
"=X c #A2ADC2",
"-X c #A6B1C5",
";X c #A8B2C7",
":X c #A4B2C9",
">X c #AAB5C9",
",X c #ADB8CD",
"<X c #B8C2C3",
"1X c #C1C2C2",
"2X c #CACACA",
"3X c #D4D4D4",
"4X c gray91",
"5X c #FEFEFE",
"6X c #F3F4F4",
"7X c None",
/* pixels */
"7X7X7X7X7X7X7X7X7X7X7X7X7X7X7X7X7X7X7X7X7X7X7X7X7X7X7X7X7X7X7X7X7X7X7X7X7X7X7X7X7X7X7X7X7X7X7X7X7X7X7X7X7X7X7X7X7X7X7X7X7X7X7X7X",
"7X7X7X7X7X7X7X7X7X7X7X7X7X7X7X7X7X7X7X7X7X7X7X7X7X7X7X7X7X7X7X7X7X7X7X7X7X7X7X7X7X7X7X7X7X7X7X7X7X7X7X7X7X7X7X7X7X7X7X7X7X7X7X7X",
"7X7X7X7X7X7X7X7X7X7X7X7X7X7X7X7X7X7X7X7X7X7X7X7X7X7X7X7X7X7X7X7X7X7X7X7X7X7X7X7X7X7X7X7X7X7X7X7X7X7X7X7X7X7X7X7X7X7X7X7X7X7X7X7X",
"7X7X7X7X7X7X7X7X7X7X7X7X7X7X7X7X7X7X7X7X7X7X7X7X7X7X7X7X7X7X7X7X7X7X7X7X7X7X7X7X7X7X7X7X7X7X7X7X7X7X7X7X7X7X7X7X7X7X7X7X7X7X7X7X",
"7X7X7X7X7X7X7X7X7X7X7X7X7X7X7X7X7X7X7X7X7X7X7X7X7X7X7X7X7X7X7X7X7X7X7X7X7X7X7X7X7X7X7X7X7X7X7X7X7X7X7X7X7X7X7X7X7X7X7X7X7X7X7X7X",
"7X7X7X7X7X7X7X7X7X7X7X7X7X7X7X7X7X7X7X7X7X7X7X7X7X7X7X7X7X7X7X7X7X7X7X7X7X7X7X7X7X7X7X7X7X7X7X7X7X7X7X7X7X7X7X7X7X7X7X7X7X7X7X7X",
"7X7X7X7X7X7X7X7X7X7X7X7X7X7X7X7X7X7X7X7X7X7X7X7X7X7X7X7X7X7X7X7X7X7X7X7X7X7X7X7X7X7X7X7X7X7X7X7X7X7X7X7X7X7X7X7X7X7X7X7X7X7X7X7X",
"7X7X7X7X7X7X7X7X7X7X7X7X7X7X7X7X7X7X7X7X7X7X7X7X7X7X7X7X7X7X7X7X7X7X7X7X7X7X7X7X7X7X7X7X7X7X7X7X7X7X7X7X7X7X7X7X7X7X7X7X7X7X7X7X",
"7X7X7X7X7X7X7X7X7X7X7X7X7X7X7X7X7X7X7X7X7X7X7X7X7X7X' E.Q.V.n.V.V.V.n.E.Q.E.' 7X7X7X7X7X7X7X7X7X7X7X7X7X7X7X7X7X7X7X7X7X7X7X7X7X",
"7X7X7X7X7X7X7X7X7X7X7X7X7X7X7X7X7X7X7X7X7X7X7X7X7X7X$.*X*X[.[.[.`.[.`.`.*X%X$.7X7X7X7X7X7X7X7X7X7X7X7X7X7X7X7X7X7X7X7X7X7X7X7X7X",
"7X7X7X7X7X7X7X7X7X7X7X7X7X7X7X7X7X7X7X7X7X7X7X7X7X7X.._._./.(.!././././.`._...7X7X7X7X7X7X7X7X7X7X7X7X7X7X7X7X7X7X7X7X7X7X7X7X7X",
"7X7X7X7X7X7X7X7X7X7X7X7X7X7X7X7X7X7X7X7X7X7X7X7X7X7X$.(.).Q.!.!.Q.!.Q./.).).$.7X7X7X7X7X7X7X7X7X7X7X7X7X7X7X7X7X7X7X7X7X7X7X7X7X",
"7X7X7X7X7X7X7X7X7X7X7X7X7X7X:.V.n.k.k.n.b.v.n.s.{ D i.!.(.Q.Q.Q.Q.!.!.!.(.!.i.J { s.n.k.k.n.k.n.n.E.:.7X7X7X7X7X7X7X7X7X7X7X7X7X",
"7X7X7X7X7X7X7X7X7X7X7X7X7X7Xn.*X%X[.[.[.`.[.%X(.w.{ k._.|._.)._._._._._.`._.k.[ w.(.*X`.`.`.`.`.%X*Xn.7X7X7X7X7X7X7X7X7X7X7X7X7X",
"7X7X7X7X7X7X7X7X7X7X7X7X7X7Xv.%X).(.(.(.(.(.).Q.+.[ J.:X;X-X=X-X=X=X=X=X;X;Xn.[ X.W.`.(.(.(.(./.).%Xk.7X7X7X7X7X7X7X7X7X7X7X7X7X",
"7X7X7X7X7X7X7X7X7X7X7X7X7X7Xk.`./.!.Q.Q.Q.!.(.A.+.[ b.&X&X}.{.{.}.}.&X}.=X=Xn.' $.E.(.!.!.!.Q.!./.`.k.7X7X7X7X7X7X7X7X7X7X7X7X7X",
"A ..p.g.p.a.a.p.s.s.s.@.D ` b.)./.Q.!.Q.Q.Q./.E.+.' i.A.A.A.A.S.S.A.S.A.A.A.y.` X.E.(.Q.Q.!.Q.Q./.).n.' D $.s.s.p.p.p.p.p.k.i...",
"[ k.`.{.[.[.[.[.`.[.[.S. .$.E.]._._.(._._._.`.Q.@.` q.j.j.j.j.j.j.j.j.j.z.z.q.` :.!.`._._.(._.(._.`.E.+. .S.[.%X`.`.`.`.|.%X`.k.",
"] g./.`.(.).(.(.).).`.b.[ +._.>X=X=X=X=X=X=X;X].:.` q.l.N.j.j.j.j.j.j.j.N.z.q.` r.`.;X=X=X=X=X=X-X;X_.+.[ b.`._.).).(.).(.`.(.g.",
"` p.Q.)./.Q./.Q./././.k.] $.!.;X=X=X&X&X=X=X-X].w.` w.B.N.j.N.j.j.j.N.j.B.N.q.` t._.=X=X=X=X{.=X#X;X(.$.] k./.(.!.!.!.!.!.(.!.p.",
"' i.Q.(.Q.~.Q.Q.!.!./.k.[  .b.Q.W.A.A.A.A.A.Q.S.+.` w.x.B.z.N.j.N.j.N.j.B.B.w.` X.S.!.W.A.W.A.A.Q.Q.l. .[ k.!.!.Q.~.Q.Q.Q.(.Q.i.",
"' p.(._.(.(.(.(.)._._.b.[ ] f.x.j.j.j.j.j.z.x.f. .] e.B.B.z.b.z.N.j.N.b.B.x.e.` X.f.z.z.j.j.j.j.j.z.f.[ [ b._._.(.(.(.(.(._.(.p.",
"' v.#X>X=X}.#X=X=X=X;XE. .[ f.x.j.j.j.j.j.z.x.j. .] e.C.Z.C.C.C.C.C.N.C.Z.Z.e.'  .j.x.z.j.j.z.z.j.B.f.]  .E.-X;X=X=X#X=X}.;X#Xb.",
"` b.}.;X=X-X#X-X=X=X;XE.| | f.B.B.x.B.z.x.x.C.f...` q.h.h.g.g.g.g.g.g.h.k.f.@.` X.h.B.x.z.x.z.z.x.B.f.[  .~.;X=X=X=X=X=X=X;X=Xm.",
"` i.Q.Q.Q.Q.W.Q.W.Q.!.h.|  .j.Z.C.C.C.C.C.C.Z.j.} h S S K ! ! ! ! ! ! ! K H S h } k.Z.C.C.C.C.C.C.Z.j. . .h.!.!.Q.Q.Q.Q.A.!.Q.i.",
"' q.j.N.j.j.j.j.j.z.N.y.' [ y.l.k.h.h.f.h.j.z.g.! i q ; t s p p s a s a t ; 9 i ! a.x.h.l.f.h.h.k.l.y.[ ] e.z.z.j.j.j.j.j.N.j.q.",
"` w.j.j.j.j.j.j.z.z.N.r.H h K ~ ~ ! L H K K ~ K g i q 9 t p p i i p p p w ; q p g K ~ ~ K L H ~ ! ~ K h H r.N.z.j.j.j.j.j.z.j.q.",
"` w.j.B.z.j.z.b.z.N.N.t.g i s s s i r q i s s p d s t r y f d d d s d f y r t s d s s s i 9 q i s s p i g t.B.B.j.j.j.j.j.B.j.w.",
"` w.N.C.B.B.B.B.B.C.C.t.g i i p p i 9 9 p k k k z z a a d z v z c c c c d a a z c k k k p 9 ; i p i i i g t.C.C.B.B.B.B.B.C.B.w.",
"` w.j.N.j.l.j.j.j.z.z.r.g i s s d a r r z m n v n v z d z v v m v m v v z d z v m x m m z r r a d d s p g r.B.z.l.j.l.j.j.B.j.w.",
"' [ X.+.X.X.X.X.X.+.q.o.g j j j j s i a z M m m m v z d v M V V M M V V v z c v m n m m z i i d x z k k g } q.X.+.X.X.X.X.+.X.[ ",
"` ` ` ` ` ` ` ` ` ' ` J b m v v n c d d c m m v v v z d z v v v v n v v z d d v m v n n c d k c n x m m g J ` ' ` ` ` ` ` ` ` ' ",
"' :.s.m.v.v.s.v.v.v.v.,.=._ _ =.9.7.Y s x v m v V v c d r - * * * * * * : + 9 v C v m n x z d v v v m v Y <.b.n.v.v.v.v.v.m.m.:.",
"` m.-X>X#X-X;X-X-X;X;X|.L.G.F.U..XT.T p z m v v v v c s = o   o o O o       = x M v v m z d d v v v m k R K.,X:X-X-X;X#X#X,X#Xm.",
"` g._.*X[.[.`.[.[.[.[.(.U.I.'.oX<XXXQ p k m n v V v w = = < F U U U &.M.M.d.K - 0 v V m v d d c v v x l R J.%X%X[.`.[.[.[.{.[.k.",
"' w.j.C.b.n.z.j.b.N.N.b.F.I.XXOX@XT.) p x v v v V c * o 3 I F..X.X.X3X5X5X5XP.% O z C v x d d v m v m l Y t.C.N.N.b.N.l.N.C.b.w.",
"' q.j.j.j.j.j.j.j.j.j.p.7.8.0.H.H.8.Y a c v m v p 8 , 2 I F.M.>.<.>.F. XOX2X.X>.G u y c v d d z v v v l Y ;.N.z.j.j.j.j.j.j.j.q.",
"' w.j.B.b.j.j.z.j.N.N.t.Y m v V m v k d v v V z * X 4 I I.XXI % X X X % 3 I .X6X.X> @ d v d k v m v v l Y u.N.N.j.j.j.B.h.C.j.w.",
"` w.j.B.l.N.j.N.z.N.N.t.Y j j l k k d d v v C c +   4 %.R..XP           X 7 .X5X+X%   k V z d v v x x l Y t.C.N.j.j.j.l.z.B.j.w.",
"` w.j.B.j.B.j.j.z.N.C.t.Y l x v v v d d c v C c +   3 %.I..XP           # P .X5XoX$ . d V d d v v v l l Y t.N.N.j.N.N.l.x.B.j.w.",
"` w.x.B.B.B.x.B.N.C.C.t.T k v m v v z d v c f u , 2 P D.R..X>.Z 7 G 7 7 P <..X4X+X&.G u y f k x E 6.6.M Y t.C.C.B.B.B.B.x.B.B.w.",
"' w.B.C.B.B.x.B.N.C.C.t.Y l v v v v d d v z * % 5 I F.XX.X.X X'.P.P.P.P.'. XXXoX2X4XXX2 O t k k W T.T.W b t.C.C.B.B.x.x.B.C.x.y.",
"` X.e.e.e.e.y.e.e.e.e.O.Y x v v v v d d v z + o 5 &.T.OXOX.XOX+X+X$X1X<X+X@XXX X3X5X1X<   r k l / R..X5.b } e.e.w.e.e.y.e.y.e.X.",
"' ` ` ` ` ` ` ` ' ' ' J n m m v v v d d v d + o 7 *.L.OXOX.X.X.XOX+X+X+XOXoXXXXX3X5X+X1 . t k k / Y.R.6.z J ] ` ` ' ` ` ` ` ` ` ",
"' ..@.w.@.@.:.@.@.#.w.O.n m v v v v d d m d + % 5 %.L..XOX.X.X.XI.D.,.,.I..X.XXX3X5X@X1 . t k k / Y.Y.5.v } r.#.:.@.@.:.@.w.@...",
"' k._.#X].].].].].*X}.J.E k v v v v d z m z + X 5 %.L.OXOX.XOX.X*.1 # # I  XOX.X3X5X@X1 . t l k / Y.Y.W V J.&X{.].].].`.].#X|.k.",
"` k.=X;X=X=X=X=X=X:X:XK.R k v v v v d d n g & X 5 %.L..XOX.X@X.XP       G  X@X.X2X6X X< . y z k / Y.Y./ Y J.:X:X=X&X=X=X=X;X#Xv.",
"' i.Z.A.V.Z.V.A.A.A.A.d.Y l v v v c d k m z + X 5 %.L.OXOX.X@X.XU       G XX+X.X+X2XD.# . y k k / Y.Y.5.Y u.Z.A.V.A.Z.V.V.W.A.y.",
"` w.g.z.j.j.j.j.j.j.z.r.Y l v v v v d d v z & X 5 %.L.oXOX.X@X.XU       G XX+X.XOXOX>.$ O t k l / Y.R.5.b -.z.z.z.z.j.j.j.j.j.q.",
"` w.j.x.j.j.j.j.j.z.N.t.Y x v v v c d z v d & X 5 %.L..XOX.X@X.XP       G XX+X.XOXoX>.> O t k l 5.R.XX5.b -.z.z.j.z.j.j.j.z.j.q.",
"` w.l.B.z.z.l.l.z.N.N.t.Y l m v v v d z M g & o 5 %.L..XOX.X@X.X*.1 # # I .X+X.XoX@X>.$ O t z k / H.I.4.b t.N.N.j.z.j.x.x.B.j.w.",
"` w.j.B.b.j.N.j.j.N.C.t.Y l v v v v d d v z & X 5 %.L.OXOX.XOX.XI.D.c.D.L..X.X.XOX@X,.# O t z x V / / m Y t.C.N.z.j.x.j.l.B.j.w.",
"` w.l.B.B.x.B.N.N.N.C.t.Y l v v v v d d v z + o 5 *.L.OXOXOX.X.XOX+X+X+X@X.X.XOX@X+X,.$ O u z n v x k l Y u.N.N.l.B.x.B.B.B.b.w.",
"` w.x.C.B.B.B.B.C.C.C.t.R l v m v v d d v d + o 7 &.P.$X+X@X@X+X+X1X$X$X<X+X+X+X1X1Xd.$ . t c x m c l l Y u.C.C.B.B.B.B.B.C.x.e.",
"` q.f.j.h.j.f.h.f.j.z.-.Y l v v v v z d n z * % 5 U D.P.R.P.P.I.P.P.P.I.P.I.P.I.P. X&.= + t c v n m x l Y -.j.j.j.f.j.f.f.j.f.q.",
"` [  . . . . .| |  . .L v l l l k k d d v v s u = < 3 6 6 6 6 6 6 6 6 6 6 6 6 6 6 6 7 u i s z c x n m m B o. . .| |  .|  . .| [ ",
"` ' ' { ] ] [ [ [ [ | L Y V V B V B z d v v C v -         . .     .   .     . o     * z M k z c m v m m B L |  .[ [ [ [ [ [ [ ' ",
"` i.E.~.E.U.E.E.E.E.E.G.,.=.=.9.H.9.Y f k v V m a r - - ; 8 r r q 8 q 8 ; - ; 9 ; 8 y n v z d c v m x k Y d.Q.A.U.~.E.E.E.~.J.i.",
"' m.=X,X=X;X;X;X;X;X:X}.U.F.F.P.oXY.R p l v m v M v c d c m m m m m V m v d z v m M m m c d k c m v v l R K.,X:X=X;X:X;X;X,X-Xn.",
"` g./.`.)././.!./.).).~.U.P. XoX<X XQ p k v v v M M c d v m M m V m V m v z c m V M M v c d d v n v x k T J.`.)././././.(.)./.g.",
"` w.h.B.j.j.j.j.j.z.z.k.F.L.XX.XOXI.T p k n m n v v z d z v v n v n v v z d d v v v v v v d d c m v v l Y t.z.N.j.j.z.j.N.N.j.@.",
"` q.j.B.j.j.j.j.j.z.z.a.*._ 7.8.8.( b s x v x x v b d d z v v v v v v v z d d c v v v v c d d c v x v l B t.z.z.j.j.j.j.j.N.j.q.",
"` w.j.B.l.B.N.l.j.z.C.t.B l m m m v k d x v v v m m d d z m m v v v v v z d z v m v m v c d d v m m v l Y u.N.N.j.z.b.z.j.C.j.q.",
"` w.j.B.j.B.j.z.z.N.N.u.4.1.N N 1.M d z V 4.4.4.2.E c d v 3.4.3.3.3.4.3.m d x E 4.3.3.3.V z z C 4.2.2.2./ u.N.N.z.j.j.B.j.N.j.w."
};
