/* XPM */
static char *result[] = {
/* columns rows colors chars-per-pixel */
"64 64 221 2 ",
"   c #3F362E",
".  c #333335",
"X  c #373739",
"o  c #3B3B3C",
"O  c #413D36",
"+  c #47392A",
"@  c #745C1F",
"#  c #574A2A",
"$  c #5C572C",
"%  c #5E592C",
"&  c #595536",
"*  c #4D4439",
"=  c #625D2C",
"-  c #715D27",
";  c #655D3A",
":  c #6E5538",
">  c #66602D",
",  c #6B652D",
"<  c #6E682D",
"1  c #726C2E",
"2  c #7B752F",
"3  c #6A6538",
"4  c #726C33",
"5  c #756C3D",
"6  c #797233",
"7  c #79723A",
"8  c #3F3F40",
"9  c #434344",
"0  c #4C4C4D",
"q  c #484744",
"w  c #564B44",
"e  c #535245",
"r  c #5B5948",
"t  c #535354",
"y  c #595953",
"u  c #5B5B5C",
"i  c #5F5356",
"p  c #554F51",
"a  c #655D46",
"s  c #665E53",
"d  c #755E4F",
"f  c #696548",
"g  c #796843",
"h  c #756A4D",
"j  c #776745",
"k  c #7A7447",
"l  c #63615B",
"z  c #6A6858",
"x  c #716F58",
"c  c #777458",
"v  c #5E5E60",
"b  c #626262",
"n  c #6D6C64",
"m  c #666668",
"M  c #6B6B6C",
"N  c #706B63",
"B  c #757569",
"V  c #7B796B",
"C  c #737373",
"Z  c #7C7C7C",
"A  c #6F6F70",
"S  c #806724",
"D  c #816924",
"F  c #86702B",
"G  c #8A732C",
"H  c #827A2F",
"J  c #937A2C",
"K  c #857E30",
"L  c #85723F",
"P  c #807A3D",
"I  c #8E793D",
"U  c #927A33",
"Y  c #946C36",
"T  c #AF752F",
"R  c #864E14",
"E  c #8B724D",
"W  c #847743",
"Q  c #897952",
"!  c #917B57",
"~  c #937E5A",
"^  c #937653",
"/  c #A47E59",
"(  c #9B812F",
")  c #8B8333",
"_  c #89823B",
"`  c #9E8532",
"'  c #928A32",
"]  c #9C8438",
"[  c #968B3B",
"{  c #9B9332",
"}  c #9B933B",
"|  c #A28A35",
" . c #A88E35",
".. c #A38D39",
"X. c #A6893A",
"o. c #A99037",
"O. c #AD953C",
"+. c #A29A3C",
"@. c #AF983E",
"#. c #A59B34",
"$. c #B0A63F",
"%. c #968F45",
"&. c #958847",
"*. c #9C944B",
"=. c #9B9344",
"-. c #96835E",
";. c #9B8659",
":. c #9B9555",
">. c #8A8550",
",. c #AA9945",
"<. c #A59947",
"1. c #B29D43",
"2. c #B29D49",
"3. c #A69958",
"4. c #B89C53",
"5. c #B28C54",
"6. c #ACA44E",
"7. c #B4A046",
"8. c #B7AD40",
"9. c #B4A24A",
"0. c #B9A84D",
"q. c #B2A94E",
"w. c #ADA55A",
"e. c #BDAD52",
"r. c #B7A857",
"t. c #BEB054",
"y. c #BEB359",
"u. c #868369",
"i. c #9A8A63",
"p. c #968865",
"a. c #9C9568",
"s. c #888677",
"d. c #9A9775",
"f. c #A48565",
"g. c #B48966",
"h. c #A29064",
"j. c #AA9674",
"k. c #B79873",
"l. c #B9966E",
"z. c #B5AE63",
"x. c #B0AA68",
"c. c #BCB566",
"v. c #ABA77B",
"b. c #B9B372",
"n. c #C1B45D",
"m. c #C4B85C",
"M. c #C2B957",
"N. c #C39B77",
"B. c #C49C69",
"V. c #C2AE60",
"C. c #C7BC66",
"Z. c #CABE6B",
"A. c #C5B567",
"S. c #C8A57B",
"D. c #C5BC76",
"F. c #D1BB7E",
"G. c #C39556",
"H. c #CDC36C",
"J. c #CCC371",
"K. c #CCC47B",
"L. c #C7C07A",
"P. c #D2C676",
"I. c #D1C878",
"U. c #848484",
"Y. c #8C8C8C",
"T. c #989686",
"R. c #959595",
"E. c #958E8B",
"W. c #AF9882",
"Q. c #BFA983",
"!. c #BFBA8F",
"~. c #A6A383",
"^. c #B5B1B2",
"/. c #C7AD8A",
"(. c #C9A884",
"). c #D4AD87",
"_. c #C5BB88",
"`. c #D6B589",
"'. c #CDB892",
"]. c #D1BC96",
"[. c #DDBD93",
"{. c #DEBD9B",
"}. c #D6B692",
"|. c #E0BF9D",
" X c #CDC681",
".X c #CCC686",
"XX c #D0CA86",
"oX c #DCCA8D",
"OX c #DAD089",
"+X c #D2C49C",
"@X c #DDD693",
"#X c #E2C89A",
"$X c #E5D899",
"%X c #DBCDA4",
"&X c #D9C5A6",
"*X c #DDD0A6",
"=X c #CAC4B4",
"-X c #E1C3A1",
";X c #E5CCA6",
":X c #E8CEA9",
">X c #E7CCA8",
",X c #EADBA4",
"<X c #EBD4AD",
"1X c #EDDEAA",
"2X c #E8D2A0",
"3X c #EDDAB2",
"4X c #ECDBB7",
"5X c #F1DFB6",
"6X c #EEE2AA",
"7X c #EDE2BB",
"8X c #F2E4B2",
"9X c #F4E5BB",
"0X c #F9EABE",
"qX c #C3BFC0",
"wX c #FAEBC1",
"eX c #F6ECCC",
"rX c #FDF0C5",
"tX c #FDF1CD",
"yX c #F2EBD6",
"uX c #FBF6E7",
"iX c None",
/* pixels */
"iXiXiXiXiXiXiXiXiXiXiXiXiXiXiXiXiXiXiXiXiXiXiXiXiXiXiXiXiXiXiXiXiXiXiXiXiXiXiXiXiXiXiXiXiXiXiXiXiXiXiXiXiXiXiXiXiXiXiXiXiXiXiXiX",
"iXiXiXiXiXiXiXiXiXiXiXiXiXiXiXiXiXiXiXiXiXiXiXiXiXiXiXiXiXiXiXiXiXiXiXiXiXiXiXiXiXiXiXiXiXiXiXiXiXiXiXiXiXiXiXiXiXiXiXiXiXiXiXiX",
"iXiXiXiXiXiXiXiXiXiXiXiXiXiXiXiXiXiXiXiXiXiXiXiXiXiXiXiXiXiXiXiXiXiXiXiXiXiXiXiXiXiXiXiXiXiXiXiXiXiXiXiXiXiXiXiXiXiXiXiXiXiXiXiX",
"iXiXiXiXiXiXiXiXiXiXiXiXiXiXiXiXiXiXiXiXiXiXiXiXiXiXiXiXiXiXiXiXiXiXiXiXiXiXiXiXiXiXiXiXiXiXiXiXiXiXiXiXiXiXiXiXiXiXiXiXiXiXiXiX",
"iXiXiXiXiXiXiXiXiXiXiXiXiXiXiXiXiXiXiXiXiXiXiXiX@ @ - @ @ @ - @ - @ @ - @ - @ @ @ @ iXiXiXiXiXiXiXiXiXiXiXiXiXiXiXiXiXiXiXiXiXiX",
"iXiXiXiXiXiXiXiXiXiXiXiXiXiXiXiXiXiXiXiXiXiXiXiXS D D D F G G G G G G F G F D S D 1 iXiXiXiXiXiXiXiXiXiXiXiXiXiXiXiXiXiXiXiXiXiX",
"iXiXiXiXiXiXiXiXiXiXiXiXiXiXiXiXiXiXiXiX@ @ @ S J ( ( | ,.7.6.9.7.6.6.9.7.,.| ( ( J D @ @ @ iXiXiXiXiXiXiXiXiXiXiXiXiXiXiXiXiXiX",
"iXiXiXiXiXiXiXiXiXiXiXiXiXiXiXiXiXiXiXiXD D F U ..@.@.1.0.e.e.e.e.e.e.t.n.t.7.@.,.o.U F D D iXiXiXiXiXiXiXiXiXiXiXiXiXiXiXiXiXiX",
"iXiXiXiXiXiXiXiXiXiXiXiXiXiXiXiXiXiX@ S J | ,.q.0.0.n.0.1.@.@.@.@.@.@.7.t.M.e.e.e.0.q.,.| J D @ iXiXiXiXiXiXiXiXiXiXiXiXiXiXiXiX",
"iXiXiXiXiXiXiXiXiXiXiXiXiXiXiXiXiXiXS G ..1.0.e.n.n.0.0.1.@.@.@.@.@.@.7.t.m.m.m.C.Z.J.V.9.| G D iXiXiXiXiXiXiXiXiXiXiXiXiXiXiXiX",
"iXiXiXiXiXiXiXiXiXiXiXiXiXiXiXiX@ S J ..9.0.1.O.o.O.@.1.0.n.n.0.e.e.e.t.y.m.M.C.K.XXXXL.c.7...J D @ iXiXiXiXiXiXiXiXiXiXiXiXiXiX",
"iXiXiXiXiXiXiXiXiXiXiXiXiXiXiXiXS G ..1.0.0.1.1.1.1.@.@.M.n.m.m.m.m.C.Z.J.C.m.A.D. XXXK.J.n.7.| G D iXiXiXiXiXiXiXiXiXiXiXiXiXiX",
"iXiXiXiXiXiXiXiXiXiXiXiXiXiX@ S J ..7.0.1.1.0.V.Z.D.V.M.M.n.M.M.m.C.K.XXXXK.C.t.0.r.A.J.K.K.A.7. .J D - iXiXiXiXiXiXiXiXiXiXiXiX",
"iXiXiXiXiXiXiXiXiXiXiXiXiXiX@ D | 1.0.0.1.7.A.Z. XK.V.e.n.m.m.n.e.n.D.F.XXK.J.A.9.1.0.n.K.K.C.e.@.J D @ iXiXiXiXiXiXiXiXiXiXiXiX",
"iXiXiXiXiXiXiXiXiXiXiXiXiXiX- F ,.0.7.1.0.n.K. XJ.n.1.7.t.m.M.e.9.1.2.r.A.J.K.K.n.0.1.2.A.C.m.t.@.( D @ iXiXiXiXiXiXiXiXiXiXiXiX",
"iXiXiXiXiXiXiXiXiXiXiXiXiXiXD J q.e.@.@.e.C.K.K.n.0.1.9.n.Z.Z.A.9.@.@.1.0.n.K.K.C.e.1.O.0.m.m.e.@.( D @ iXiXiXiXiXiXiXiXiXiXiXiX",
"iXiXiXiXiXiXiXiXiXiXiXiX@ S J o.e.e.@.@.e.m.C.A.2.1.G.M.K.XXXXK.n.0.n.0.1.9.V.C.n.e.O.1.e.m.m.e.@.| S @ iXiXiXiXiXiXiXiXiXiXiXiX",
"iXiXiXiXiXiXiXiXiXiXiXiX@ D ( @.e.e.@.@.e.n.t.0.@.1.M.C.K.XXXXXXP.P.P.Z.V.V.H.P.P.Z.V.0.e.e.e.9.o.U S @ iXiXiXiXiXiXiXiXiXiXiXiX",
"iXiXiXiXiXiXiXiXiXiXiXiX@ D ( O.e.e.@.@.t.t.7.1.1.M.n.m.C.H.C.I.$X6X6X6X,X,X6X6X1X,X#XF.r.O.O...I L iXiXiXiXiXiXiXiXiXiXiXiXiXiX",
"iXiXiXiXiXiXiXiXiXiXiXiX@ D ( O.9.0.1.7.t.0.@.@.n.m.M.V.t.e.e.Z.1XrXrXrXrXwXrXrXwXwX9X;XA.4.4.<.W g iXiXiXiXiXiXiXiXiXiXiXiXiXiX",
"iXiXiXiXiXiXiXiXiXiXiXiX@ S ( o.O.@.7.n.n.e.@.@.0.n.m.M.1.@.o.V.,XrXrXrXrXrXrXrXrXwXwX9X%XoX).k.^ g iXiXiXiXiXiXiXiXiXiXiXiXiXiX",
"iXiXiXiXiXiXiXiXiXiXiXiX@ D (  . .o.M.n.M.e.@.@.M.M.M.9.@.@.@.V.#X8X0XrXrXrXrXrXrXrXwXwX5X<X;X/.~ g iXiXiXiXiXiXiXiXiXiXiXiXiXiX",
"iXiXiXiXiXiXiXiXiXiXiXiX@ D (  . .@.n.M.n.M.@.@.M.0.7.$.M.G.M.V.H.OX8XrXrXrXrXrXrXrXrXwX5X3X<X'.-.g iXiXiXiXiXiXiXiXiXiXiXiXiXiX",
"iXiXiXiXiXiXiXiXiXiXiXiX@ D ( o.@.1.0.n.M.0.1.1.0.7.O.@.e.M.m.m.M.P.6XrXrXrXrXrXrXrXrXwX9X5X4X].-.g iXiXiXiXiXiXiXiXiXiXiXiXiXiX",
"iXiXiXiXiXiXiXiXiXiXiXiX@ D ( O.0.n.M.G.1.1.0.0.1.@. .@.M.n.n.m.M.I.6XrXrXrXrXrXrXrXrXrX0X0X5X].-.g iXiXiXiXiXiXiXiXiXiXiXiXiXiX",
"iXiXiXiXiXiXiXiXiXiXiXiX@ D ( @.n.M.M.8.1.O.e.e.<.U ] ,.e.n.n.m.H.OX8XrXrXrXrXrXrXrXrXrXrX0X5X].-.g iXiXiXiXiXiXiXiXiXiXiXiXiXiX",
"iXiXiXiXiXiXiXiXiXiXiXiX@ D ( @.0.M.m.M.1.O.n.r.^ L L ^ 0.n.m.P.$X8X0XrXrXrXrXrXrXrXrXrXrX0X7X].i.g iXiXiXiXiXiXiXiXiXiXiXiXiXiX",
"iXiXiXiXiXiXiXiXiXiXiXiX@ D ( O.7.n.n.e.O.o.2.3.3.i.;.:.3.r.n.P.6XrXrX9X*X+X+X*X7X0XwXrXrX0X8X].-.g iXiXiXiXiXiXiXiXiXiXiXiXiXiX",
"iXiXiXiXiXiXiXiXiXiXiXiX@ D ( o.O.1.0.G.@.| &.:._.&X+XQ.;.*.r.P.6XrXtX*Xa.k E p.+X9X0XrXwXwX5X].-.g iXiXiXiXiXiXiXiXiXiXiXiXiXiX",
"iXiXiXiXiXiXiXiXiXiXiXiX@ D (  . .@.M.0.@.` L i.;X9X<X}.j.3.z.P.6XrXrX&Xp.f # ; j.+X7X0XwXwX3X'.-.g iXiXiXiXiXiXiXiXiXiXiXiXiXiX",
"iXiXiXiXiXiXiXiXiXiXiXiX@ D (  . .@.n.n.@.] L i.%X8X[.).'._.Z.P.6XrXrX7X=XE.w + ; p.+X9XwX9X:X/.~ g iXiXiXiXiXiXiXiXiXiXiXiXiXiX",
"iXiXiXiXiXiXiXiXiXiXiXiX@ D (  . .@.1.0.@.] L -.+X1X`.).>X2XZ.P.6XrXwXeXyX^.p   r p.&X9X9X5X|.N.! g iXiXiXiXiXiXiXiXiXiXiXiXiXiX",
"iXiXiXiXiXiXiXiXiXiXiXiX@ D (  . . .O.O.O.U L ;.+X;X).).1X,XP.P.6XrXrXtXuXqXi 0 E.=X4X9X5X>X).g.^ d iXiXiXiXiXiXiXiXiXiXiXiXiXiX",
"iXiXiXiXiXiXiXiXiXiXiXiX@ D J J X. . . . .| I ;.Q.`.).}.3X1XoXOX8XrXrXtXuX=Xd : W.{.4X5X:X{.).g.^ E iXiXiXiXiXiXiXiXiXiXiXiXiXiX",
"iXiXiXiXiXiXiXiXiXiXiXiXiXiX2 G `  . . . . .| I ;.h.(.{.<X5X5X5X0XrXrXtXtX-XY R Y 5.#X3X|.).N./ E g iXiXiXiXiXiXiXiXiXiXiXiXiXiX",
"iXiXiXiXiXiXiXiXiXiXiXiXiXiX@ D J ` |  . . . .| I ;.(.#X>X3X9XwXrXrXrXrXrX:XG.T T G.[.>X{.(.g./ E g iXiXiXiXiXiXiXiXiXiXiXiXiXiX",
"iXiXiXiXiXiXiXiXiXiXiXiXiXiXiXiXS G (  . . . . .` 5./.#X|.>X4X9XwXwXrXrXrX9X#X#X[.[.#X#X{.(.;.E iXiXiXiXiXiXiXiXiXiXiXiXiXiXiXiX",
"iXiXiXiXiXiXiXiXiXiXiXiXiXiXiXiX@ S J ( |  .( ` X.4.).}.{.|.>X<X9XwXwXwXwXwX9X8X5X:X[.}./.k.! g iXiXiXiXiXiXiXiXiXiXiXiXiXiXiXiX",
"iXiXiXiXiXiXiXiXiXiXiXiXiXiXiXiXiXiXS G ` ` F U 5.B.S.S.{.{.-X>X3X5X5X5X5X3X:X;X&X[.).N.f.! iXiXiXiXiXiXiXiXiXiXiXiXiXiXiXiXiXiX",
"iXiXiXiXiXiXiXiXiXiXiXiXiXiXiXiXiXiX@ S J G - : ^ f.f.g.j.W.Q./.'.].].].].'./.(.(.S.l.f.E j iXiXiXiXiXiXiXiXiXiXiXiXiXiXiXiXiXiX",
"iXiXiXiXiXiXiXiXiXiXiXiXiXiXiXiXiXiXiXiXS < # + & e e e t f Q ~ p.~ i.~ -.-.~ ~ ~ ! E E iXiXiXiXiXiXiXiXiXiXiXiXiXiXiXiXiXiXiXiX",
"iXiXiXiXiXiXiXiXiXiXiXiXiXiXiXiXiXiXiXiX# # O X X X X o o q a h h h h h h h j j k L L 7 iXiXiXiXiXiXiXiXiXiXiXiXiXiXiXiXiXiXiXiX",
"iXiXiXiXiXiXiXiXiXiXiXiXiXiXiXiXiXiX.     O O 9 0 0 0 0 0 t l n N N N N n z y f _ { ) 6 > $ iXiXiXiXiXiXiXiXiXiXiXiXiXiXiXiXiXiX",
"iXiXiXiXiXiXiXiXiXiXiXiXiXiXiXiXiXiXX X X o 0 i n B B n u u b m m M M A A A x >.+.#.' 6 > $ iXiXiXiXiXiXiXiXiXiXiXiXiXiXiXiXiXiX",
"iXiXiXiXiXiXiXiXiXiXiXiXiXiX. . . X 8 8 8 q u V v.!.!.v.n y u u i v M M M ~ a.w.7.#.' 2 = $ iXiXiXiXiXiXiXiXiXiXiXiXiXiXiXiXiXiX",
"iXiXiXiXiXiXiXiXiXiXiXiXiXiX. X X X 9 0 0 t l V v.!.!.v.u.z y r f x V u.U.d.c.y.$.{ K 1 = $ iXiXiXiXiXiXiXiXiXiXiXiXiXiXiXiXiXiX",
"iXiXiXiXiXiXiXiXiXiXiXiX. X 8 8 8 9 0 t v l a 3 k k k >.:.:.f 3 &.*.w.b.!..XL.y.} K < = % % iXiXiXiXiXiXiXiXiXiXiXiXiXiXiXiXiXiX",
"iXiXiXiXiXiXiXiXiXiXiXiXX o 9 q q 0 t v z x k 7 k k 6 K :.*.4 < K } 6.z.b.K.c.q.} ) 1 = % $ iXiXiXiXiXiXiXiXiXiXiXiXiXiXiXiXiXiX",
"iXiXiXiXiXiXiXiXiXiX. X o 9 0 p 0 t b n k >.:.y.b.b.<.' P 4 = % , 1 6 P %.=.%.{ #.{ ) 1 = % iXiXiXiXiXiXiXiXiXiXiXiXiXiXiXiXiXiX",
"iXiXiXiXiXiXiXiXiXiXX o 8 q p t u b M B >.*.x.L.XXK.M.+.4 % = > > > > < 2 K K ) ' ' H 1 > $ iXiXiXiXiXiXiXiXiXiXiXiXiXiXiXiXiXiX",
"iXiXiXiXiXiXiXiX. X O 8 9 9 t u b M C Z s.T.~.~.z.t.M.6.7 = 1 2 2 2 2 2 H K ) H 1 < > > iXiXiXiXiXiXiXiXiXiXiXiXiXiXiXiXiXiXiXiX",
"iXiXiXiXiXiXiXiX. X 8 q 0 0 t v m A Z U.Y.R.R.T.:.6.w.:.P P %.*.*.%._ _ %.*.=._ 2 < = % iXiXiXiXiXiXiXiXiXiXiXiXiXiXiXiXiXiXiXiX",
"iXiXiXiXiXiXiXiX. X 8 9 0 t v m M A C U.Y.R.R.E.s.u.c c :.c.L. X.Xb.%.%.b.L.y.q.+.) , % iXiXiXiXiXiXiXiXiXiXiXiXiXiXiXiXiXiXiXiX",
"iXiXiXiXiXiXiXiX. X 9 0 t u m A M M M C U.R.Y.Y.Z n r x w.J.OX@X@XL.>.%.L.OXJ.M.$.#.1 $ iXiXiXiXiXiXiXiXiXiXiXiXiXiXiXiXiXiXiXiX",
"iXiXiXiXiXiXiXiX. 8 0 t t t m A A m u l C U.U.Z b y & k w.H.I.I.I.z.P P z.I.H.m.$.{ < % iXiXiXiXiXiXiXiXiXiXiXiXiXiXiXiXiXiXiXiX",
"iXiXiXiXiXiXiXiX. . 9 t t v m M m v t t b M A M l y & 6 6.M.M.M.y.*.7 6 6.m.c.w.<._ , & iXiXiXiXiXiXiXiXiXiXiXiXiXiXiXiXiXiXiXiX",
"iXiXiXiXiXiXiXiX. . 8 0 t v m m v t 9 9 0 u u b M n ; 4 $.$.$.+._ 6 2 ) #.q.a.u.c a e e iXiXiXiXiXiXiXiXiXiXiXiXiXiXiXiXiXiXiXiX",
"iXiXiXiXiXiXiXiX. . 8 8 0 t v v t 9 X X 9 0 0 u C B z j ' { { ) 3 = 2 ) =.:.u.Z m b b l iXiXiXiXiXiXiXiXiXiXiXiXiXiXiXiXiXiXiXiX",
"iXiXiXiXiXiXiXiXiXiXX 8 9 0 t t 9 X . . . 8 0 u C Z V c 5 1 1 3 e r 2 >.u.u.Z U.U.U.U.Z l 0 iXiXiXiXiXiXiXiXiXiXiXiXiXiXiXiXiXiX",
"iXiXiXiXiXiXiXiXiXiX. X 8 8 0 0 . . . . . X 9 u M C C z r & $ & e r 3 k V Z U.Y.R.R.R.U.b t iXiXiXiXiXiXiXiXiXiXiXiXiXiXiXiXiXiX",
"iXiXiXiXiXiXiXiXiXiXiXiXX 8 8 9 X . . . iXiXiXiXu l u y r e iXiXiXiXr z B Z Y.R.R.R.R.U.b 0 iXiXiXiXiXiXiXiXiXiXiXiXiXiXiXiXiXiX",
"iXiXiXiXiXiXiXiXiXiXiXiX. . 8 8 X . . . iXiXiXiX0 0 t 0 0 t iXiXiXiX0 u b C Z U.U.U.Y.Z v p iXiXiXiXiXiXiXiXiXiXiXiXiXiXiXiXiXiX",
"iXiXiXiXiXiXiXiXiXiXiXiXiXiX. . iXiXiXiXiXiXiXiXiXiXiXiXiXiXiXiXiXiXiXiXy u u b b b v v iXiXiXiXiXiXiXiXiXiXiXiXiXiXiXiXiXiXiXiX",
"iXiXiXiXiXiXiXiXiXiXiXiXiXiX. . iXiXiXiXiXiXiXiXiXiXiXiXiXiXiXiXiXiXiXiX0 e t 0 0 p 0 p iXiXiXiXiXiXiXiXiXiXiXiXiXiXiXiXiXiXiXiX"
};
