/* XPM */
static char *result[] = {
/* columns rows colors chars-per-pixel */
"64 64 145 2 ",
"   c #333335",
".  c #3D3B34",
"X  c #363638",
"o  c #3B3B3C",
"O  c #423E34",
"+  c #403E3B",
"@  c #745C1F",
"#  c #47412E",
"$  c #52472C",
"%  c #544F2C",
"&  c #5A4D2B",
"*  c #56522D",
"=  c #5C562C",
"-  c #444335",
";  c #4A4732",
":  c #4E4B32",
">  c #43423E",
",  c #4B473C",
"<  c #4D483D",
"1  c #504E3B",
"2  c #5B5235",
"3  c #5C5832",
"4  c #54523A",
"5  c #635124",
"6  c #615C2E",
"7  c #715D27",
"8  c #755F28",
"9  c #605230",
"0  c #615D32",
"q  c #635F38",
"w  c #65602C",
"e  c #6A642E",
"r  c #6F692E",
"t  c #7B6426",
"y  c #74602A",
"u  c #736D2E",
"i  c #6B6630",
"p  c #666138",
"a  c #7C6634",
"s  c #726C34",
"d  c #786439",
"f  c #7A7433",
"g  c #3F3F40",
"h  c #444444",
"j  c #4D4C47",
"k  c #474748",
"l  c #4B4B4B",
"z  c #504B40",
"x  c #504F4D",
"c  c #515045",
"v  c #595744",
"b  c #5B5A4D",
"n  c #4F4F50",
"m  c #535354",
"M  c #575758",
"N  c #59595B",
"B  c #646246",
"V  c #796742",
"C  c #796843",
"Z  c #787340",
"A  c #5E5E60",
"S  c #626263",
"D  c #666668",
"F  c #6C6C6D",
"G  c #747362",
"H  c #7D7B60",
"J  c #727272",
"K  c #7D7D7D",
"L  c #806724",
"P  c #816924",
"I  c #86702B",
"U  c #8B732B",
"Y  c #837B2F",
"T  c #937A2C",
"R  c #816C37",
"E  c #846F3C",
"W  c #857E31",
"Q  c #8F7B3F",
"!  c #937B33",
"~  c #8B754C",
"^  c #907B57",
"/  c #927D59",
"(  c #9B812F",
")  c #8D8531",
"_  c #878139",
"`  c #8D8639",
"'  c #9E8430",
"]  c #938B31",
"[  c #9B9232",
"{  c #97903A",
"}  c #A08733",
"|  c #A38A34",
" . c #A88E35",
".. c #A38C3A",
"X. c #A99037",
"o. c #AD953C",
"O. c #A39A3B",
"+. c #AF983E",
"@. c #ABA23A",
"#. c #8D8746",
"$. c #8F894E",
"%. c #9A9348",
"&. c #988150",
"*. c #A39B46",
"=. c #AB9A45",
"-. c #AF9449",
";. c #A39B4B",
":. c #B09A42",
">. c #B49A4C",
",. c #B4A046",
"<. c #B5A34A",
"1. c #B5AC4B",
"2. c #B8A654",
"3. c #BDAD52",
"4. c #BEB054",
"5. c #8A886B",
"6. c #878570",
"7. c #979474",
"8. c #969379",
"9. c #B19772",
"0. c #B59B77",
"q. c #A9A364",
"w. c #ADA872",
"e. c #BDA171",
"r. c #B2AD7B",
"t. c #C2B55B",
"y. c #C4B85C",
"u. c #C3B663",
"i. c #C7BC66",
"p. c #C8BE6A",
"a. c #C5BC72",
"s. c #CBC275",
"d. c #CCC57B",
"f. c gray52",
"g. c gray57",
"h. c #BDB782",
"j. c #C4A785",
"k. c #CFB182",
"l. c #CBC280",
"z. c #CFC885",
"x. c #D0CA87",
"c. c #D1CC8B",
"v. c #D3CF92",
"b. c #D5D196",
"n. c None",
/* pixels */
"n.n.n.n.n.n.n.n.n.n.n.n.n.n.n.n.n.n.n.n.n.n.n.n.n.n.n.n.n.n.n.n.n.n.n.n.n.n.n.n.n.n.n.n.n.n.n.n.n.n.n.n.n.n.n.n.n.n.n.n.n.n.n.n.",
"n.n.n.n.n.n.n.n.n.n.n.n.n.n.n.n.n.n.n.n.n.n.n.n.n.n.n.n.n.n.n.n.n.n.n.n.n.n.n.n.n.n.n.n.n.n.n.n.n.n.n.n.n.n.n.n.n.n.n.n.n.n.n.n.",
"n.n.n.n.n.n.n.n.n.n.n.n.n.n.n.n.n.n.n.n.n.n.n.n.n.n.n.n.n.n.n.n.n.n.n.n.n.n.n.n.n.n.n.n.n.n.n.n.n.n.n.n.n.n.n.n.n.n.n.n.n.n.n.n.",
"n.n.n.n.n.n.n.n.n.n.n.n.n.n.n.n.n.n.n.n.n.n.n.n.n.n.n.n.n.n.n.n.n.n.n.n.n.n.n.n.n.n.n.n.n.n.n.n.n.n.n.n.n.n.n.n.n.n.n.n.n.n.n.n.",
"n.n.n.n.n.n.n.n.n.n.n.n.n.n.n.n.n.n.n.n.n.n.n.n.@ @ @ @ @ @ 7 7 @ @ @ 7 @ 7 @ @ @ @ n.n.n.n.n.n.n.n.n.n.n.n.n.n.n.n.n.n.n.n.n.n.",
"n.n.n.n.n.n.n.n.n.n.n.n.n.n.n.n.n.n.n.n.n.n.n.n.L L t I I U U I P t I I U I P P P t n.n.n.n.n.n.n.n.n.n.n.n.n.n.n.n.n.n.n.n.n.n.",
"n.n.n.n.n.n.n.n.n.n.n.n.n.n.n.n.n.n.n.n.@ @ @ t T ( ( ' =.<.<.;.| | =.<.<.=.| ( ( T L @ @ @ n.n.n.n.n.n.n.n.n.n.n.n.n.n.n.n.n.n.",
"n.n.n.n.n.n.n.n.n.n.n.n.n.n.n.n.n.n.n.n.L L I T | X.+.,.4.y.4.4.,.<.4.y.t.4.,.+.X.| ! I P L n.n.n.n.n.n.n.n.n.n.n.n.n.n.n.n.n.n.",
"n.n.n.n.n.n.n.n.n.n.n.n.n.n.n.n.n.n.@ P T | =.-.X.X.,.t.t.y.y.y.4.4.t.y.y.t.3.1.o.X.:.=.' T L 7 n.n.n.n.n.n.n.n.n.n.n.n.n.n.n.n.",
"n.n.n.n.n.n.n.n.n.n.n.n.n.n.n.n.n.n.P U  .>.u.t.+. .t.y.y.y.y.y.y.y.y.y.y.y.y.3.@.+.t.t.<...U L n.n.n.n.n.n.n.n.n.n.n.n.n.n.n.n.",
"n.n.n.n.n.n.n.n.n.n.n.n.n.n.n.n.@ L T ' <.t.d.a.,.+.t.y.y.y.y.y.y.y.y.y.y.y.y.3.+.>.a.d.t.<.| T L @ n.n.n.n.n.n.n.n.n.n.n.n.n.n.",
"n.n.n.n.n.n.n.n.n.n.n.n.n.n.n.n.L U  .o.t.i.z.l.,.t.y.y.y.y.y.y.y.y.y.y.t.y.s.y.<.2.l.x.p.4.,. .U L n.n.n.n.n.n.n.n.n.n.n.n.n.n.",
"n.n.n.n.n.n.n.n.n.n.n.n.n.n.@ L T X.t.t.y.p.x.x.y.y.a.z.i.y.y.y.y.y.t.t.y.y.d.d.t.u.x.x.p.t.t.:...T P @ n.n.n.n.n.n.n.n.n.n.n.n.",
"n.n.n.n.n.n.n.n.n.n.n.n.n.n.@ L T +.t.t.y.i.d.d.y.p.x.c.s.s.i.s.i.s.s.s.s.s.c.x.p.i.d.d.i.y.t.3.+.( P @ n.n.n.n.n.n.n.n.n.n.n.n.",
"n.n.n.n.n.n.n.n.n.n.n.n.n.n.@ L T +.t.y.y.y.i.i.y.p.x.b.x.x.x.x.z.z.z.z.d.c.v.x.p.u.i.i.y.y.y.3.+.( P @ n.n.n.n.n.n.n.n.n.n.n.n.",
"n.n.n.n.n.n.n.n.n.n.n.n.n.n.L U  .+.t.y.y.y.y.y.y.i.d.c.b.b.b.b.b.b.b.b.b.v.c.d.i.y.y.y.y.y.y.t.:. .U L n.n.n.n.n.n.n.n.n.n.n.n.",
"n.n.n.n.n.n.n.n.n.n.n.n.@ L T  .<.4.t.y.y.y.y.y.y.y.y.s.x.b.b.b.b.b.b.b.b.x.s.y.y.y.y.y.y.y.y.t.4.<...T L @ n.n.n.n.n.n.n.n.n.n.",
"n.n.n.n.n.n.n.n.n.n.n.n.@ L ( +.3.y.y.y.y.y.y.y.y.y.y.y.d.x.x.d.x.x.x.d.x.s.y.y.y.y.y.y.y.y.y.y.y.3.+.( P @ n.n.n.n.n.n.n.n.n.n.",
"n.n.n.n.n.n.n.n.n.n.n.n.@ L ( +.3.y.y.y.y.y.y.y.y.y.y.y.p.s.i.p.s.p.s.p.s.y.y.y.y.y.y.y.y.y.y.y.y.3.+.( L @ n.n.n.n.n.n.n.n.n.n.",
"n.n.n.n.n.n.n.n.n.n.n.n.@ L ( +.3.y.y.y.y.y.y.y.y.y.y.y.y.y.y.y.y.y.y.y.y.y.y.y.y.y.y.y.y.y.y.y.y.3.+.( L @ n.n.n.n.n.n.n.n.n.n.",
"n.n.n.n.n.n.n.n.n.n.n.n.@ P ! +.3.y.y.y.y.y.y.y.t.t.y.y.y.y.y.y.y.y.y.y.y.y.y.y.y.y.y.y.y.y.y.y.y.3.+.( t @ n.n.n.n.n.n.n.n.n.n.",
"n.n.n.n.n.n.n.n.n.n.n.n.@ P ( +.3.y.y.y.y.y.y.t.t.t.t.y.y.y.y.t.y.y.y.y.y.y.y.t.3.3.y.y.y.y.y.y.y.3.+.' P @ n.n.n.n.n.n.n.n.n.n.",
"n.n.n.n.n.n.n.n.n.n.n.n.@ P ' +.3.y.y.y.y.y.y.4.,.,.t.t.y.y.t.t.y.y.y.y.y.y.y.t.,.@.3.y.t.y.t.t.y.3.+.' P @ n.n.n.n.n.n.n.n.n.n.",
"n.n.n.n.n.n.n.n.n.n.n.n.@ L ! ..<.3.t.t.4.4.t.3.+.X.3.y.y.y.t.t.t.t.y.y.y.y.y.t.+.o.3.y.3.t.t.t.4.<...! t @ n.n.n.n.n.n.n.n.n.n.",
"n.n.n.n.n.n.n.n.n.n.n.n.@ t R Q ..,.4.4.:.,.t.3.o.+.t.t.y.y.y.t.+.,.3.y.y.y.y.3.+.+.t.,.+.+.,.t.:.%.Q R t 7 n.n.n.n.n.n.n.n.n.n.",
"n.n.n.n.n.n.n.n.n.n.n.n.8 a ~ &...+.3.3.+.+.3.3.+.+.t.t.y.y.y.t.+.+.t.y.y.y.y.3.+.+.t.t.+.+.t.t.+...&.~ a y n.n.n.n.n.n.n.n.n.n.",
"n.n.n.n.n.n.n.n.n.n.n.n.d ~ 9.e.-.+.3.3.+.+.3.3.+.+.1.y.y.y.y.@.+.+.t.y.y.y.y.3.+.+.t.t.+.+.t.t.+.-.e.9.~ d n.n.n.n.n.n.n.n.n.n.",
"n.n.n.n.n.n.n.n.n.n.n.n.C / j.k.>.+.<.<.o.o.3.3.+.o.:.t.y.y.y.t.+.+.,.y.y.y.t.,.o.o.+.,.+.+.,.,.o.>.k.j./ V n.n.n.n.n.n.n.n.n.n.",
"n.n.n.n.n.n.n.n.n.n.n.n.C / j.k.>.X.o.o. .+.t.3.+.X.o.,.t.y.y.t.+.+.3.y.y.3.@.o.X.+.t.t.+.X.o.o.X.>.k.j.&.C n.n.n.n.n.n.n.n.n.n.",
"n.n.n.n.n.n.n.n.n.n.n.n.C ^ 0.e.-. . . . .+.<.<.o. . .+.t.t.t.<.o.o.,.t.t.3.+. . .o.>.t.o. . . . .-.e.0.^ C n.n.n.n.n.n.n.n.n.n.",
"n.n.n.n.n.n.n.n.n.n.n.n.n.n.^ &... . . . . .o.o.X. . .+.t.t.+.+. . .o.,.t.t.+. . .X.o.o.X. . . . .../ / n.n.n.n.n.n.n.n.n.n.n.n.",
"n.n.n.n.n.n.n.n.n.n.n.n.n.n.C E ! } |  . . . . . . . .o.+.+.+. . . . .X.,.,.o. . . . . . . . . .! ! E R n.n.n.n.n.n.n.n.n.n.n.n.",
"n.n.n.n.n.n.n.n.n.n.n.n.n.n.n.n.P U '  . . . . . . . .X.o.o.X. . . . . .+.o. . . . . . . . .| ' U P n.n.n.n.n.n.n.n.n.n.n.n.n.n.",
"n.n.n.n.n.n.n.n.n.n.n.n.n.n.n.n.@ P T T |  . . . . . . . . . . . . . . . . . . . . . . . .| ' T L @ n.n.n.n.n.n.n.n.n.n.n.n.n.n.",
"n.n.n.n.n.n.n.n.n.n.n.n.n.n.n.n.n.n.L U '  . . . . . . . . . . . . . . . . . . . . . . . .' U L n.n.n.n.n.n.n.n.n.n.n.n.n.n.n.n.",
"n.n.n.n.n.n.n.n.n.n.n.n.n.n.n.n.n.n.5 7 T ' | | ' ' |  . . . . . . . . . . . . .' ' | | ' U 8 5 n.n.n.n.n.n.n.n.n.n.n.n.n.n.n.n.",
"n.n.n.n.n.n.n.n.n.n.n.n.n.n.= = 6 % # $ 8 I ' ' U U '  . . . . . . . . . . . .' I U ' } U 7 $ # & = = = n.n.n.n.n.n.n.n.n.n.n.n.",
"n.n.n.n.n.n.n.n.n.n.n.n.n.n.w 6 % ; O O & 8 T U 7 7 U ' | | ' '  . .' T  . .T T 7 7 U U 8 & O O p s e w n.n.n.n.n.n.n.n.n.n.n.n.",
"n.n.n.n.n.n.n.n.n.n.n.n.= w u r : . o > , 2 8 @ $ $ 7 U ' ' U U T ' U U ' T T @ $ $ 7 8 2 - X 1 $.;._ s w = n.n.n.n.n.n.n.n.n.n.",
"n.n.n.n.n.n.n.n.n.n.n.n.r u s 3 - o + k h < & & O O & 7 U U 7 7 T T 7 8 T U @ 5 O O & 9 z h X v q.p.;.` f u n.n.n.n.n.n.n.n.n.n.",
"n.n.n.n.n.n.n.n.n.n.= r ) ) 3 - + h g h h h , , > + - $ 7 7 $ $ @ 8 $ $ 7 7 $ O + > < z x k o b r.x.4.1.O.] r = n.n.n.n.n.n.n.n.",
"n.n.n.n.n.n.n.n.n.n.= r ) ) : X o h h h h h h h h g X O * & O O & & O O & & O o g h k l M n h b 7.h.d.s.,.] r = n.n.n.n.n.n.n.n.",
"n.n.n.n.n.n.n.n.n.n.= e W f ; X g h h h h h h h h h g > , , > > < < + + < , > + h k l M S S m n b H r.d.*.Y w 3 n.n.n.n.n.n.n.n.",
"n.n.n.n.n.n.n.n.n.n.= 6 i 3 - o h h h h h h k k h h h h k k k j k k k j k h h h k l m N D D N n o v w.s.%.) u w n.n.n.n.n.n.n.n.",
"n.n.n.n.n.n.n.n.n.n.n.n.; - o h h h h h h k l l k h h k l m n m x x n n k h h k l m m N D D N l o 4 %.1.@.[ ) u w = n.n.n.n.n.n.",
"n.n.n.n.n.n.n.n.n.n.n.n.  X > h h h h h k j m m k h h j m m m m M M M M l k k k n m M N D D N m h 1 f { *.%.#.Z p 2 n.n.n.n.n.n.",
"n.n.n.n.n.n.n.n.n.n.n.n.    > h h h h k l m m x k h h k x m m M M M S S M n k k m m m N D F D S m j 1 B 5.8.6.G b c n.n.n.n.n.n.",
"n.n.n.n.n.n.n.n.n.n.n.n.  X o h h h h k m m m m k k k l m M N N N A D D N n k k n m M N D F F F A n g l K g.f.J N n n.n.n.n.n.n.",
"n.n.n.n.n.n.n.n.n.n.n.n.  X o k h h h k x m m m k k x x m N S D D F F D N m k j m m M N D J F F D N g l K g.f.J N n n.n.n.n.n.n.",
"n.n.n.n.n.n.n.n.n.n.n.n.X o o h h h k l m m m l k k m M N A D F F F F D N n k k m M M A D F F F F S k l F K K J N n n.n.n.n.n.n.",
"n.n.n.n.n.n.n.n.n.n.  X o o h k h k l m m m l k k l n M S D F F F F F D N n k k m m S D F F F F F D m l l M F F N n n.n.n.n.n.n.",
"n.n.n.n.n.n.n.n.n.n.X o h h h h h k m M m m k h k l m A F F F F F F F D A M l k m N F F F F J F F D A m o g N D M x n.n.n.n.n.n.",
"n.n.n.n.n.n.n.n.  X o > h h h h h k m m m n l k l M S D F F J F J F F F F A l k m N D F J F F F F F D N g o n M n.n.n.n.n.n.n.n.",
"n.n.n.n.n.n.n.n.  X g h h h h h k l n m m m l l m A F F F F F F F F F F F S m l n M D F F F F F F F F A k g h k n.n.n.n.n.n.n.n.",
"n.n.n.n.n.n.n.n.    o k h h h k l m m m M m m m S F F F F F J F J F J F F D M m M N D F F F F F F F J D m k g X n.n.n.n.n.n.n.n.",
"n.n.n.n.n.n.n.n.  X o h > h h k m m M m M m N A D F F F F F F F F F F F F D A M M N D F F J F F F F F F A m h o n.n.n.n.n.n.n.n.",
"n.n.n.n.n.n.n.n.n.n.X X g h h k n m M m m N S D F F J F F F F F F F F F F F D S N N D F F F J F F F F F D A m k +   n.n.n.n.n.n.",
"n.n.n.n.n.n.n.n.n.n.  X o k h k n n m M M A F F F F F F F F J F F F D D F J F D A A F F F F F F J F F F F S m k o   n.n.n.n.n.n.",
"n.n.n.n.n.n.n.n.n.n.  X g k h h k l m M S D F F F J F F J F F F F D A A D F F F F D F F F F F F F F F D A m l h X   n.n.n.n.n.n.",
"n.n.n.n.n.n.n.n.n.n.  X o o g > g h n N S D F F F F J F F F F F F S N N S D D F F F F F F J F F F D S N m l h o X   n.n.n.n.n.n.",
"n.n.n.n.n.n.n.n.n.n.n.n.X X X X X o l M M A D F F F F J F F F D A N M M N N N A D F F F F F F F A M m k g o X   n.n.n.n.n.n.n.n.",
"n.n.n.n.n.n.n.n.n.n.n.n.          o k l l m A S S S S S D D D S N m m m m M m M A S S S S S S N m k h o X       n.n.n.n.n.n.n.n.",
"n.n.n.n.n.n.n.n.n.n.n.n.n.n.n.n.n.n.o o o g k n n l n m M N N N m m m M m M m m n x x n n n n k g X X X n.n.n.n.n.n.n.n.n.n.n.n.",
"n.n.n.n.n.n.n.n.n.n.n.n.n.n.n.n.n.n.      X g h h h h k m M m m m M m M m m m m k h h h h h h g X       n.n.n.n.n.n.n.n.n.n.n.n."
};
