/* XPM */
static char *result[] = {
/* columns rows colors chars-per-pixel */
"64 64 219 2 ",
"   c #323234",
".  c #3B3A32",
"X  c #363638",
"o  c #3A3A3C",
"O  c #3F312D",
"+  c #413F3A",
"@  c #403D36",
"#  c #47392A",
"$  c #745C1F",
"%  c #4A462F",
"&  c #524C2D",
"*  c #5B572C",
"=  c #57532D",
"-  c #454332",
";  c #484537",
":  c #5A5538",
">  c #534F31",
",  c #635E2D",
"<  c #645C39",
"1  c #6F5632",
"2  c #66602D",
"3  c #6A642D",
"4  c #6F692E",
"5  c #726C2E",
"6  c #7B6426",
"7  c #7B742F",
"8  c #6B6636",
"9  c #726D32",
"0  c #746E3B",
"q  c #7A6537",
"w  c #767037",
"e  c #7A7434",
"r  c #7F793A",
"t  c #3F3F41",
"y  c #434243",
"u  c #4D4B43",
"i  c #4C4C4C",
"p  c #474748",
"a  c #574D41",
"s  c #514947",
"d  c #5D5B4C",
"f  c #595646",
"g  c #4E4E50",
"h  c #535353",
"j  c #5C5953",
"k  c #5B5B5C",
"l  c #5B5554",
"z  c #5B4F52",
"x  c #645C44",
"c  c #655B45",
"v  c #6B5D52",
"b  c #6D6942",
"n  c #676449",
"m  c #7A6742",
"M  c #776848",
"N  c #7C7643",
"B  c #7C724A",
"V  c #797448",
"C  c #626153",
"Z  c #6B6858",
"A  c #7F6D50",
"S  c #716E55",
"D  c #7A775A",
"F  c #636363",
"G  c #6C6C6C",
"H  c #6E6D63",
"J  c #7A796A",
"K  c #737373",
"L  c #7D7D78",
"P  c #864E14",
"I  c #806724",
"U  c #816924",
"Y  c #86702B",
"T  c #8A742C",
"R  c #837B2F",
"E  c #937A2D",
"W  c #847D32",
"Q  c #86783D",
"!  c #926D33",
"~  c #AC712D",
"^  c #8C754E",
"/  c #857644",
"(  c #8F7952",
")  c #907B57",
"_  c #927E59",
"`  c #977E4E",
"'  c #9B812F",
"]  c #8E8531",
"[  c #8B843A",
"{  c #87803B",
"}  c #938B32",
"|  c #958E3C",
" . c #9F8637",
".. c #999132",
"X. c #9D953C",
"o. c #A18A36",
"O. c #A38C39",
"+. c #A08733",
"@. c #A29735",
"#. c #A99037",
"$. c #AD953C",
"%. c #A39B3B",
"&. c #AF983E",
"*. c #ABA23D",
"=. c #8C8644",
"-. c #938C44",
";. c #9C954B",
":. c #9B9445",
">. c #97845F",
",. c #948954",
"<. c #969054",
"1. c #A29A44",
"2. c #AB9A45",
"3. c #AA954B",
"4. c #B19B43",
"5. c #B49A4C",
"6. c #A7865F",
"7. c #B18C4F",
"8. c #ABA24E",
"9. c #AFA647",
"0. c #B4A146",
"q. c #B4A34A",
"w. c #B3AA4D",
"e. c #B9A84D",
"r. c #B7AD40",
"t. c #BBB24E",
"y. c #A8A15A",
"u. c #BAA355",
"i. c #BDAC53",
"p. c #BDA659",
"a. c #B3AC5C",
"s. c #B1A956",
"d. c #BEB054",
"f. c #BAB258",
"g. c #968A65",
"h. c #928F6F",
"j. c #A38B66",
"k. c #B8946A",
"l. c #A99775",
"z. c #B59B74",
"x. c #AAA46A",
"c. c #B3AC66",
"v. c #BCB464",
"b. c #B9A473",
"n. c #BCB576",
"m. c #AFAA76",
"M. c #C2B45A",
"N. c #C4B95C",
"B. c #C1AE5E",
"V. c #C6BC66",
"C. c #C8BD6A",
"Z. c #C4BC68",
"A. c #C3A37B",
"S. c #C7B975",
"D. c #CDB477",
"F. c #C29A66",
"G. c #CBC26A",
"H. c #C9C062",
"J. c #CDC271",
"K. c #CDC67C",
"L. c #C7C07A",
"P. c #D3C17D",
"I. c #838383",
"U. c #8C8C8C",
"Y. c #979486",
"T. c #969696",
"R. c #958E8B",
"E. c #A89382",
"W. c #AAA88B",
"Q. c #A8A697",
"!. c #B2AE89",
"~. c #B5B1B2",
"^. c #C6AA87",
"/. c #D3AD84",
"(. c #CFB182",
"). c #C3BD83",
"_. c #CDB18E",
"`. c #D8B589",
"'. c #CEBB96",
"]. c #D2BD97",
"[. c #DABE97",
"{. c #C5BDAD",
"}. c #D0BCA6",
"|. c #CCC684",
" X c #C7C187",
".X c #D2CB86",
"XX c #D8C587",
"oX c #CCC595",
"OX c #DCC694",
"+X c #D1C49B",
"@X c #DCC698",
"#X c #DDD695",
"$X c #D8D189",
"%X c #E1C69B",
"&X c #E3D19D",
"*X c #E1DB9F",
"=X c #D8CBA5",
"-X c #CCC2B5",
";X c #E4C4A1",
":X c #E5CAA4",
">X c #E8CBA6",
",X c #E8CDAA",
"<X c #E7D5A1",
"1X c #EBD3AC",
"2X c #EAD8A9",
"3X c #EEDBB3",
"4X c #ECDCBD",
"5X c #E7D3B1",
"6X c #F1DEB6",
"7X c #F5E4BA",
"8X c #F9E9BF",
"9X c #F5E5BA",
"0X c #EFE2BA",
"qX c #C3BFC0",
"wX c #FAEBC1",
"eX c #FDF0C5",
"rX c #EEE4D2",
"tX c #F3EEE4",
"yX c None",
/* pixels */
"yXyXyXyXyXyXyXyXyXyXyXyXyXyXyXyXyXyXyXyXyXyXyXyXyXyXyXyXyXyXyXyXyXyXyXyXyXyXyXyXyXyXyXyXyXyXyXyXyXyXyXyXyXyXyXyXyXyXyXyXyXyXyXyX",
"yXyXyXyXyXyXyXyXyXyXyXyXyXyXyXyXyXyXyXyXyXyXyXyXyXyXyXyXyXyXyXyXyXyXyXyXyXyXyXyXyXyXyXyXyXyXyXyXyXyXyXyXyXyXyXyXyXyXyXyXyXyXyXyX",
"yXyXyXyXyXyXyXyXyXyXyXyXyXyXyXyXyXyXyXyXyXyXyXyXyXyXyXyXyXyXyXyXyXyXyXyXyXyXyXyXyXyXyXyXyXyXyXyXyXyXyXyXyXyXyXyXyXyXyXyXyXyXyXyX",
"yXyXyXyXyXyXyXyXyXyXyXyXyXyXyXyXyXyXyXyXyXyXyXyXyXyXyXyXyXyXyXyXyXyXyXyXyXyXyXyXyXyXyXyXyXyXyXyXyXyXyXyXyXyXyXyXyXyXyXyXyXyXyXyX",
"yXyXyXyXyXyXyXyXyXyXyXyXyXyXyXyXyXyXyXyXyXyXyXyX$ $ $ $ $ $ $ $ $ $ $ $ $ $ $ $ $ $ yXyXyXyXyXyXyXyXyXyXyXyXyXyXyXyXyXyXyXyXyXyX",
"yXyXyXyXyXyXyXyXyXyXyXyXyXyXyXyXyXyXyXyXyXyXyXyXI I U U Y T T Y U U Y Y T Y U I I I yXyXyXyXyXyXyXyXyXyXyXyXyXyXyXyXyXyXyXyXyXyX",
"yXyXyXyXyXyXyXyXyXyXyXyXyXyXyXyXyXyXyXyX$ $ $ I E ' ' o.2.q.8.2.O. .2.q.8.2.O.' ' E I $ $ $ yXyXyXyXyXyXyXyXyXyXyXyXyXyXyXyXyXyX",
"yXyXyXyXyXyXyXyXyXyXyXyXyXyXyXyXyXyXyXyXI I Y E o.#.$.0.d.N.N.i.&.2.i.N.N.d.0.$.#.+.E T U I yXyXyXyXyXyXyXyXyXyXyXyXyXyXyXyXyXyX",
"yXyXyXyXyXyXyXyXyXyXyXyXyXyXyXyXyXyX$ U E o.2.2.$.$.e.d.M.N.N.e.&.&.i.N.N.M.d.e.$.$.2.2.o.E I $ yXyXyXyXyXyXyXyXyXyXyXyXyXyXyXyX",
"yXyXyXyXyXyXyXyXyXyXyXyXyXyXyXyXyXyXI T O.4.M.e.0.4.d.N.V.C.N.M.0.0.M.N.V.V.N.d.4.0.d.d.4.O.T U yXyXyXyXyXyXyXyXyXyXyXyXyXyXyXyX",
"yXyXyXyXyXyXyXyXyXyXyXyXyXyXyXyX$ I E O.e.M.M.M.d.d.M.C.K.K.V.M.i.d.M.V.K.K.C.M.i.M.M.M.M.0.O.E I $ yXyXyXyXyXyXyXyXyXyXyXyXyXyX",
"yXyXyXyXyXyXyXyXyXyXyXyXyXyXyXyXU T O.0.M.M.V.V.N.N.M.C..X.XC.N.N.N.N.C..X.XC.N.N.N.V.C.N.t.0.O.T I yXyXyXyXyXyXyXyXyXyXyXyXyXyX",
"yXyXyXyXyXyXyXyXyXyXyXyXyXyX$ I E O.q.M.M.V.K.K.C.N.N.C..X.XC.N.N.N.N.C..X.XC.M.N.V.K.K.V.M.M.q.O.E I $ yXyXyXyXyXyXyXyXyXyXyXyX",
"yXyXyXyXyXyXyXyXyXyXyXyXyXyX$ I ' &.e.N.N.C.K.|.G.V.V.V.K.K.C.M.d.d.M.C.K.K.V.V.C.G.|.K.C.N.N.e.&.' U $ yXyXyXyXyXyXyXyXyXyXyXyX",
"yXyXyXyXyXyXyXyXyXyXyXyXyXyX$ I ' &.i.N.N.N.C.G.|.K.V.N.C.V.M.M.0.0.d.N.V.C.N.V.K.|.J.C.N.N.N.i.&.' I $ yXyXyXyXyXyXyXyXyXyXyXyX",
"yXyXyXyXyXyXyXyXyXyXyXyXyXyXU T O.4.e.d.M.M.i.M.S.Z.B.M.M.M.N.e.&.&.i.N.M.M.d.M.S.Z.M.i.M.M.d.e.4.O.T I yXyXyXyXyXyXyXyXyXyXyXyX",
"yXyXyXyXyXyXyXyXyXyXyXyX$ I E O.q.e.4.0.M.M.4.&.4.5.4.0.M.M.M.M.&.&.M.M.M.M.4.&.4.5.&.0.e.M.0.4.e.0.O.E I $ yXyXyXyXyXyXyXyXyXyX",
"yXyXyXyXyXyXyXyXyXyXyXyX$ I ' &.e.M.0.&.e.e.u.u.u.e.p.i.i.i.i.q.$.$.&.M.M.e.B.B.p.u.u.u.e.M.4.4.M.e.&.' U $ yXyXyXyXyXyXyXyXyXyX",
"yXyXyXyXyXyXyXyXyXyXyXyX$ I ' &.M.M.M.e.4.u.D.%XOXOX&X$Xp.&.&.&.#.#.#.$.$.u.$X&X%XOX%XD.u.&.e.M.M.e.&.' U $ yXyXyXyXyXyXyXyXyXyX",
"yXyXyXyXyXyXyXyXyXyXyXyX$ I ' &.e.N.M.M.u.V.%X0X0X9X8X2XD.i.p.p.B.B.B.u.B.D.2X8X9X0X6X%XB.B.B.N.N.M.&.' U $ yXyXyXyXyXyXyXyXyXyX",
"yXyXyXyXyXyXyXyXyXyXyXyX$ U ' &.M.M.N.C.XX%X2X6X8X8XeX8X3X<X<X<X&X*X<X<X*X2X8XeX8X8X7X2X%XXXC.N.N.M.&.E U $ yXyXyXyXyXyXyXyXyXyX",
"yXyXyXyXyXyXyXyXyXyXyXyX$ I ' 2.0.M.M.J.&X6X3X7X8XeXeXeXeXeXeXeX8X8XeXeXeXeXeXeX8X8X7X6X6X&XC.N.M.0.&.' U $ yXyXyXyXyXyXyXyXyXyX",
"yXyXyXyXyXyXyXyXyXyXyXyX$ U ' #.$.4.d.C.&X3X9XwXeXeXeXeXeXeXeXeXeXeXeXeXeXeXeXeXeXeX8X9X6X&XC.e.&.$.#.' U $ yXyXyXyXyXyXyXyXyXyX",
"yXyXyXyXyXyXyXyXyXyXyXyX$ 6 E  .#.&.i.J.&X7XwXeXeXeXeXeXeXeXeXeXeXeXeXeXeXwX8X8XeXeXeX8X6X&XJ.M.&.#.+.E I $ yXyXyXyXyXyXyXyXyXyX",
"yXyXyXyXyXyXyXyXyXyXyXyX$ 6 Q ! +.4.u.C.&X3XwXeXeXeXeXeXeXeXeXeXeXeXeXeXeX8X6X6X8XeXeX8X7X&XJ.M.&.+.Q q 6 $ yXyXyXyXyXyXyXyXyXyX",
"yXyXyXyXyXyXyXyXyXyXyXyX$ q ^ ) O.4.M.`.<X7XwXwXeXeXeXeXeXeXeXeXeXeX8X8X9X6X1X1X8XeXeXwX6X&XD.B.4.O.,.^ q 6 yXyXyXyXyXyXyXyXyXyX",
"yXyXyXyXyXyXyXyXyXyXyXyXq ^ z.b.3.5.D.OX,X3XwXeXeXeXeXeXeXeXeXeXeXwX8X6X>X>X1X7XwXeXwX8X6X,X@XD.5.7.z.z.^ q yXyXyXyXyXyXyXyXyXyX",
"yXyXyXyXyXyXyXyXyXyXyXyXm ) ^.(.5.5.(.;X1X5X=X+X+X=X0XwXwXeXeXwX8X9X6X1X>X>X3X3X=X+X+X=X1X1X=X(.5.5.(.^.) m yXyXyXyXyXyXyXyXyXyX",
"yXyXyXyXyXyXyXyXyXyXyXyXm _ ^.(.5.5.(.%X1X].g.B B j.+X7XwXeXeXwX6X1X:X:X1X1X6X@Xg.^ B g.].1X;X`.5.5./.^._ m yXyXyXyXyXyXyXyXyXyX",
"yXyXyXyXyXyXyXyXyXyXyXyXm ) z.z.7.7.^.[.1X].g.c & 8 l.+X4XwX8X6X1X>X;X:X1X2X+Xl.< & c g.].1X[.A.7.3.z.z.) m yXyXyXyXyXyXyXyXyXyX",
"yXyXyXyXyXyXyXyXyXyXyXyXyXyX) ( / ` k./.:X5X{.U.s # < g.oX3X3X1X>X;X>X1X3X+X>.< # s Y.~.5X:X/.k.` / ( ) yXyXyXyXyXyXyXyXyXyXyXyX",
"yXyXyXyXyXyXyXyXyXyXyXyXyXyXm m m ^ k./.:X4XrX~.z O c g.+X5X,X;X;X;X1X3X0X+Xg.x O l ~.rX4X:X/.k.^ m m m yXyXyXyXyXyXyXyXyXyXyXyX",
"yXyXyXyXyXyXyXyXyXyXyXyXyXyXyXyX/ ( k./.>X4XtXqXz s R.}.,X,X;X;X;X>X6XwXwX4X-XR.s z qXtXrX;X/.k.^ m yXyXyXyXyXyXyXyXyXyXyXyXyXyX",
"yXyXyXyXyXyXyXyXyXyXyXyXyXyXyXyXm ( _ A.;X4XtX{.v c E.}.;X>X;X;X>X6XwXeXwX4X-XE.a ^ }.tX4X;XA.6.^ / yXyXyXyXyXyXyXyXyXyXyXyXyXyX",
"yXyXyXyXyXyXyXyXyXyXyXyXyXyXyXyXyXyX^ j._.>X4X[.~ P ~ ` /.;X>X1X6XwXwXeXwX&XF.~ P ! ].4X>X_._ ^ yXyXyXyXyXyXyXyXyXyXyXyXyXyXyXyX",
"yXyXyXyXyXyXyXyXyXyXyXyXyXyXyXyXyXyXa ^ l._.;X`.~ ~ ~ 7./.,X3X6XwXeXeXeXeX&X7.~ ~ 7.`.;X_.k.^ z yXyXyXyXyXyXyXyXyXyXyXyXyXyXyXyX",
"yXyXyXyXyXyXyXyXyXyXyXyXyXyX* > @ X @ : ^ _ _.;X[././.`.1X7X8X8XwXeXeXwXeX7X>XOX`.`.%X_.j.D : - X . & * yXyXyXyXyXyXyXyXyXyXyXyX",
"yXyXyXyXyXyXyXyXyXyXyXyXyXyX4 2 - X X + a ^ E./.[.;X>X1X7X8X8XwXwXwXwXwXwXwX9X6X,X;X_.z.A : o X X - * 4 yXyXyXyXyXyXyXyXyXyXyXyX",
"yXyXyXyXyXyXyXyXyXyXyXyX* 4 ] { : t t + + a ^ _ A./.;X;X3X6X6X6X6X7X6X6X6X3X>X%X`.A.g.A a + o t + : W ] 4 * yXyXyXyXyXyXyXyXyXyX",
"yXyXyXyXyXyXyXyXyXyXyXyX5 7 @.8.B d s t @ + z ^ _ k.^.^.'.].].].].].].].].].^.A.k._ / f ; o t i C D 1.9.W 4 yXyXyXyXyXyXyXyXyXyX",
"yXyXyXyXyXyXyXyXyXyX* 4 ] *.t.f.y.,.d y t y u d A ( ) _ _ g.>.>.>.>.>.>.g.>._ ( ( ^ f s y t y j l.n.V.t.%.] 4 * yXyXyXyXyXyXyXyX",
"yXyXyXyXyXyXyXyXyXyX* 4 } *.t.N.H.c.D d u p p a c n b M M M / / Q / Q / M M n M n c s y p g C h.).$XJ.N.*.} 4 * yXyXyXyXyXyXyXyX",
"yXyXyXyXyXyXyXyXyXyX* 2 R ..*.t.N.v.a.,.C g g h j j d C H H -.@.@.@.@.-.^ H k j j j h g g H l.).L.K.G.f.%.R 3 * yXyXyXyXyXyXyXyX",
"yXyXyXyXyXyXyXyXyXyX: 8 r { | %.w.f.f.y.b h h j h h k H _ h.s.r.r.r.r.8.h.L F h h h h l j D m.L.v.f.f.8.[ 5 2 * yXyXyXyXyXyXyXyX",
"yXyXyXyXyXyXyXyXyXyXf d H D 0 e [ -.| { 8 : h h h k F L !. XZ.N.N.N.M.Z.).W.h.F k h h d b Q -.;.X.| | [ 9 2 yXyXyXyXyXyXyXyXyXyX",
"yXyXyXyXyXyXyXyXyXyXg k K J Z b 0 e 7 9 2 < n S S H J h.).K.v.f.f.f.f.V.K.).h.J J S S b w W -.;.;.;.-.[ 9 2 yXyXyXyXyXyXyXyXyXyX",
"yXyXyXyXyXyXyXyXyXyXg k K L J H C < , , , 3 [ :.y.a.c.v.t.w.X.| | | | 1.w.d.a.c.x.y.:.[ 9 N c.|.|.K.v.8.[ 5 2 * yXyXyXyXyXyXyXyX",
"yXyXyXyXyXyXyXyXyXyXp g G K K F h u % = = 3 ] X.8.s.a.w.*.....} | | } ..@.*.w.f.w.8.@.] 8 S !.=X+XoXJ.f.X.R 3 * yXyXyXyXyXyXyXyX",
"yXyXyXyXyXyXyXyXyXyXo t h k k h t o . - & , 3 5 9 r [ | ] ....*.w.w.*.....} | [ r w 9 8 f Z Y.Q.Q.!.n.N.*.} 4 * yXyXyXyXyXyXyXyX",
"yXyXyXyXyXyXyXyXyXyX  o p g i p X   . % * 3 4 4 3 3 7 7 7 { ..*.w.w.*...R 7 7 5 3 2 2 , f F I.T.T.Q.m.a.1.{ 8 > yXyXyXyXyXyXyXyX",
"yXyXyXyXyXyXyXyXyXyX  o i g p y X . % * 4 R } ..7 7 3 2 2 5 R ] | | } ] 4 2 2 3 5 7 7 0 f F I.T.T.T.h.h.S n h i t   yXyXyXyXyXyX",
"yXyXyXyXyXyXyXyXyXyXX o i g y + . - * 4 { ..9.w.:.[ 7 4 3 9 =.;.;.;.;.=.9 3 3 7 =.:.} r d k I.T.T.I.I.K k g h i +   yXyXyXyXyXyX",
"yXyXyXyXyXyXyXyX  X o y g g t . % * 4 { ..w.L.K.Z.w.*.} 7 -.n.|.|.|.|.m.-.{ } 8.n.L.9.} n k K I.I.I.L G k g h i o   yXyXyXyXyXyX",
"yXyXyXyXyXyXyXyX  X y i g i o . & 2 7 } *.f.$X$Xv.8.X...} 1.K.#X*X*X#XK.:.] ..9..X$Xf.:.b C G K K G G F k k k g o X yXyXyXyXyXyX",
"yXyXyXyXyXyXyXyX  o p h h i o . > 2 7 | w.G.#X X<.w 9 7 ..*.H..X#X#X.XH.9...r =. X$XG.w.=.0 C k k k k k F F G k t   yXyXyXyXyXyX",
"yXyXyXyXyXyXyXyX  o i g g p X X % * 4 | v.K. Xx.N 2 4 7 } *.w.G.$X.XG.t.*.] 5 N x. XG.f.[ 8 f i i i p g F G G k t   yXyXyXyXyXyX",
"yXyXyXyXyXyXyXyX  o p i y X X   . % * =.n.).<.V e R } ] 7 W *.t.G.G.t.*.R 9 7 e N ,.f.a.r : u p p t t p F G G F t   yXyXyXyXyXyX",
"yXyXyXyXyXyXyXyX  o p p o         . % b x.x.N 9 [ %.w.8.{ r } X.8.8.X.[ 0 8 N N b V ;.;.w > ; t t t   t k G F h t   yXyXyXyXyXyX",
"yXyXyXyXyXyXyXyXyXyXo o yXyXyXyXyXyX. ; n N e { 8.v.K.K.c.;.r 9 w w w 0 D J J J J H V 0 yXyX. X X X   t k F i t yXyXyXyXyXyXyXyX",
"yXyXyXyXyXyXyXyXyXyX    yXyXyXyXyXyX  - > , 0 =.y.n.oXoXL.x.V < * * * x G K K K K H < * yXyX          t k h t   yXyXyXyXyXyXyXyX",
"yXyXyXyXyXyXyXyXyXyXyXyXyXyXyXyXyXyXyXyXyXyXf Z L h.Q.Q.W.Y.J H yXyXyXyXk k k k k j yXyXyXyXyXyXyXyXyXyXt t yXyXyXyXyXyXyXyXyXyX",
"yXyXyXyXyXyXyXyXyXyXyXyXyXyXyXyXyXyXyXyXyXyXh k L U.T.T.T.U.L K yXyXyXyXi g g i h i yXyXyXyXyXyXyXyXyXyX  X yXyXyXyXyXyXyXyXyXyX",
"yXyXyXyXyXyXyXyXyXyXyXyXyXyXyXyXyXyXyXyXyXyXg k I.T.T.T.T.T.I.K yXyXyXyXyXyXyXyXyXyXyXyXyXyXyXyXyXyXyXyXyXyXyXyXyXyXyXyXyXyXyXyX",
"yXyXyXyXyXyXyXyXyXyXyXyXyXyXyXyXyXyXyXyXyXyXg F I.T.T.T.T.U.L K yXyXyXyXyXyXyXyXyXyXyXyXyXyXyXyXyXyXyXyXyXyXyXyXyXyXyXyXyXyXyXyX"
};
