/* XPM */
static char *result[] = {
/* columns rows colors chars-per-pixel */
"64 64 221 2 ",
"   c #3F362E",
".  c #333335",
"X  c #373739",
"o  c #3B3B3C",
"O  c #413D36",
"+  c #473829",
"@  c #745C1F",
"#  c #574A2A",
"$  c #5C572C",
"%  c #5E592C",
"&  c #595536",
"*  c #4D4439",
"=  c #625D2C",
"-  c #715D27",
";  c #655C39",
":  c #6E5538",
">  c #66602D",
",  c #6B652D",
"<  c #6E682D",
"1  c #726C2E",
"2  c #7B752F",
"3  c #6A6538",
"4  c #726C33",
"5  c #756C3D",
"6  c #797233",
"7  c #79723A",
"8  c #3F3F40",
"9  c #434344",
"0  c #4C4C4D",
"q  c #484744",
"w  c #564B44",
"e  c #535245",
"r  c #5B5948",
"t  c #535354",
"y  c #595953",
"u  c #5B5B5C",
"i  c #5F5356",
"p  c #554F51",
"a  c #655D46",
"s  c #665E53",
"d  c #755E4F",
"f  c #696548",
"g  c #796843",
"h  c #756A4D",
"j  c #776745",
"k  c #797446",
"l  c #63615B",
"z  c #6A6858",
"x  c #716F58",
"c  c #777458",
"v  c #5E5E60",
"b  c #626262",
"n  c #6D6C64",
"m  c #666668",
"M  c #6B6B6C",
"N  c #706B63",
"B  c #757569",
"V  c #7B796B",
"C  c #737373",
"Z  c #7C7C7C",
"A  c #6F6F70",
"S  c #806724",
"D  c #816924",
"F  c #86702B",
"G  c #8A732C",
"H  c #827A2F",
"J  c #937A2C",
"K  c #857E30",
"L  c #85723F",
"P  c #807A3D",
"I  c #8E793D",
"U  c #927A33",
"Y  c #946C36",
"T  c #AF7731",
"R  c #864E14",
"E  c #8B724D",
"W  c #847743",
"Q  c #897952",
"!  c #917B57",
"~  c #927E5A",
"^  c #937653",
"/  c #A47E59",
"(  c #9B812F",
")  c #8B8333",
"_  c #89823B",
"`  c #9E8532",
"'  c #928A32",
"]  c #9C8438",
"[  c #968B3B",
"{  c #9B9332",
"}  c #9B933B",
"|  c #A28A35",
" . c #A88E35",
".. c #A38D39",
"X. c #A6893A",
"o. c #A99037",
"O. c #AD953C",
"+. c #A29A3C",
"@. c #AF983E",
"#. c #A59B34",
"$. c #B0A63F",
"%. c #968F45",
"&. c #958847",
"*. c #9C944B",
"=. c #9B9344",
"-. c #96835E",
";. c #9B8758",
":. c #9B9555",
">. c #8A8550",
",. c #AA9945",
"<. c #A59947",
"1. c #B29D43",
"2. c #B29D49",
"3. c #A69958",
"4. c #B99955",
"5. c #AB8B54",
"6. c #ACA44E",
"7. c #B4A046",
"8. c #B7AD40",
"9. c #B4A24A",
"0. c #B9A84D",
"q. c #B2A94E",
"w. c #ADA55A",
"e. c #BDAD52",
"r. c #B7A857",
"t. c #BEB054",
"y. c #BEB359",
"u. c #868369",
"i. c #978864",
"p. c #9C9568",
"a. c #888677",
"s. c #9A9775",
"d. c #A48664",
"f. c #A29066",
"g. c #AC9575",
"h. c #B99873",
"j. c #B48B68",
"k. c #B5AE63",
"l. c #B0AA68",
"z. c #BCB566",
"x. c #ABA77B",
"c. c #B9B372",
"v. c #C39556",
"b. c #C1B45D",
"n. c #C4B85C",
"m. c #C2B957",
"M. c #C29D73",
"N. c #C2AE60",
"B. c #C7BC66",
"V. c #CABE6B",
"C. c #C5B567",
"Z. c #C8A37B",
"A. c #C5BC76",
"S. c #D1BB7E",
"D. c #CDC36C",
"F. c #CCC371",
"G. c #CCC47B",
"H. c #C7C07A",
"J. c #D2C676",
"K. c #D1C878",
"L. c #848484",
"P. c #8C8C8C",
"I. c #989686",
"U. c #959595",
"Y. c #958E8B",
"T. c #AF9882",
"R. c #BFA983",
"E. c #BFBA8F",
"W. c #A6A383",
"Q. c #B5B1B2",
"!. c #C7AD8A",
"~. c #C9AA85",
"^. c #D3AC85",
"/. c #C6B78A",
"(. c #D5B389",
"). c #CCB892",
"_. c #D1BC96",
"`. c #DDBD9A",
"'. c #D8B893",
"]. c #E0BD9B",
"[. c #CDC681",
"{. c #CCC686",
"}. c #D0CA86",
"|. c #DCCA8D",
" X c #DAD089",
".X c #D7C19B",
"XX c #DDD693",
"oX c #E1C19E",
"OX c #E4CE9C",
"+X c #E3C793",
"@X c #E5D899",
"#X c #DACCA3",
"$X c #D9C6A7",
"%X c #DDD0A6",
"&X c #C7C2B1",
"*X c #D0C7BA",
"=X c #E1C3A0",
"-X c #E5CBA6",
";X c #EACEAA",
":X c #E7CDA8",
">X c #EADBA4",
",X c #ECD4AD",
"<X c #EDDDAB",
"1X c #E8D2A0",
"2X c #EDD9B2",
"3X c #EAD8B5",
"4X c #F1DDB5",
"5X c #EEE2AA",
"6X c #EDE1BE",
"7X c #F2E3B2",
"8X c #F5E4BB",
"9X c #F9EABF",
"0X c #F8E7BE",
"qX c #C3BFC0",
"wX c #FAECC1",
"eX c #F6ECCC",
"rX c #FDF0C5",
"tX c #FDF1CD",
"yX c #F2EBD6",
"uX c #FBF6E7",
"iX c None",
/* pixels */
"iXiXiXiXiXiXiXiXiXiXiXiXiXiXiXiXiXiXiXiXiXiXiXiXiXiXiXiXiXiXiXiXiXiXiXiXiXiXiXiXiXiXiXiXiXiXiXiXiXiXiXiXiXiXiXiXiXiXiXiXiXiXiXiX",
"iXiXiXiXiXiXiXiXiXiXiXiXiXiXiXiXiXiXiXiXiXiXiXiXiXiXiXiXiXiXiXiXiXiXiXiXiXiXiXiXiXiXiXiXiXiXiXiXiXiXiXiXiXiXiXiXiXiXiXiXiXiXiXiX",
"iXiXiXiXiXiXiXiXiXiXiXiXiXiXiXiXiXiXiXiXiXiXiXiXiXiXiXiXiXiXiXiXiXiXiXiXiXiXiXiXiXiXiXiXiXiXiXiXiXiXiXiXiXiXiXiXiXiXiXiXiXiXiXiX",
"iXiXiXiXiXiXiXiXiXiXiXiXiXiXiXiXiXiXiXiXiXiXiXiXiXiXiXiXiXiXiXiXiXiXiXiXiXiXiXiXiXiXiXiXiXiXiXiXiXiXiXiXiXiXiXiXiXiXiXiXiXiXiXiX",
"iXiXiXiXiXiXiXiXiXiXiXiXiXiXiXiXiXiXiXiXiXiXiXiX@ @ - @ @ @ - @ @ @ @ - @ - @ @ @ @ iXiXiXiXiXiXiXiXiXiXiXiXiXiXiXiXiXiXiXiXiXiX",
"iXiXiXiXiXiXiXiXiXiXiXiXiXiXiXiXiXiXiXiXiXiXiXiXS D D D F G G F G G G F G F D D S S iXiXiXiXiXiXiXiXiXiXiXiXiXiXiXiXiXiXiXiXiXiX",
"iXiXiXiXiXiXiXiXiXiXiXiXiXiXiXiXiXiXiXiX@ @ - D J ( ( | ,.9.6.9.6.9.6.9.9.,.| ( ` J D @ @ @ iXiXiXiXiXiXiXiXiXiXiXiXiXiXiXiXiXiX",
"iXiXiXiXiXiXiXiXiXiXiXiXiXiXiXiXiXiXiXiXD D F U ..@.@.7.t.n.e.e.e.e.e.e.e.0.1.@.O.o.U G D D iXiXiXiXiXiXiXiXiXiXiXiXiXiXiXiXiXiX",
"iXiXiXiXiXiXiXiXiXiXiXiXiXiXiXiXiXiX@ D J | ,.q.0.e.e.e.n.t.7.@.@.@.@.@.O.1.0.0.m.2.2.,.| J 1 @ iXiXiXiXiXiXiXiXiXiXiXiXiXiXiXiX",
"iXiXiXiXiXiXiXiXiXiXiXiXiXiXiXiXiXiXS G | 9.y.V.V.B.B.n.n.t.7.@.@.@.@.@.O.1.0.b.0.m.b.0.1...G D iXiXiXiXiXiXiXiXiXiXiXiXiXiXiXiX",
"iXiXiXiXiXiXiXiXiXiXiXiXiXiXiXiX@ D J ..9.N.G.}.}.G.B.n.n.b.t.e.e.e.e.e.e.0.@.@.@.@.O.@.0.9...J S @ iXiXiXiXiXiXiXiXiXiXiXiXiXiX",
"iXiXiXiXiXiXiXiXiXiXiXiXiXiXiXiXD G ..9.b.F.[.}.G.H.B.n.B.B.V.B.C.n.n.n.n.m.1.O.2.2.1.1.0.0.1...G S iXiXiXiXiXiXiXiXiXiXiXiXiXiX",
"iXiXiXiXiXiXiXiXiXiXiXiXiXiX@ S J ..7.b.G.[.F.C.r.0.y.B.G.}.}.G.B.n.n.n.n.b.b.b.V.A.y.0.1.1.0.9...J D @ iXiXiXiXiXiXiXiXiXiXiXiX",
"iXiXiXiXiXiXiXiXiXiXiXiXiXiX@ D ( @.e.B.G.G.y.0.1.7.N.V.G.[.[.A.b.t.b.n.b.m.b.b.S.[.F.C.2.1.0.0.1.| D @ iXiXiXiXiXiXiXiXiXiXiXiX",
"iXiXiXiXiXiXiXiXiXiXiXiXiXiX@ D ( @.e.n.B.C.9.1.0.b.G.[.F.C.r.2.@.1.m.n.n.m.1.9.b.F.G.G.b.0.1.1.0.,.F @ iXiXiXiXiXiXiXiXiXiXiXiX",
"iXiXiXiXiXiXiXiXiXiXiXiXiXiX@ S ` @.e.n.n.0.@.@.e.V.G.G.b.0.1.@.@.9.b.B.B.N.2.1.0.b.G.G.B.e.@.@.e.0.U S iXiXiXiXiXiXiXiXiXiXiXiX",
"iXiXiXiXiXiXiXiXiXiXiXiXiXiX- D ( @.e.n.n.0.@.@.e.B.B.b.9.1.0.e.e.C.G.}.}.G.b.0.1.1.b.B.n.e.@.@.e.0...J S @ iXiXiXiXiXiXiXiXiXiX",
"iXiXiXiXiXiXiXiXiXiXiXiXiXiX@ S U ..7.b.0.b.0.N.V.F.J.V.N.N.V.J.J.K.}.}.}.G.B.e.9.1.0.m.n.e.@.@.e.e.@.` D @ iXiXiXiXiXiXiXiXiXiX",
"iXiXiXiXiXiXiXiXiXiXiXiXiXiXiXiXL I X.@.1.4.S.+X>X5X5X5X>X>X<X5X5X@XK.V.V.B.n.n.b.0.@.7.b.0.@.@.e.e.@.( D @ iXiXiXiXiXiXiXiXiXiX",
"iXiXiXiXiXiXiXiXiXiXiXiXiXiXiXiXg W 5.2.4.C.OX8X9XrXrXrXrXrXrXrXrX<XV.e.e.e.n.n.n.0.@.@.0.b.7.1.0.9.O.( D @ iXiXiXiXiXiXiXiXiXiX",
"iXiXiXiXiXiXiXiXiXiXiXiXiXiXiXiXg ! h.(.|.-X7XwXrXrXrXrXrXrXrXrXrX>XN.@.@.7.t.n.n.0.O.@.e.n.e.0.1.@.o.( D @ iXiXiXiXiXiXiXiXiXiX",
"iXiXiXiXiXiXiXiXiXiXiXiXiXiXiXiXg >.!.-X,X4XwXwXrXrXrXrXrXrXrXrX7X Xt.@.@.1.0.t.m.b.@.@.e.n.n.e.@... .( D @ iXiXiXiXiXiXiXiXiXiX",
"iXiXiXiXiXiXiXiXiXiXiXiXiXiXiXiXg -.).3X3X4XwXwXrXrXrXrXrXrXrX5X|.V.b.e.e.0.1.1.m.t.@.@.e.n.n.e.@. . .( D @ iXiXiXiXiXiXiXiXiXiX",
"iXiXiXiXiXiXiXiXiXiXiXiXiXiXiXiXg -..X2X2X8XwXrXrXwX9X9XwXrXrX5XJ.n.n.n.n.e.@.O.8.v.1.@.0.e.m.e.7.O.o.( D @ iXiXiXiXiXiXiXiXiXiX",
"iXiXiXiXiXiXiXiXiXiXiXiXiXiXiXiXg -._.4XwXwXwXwXwXwX4X4X9XrXrX5XJ.n.n.n.n.e.@.o.O.1.0.0.1.7.e.b.m.7.O.( D @ iXiXiXiXiXiXiXiXiXiX",
"iXiXiXiXiXiXiXiXiXiXiXiXiXiXiXiXg -._.4XwXwXwXwX0X4X,X2X9XrXrX7X XJ.B.n.n.0.,.] X.X.r.e.@.@.e.n.m.b.@.( D @ iXiXiXiXiXiXiXiXiXiX",
"iXiXiXiXiXiXiXiXiXiXiXiXiXiXiXiXg i._.8XwXwXwX4X;X;X,X4X9XrXrXwX7X@XD.n.n.0.^ L L &.q.e.O.@.e.n.b.b.@.J D @ iXiXiXiXiXiXiXiXiXiX",
"iXiXiXiXiXiXiXiXiXiXiXiXiXiXiXiXg i._.2X8X8X2X;XoX]._._..X%X8XrXwX5XJ.b.r.3.;.;.i.f.3.2.@.@.e.n.b.1.@.( D @ iXiXiXiXiXiXiXiXiXiX",
"iXiXiXiXiXiXiXiXiXiXiXiXiXiXiXiXg -._.4X2X2X-X=X-X!.-.g k f.%XrXwX5XK.r.*.;.R..X$X/.f.&.| @.v.0.@.@. .( D @ iXiXiXiXiXiXiXiXiXiX",
"iXiXiXiXiXiXiXiXiXiXiXiXiXiXiXiXg -.).;X;X-X].'./.f.: * a i.#XwXrX7XK.r.f.g.).>X0X#Xi.L ` @.t.m.@. . .( D @ iXiXiXiXiXiXiXiXiXiX",
"iXiXiXiXiXiXiXiXiXiXiXiXiXiXiXiXg ~ !.=X].oXoX~.~ ; + w Y.&XeXeXrX5XJ.B./._.(.'.7X%Xi.L ` ,.m.0.@. . .( D @ iXiXiXiXiXiXiXiXiXiX",
"iXiXiXiXiXiXiXiXiXiXiXiXiXiXiXiXg ^ h.'.].oX-X).i.r + p Q.yXeXwXrX5XJ.D.>X1X^.(.<X.Xi.W ` O.0.7.@. . .( D @ iXiXiXiXiXiXiXiXiXiX",
"iXiXiXiXiXiXiXiXiXiXiXiXiXiXiXiXE ^ j.^.`.;X4X3X&XY.O s qXuXtXrXrX5XJ.J.<X,X(.^.:X.X-.L ]  .@.O. . . .( D @ iXiXiXiXiXiXiXiXiXiX",
"iXiXiXiXiXiXiXiXiXiXiXiXiXiXiXiXd ^ / ~.oX2XwX4X$XT.: d *XuXtXrXrX7X X X5X<X'.^.).R.;.I ]  . . . .| ` J D @ iXiXiXiXiXiXiXiXiXiX",
"iXiXiXiXiXiXiXiXiXiXiXiXiXiXiXiXj E j.Z.=X4X0X1Xj.Y R ^ #XtXtXrXrX9X7X5X7X,X].~.d.;.] | |  . . . .( G S iXiXiXiXiXiXiXiXiXiXiXiX",
"iXiXiXiXiXiXiXiXiXiXiXiXiXiXiXiX: E / h.`.2X8XOXv.T T v.1XwXrXrXrXwXwX8X2X:X=XZ.;.I X. . . . .| ( J S @ iXiXiXiXiXiXiXiXiXiXiXiX",
"iXiXiXiXiXiXiXiXiXiXiXiXiXiXiXiXiXiXE d.!.:X2X2X].+X+X1X8XwXrXwXrXwX8X2X:XoX`.~.5.`  . . . . .( G D iXiXiXiXiXiXiXiXiXiXiXiXiXiX",
"iXiXiXiXiXiXiXiXiXiXiXiXiXiXiXiXiXiXg ! h.(.$X1X4X4X4X8X0XwXwXwXwX8X2X-X$X`.`.Z.4.5.( ` |  .( J D @ iXiXiXiXiXiXiXiXiXiXiXiXiXiX",
"iXiXiXiXiXiXiXiXiXiXiXiXiXiXiXiXiXiXiXiX! d.Z.(.`.-X;X;X2X8X4X4X4X2X-X=X`.'.^.Z.v.4.J F ( ` G D iXiXiXiXiXiXiXiXiXiXiXiXiXiXiXiX",
"iXiXiXiXiXiXiXiXiXiXiXiXiXiXiXiXiXiXiXiXg E d.j.R.~.~.^.)._._._._.).!.~.T.h.d.d.d.^ : - J J D @ iXiXiXiXiXiXiXiXiXiXiXiXiXiXiXiX",
"iXiXiXiXiXiXiXiXiXiXiXiXiXiXiXiXiXiXiXiXiXiX^ ^ ! ~ ~ ~ -.-.i.-.i.~ ~ Q f p e w w * * # , S iXiXiXiXiXiXiXiXiXiXiXiXiXiXiXiXiXiX",
"iXiXiXiXiXiXiXiXiXiXiXiXiXiXiXiXiXiXiXiXiXiX5 7 P W j j h h h h h h h s q X o o o o X O # $ iXiXiXiXiXiXiXiXiXiXiXiXiXiXiXiXiXiX",
"iXiXiXiXiXiXiXiXiXiXiXiXiXiXiXiXiXiXiXiX$ > 2 U } _ f l z N N N N N N s t 0 0 0 0 0 9 O O   . . iXiXiXiXiXiXiXiXiXiXiXiXiXiXiXiX",
"iXiXiXiXiXiXiXiXiXiXiXiXiXiXiXiXiXiXiXiX$ = 6 ' #.} >.x M M A M M m m b u u n B B n y q o X X X iXiXiXiXiXiXiXiXiXiXiXiXiXiXiXiX",
"iXiXiXiXiXiXiXiXiXiXiXiXiXiXiXiXiXiXiXiX$ > 2 ' #.$.w.p.V A M m v v u u t n W.E.E.W.V y q 8 8 o X . . . iXiXiXiXiXiXiXiXiXiXiXiX",
"iXiXiXiXiXiXiXiXiXiXiXiXiXiXiXiXiXiXiXiX$ = 1 K { $.m.z.s.a.u.V z s r r z u.x.{./.x.V l t 0 0 9 o X X . iXiXiXiXiXiXiXiXiXiXiXiX",
"iXiXiXiXiXiXiXiXiXiXiXiXiXiXiXiXiXiXiXiX$ % = 1 K } y.F.{.E.c.w.<.) 3 f :.3.>.k k k 3 r l v t 0 9 8 O 8 X . iXiXiXiXiXiXiXiXiXiX",
"iXiXiXiXiXiXiXiXiXiXiXiXiXiXiXiXiXiXiXiX$ $ = 1 H } 6.z.H.H.k.6.} ) , 4 *.*.7 7 k k k k c z l t 0 0 q 9 o X iXiXiXiXiXiXiXiXiXiX",
"iXiXiXiXiXiXiXiXiXiXiXiXiXiXiXiXiXiXiXiX% > 1 ) { #.} } =.%.k 6 4 , = = 4 P ' +.c.c.k.:.>.k z b t 0 0 0 8 8 X . iXiXiXiXiXiXiXiX",
"iXiXiXiXiXiXiXiXiXiXiXiXiXiXiXiXiXiXiXiX$ > 1 K ' ' ) K ) 2 1 = > > > = % 4 +.y.K.}.H.l.:.>.V M v u u t 0 8 X X iXiXiXiXiXiXiXiX",
"iXiXiXiXiXiXiXiXiXiXiXiXiXiXiXiXiXiXiXiXiXiX> > < 1 2 ) K H 2 6 2 2 2 4 = 6 6.m.t.y.x.W.s.L.Z C M m u 0 0 8 8 8 X . iXiXiXiXiXiX",
"iXiXiXiXiXiXiXiXiXiXiXiXiXiXiXiXiXiXiXiXiXiX% = , 2 _ [ *.%._ _ %.*.:.%.P P :.w.6.:.I.U.U.P.L.Z A m v t 0 9 9 8 X . iXiXiXiXiXiX",
"iXiXiXiXiXiXiXiXiXiXiXiXiXiXiXiXiXiXiXiXiXiX$ , ) #.q.z.G.c.%.%.c.{.{.A.k.:.>.c u.a.U.U.U.P.L.C A M m m t 0 0 8 X . iXiXiXiXiXiX",
"iXiXiXiXiXiXiXiXiXiXiXiXiXiXiXiXiXiXiXiXiXiX$ 1 { 8.m.K. XH.%.%.H.XXXX}.F.w.z y m Z L.U.U.L.C M M M M m v t 0 9 X . iXiXiXiXiXiX",
"iXiXiXiXiXiXiXiXiXiXiXiXiXiXiXiXiXiXiXiXiXiX$ 1 { $.m.D.F.z.P P z.F.K.F.D.w.7 r r m Z L.Z C v v m A A m u t 0 9 X . iXiXiXiXiXiX",
"iXiXiXiXiXiXiXiXiXiXiXiXiXiXiXiXiXiXiXiXiXiX& 3 _ *.y.z.y.6.6 6 *.k.m.m.m.6.7 & r b M A A b 0 t v m M m v 0 t 0 X . iXiXiXiXiXiX",
"iXiXiXiXiXiXiXiXiXiXiXiXiXiXiXiXiXiXiXiXiXiXe e f x u.p.q.+.) 2 6 _ +.8.8.+.4 ; n M b u y t 8 8 t v M m u 0 0 9 X . iXiXiXiXiXiX",
"iXiXiXiXiXiXiXiXiXiXiXiXiXiXiXiXiXiXiXiXiXiXb b v M Z u.:.=.) 2 = 3 ) { { ' 4 z B C u 0 q 9 X X 9 t v b t 0 9 o X . iXiXiXiXiXiX",
"iXiXiXiXiXiXiXiXiXiXiXiXiXiXiXiXiXiXiXiXt v Z L.L.L.Z a.u.u.>.2 r & 3 1 1 5 c C Z C u 0 8 . . . o 9 t t 0 9 o X iXiXiXiXiXiXiXiX",
"iXiXiXiXiXiXiXiXiXiXiXiXiXiXiXiXiXiXiXiXt l L.U.U.P.P.L.Z V k 3 r e & $ & r n C C M u q o . . . X X 0 0 9 o X . iXiXiXiXiXiXiXiX",
"iXiXiXiXiXiXiXiXiXiXiXiXiXiXiXiXiXiXiXiX0 b L.U.U.U.U.P.Z B l r iXiXiXiXe e y u u u iXiXiXiX. . . X 8 9 o X iXiXiXiXiXiXiXiXiXiX",
"iXiXiXiXiXiXiXiXiXiXiXiXiXiXiXiXiXiXiXiX0 v Z L.P.L.L.Z A m y 0 iXiXiXiX0 t t 0 t 0 iXiXiXiX. . . . o 8 X . iXiXiXiXiXiXiXiXiXiX",
"iXiXiXiXiXiXiXiXiXiXiXiXiXiXiXiXiXiXiXiXiXiXl b b b b v y y iXiXiXiXiXiXiXiXiXiXiXiXiXiXiXiXiXiXiXiXX X iXiXiXiXiXiXiXiXiXiXiXiX",
"iXiXiXiXiXiXiXiXiXiXiXiXiXiXiXiXiXiXiXiXiXiX0 t 0 t 0 0 t t iXiXiXiXiXiXiXiXiXiXiXiXiXiXiXiXiXiXiXiX. . iXiXiXiXiXiXiXiXiXiXiXiX"
};
