/* XPM */
static char *_b40d391ec4742e6d70ee047c40608f4gFF2uBrEklK6Lq9O[] = {
/* columns rows colors chars-per-pixel */
"64 64 191 2 ",
"   c #120C17",
".  c #140D1A",
"X  c #0F1019",
"o  c #15121D",
"O  c #1A131F",
"+  c #0F0F2B",
"@  c #100E27",
"#  c #0C1225",
"$  c #0F172A",
"%  c #161223",
"&  c #1A1524",
"*  c #1D1924",
"=  c #13152C",
"-  c #1B162B",
";  c #151A2D",
":  c #1D1B2C",
">  c #151632",
",  c #1A1630",
"<  c #161B34",
"1  c #1B1B34",
"2  c #171D3A",
"3  c #1B1D39",
"4  c #231B24",
"5  c #221D2D",
"6  c #291D2F",
"7  c #221D33",
"8  c #1E2127",
"9  c #1E212E",
"0  c #1C2133",
"q  c #1C223C",
"w  c #23222F",
"e  c #29212B",
"r  c #242333",
"t  c #2A2433",
"y  c #262935",
"u  c #2A2936",
"i  c #212539",
"p  c #2C263A",
"a  c #25293D",
"s  c #2D2B3B",
"d  c #312D3D",
"f  c #2D313D",
"g  c #32313E",
"h  c #1E2641",
"j  c #202540",
"k  c #232A44",
"l  c #2E2C42",
"z  c #2F2F48",
"x  c #322D41",
"c  c #312F49",
"v  c #382F49",
"b  c #2E3143",
"n  c #27344C",
"m  c #2A334D",
"M  c #333344",
"N  c #393544",
"B  c #353947",
"V  c #393946",
"C  c #34344A",
"Z  c #3A374A",
"A  c #36394C",
"S  c #3A3B4C",
"D  c #2D3653",
"F  c #2E3A53",
"G  c #2D3A59",
"H  c #333554",
"J  c #343B53",
"K  c #3B3D54",
"L  c #353D5A",
"P  c #3A3D5A",
"I  c #3E414E",
"U  c #3C4255",
"Y  c #35415C",
"T  c #3C435C",
"R  c #3E4A5D",
"E  c #374664",
"W  c #3C4562",
"Q  c #3D4A64",
"!  c #3E4D6B",
"~  c #3D4E70",
"^  c #424354",
"/  c #414A56",
"(  c #4D4E56",
")  c #42445C",
"_  c #454A5C",
"`  c #494D5C",
"'  c #4A505F",
"]  c #444563",
"[  c #444B63",
"{  c #4A4D63",
"}  c #424D6B",
"|  c #484E6A",
" . c #465363",
".. c #4B5164",
"X. c #44516B",
"o. c #4B546C",
"O. c #4D5A6B",
"+. c #51566A",
"@. c #535B6D",
"#. c #444F70",
"$. c #445472",
"%. c #4B5574",
"&. c #4D5A74",
"*. c #4A5779",
"=. c #465B7C",
"-. c #4D5C7A",
";. c #505775",
":. c #535C74",
">. c #595D73",
",. c #535D7B",
"<. c #585D7A",
"1. c #46617E",
"2. c #4D617E",
"3. c #526077",
"4. c #5A6275",
"5. c #54637D",
"6. c #5B657C",
"7. c #55687E",
"8. c #5B697E",
"9. c #60677C",
"0. c #4C5F80",
"q. c #4E6384",
"w. c #4E6A85",
"e. c #4E668A",
"r. c #4E6B8C",
"t. c #546584",
"y. c #5A6682",
"u. c #556985",
"i. c #5B6A84",
"p. c #536689",
"a. c #5B6688",
"s. c #556B8C",
"d. c #5A6D8C",
"f. c #5A6E8C",
"g. c #5C6F8C",
"h. c #4D718A",
"j. c #55718E",
"k. c #5A718D",
"l. c #5C718C",
"z. c #5E728E",
"x. c #5B788F",
"c. c #4E6990",
"v. c #556E92",
"b. c #5A6E92",
"n. c #576E98",
"m. c #586E98",
"M. c #4F7393",
"N. c #567293",
"B. c #5B7494",
"V. c #5F7695",
"C. c #5F7796",
"Z. c #567896",
"A. c #5C7995",
"S. c #567399",
"D. c #5B7599",
"F. c #57799A",
"G. c #5C7A9B",
"H. c #616781",
"J. c #626B85",
"K. c #626D8B",
"L. c #627086",
"P. c #63738C",
"I. c #69728C",
"U. c #627594",
"Y. c #6A7392",
"T. c #637A95",
"R. c #617A97",
"E. c #6A7996",
"W. c #617699",
"Q. c #697698",
"!. c #607B98",
"~. c #627A99",
"^. c #637C9B",
"/. c #657D9A",
"(. c #667F9D",
"). c #6A7D9B",
"_. c #697F9D",
"`. c #5D7EA1",
"'. c #637DA0",
"]. c #697AA0",
"[. c #65809D",
"{. c #69809F",
"}. c #6B819E",
"|. c #72819D",
" X c #6381A0",
".X c #6C83A3",
"XX c #6F89A6",
"oX c #7185A3",
"OX c #7189A7",
"+X c #738BA9",
"@X c #7590AE",
/* pixels */
"( ^ V M u r w w u M s M u u u r r u u w w w r g d s d s s N N x r : 5 u g y : r s M s u u y u u y r 9 : : * : : : : 0 r 9 r r 9 ",
"g y : 1 1 ; = = 1 0 ; ; = = = = = = ; = ; ; = ; ; ; ; ; ; 0 a a 2 = - i i 1 - - ; = = $ $ = = ; ; ; ; 0 0 ; ; ; ; ; < < ; ; ; ; ",
"i i k H J J F n n n n F J Y Y Y T T T Q Q T L F Y Y Y T T T Q T k m T | T m D J D F J Y Y Y T T W Q Q X.X.Q Q Q Q Q Q Q Q Q Q Q ",
"J T %.y.g.g.i.u.t.t.t.d.k.z.z.d.d.z.k.z.d.z.d.s.k.k.d.d.d.d.d.z.! $.y.Y.z.y.u.g.t.d.k.z.d.d.d.d.d.z.k.z.x.d.d.z.z.g.d.d.d.g.d.g.",
"} 5.U.T./.{.{._.(./.~.^././.^.A.V.A.A.A.A.^.^.^.^.^.G.G.~.~.(..Xd.-.d._.{./.(.{.^.^.~.^.A.~.T.A.~.~.A.A.T.A.A.~.T.V.V.V.V.V.V.~.",
"t.B.)./.^.(.[.(.^.^.A.A.A.A.B.B.B.B.A.N.A.B.G.G.G.G.G.G.G.G.^..XW.=.t./.[.^.^.^.G.G.G.B.V.V.V.V.G.A.B.B.G.B.B.V.V.V.B.B.V.B.V.W.",
"d.B.^.(.^.(.(.^.G.G.G.G.G.B.B.A.B.B.N.N.G.N.G.G.A.Z.G.G.G. X^..XV.$.q.^. XG.G.G.G.G.G.B.G.V.G.G.V.B.B.B.G.B.B.B.B.B.B.V.V.V.~.V.",
"t.d.^.(.^.^.(.(.~.B.B.G.G.B.A.A.B.B.N.j.A.A.B.N.N.Z.G.G.G. X[..XB.~ 0.~.(.G.G.D.G.V.G.B.B.D.G.G.B.N.N.b.V.B.B.b.B.B.B.V.V.V.W.B.",
"t.b.W.~.G.^.(.(.~.B.N.A.B.N.N.N.N.N.s.s.N.B.N.j.N.N.A.G.G.G.^.XXU.! t.~.^.G.A.B.V.B.B.B.N.N.B.N.s.s.p.p.d.j.s.s.s.p.d.B.B.B.B.d.",
"d.B.z.V.T.(._.(.~.V.V.A.A.B.j.B.~.A.A.B.B.B.B.B.B.A.B.B.A.G.[..XU.-.g.(.[. X XG.V.A.^.A.j.j.s.s.N.B.d.s.s.d.d.k.d.s.k.B.V.W.W.V.",
"y.K.P.T.E.E.).).E.).{.).{.{.{.oX+X.X)./..X).^././.{.{.{.{.[.{.).5.*.d.oXOX+X@XXX^.~.oX.X.X{./.(..X[.~.^.^.T./.{._./././.E.)..X.X",
"J L T Q Q W Q o.%.o.W Y W W W Q ! E L L Q W } ! Q Q Q } } } X.Q k k D Y W ! $.$.! X.$.! ! ! } *.2.-.-.u.d.-.*.X.%.,.5.y.t.t.y.t.",
"# = < < < < < 3 3 < = + = > < 3 3 < > > < > > = = > < 3 q 2 = = @ = > > > < 2 2 2 3 2 > > > < 2 q q q k k q < < 3 j k k k h q h ",
"# = < < < 2 3 q q 3 2 3 3 3 3 < 1 1 , - = - = > < 3 3 3 3 3 1 1 1 , - = < 2 3 < < < < < < < > > > = = , , = = = > < < 2 2 < > < ",
"U U U T T T T [ [ [ [ [ [ W T P K C z z C J U T T T ) T T ) ) ] T P P T T T T T P T T T W T T K C l l C A C J J J P T T T T Y T ",
"L.i.7.7.y.y.u.i.i.i.i.i.i.u.i.y.:.| [ o.3.7.7.7.7.5.5.5.7.y.y.i.y.y.y.y.u.7.3.5.7.i.g.u.y.i.i.y.:.[ { >.5.3.7.7.3.7.y.i.i.t.5.y.",
")./.U.V.B.k.V.V.x.x.A.j.N.B.V.V.g.,.-.i.x.V.x.x.x.k.d.d.k.k.k.V.V.V.V.V.x.j.j.k.x.V.A.B.B.V.T.E.K.%.o.z.U.V.A.V.k.B.V.x.k.s.d.B.",
"T.[.[.^.A.B.B.A.N.Z.j.h.Z.N.N.A.z.,.%.u.B.A.A.B.j.B.B.B.k.k.j.B.A.B.A.A.B.A.N.N.A.j.h.A.A.A.~._.i.} Q s.A.A.A.B.B.B.B.B.N.N.N.N.",
"B.~.[.^.B.N.N.A.A.j.w.j.A.B.B.T.i.} W -.T.A.A.B.j.j.A.A.V.V.k.k.^.j.B.j.B.A.B.B.^.N.w.j.A.A./.E.,.L W d.^.B.A.V.B.N.j.j.B.A.B.B.",
"j.d.B.B.d.d.V.T.A.j.w.B.A.A.x.z.,.P H %.U.k.B.k.u.j.V.V.B.U.V.s.T.V.s.t.s.d.d.V.A.B.x.k.V.~.^.g.} H Q i./.j.V.B.p.s.s.p.k.^.B.B.",
"k.u.d.W.b.s.s.s.k.s.w.j.j.s.u.z.t.P P <.P.u.k.d.t.u.d.u.u.z.z.s.U.U.t.t.d.d.d.B.B.s.s.B.j.k.d.i.%.L ] K.U.j.j.d.e.p.u.t.u.B.t.p.",
"d.u.d.d.p.s.d.d.s.s.w.s.r.s.j.k.,.] ) 6.K.u.k.u.q.q.q.q.q.t.t.u.d.t.-.t.p.d.d.d.u.2.1.s.r.s.d.d.%.H ] I.T.j.r.w.q.t.u.u.u.s.p.U.",
"d.u.g.d.p.p.b.B.d.u.p.d.s.j.N.V.t.] ) <.g.k.b.d.e.q.t.u.d.d.d.k.d.q.q.p.u.d.d.u.p.e.r.B.j.j.G.G.*.H P y.T.A.N.N.r.r.b.b.s.b.b.d.",
"d.d.B.V.d.p.b.b.s.u.d.d.b.v.N.G.p.W T :.g.d.e.e.p.p.p.u.d.d.d.d.d.t.u.d.s.u.u.u.s.p.d.B.N.s.B.~.5.L P 5.{.A.N.N.b.b.b.b.s.b.b.q.",
"g.g.B.B.d.s.d.d.s.b.s.s.b.v.N.G.u.[ K o.z.p.q.q.p.u.u.u.t.t.t.t.u.q.u.d.s.p.p.p.p.p.d.d.b.N.G.^.t.P T y.{.A.j.u.d.d.b.b.s.p.e.=.",
"U.U.z.k.d.u.s.s.s.b.s.s.b.b.B.W.i.| A R i.d.p.p.p.s.d.s.u.u.u.u.d.t.p.u.u.u.u.d.p.p.u.u.u.b.^.).6.T T 5.)./.B.s.p.e.p.b.d.p.q.e.",
"E.Y.P.z.d.d.d.B.B.d.d.d.g.z.P.K.6.{ B B O.g.g.z.d.d.d.d.d.d.d.z.U.g.d.d.s.u.s.d.d.s.u.t.u.d.P.J.+.K K X.P.{.T.B.u.q.t.d.d.t.t.B.",
"J.J.i.6.7.3.3.5.y.5.7.6.6.6.4.+.` S g y B +.>.6.6.5.:.-.3.3.,.6.y.5.5.5.&.&.&.-.5.3.-.&.:.:.o.) Z d d Z +.J.i.8.3.&.&.,.,.%.&.y.",
"_ _ ) U K J A J K K K S S ^ V s e e 4 * * u N Z S A M b C C C S S C C A C M b M S A A A A Z d 5 * 4 4 5 s S S S S A A S C C C C ",
"9 9 w 5 : : : 5 5 * * * * 5 5 & O O & & O & & & & & & - - - - - & & & * * * & % % - : * * : - % .   . . % % & & * * * : : - % @ ",
"8 w s s s s d x M M N V Z Z Z N Z S ^ ^ S M b M C A K ^ K S C M s s s s s s d s s M C M N M M c l l l l s a r p s M M M M l s p ",
"I ..@.4.4.4.4.4.4.4.6.6.4.6.6.6.H.J.I.I.i.7.6.6.y.y.y.i.i.J.I.I.+.+...>.9.6.6.>.:.6.9.6.6.<.6.J.J.y.6.i.i.5.:.:.5.6.6.6.6.6.6.:.",
"[ 3.P.Y.z.z.B.U.z.z.z.k.u.d.d.g.d.u.d.N.N.j.N.N.s.j.r.r.s.N.B.U.-.} } y.P.U.W.V.V.T.U.z.B.k.B.~.^.V.V.V.G.~.^.V.k.B.A.B.W.^.~.W.",
"Y *.V./.V.B.G.G.G.G.G.A.B.V.B.B.B.B.G.G.G.G.G.F.Z.Z.M.M.S.G.^..Xd.%.-.g.V.A.~.G.G.^.^.^.V.B.b.N.B.D.D.G.G.^.G.N.N.N.S.D.V.^.V.D.",
"G ! d.G.B.N.N.N.N.G.G.V.V.V.B.d.B.V.A.N.N.B.B.D.B.N.N.N.V.^.G.^.d.%.,.g.B.V.V.V.V.G.^.(.W.V.B.B.B.B.B.B.B.N.s.s.B.B.N.D.V.S.b.n.",
"D E u.W.D.n.v.N.N.N.B.d.B.V.B.d.z.V.B.j.p.d.V.V.B.N.B.B.V.^.V.B.t.} ,.g.B.B.B.d.s.B.~.~.U.W.W.W.V.V.V.d.d.d.s.b.V.V.B.B.D.V.b.m.",
"D Y t.V.B.v.v.s.N.b.d.s.d.B.d.d.d.z.k.k.s.p.V.B.B.N.N.N.N.B.B.V.y.} ,.g.z.k.k.s.t.d.V.u.d.B.U.B.B.V.b.d.s.b.b.B.B.b.s.s.d.b.m.b.",
"L W t.B.N.v.v.v.b.d.s.d.d.d.p.t.u.u.s.k.s.u.B.B.d.s.s.v.N.N.N.V.t.Q %.i.z.B.B.d.e.p.u.t.p.b.B.d.s.u.p.u.d.d.b.d.p.p.p.p.p.s.b.b.",
"L } p.B.N.v.v.v.v.v.s.v.s.s.e.e.q.2.t.d.p.d.B.d.s.s.s.N.S.S.D.V.t.Q %.d.B.B.b.d.s.e.p.p.s.d.d.d.u.q.q.t.p.d.d.t.t.p.u.s.s.s.b.s.",
"D } u.B.v.v.v.n.v.v.v.r.r.e.q.q.q.q.p.d.s.d.N.d.d.b.N.N.N.S.S.S.p.} ,.d.B.N.v.s.v.s.s.s.p.s.d.u.t.t.t.p.s.d.d.t.p.p.d.b.b.d.b.s.",
"D $.p.b.v.v.v.v.v.v.v.e.e.q.0.q.t.t.s.b.d.s.b.b.d.b.b.b.n.n.m.W.p.#.,.g.B.N.v.s.v.b.s.u.t.t.u.t.q.q.p.d.d.d.s.t.p.p.a.d.d.b.b.d.",
"T ,.y.u.u.s.b.b.m.n.n.v.p.q.0.q.t.p.s.d.d.d.d.d.u.d.d.s.s.b.D.).t.%.,.L.U.V.B.m.b.b.B.d.p.p.p.p.p.t.t.u.d.d.d.s.p.d.d.d.d.b.b.d.",
"..9.6.7.y.u.d.d.d.d.d.d.u.t.5.2.t.s.B.j.j.k.s.u.s.s.s.u.d.d.K.I.:.o.:.i.P.T./.^.W.z.W.k.b.d.d.B.V.d.p.s.d.B.B.B.d.d.B.B.B.B.b.b.",
"g S _ ..o.:.>.5.5.:.%.&.:.:.o.X.&.i.P.i.&.o.X.X.o.&.&.:.>.+.{ ) S ^ ^ ` +.4.6.6.i.5.-.3.5.,.,.y.i.i.d.i.u.7.y.5.y.i.i.i.i.t.y.i.",
"o : r u s s l l M s u p p s l l l C U K C M l l M C Z S S N s 5 4 4 4 4 w d N B S S M M C C H K K K K ) T U K J K ) ) ) ) ) ) ) ",
"X * * : : - - : : : * 5 5 7 7 7 5 7 t t r r : 7 r r y y t t w 5 4 O O o O * : : : : - * - - 1 : - - 5 r 7 7 1 , 1 7 7 7 7 1 1 7 ",
"M S S A J J J K U U T [ [ ) ) K C d p x N Z A K K T K K U ^ ) ) ) K S A A A S A C A C S A C C C d t t d d M C C C C c c C c z C ",
"6.8.6.5.5.t.t.y.i.u.i.i.d.u.i.6.@.^ S { @.4.7.y.y.t.5.<.<.5.y.i.i.y.y.5.5.y.y.5.5.t.5.5.5.7.i.6.+.S N ` @.5.y.5.,.,.%.%.&.&.-.-.",
").).T.W.W.V.W.W.V.B.G.N.Z.G.~.E.H.{ ) 4.L.U.A.V.V.B.b.d.d.b.B.B.V.B.B.B.D.V.G.G.B.B.N.B.B.^..X|.H.) K :.P.[.^.G.V.V.B.b.b.b.B.B.",
".X.X X'.G.D.D.D.G.F.G.Z.`.G.G._.i.[ ) 5.z.A.D.D.D.B.V.V.V.V.D.S.D.N.S.S.S.D.F.F.G.F.Z.F.G.`..XoXy.K J 5.B. X`.G.G.G.G.G.D.G.`.D.",
"G.^.^.^.V.N.N.D.G.G.G.N.G.G.^.^.y.) T 5.z.V.V.B.N.B.G.G.~.^.V.N.G.D.S.S.S.N.N.S.G.N.N.N.G.`..X).,.H K y.V.G.`.D.S.S.G.G.G.G.D.V.",
"B.B.V.V.b.b.V.V.G.G.N.B.G.G.~.W.,.) [ i.U.z.W.V.N.B.V.V.V.~.V.b.(.G.B.b.b.N.N.D.B.N.N.N.N.V.^.W.%.J ) i.V.B.^.B.N.N.N.N.B.S.B.B.",
"G.N.B.U.g.b.b.B.V.V.j.A.V.B.B.W.y.] ] y.z.s.V.A.N.N.B.d.B.V.B.d.W.B.b.B.B.B.B.B.B.N.N.N.b.B.V.W.,.P ] d.V.N.G.G.N.S.N.b.b.b.s.b.",
"V.B.B.b.d.b.B.B.B.B.j.B.N.N.G.W.-.P ) a.U.s.j.B.j.s.s.p.s.b.B.B.B.d.b.b.d.d.B.B.N.v.v.N.N.B.V.B.#.H ] K.W.r.N.Z.Z.N.N.b.s.b.B.B.",
"V.B.B.b.v.n.S.N.N.N.N.D.S.S.G.V.*.P ] a.U.B.N.d.d.s.s.b.B.B.B.N.B.s.s.s.d.N.N.N.N.v.N.N.N.S.G.B.#.H ) i.~.N.N.N.v.N.N.b.b.B.S.B.",
"B.V.V.B.b.n.n.m.n.n.N.D.S.S.G.G.0.T { i.W.N.B.d.d.d.d.B.B.B.b.s.B.b.b.b.N.N.N.b.N.b.B.B.N.S.G.V.*.P ] y.W.N.D.N.v.v.S.N.b.n.S.v.",
"V.W.V.B.N.n.n.n.n.S.N.S.S.S.D.^.t.W [ i.V.j.B.d.s.s.d.d.b.B.b.s.m.b.N.B.B.B.m.n.m.m.B.B.n.S.G.W.0.T | d.G.N.D.N.N.v.v.N.n.n.v.c.",
"Q.W.W.B.N.b.n.m.n.S.S.B.B.B.G.].i.[ [ i.T.B.A.V.d.d.d.d.B.V.b.b.B.B.B.B.B.B.B.B.m.B.B.B.b.n.G.].a.[ X.d.~.B.G.D.B.v.b.B.B.S.S.N.",
").Q.U.W.V.B.V.V.V.V.V.V.V.B.Y.Y.y..._ 7.U.T.T.T.z.d.k.k.B.W.B.V.V.B.B.B.B.B.B.B.B.B.B.j.s.u.b.U.J.X.[ 7.T.~.^.A.B.d.N.B.B.V.V.V.",
"I.J.i.i.i.i.g.z.g.i.i.8.8.8.6.>..._ / o.8.J.i.7.7.7.u.7.7.y.y.y.i.y.y.i.i.i.i.d.i.z.i.7.7.5.5.<.+.) U o.i.L.i.u.7.y.i.i.y.t.t.t.",
"_ ` _ ) ) ) _ { { _ U ^ ^ _ ^ S M g N S ^ _ ) U _ { [ ) ) ) ) ) { ) ) _ _ { { { o.+..._ _ _ ) ^ Z d g ^ ` .._ ) _ { ..[ ) T ) T ",
"y s s s s s s d x s u u u s M d p t t d s u y u M C M s p s x M M s s s s s s u l M l s l l x x d t t d g s u s M C C x x d s s ",
"f N V S S S Z Z Z Z B S K A J J C p 7 p M b b C A K K S S S U ^ Z N C N A A M l M C C A K J C C x p 6 p d f b b C A C C C Z Z N ",
"..' ' ..{ { _ _ ..O.O.o.O.X.} | ) C d Z ..O.O.o.o.:.:.@.@.@.@.4.o.o.O.o.O.:.O.o.&.:.5.>.:.&.;.%.) v x S `  . .[ | o.o.X...[ [ ) "
};
